<svg width="14" height="9" viewBox="0 0 14 9" fill="none" xmlns="http://www.w3.org/2000/svg">
<path d="M13.9547 0.362954C13.9247 0.290604 13.8812 0.22591 13.8271 0.17177C13.8235 0.168243 13.82 0.167642 13.817 0.164716C13.7641 0.114705 13.7035 0.0729519 13.6353 0.0447063C13.5794 0.0217653 13.5206 0.0147107 13.4618 0.00940613C13.4441 0.00823037 13.4294 0 13.4118 0H8.70596C8.38068 0 8.11773 0.262933 8.11773 0.588236C8.11773 0.913538 8.38066 1.17647 8.70596 1.17647H11.9977L7.34126 5.85933L5.56952 3.59113C5.46718 3.45996 5.31482 3.37878 5.15013 3.36642C4.97896 3.35406 4.8213 3.4123 4.70132 3.52583L0.183749 7.80284C-0.0521409 8.02637 -0.0621212 8.3987 0.160808 8.63459C0.277291 8.75635 0.432573 8.81752 0.588457 8.81752C0.733759 8.81752 0.879034 8.76398 0.992563 8.65693L5.04013 4.82464L6.82422 7.1087C6.92835 7.24222 7.08423 7.324 7.25305 7.33398C7.42187 7.34339 7.58598 7.28105 7.70539 7.16164L12.8235 2.01408V5.29404C12.8235 5.61931 13.0865 5.88227 13.4118 5.88227C13.737 5.88227 14 5.61934 14 5.29404V0.588263V0.587661C13.9994 0.510608 13.9841 0.434731 13.9547 0.362954Z" fill="#606060"/>
</svg>
