<svg width="14" height="14" viewBox="0 0 14 14" fill="none" xmlns="http://www.w3.org/2000/svg">
<g clip-path="url(#clip0)">
<path d="M13.3632 3.18135H2.17221L4.26767 1.08585C4.51619 0.837369 4.51619 0.434424 4.26767 0.185903C4.01919 -0.0626185 3.61624 -0.0626185 3.36772 0.185903L0.185903 3.36772C-0.0626186 3.6162 -0.0626186 4.01914 0.185903 4.26766L3.36772 7.44948C3.49198 7.57374 3.65485 7.63589 3.81771 7.63589C3.98058 7.63589 4.14345 7.57374 4.26767 7.44948C4.51619 7.201 4.51619 6.79806 4.26767 6.54954L2.17221 4.45408H13.3632C13.7146 4.45408 13.9995 4.16916 13.9995 3.81771C13.9995 3.46627 13.7146 3.18135 13.3632 3.18135Z" fill="#606060"/>
<path d="M10.6318 6.55001C10.3833 6.30153 9.98034 6.30153 9.73182 6.55001C9.4833 6.79849 9.4833 7.20143 9.73182 7.44995L11.8273 9.54546H0.636364C0.284921 9.54546 0 9.83038 0 10.1818C0 10.5333 0.284921 10.8182 0.636364 10.8182H11.8273L9.73187 12.9137C9.48335 13.1622 9.48335 13.5651 9.73187 13.8136C9.85608 13.9379 10.019 14 10.1818 14C10.3447 14 10.5076 13.9378 10.6318 13.8136L13.8136 10.6318C14.0621 10.3833 14.0621 9.98035 13.8136 9.73183L10.6318 6.55001Z" fill="#606060"/>
</g>
<defs>
<clipPath id="clip0">
<rect width="14" height="14" fill="white"/>
</clipPath>
</defs>
</svg>
