<svg width="17" height="15" viewBox="0 0 17 15" fill="none" xmlns="http://www.w3.org/2000/svg">
<path d="M8.4771 1.00002C12.4931 1.00002 15.76 4.07598 15.76 7.85715C15.76 11.6383 12.4931 14.7143 8.4771 14.7143C4.46114 14.7143 1.19419 11.6383 1.19419 7.85715C1.19419 4.07598 4.46114 1.00002 8.4771 1.00002ZM8.4771 13.8572C11.9911 13.8572 14.8496 11.1657 14.8496 7.85715C14.8496 4.5486 11.9911 1.85716 8.4771 1.85716C4.96311 1.85716 2.10455 4.5486 2.10455 7.85715C2.10455 11.1657 4.96311 13.8572 8.4771 13.8572Z" fill="#606060" stroke="#606060" stroke-width="0.5"/>
<path d="M5.29068 7.42856H11.6632C11.9145 7.42856 12.1184 7.62056 12.1184 7.85713C12.1184 8.09371 11.9145 8.28571 11.6632 8.28571H5.29068C5.03942 8.28571 4.8355 8.09371 4.8355 7.85713C4.8355 7.62056 5.03942 7.42856 5.29068 7.42856Z" fill="#606060" stroke="#606060" stroke-width="0.5"/>
<path d="M8.47695 4.42856C8.72821 4.42856 8.93213 4.62056 8.93213 4.85713V10.8571C8.93213 11.0937 8.72821 11.2857 8.47695 11.2857C8.22569 11.2857 8.02177 11.0937 8.02177 10.8571V4.85713C8.02177 4.62056 8.22569 4.42856 8.47695 4.42856Z" fill="#606060" stroke="#606060" stroke-width="0.5"/>
</svg>
