<svg width="14" height="14" viewBox="0 0 14 14" fill="none" xmlns="http://www.w3.org/2000/svg">
<circle cx="7" cy="7" r="7" fill="#C4C4C4" fill-opacity="0.8"/>
<path fill-rule="evenodd" clip-rule="evenodd" d="M10.1498 4.15068L9.52041 3.61098C8.97259 3.14063 8.25061 3.14906 7.80204 3.63198L7.31655 4.1599C7.25406 4.22585 7.26105 4.32846 7.32889 4.3878C7.32889 4.3878 8.39233 5.30822 8.41494 5.328C8.48656 5.40148 8.53735 5.4971 8.54367 5.60897C8.55186 5.82782 8.379 6.02319 8.14224 6.0386C8.03104 6.04669 7.92799 6.00873 7.8557 5.9445L6.73745 4.98402C6.68295 4.93979 6.59608 4.94404 6.54415 4.99707L3.48037 8.32112C3.28255 8.52912 3.19981 8.80824 3.2423 9.08467L3.49393 10.5897C3.50739 10.6694 3.57523 10.7288 3.66146 10.7333L5.24376 10.7981C5.53155 10.8086 5.80889 10.6977 6.00704 10.4851L10.3284 5.80058C10.5631 5.54805 10.6618 5.247 10.6125 4.93257C10.5707 4.64688 10.4081 4.36877 10.1498 4.15068Z" fill="white"/>
</svg>
