<svg width="16" height="16" viewBox="0 0 16 16" fill="none" xmlns="http://www.w3.org/2000/svg">
<path fill-rule="evenodd" clip-rule="evenodd" d="M8.61675 0C9.17342 0 9.71453 0.215212 10.1025 0.58927C10.4897 0.965524 10.7035 1.48159 10.6871 2.00498C10.6887 2.12284 10.7299 2.25899 10.8045 2.37831C10.9282 2.57595 11.1233 2.71503 11.355 2.77213C11.5867 2.8263 11.8292 2.79702 12.0353 2.68209C13.0304 2.14699 14.2969 2.46761 14.8652 3.39727L15.3496 4.18711C15.362 4.20834 15.3729 4.22884 15.3822 4.25006C15.8969 5.16581 15.5533 6.31873 14.597 6.84505C14.4578 6.92044 14.3451 7.02586 14.2674 7.15323C14.1469 7.35014 14.1134 7.58438 14.1741 7.79959C14.2363 8.0192 14.3848 8.20147 14.5939 8.3142C15.0658 8.56967 15.418 9.00009 15.5587 9.49713C15.6995 9.99343 15.6225 10.5322 15.348 10.9765L14.8318 11.7861C14.2635 12.7055 12.997 13.024 12.0119 12.4881C11.8805 12.4171 11.7289 12.3783 11.5781 12.3747H11.5735C11.3488 12.3747 11.1179 12.4647 10.9499 12.6221C10.7797 12.7824 10.6864 12.9962 10.6879 13.2231C10.6825 14.2984 9.75341 15.168 8.61675 15.168H7.64259C6.50049 15.168 5.57142 14.294 5.57142 13.2187C5.56987 13.0862 5.52944 12.9486 5.45403 12.8293C5.33197 12.6287 5.13449 12.4852 4.90669 12.4281C4.68045 12.371 4.43244 12.4025 4.22874 12.5138C3.7405 12.77 3.16595 12.8322 2.64038 12.6931C2.1156 12.5533 1.66233 12.2136 1.39644 11.7634L0.910526 10.9751C0.342199 10.0469 0.680396 8.85735 1.66467 8.32152C1.94378 8.16999 2.11715 7.88743 2.11715 7.58438C2.11715 7.28133 1.94378 6.99804 1.66467 6.84651C0.679619 6.30775 0.342199 5.1153 0.909748 4.18711L1.43687 3.37238C1.99742 2.45444 3.26469 2.13089 4.25285 2.66526C4.38735 2.74065 4.53351 2.77872 4.68201 2.78018C5.16637 2.78018 5.57142 2.40393 5.5792 1.9413C5.57609 1.43108 5.78989 0.941368 6.1794 0.571702C6.57047 0.202767 7.08981 0 7.64259 0H8.61675ZM8.61675 1.09802H7.64259C7.40158 1.09802 7.17611 1.18659 7.00585 1.34617C6.83636 1.50648 6.74384 1.7195 6.7454 1.94642C6.72907 3.01662 5.8 3.8782 4.67501 3.8782C4.31426 3.87454 3.96674 3.78304 3.66508 3.61321C3.24136 3.38629 2.68781 3.5261 2.4398 3.93237L1.91345 4.7471C1.67244 5.14092 1.82016 5.66138 2.24932 5.89636C2.88606 6.24333 3.28335 6.89043 3.28335 7.58438C3.28335 8.27833 2.88606 8.9247 2.24776 9.2724C1.82094 9.50518 1.67322 10.0227 1.92045 10.4253L2.41103 11.2218C2.53232 11.4274 2.73057 11.576 2.95992 11.6368C3.1885 11.6968 3.44039 11.6712 3.65031 11.5614C3.95896 11.3908 4.31815 11.3023 4.67889 11.3023C4.85693 11.3023 5.03497 11.3235 5.20913 11.3674C5.73469 11.5006 6.19106 11.8315 6.46162 12.2758C6.63733 12.5547 6.73451 12.8805 6.73762 13.2128C6.73762 13.6886 7.14346 14.07 7.64259 14.07H8.61675C9.11355 14.07 9.51939 13.6908 9.52172 13.2231C9.51861 12.7063 9.73319 12.2151 10.1258 11.8454C10.513 11.4809 11.0541 11.262 11.5952 11.2767C11.9497 11.2847 12.291 11.3747 12.5919 11.5358C13.025 11.7693 13.5778 11.6302 13.8281 11.2276L14.3443 10.4173C14.4594 10.2306 14.4928 9.99636 14.4314 9.78042C14.3708 9.56447 14.2184 9.37708 14.0131 9.26655C13.5327 9.00595 13.1898 8.58577 13.0475 8.08215C12.9068 7.58804 12.9838 7.04855 13.2582 6.60422C13.437 6.31141 13.699 6.06472 14.0131 5.8949C14.4345 5.66285 14.5822 5.14385 14.3373 4.73978C14.3272 4.72368 14.3179 4.70684 14.3101 4.68927L13.8545 3.94555C13.6065 3.53928 13.0545 3.39947 12.6215 3.63151C12.1534 3.89211 11.5968 3.96678 11.0619 3.83428C10.5278 3.70398 10.0799 3.38556 9.80083 2.9361C9.62201 2.65501 9.52483 2.3278 9.52172 1.99473C9.52872 1.74439 9.43542 1.51966 9.26593 1.35496C9.09723 1.19098 8.8601 1.09802 8.61675 1.09802ZM8.13309 5.10513C9.58462 5.10513 10.7656 6.21779 10.7656 7.58445C10.7656 8.95112 9.58462 10.0623 8.13309 10.0623C6.68157 10.0623 5.5006 8.95112 5.5006 7.58445C5.5006 6.21779 6.68157 5.10513 8.13309 5.10513ZM8.13309 6.20315C7.32453 6.20315 6.66679 6.82316 6.66679 7.58445C6.66679 8.34575 7.32453 8.9643 8.13309 8.9643C8.94165 8.9643 9.59939 8.34575 9.59939 7.58445C9.59939 6.82316 8.94165 6.20315 8.13309 6.20315Z" fill="#606060"/>
<path d="M8.13309 6.20315C7.32453 6.20315 6.66679 6.82316 6.66679 7.58445C6.66679 8.34575 7.32453 8.9643 8.13309 8.9643C8.94165 8.9643 9.59939 8.34575 9.59939 7.58445C9.59939 6.82316 8.94165 6.20315 8.13309 6.20315Z" fill="#606060"/>
</svg>
