<svg width="13" height="11" viewBox="0 0 13 11" fill="none" xmlns="http://www.w3.org/2000/svg">
<path d="M5.04319 0.151654C5.25958 -0.0576233 5.60273 -0.0493732 5.80883 0.17063C6.01521 0.390633 6.00654 0.738787 5.79015 0.94834L1.63502 4.94992H12.4583C12.7573 4.94992 13 5.19632 13 5.49993C13 5.80353 12.7573 6.04993 12.4583 6.04993H1.65235L5.79015 10.0518C6.00681 10.2613 6.01521 10.6095 5.80883 10.8295C5.7024 10.9428 5.55967 11 5.41667 11C5.28233 11 5.148 10.9497 5.04319 10.8482L0.317416 6.27764C0.112666 6.07001 0 5.79391 0 5.49993C0 5.20595 0.112666 4.92984 0.326896 4.71287L5.04319 0.151654Z" fill="#606060"/>
</svg>
