<?xml version="1.0" standalone="no"?>
<!DOCTYPE svg PUBLIC "-//W3C//DTD SVG 20010904//EN"
 "http://www.w3.org/TR/2001/REC-SVG-20010904/DTD/svg10.dtd">
<svg version="1.0" xmlns="http://www.w3.org/2000/svg"
 width="260.000000pt" height="260.000000pt" viewBox="0 0 260.000000 260.000000"
 preserveAspectRatio="xMidYMid meet">
<metadata>
Created by potrace 1.14, written by Peter Selinger 2001-2017
</metadata>
<g transform="translate(0.000000,260.000000) scale(0.100000,-0.100000)"
fill="#000000" stroke="none">
<path d="M1417 2576 c-90 -33 -146 -107 -152 -204 -13 -215 252 -331 400 -175
40 43 57 82 63 145 13 164 -154 290 -311 234z"/>
<path d="M1063 2128 c-42 -11 -103 -73 -105 -107 -4 -74 16 -119 65 -150 74
-46 177 -13 207 65 43 110 -54 222 -167 192z"/>
<path d="M1718 1923 c-15 -17 -66 -138 -73 -172 -4 -18 -76 -206 -128 -332
-70 -170 -168 -351 -247 -456 l-47 -62 -70 97 c-282 388 -515 414 -652 75 -45
-111 -60 -193 -56 -303 7 -212 117 -378 315 -478 107 -53 194 -76 327 -86 25
-2 39 -11 61 -42 135 -186 446 -199 712 -29 139 89 228 203 275 355 33 105 26
411 -14 590 -5 25 -12 63 -16 85 -3 22 -10 58 -16 80 -6 22 -13 50 -15 63 -16
86 -106 346 -157 452 -71 149 -153 216 -199 163z"/>
<path d="M843 1675 c-43 -30 -34 -104 16 -124 45 -18 85 -2 100 40 25 72 -53
128 -116 84z"/>
</g>
</svg>
