<svg width="30" height="26" viewBox="0 0 30 26" fill="none" xmlns="http://www.w3.org/2000/svg">
<g clip-path="url(#clip0)">
<path d="M25.6697 14.5149H23.3496C23.5861 15.1623 23.7153 15.8611 23.7153 16.5893V25.3579C23.7153 25.6615 23.6624 25.953 23.5663 26.224H27.4019C28.8347 26.224 30.0003 25.0584 30.0003 23.6256V18.8455C30.0004 16.4576 28.0576 14.5149 25.6697 14.5149Z" fill="#413E3E"/>
<path d="M6.28507 16.5894C6.28507 15.8611 6.41427 15.1624 6.65075 14.515H4.33067C1.94274 14.515 0 16.4577 0 18.8456V23.6258C0 25.0585 1.16561 26.2242 2.5984 26.2242H6.43407C6.33792 25.953 6.28507 25.6616 6.28507 25.358V16.5894Z" fill="#413E3E"/>
<path d="M17.6523 12.2587H12.3482C9.96032 12.2587 8.01758 14.2014 8.01758 16.5894V25.3579C8.01758 25.8362 8.40535 26.2241 8.88371 26.2241H21.1168C21.5952 26.2241 21.983 25.8363 21.983 25.3579V16.5894C21.983 14.2014 20.0402 12.2587 17.6523 12.2587Z" fill="#413E3E"/>
<path d="M15.0002 0.775787C12.1284 0.775787 9.79199 3.11216 9.79199 5.98402C9.79199 7.93197 10.8671 9.63325 12.4549 10.5265C13.208 10.9501 14.0763 11.1922 15.0002 11.1922C15.9241 11.1922 16.7923 10.9501 17.5454 10.5265C19.1333 9.63325 20.2083 7.93191 20.2083 5.98402C20.2083 3.11222 17.872 0.775787 15.0002 0.775787Z" fill="#413E3E"/>
<path d="M5.8545 5.63022C3.70674 5.63022 1.95947 7.37749 1.95947 9.52525C1.95947 11.673 3.70674 13.4203 5.8545 13.4203C6.39931 13.4203 6.9181 13.3074 7.38937 13.1046C8.20417 12.7538 8.87601 12.1328 9.29173 11.355C9.58353 10.809 9.74953 10.1862 9.74953 9.52525C9.74953 7.37755 8.00226 5.63022 5.8545 5.63022Z" fill="#413E3E"/>
<path d="M24.146 5.63022C21.9982 5.63022 20.251 7.37749 20.251 9.52525C20.251 10.1863 20.417 10.8091 20.7088 11.355C21.1245 12.1329 21.7963 12.7538 22.6111 13.1046C23.0824 13.3074 23.6012 13.4203 24.146 13.4203C26.2938 13.4203 28.041 11.673 28.041 9.52525C28.041 7.37749 26.2938 5.63022 24.146 5.63022Z" fill="#413E3E"/>
</g>
<defs>
<clipPath id="clip0">
<rect width="30" height="26" fill="white"/>
</clipPath>
</defs>
</svg>
