<svg width="24" height="24" viewBox="0 0 24 24" fill="none" xmlns="http://www.w3.org/2000/svg">
<path d="M8.38077 22.528V18.8587C8.38077 17.9221 9.1859 17.1628 10.1791 17.1628H13.8096C14.2865 17.1628 14.744 17.3414 15.0812 17.6595C15.4184 17.9775 15.6079 18.4089 15.6079 18.8587V22.528C15.6049 22.9174 15.7668 23.2918 16.0577 23.5682C16.3486 23.8446 16.7445 24 17.1574 24H19.6343C20.7911 24.0028 21.9016 23.5714 22.7206 22.8009C23.5397 22.0305 24 20.9844 24 19.8934V9.44022C24 8.55894 23.5858 7.723 22.869 7.1576L14.443 0.811042C12.9773 -0.301726 10.8772 -0.265797 9.45523 0.896374L1.22149 7.1576C0.47083 7.70634 0.0221713 8.54476 0 9.44022V19.8827C0 22.1566 1.95459 24 4.36569 24H6.78605C7.64365 24 8.34063 23.3474 8.34684 22.5387L8.38077 22.528Z" fill="#413E3E"/>
</svg>
