<svg width="25" height="25" viewBox="0 0 25 25" fill="none" xmlns="http://www.w3.org/2000/svg">
<g clip-path="url(#clip0)">
<path d="M14.0137 0C13.6092 0 13.2812 0.32793 13.2812 0.732422V11.0352C13.2812 11.4396 13.6092 11.7676 14.0137 11.7676H24.2676C24.6721 11.7676 25 11.4396 25 11.0352C25 4.97437 20.0817 0 14.0137 0ZM14.7461 10.3027V1.49287C19.4148 1.85151 23.1525 5.60952 23.5076 10.3027H14.7461Z" fill="#7D7774"/>
<path d="M15.3707 23.3591L11.8164 13.8327V3.71094C11.8164 3.30645 11.4885 2.97852 11.084 2.97852C5.05254 2.97852 0 7.86851 0 13.9648C0 20.0156 5.00356 25 11.084 25C12.4109 25 13.7091 24.7647 14.9424 24.3007C15.3203 24.1585 15.5119 23.7374 15.3707 23.3591ZM11.084 23.5352C5.77998 23.5352 1.46484 19.2419 1.46484 13.9648C1.46484 8.95854 5.38838 4.84224 10.3516 4.4707V13.9648C10.3516 14.0522 10.3672 14.139 10.3978 14.2209L13.7332 23.1605C12.8759 23.4094 11.9879 23.5352 11.084 23.5352Z" fill="#7D7774"/>
<path d="M24.2676 13.2324H14.0136C13.7737 13.2324 13.5489 13.35 13.412 13.5472C13.2751 13.7443 13.2436 13.996 13.3275 14.2209L16.928 23.8712C17.0702 24.2522 17.4945 24.4428 17.8721 24.3007C22.1355 22.6967 25 18.5431 25 13.9648C25 13.5604 24.6721 13.2324 24.2676 13.2324ZM18.0336 22.644L15.0686 14.6924H23.5069C23.242 18.1244 21.1333 21.191 18.0336 22.644Z" fill="#7D7774"/>
</g>
<defs>
<clipPath id="clip0">
<rect width="25" height="25" fill="white"/>
</clipPath>
</defs>
</svg>
