<svg width="28" height="28" viewBox="0 0 28 28" fill="none" xmlns="http://www.w3.org/2000/svg">
<path d="M11.2167 25.3135C10.8704 26.3196 9.87821 27 8.78605 27H6.36569C3.4583 27 1 24.7633 1 21.8827V11.4402V11.4278L1.00031 11.4155C1.03041 10.1995 1.63792 9.08022 2.6232 8.35626L10.8368 2.11038C12.6168 0.666786 15.2184 0.626962 17.0461 2.01336C17.0466 2.01376 17.0471 2.01417 17.0477 2.01457L25.4706 8.35883L25.4795 8.36555L25.4883 8.37246C26.4354 9.11956 27 10.2402 27 11.4402V21.8934C27 23.2696 26.4188 24.5765 25.4058 25.5293C24.3952 26.48 23.0371 27.003 21.6335 27M11.2167 25.3135L21.6343 26M11.2167 25.3135L11.3808 25.2619V24.528V20.8587C11.3808 20.5287 11.6822 20.1628 12.1791 20.1628H15.8096C16.0396 20.1628 16.2493 20.2495 16.3951 20.387C16.5389 20.5226 16.6079 20.6937 16.6079 20.8587V24.5246M11.2167 25.3135L17.6079 24.528M21.6335 27C21.633 27 21.6324 27 21.6319 27L21.6343 26M21.6335 27H21.6343V26M21.6335 27H19.1574C18.4964 27 17.8517 26.7517 17.369 26.2932C16.8853 25.8337 16.6039 25.1985 16.6079 24.5246M21.6343 26H19.1574C18.7445 26 18.3486 25.8446 18.0577 25.5682C17.7668 25.2918 17.6049 24.9174 17.6079 24.528M16.6079 24.5246V24.528H17.6079M16.6079 24.5246C16.6079 24.5231 16.6079 24.5217 16.6079 24.5203L17.6079 24.528" stroke="black" stroke-opacity="0.44" stroke-width="2"/>
</svg>
