<svg width="26" height="26" viewBox="0 0 26 26" fill="none" xmlns="http://www.w3.org/2000/svg">
<path d="M9.38077 23.528V19.8587C9.38077 18.9221 10.1859 18.1628 11.1791 18.1628H14.8096C15.2865 18.1628 15.744 18.3414 16.0812 18.6595C16.4184 18.9775 16.6079 19.4089 16.6079 19.8587V23.528C16.6049 23.9174 16.7668 24.2918 17.0577 24.5682C17.3486 24.8446 17.7445 25 18.1574 25H20.6343C21.7911 25.0028 22.9016 24.5714 23.7206 23.8009C24.5397 23.0305 25 21.9844 25 20.8934V10.4402C25 9.55895 24.5858 8.723 23.869 8.1576L15.443 1.81104C13.9773 0.698274 11.8772 0.734203 10.4552 1.89637L2.22149 8.1576C1.47083 8.70634 1.02217 9.54476 1 10.4402V20.8827C1 23.1566 2.95459 25 5.36569 25H7.78605C8.64365 25 9.34063 24.3474 9.34684 23.5387L9.38077 23.528Z" stroke="black" stroke-opacity="0.44" stroke-width="2"/>
</svg>
