<svg width="32" height="28" viewBox="0 0 32 28" fill="none" xmlns="http://www.w3.org/2000/svg">
<path d="M27.3125 14.7753H24.1801C23.7538 14.7753 23.3411 14.8348 22.9482 14.9441C22.1734 13.3891 20.5914 12.3207 18.7684 12.3207H13.2316C11.4086 12.3207 9.82662 13.3891 9.05175 14.9441C8.65894 14.8348 8.24619 14.7753 7.81987 14.7753H4.6875C2.10281 14.7753 0 16.9219 0 19.5605V24.6722C0 26.2553 1.26169 27.5432 2.8125 27.5432H29.1875C30.7383 27.5432 32 26.2553 32 24.6722V19.5605C32 16.9219 29.8972 14.7753 27.3125 14.7753ZM8.54406 17.106V25.6292H2.8125C2.29556 25.6292 1.875 25.1999 1.875 24.6722V19.5605C1.875 17.9774 3.13669 16.6894 4.6875 16.6894H7.81987C8.07438 16.6894 8.32081 16.7247 8.55544 16.7897C8.54869 16.8944 8.54406 16.9997 8.54406 17.106ZM21.5809 25.6292H10.4191V17.1059C10.4191 15.5228 11.6807 14.2348 13.2316 14.2348H18.7684C20.3193 14.2348 21.5809 15.5228 21.5809 17.1059V25.6292ZM30.125 24.6722C30.125 25.1999 29.7044 25.6292 29.1875 25.6292H23.4559V17.1059C23.4559 16.9996 23.4513 16.8943 23.4446 16.7897C23.6792 16.7247 23.9256 16.6894 24.1801 16.6894H27.3125C28.8633 16.6894 30.125 17.9773 30.125 19.5605V24.6722Z" fill="#7D7774"/>
<path d="M6.25375 5.73788C3.95694 5.73788 2.08838 7.64537 2.08838 9.99004C2.08832 12.3347 3.95694 14.2422 6.25375 14.2422C8.55051 14.2422 10.4191 12.3347 10.4191 9.99004C10.4191 7.64537 8.55057 5.73788 6.25375 5.73788ZM6.25369 12.3281C4.99075 12.3281 3.96332 11.2793 3.96332 9.99004C3.96332 8.70079 4.99075 7.65195 6.25369 7.65195C7.51663 7.65195 8.54407 8.70079 8.54407 9.99004C8.54407 11.2793 7.51663 12.3281 6.25369 12.3281Z" fill="#7D7774"/>
<path d="M15.9999 0.456665C12.9314 0.456665 10.4351 3.00505 10.4351 6.13747C10.4351 9.2699 12.9314 11.8183 15.9999 11.8183C19.0684 11.8183 21.5648 9.2699 21.5648 6.13747C21.5648 3.00511 19.0684 0.456665 15.9999 0.456665ZM15.9999 9.90422C13.9653 9.90422 12.3101 8.21449 12.3101 6.13747C12.3101 4.06052 13.9653 2.37073 15.9999 2.37073C18.0346 2.37073 19.6898 4.06046 19.6898 6.13747C19.6898 8.21449 18.0346 9.90422 15.9999 9.90422Z" fill="#7D7774"/>
<path d="M25.7464 5.73788C23.4497 5.73788 21.5811 7.64537 21.5811 9.99004C21.5811 12.3347 23.4497 14.2422 25.7464 14.2422C28.0432 14.2422 29.9118 12.3347 29.9118 9.99004C29.9118 7.64537 28.0432 5.73788 25.7464 5.73788ZM25.7464 12.3281C24.4836 12.3281 23.4561 11.2793 23.4561 9.99004C23.4561 8.70079 24.4836 7.65195 25.7464 7.65195C27.0094 7.65195 28.0368 8.70079 28.0368 9.99004C28.0368 11.2793 27.0094 12.3281 25.7464 12.3281Z" fill="#7D7774"/>
</svg>
