<svg width="24" height="24" viewBox="0 0 24 24" fill="none" xmlns="http://www.w3.org/2000/svg">
<path d="M21.2727 16.3636C20.589 16.3636 19.9708 16.6253 19.4916 17.0425L15.7549 14.185C16.1318 13.5399 16.3636 12.7995 16.3636 12C16.3636 11.2318 16.1469 10.52 15.7969 9.89238L18.3586 8.01353C18.8428 8.45233 19.4785 8.72724 20.1818 8.72724C21.6856 8.72724 22.9091 7.5037 22.9091 5.99998C22.9091 4.49627 21.6856 3.27268 20.1818 3.27268C18.6781 3.27268 17.4546 4.49622 17.4546 5.99993C17.4546 6.40636 17.55 6.78881 17.7101 7.13567L15.1592 9.00675C14.3633 8.16719 13.2453 7.63635 12 7.63635C11.6524 7.63635 11.3185 7.68769 10.9942 7.76485L10.366 6.08901C11.3382 5.52099 12 4.47771 12 3.27273C12 1.46802 10.532 0 8.72729 0C6.92259 0 5.45456 1.46802 5.45456 3.27273C5.45456 5.07743 6.92259 6.54546 8.72729 6.54546C8.94002 6.54546 9.14697 6.52163 9.3485 6.48266L9.9763 8.15743C8.81852 8.77014 7.96439 9.87372 7.71709 11.2016L5.41524 11.0665C5.22481 9.74751 4.09817 8.72724 2.72726 8.72724C1.22354 8.72724 0 9.95078 0 11.4545C0 12.9582 1.22354 14.1818 2.72726 14.1818C3.98721 14.1818 5.0401 13.3184 5.35173 12.1553L7.6658 12.2911C7.74077 13.4015 8.21756 14.4002 8.97126 15.1297L6.94565 17.8306C6.49642 17.5983 5.99436 17.4544 5.45456 17.4544C3.64986 17.4544 2.18184 18.9225 2.18184 20.7272C2.18184 22.5319 3.64986 23.9999 5.45456 23.9999C7.25927 23.9999 8.72729 22.5319 8.72729 20.7272C8.72729 19.8554 8.37951 19.0669 7.82197 18.4798L9.85091 15.7743C10.4881 16.1387 11.215 16.3635 12 16.3635C13.2143 16.3635 14.3121 15.8631 15.1039 15.06L18.8271 17.9071C18.6523 18.2666 18.5455 18.6649 18.5455 19.0908C18.5455 20.5945 19.769 21.8181 21.2727 21.8181C22.7765 21.8181 24 20.5945 24 19.0908C24 17.5871 22.7765 16.3636 21.2727 16.3636ZM20.1818 4.36357C21.0842 4.36357 21.8182 5.09758 21.8182 5.99993C21.8182 6.90229 21.0842 7.6363 20.1818 7.6363C19.2795 7.6363 18.5455 6.90229 18.5455 5.99993C18.5455 5.09758 19.2795 4.36357 20.1818 4.36357ZM2.72726 13.0909C1.8249 13.0909 1.09089 12.3568 1.09089 11.4545C1.09089 10.5521 1.8249 9.81813 2.72726 9.81813C3.62961 9.81813 4.36362 10.5521 4.36362 11.4545C4.36362 12.3568 3.62961 13.0909 2.72726 13.0909ZM5.45456 22.909C4.25122 22.909 3.27273 21.9305 3.27273 20.7272C3.27273 19.5239 4.25122 18.5454 5.45456 18.5454C6.65791 18.5454 7.6364 19.5239 7.6364 20.7272C7.6364 21.9305 6.65785 22.909 5.45456 22.909ZM8.72729 5.45451C7.52395 5.45451 6.54546 4.47597 6.54546 3.27268C6.54546 2.06939 7.52395 1.09084 8.72729 1.09084C9.93063 1.09084 10.9091 2.06939 10.9091 3.27268C10.9091 4.47597 9.93058 5.45451 8.72729 5.45451ZM12 15.2727C10.1953 15.2727 8.72729 13.8047 8.72729 12C8.72729 10.1953 10.1953 8.72724 12 8.72724C13.8047 8.72724 15.2727 10.1953 15.2727 12C15.2727 13.8047 13.8047 15.2727 12 15.2727ZM21.2727 20.7272C20.3704 20.7272 19.6364 19.9932 19.6364 19.0908C19.6364 18.1885 20.3704 17.4545 21.2727 17.4545C22.1751 17.4545 22.9091 18.1885 22.9091 19.0908C22.9091 19.9932 22.1751 20.7272 21.2727 20.7272Z" fill="#413E3E"/>
<path d="M12 15.2727C10.1953 15.2727 8.72729 13.8047 8.72729 12C8.72729 10.1953 10.1953 8.72724 12 8.72724C13.8047 8.72724 15.2727 10.1953 15.2727 12C15.2727 13.8047 13.8047 15.2727 12 15.2727Z" fill="#413E3E"/>
<path d="M8.72729 5.45451C7.52395 5.45451 6.54546 4.47597 6.54546 3.27268C6.54546 2.06939 7.52395 1.09084 8.72729 1.09084C9.93063 1.09084 10.9091 2.06939 10.9091 3.27268C10.9091 4.47597 9.93058 5.45451 8.72729 5.45451Z" fill="#413E3E"/>
<path d="M20.1818 4.36357C21.0842 4.36357 21.8182 5.09758 21.8182 5.99993C21.8182 6.90229 21.0842 7.6363 20.1818 7.6363C19.2795 7.6363 18.5455 6.90229 18.5455 5.99993C18.5455 5.09758 19.2795 4.36357 20.1818 4.36357Z" fill="#413E3E"/>
<path d="M21.2727 20.7272C20.3704 20.7272 19.6364 19.9932 19.6364 19.0908C19.6364 18.1885 20.3704 17.4545 21.2727 17.4545C22.1751 17.4545 22.9091 18.1885 22.9091 19.0908C22.9091 19.9932 22.1751 20.7272 21.2727 20.7272Z" fill="#413E3E"/>
<path d="M5.45456 22.909C4.25122 22.909 3.27273 21.9305 3.27273 20.7272C3.27273 19.5239 4.25122 18.5454 5.45456 18.5454C6.65791 18.5454 7.6364 19.5239 7.6364 20.7272C7.6364 21.9305 6.65785 22.909 5.45456 22.909Z" fill="#413E3E"/>
<path d="M2.72726 13.0909C1.8249 13.0909 1.09089 12.3568 1.09089 11.4545C1.09089 10.5521 1.8249 9.81813 2.72726 9.81813C3.62961 9.81813 4.36362 10.5521 4.36362 11.4545C4.36362 12.3568 3.62961 13.0909 2.72726 13.0909Z" fill="#413E3E"/>
</svg>
