<svg width="41" height="41" viewBox="0 0 41 41" fill="none" xmlns="http://www.w3.org/2000/svg">
<circle cx="20.5" cy="20.5" r="20.5" fill="#464646" fill-opacity="0.8"/>
<path fill-rule="evenodd" clip-rule="evenodd" d="M28.9042 12.1556L27.061 10.575C25.4567 9.19758 23.3424 9.22229 22.0287 10.6366L20.6069 12.1826C20.4239 12.3757 20.4444 12.6762 20.643 12.85C20.643 12.85 23.7574 15.5455 23.8236 15.6034C24.0334 15.8186 24.1821 16.0987 24.2006 16.4263C24.2246 17.0672 23.7184 17.6394 23.025 17.6845C22.6993 17.7082 22.3976 17.597 22.1859 17.4089L18.911 14.5961C18.7514 14.4666 18.497 14.479 18.3449 14.6343L9.37237 24.369C8.79305 24.9782 8.55073 25.7956 8.67516 26.6051L9.41208 31.0127C9.4515 31.2462 9.65017 31.42 9.90271 31.4333L14.5366 31.6229C15.3794 31.6537 16.1916 31.3291 16.7719 30.7064L29.4273 16.9874C30.1146 16.2479 30.4038 15.3662 30.2593 14.4454C30.1368 13.6088 29.6607 12.7943 28.9042 12.1556Z" fill="white"/>
</svg>
