<svg xmlns="http://www.w3.org/2000/svg" xmlns:xlink="http://www.w3.org/1999/xlink" viewBox="0 0 1920 1080"><defs><style>.cls-1{isolation:isolate;}.cls-2{fill:url(#Degradado_sin_nombre_81);}.cls-11,.cls-12,.cls-13,.cls-3,.cls-4,.cls-5{mix-blend-mode:screen;}.cls-3{fill:url(#Безымянный_градиент_2);}.cls-13,.cls-4,.cls-5{opacity:0.5;}.cls-4{fill:url(#linear-gradient);}.cls-5{fill:url(#linear-gradient-2);}.cls-6{fill:url(#Degradado_sin_nombre_79);}.cls-7{fill:url(#Degradado_sin_nombre_78);}.cls-10,.cls-8,.cls-9{mix-blend-mode:overlay;}.cls-8{fill:url(#linear-gradient-3);}.cls-9{fill:url(#linear-gradient-4);}.cls-10{fill:url(#linear-gradient-5);}.cls-11{fill:url(#Безымянный_градиент_2-2);}.cls-12{opacity:0.53;fill:url(#Безымянный_градиент_2-3);}.cls-13{fill:url(#linear-gradient-6);}</style><radialGradient id="Degradado_sin_nombre_81" cx="788.64" cy="316.9" r="1103" gradientUnits="userSpaceOnUse"><stop offset="0" stop-color="#310069"/><stop offset="1" stop-color="#1d0037"/></radialGradient><linearGradient id="Безымянный_градиент_2" y1="911.19" x2="335.85" y2="911.19" gradientUnits="userSpaceOnUse"><stop offset="0" stop-color="#212e59"/><stop offset="1" stop-color="#2c55a1"/></linearGradient><linearGradient id="linear-gradient" y1="914.88" x2="537.71" y2="914.88" gradientUnits="userSpaceOnUse"><stop offset="0" stop-color="#213b7e"/><stop offset="0.97" stop-color="#83cff1" stop-opacity="0"/></linearGradient><linearGradient id="linear-gradient-2" x1="118.58" y1="908.41" x2="973.46" y2="908.41" xlink:href="#linear-gradient"/><linearGradient id="Degradado_sin_nombre_79" x1="1565.05" y1="736.48" x2="1834" y2="1139.49" gradientUnits="userSpaceOnUse"><stop offset="0" stop-color="#ffc238" stop-opacity="0"/><stop offset="1" stop-color="#ffc439"/></linearGradient><linearGradient id="Degradado_sin_nombre_78" x1="1172.69" y1="914.83" x2="1920" y2="914.83" gradientUnits="userSpaceOnUse"><stop offset="0" stop-color="#ff4727"/><stop offset="1" stop-color="#ff8839"/></linearGradient><linearGradient id="linear-gradient-3" x1="-218.19" y1="806.98" x2="534.87" y2="-270.94" gradientUnits="userSpaceOnUse"><stop offset="0" stop-color="#ffed25"/><stop offset="0.04" stop-color="#fae139"/><stop offset="0.09" stop-color="#f4d154"/><stop offset="0.15" stop-color="#f0c567"/><stop offset="0.21" stop-color="#edbe72"/><stop offset="0.28" stop-color="#ecbc76"/><stop offset="0.47" stop-color="#db9188"/><stop offset="0.75" stop-color="#cf698b"/><stop offset="1" stop-color="#c02484"/></linearGradient><linearGradient id="linear-gradient-4" x1="-188.51" y1="715.89" x2="457.36" y2="-208.6" xlink:href="#linear-gradient-3"/><linearGradient id="linear-gradient-5" x1="87.38" y1="440.67" x2="367.27" y2="-314.03" xlink:href="#linear-gradient-3"/><linearGradient id="Безымянный_градиент_2-2" x1="1614.44" y1="134.36" x2="1920" y2="134.36" xlink:href="#Безымянный_градиент_2"/><linearGradient id="Безымянный_градиент_2-3" x1="1251.83" y1="120.95" x2="1920" y2="120.95" xlink:href="#Безымянный_градиент_2"/><linearGradient id="linear-gradient-6" x1="1089.35" y1="156.6" x2="1877.66" y2="156.6" xlink:href="#linear-gradient"/></defs><title>Asset 4</title><g class="cls-1"><g id="Layer_2" data-name="Layer 2"><g id="Layer_3" data-name="Layer 3"><rect class="cls-2" width="1920" height="1080"/></g><g id="Layer_2-2" data-name="Layer 2"><path class="cls-3" d="M288.68,1080H0V772.36a88.58,88.58,0,0,0,14.14-1.13,88.08,88.08,0,0,0,23.17-7.14A206.35,206.35,0,0,1,288.68,1080Z"/></g><g id="Layer_12" data-name="Layer 12"><path class="cls-4" d="M537.71,1080H90.15c-9.08-12.13-16.92-25.08-27.5-37.32-5.92-6.83-13.17-12.82-21.78-15.59-11.39-3.66-26.19,0-40.87,6.35V749.76c5.09,6.91,9.72,14.08,14.14,21.47C23,786,30.89,801.54,39.82,817.49c18.43,32.89,47.12,62.21,85.62,38A150.31,150.31,0,0,1,145.29,845a152.08,152.08,0,0,1,211.8,117.39,58.33,58.33,0,0,0,70.78,48.43A91.55,91.55,0,0,1,537.71,1080Z"/></g><g id="Layer_13" data-name="Layer 13"><path class="cls-5" d="M973.46,1080H165.2A210.88,210.88,0,0,1,456.58,779.47c36.8,27.81,52.6,64.33,74.28,103,18.43,32.88,47.12,62.21,85.62,38a152.18,152.18,0,0,1,231.65,106.87,58.33,58.33,0,0,0,70.78,48.43A91.54,91.54,0,0,1,973.46,1080Z"/></g><g id="Layer_4" data-name="Layer 4"><path class="cls-6" d="M1920,625.85V1080H1365.52a143.71,143.71,0,0,1,21.6-63.76q3.33-5.22,7.11-10.12a145,145,0,0,1,87.63-53.68c32.05-5.88,65-.67,97.57-.74a205.66,205.66,0,0,0,22.37-1.2c25.49-2.82,50.39-11.1,67.36-29.73,11.94-13.11,18.36-29.46,21.73-46.93,3.2-16.55,3.67-34.11,3.51-50.9-.33-34.51-1.45-71.49,17.28-100.48,17.56-27.19,49.29-41.72,80.53-50.16s63.92-12.32,93.66-25.08A127.71,127.71,0,0,0,1920,625.85Z"/></g><g id="Layer_14" data-name="Layer 14"><path class="cls-7" d="M1920,749.66V1080H1172.69a66.58,66.58,0,0,1,5.47-17.15c16-33.63,55.52-55.64,96.53-62.88,40.24-7.87,79.92-1.63,119.54,6.15,31.75,6.22,63.46,13.43,95.41,15.15,30.78.74,63.42-6.55,84.45-26.13,13.22-12.32,20.83-28.32,27.71-44.64,10.55-25,19.38-50.76,44.12-65.06,13.39-7.75,28.85-10.53,45-11.6s33-.41,49.12-1.28C1818.21,870,1894.27,819.88,1920,749.66Z"/></g><g id="Layer_1-2" data-name="Layer 1"><path class="cls-8" d="M686.62,0a85,85,0,0,1-4.88,11.82A93.81,93.81,0,0,1,667,33.13c-4.56,4.9-9.81,9.1-14.49,13.89-14.3,14.59-28.63,27-47,36.19-16.85,8.48-34.91,14.34-53.28,18.41-1.3.29-2.61.57-3.91.84q-3.63.75-7.28,1.41c-45.75,8.31-92.91,7.95-138.05,19.18-4,1-8,2.1-12,3.33C350.1,139,311.15,164.2,295,203.85c-26.64,65.27,15,149.82-26.61,206.45-23.24,31.6-65.92,42.42-104.74,39.92S87.55,434.3,49.35,426.84A235.89,235.89,0,0,0,0,422.06V0Z"/></g><g id="Layer_8" data-name="Layer 8"><path class="cls-9" d="M552.26,101.62a89,89,0,0,1-6.11,7.79c-21.16,24.12-56.1,37.45-89.55,33.85-22.57-2.43-43.5-11.89-65.54-16.88q-3.88-.88-7.83-1.56c-41.78-7.06-85.69,7.36-118.12,32.61s-54.4,60.35-69.12,97c-12.45,31-20.75,64.61-43.6,90.13-21.27,23.76-53.46,37.89-86.5,42.65-21.81,3.15-44,2.49-65.89-.53V0H553.48a96.69,96.69,0,0,1,10.59,21.63C573.11,48.16,568.54,78.29,552.26,101.62Z"/></g><g id="Layer_9" data-name="Layer 9"><path class="cls-10" d="M501.62,0a34.46,34.46,0,0,0-2,4.23c-8.18,18.43-23.66,32.67-41.09,42.31A129.77,129.77,0,0,1,426.41,59c-33.92,8.25-69.39,5.26-104.3,4.85a691.27,691.27,0,0,0-125.22,10c-25.15,4.32-51.63,10.89-69.22,29.38-16.1,16.91-22,41.19-23.33,64.5s1.25,46.76-.8,70c-3.94,44.63-26.38,88.2-63.11,113.84A128.65,128.65,0,0,1,0,370.22V0Z"/></g><g id="Layer_6" data-name="Layer 6"><path class="cls-11" d="M1920,0V234.44a74.08,74.08,0,0,0-23.41,2.71,75.14,75.14,0,0,0-16.43,6.79,175.4,175.4,0,0,1-56.78,21.58c-1.42.27-2.83.53-4.24.77A175.75,175.75,0,0,1,1623.28,148a177.77,177.77,0,0,1-5.64-21.78A175,175,0,0,1,1641.1,0Z"/></g><g id="Layer_10" data-name="Layer 10"><path class="cls-12" d="M1920,0V241.91a203.6,203.6,0,0,1-23.41-4.76,208.32,208.32,0,0,1-38.89-14.56q-1.44-.71-2.85-1.44c-39-20.16-60.71-51.84-88.23-84.48-24-28.41-57.19-51.46-89.95-20.84A150.05,150.05,0,0,1,1623.28,148a149.51,149.51,0,0,1-115.3-7.15,149.48,149.48,0,0,1-75.45-85.36A57.52,57.52,0,0,0,1355,21.75a90.09,90.09,0,0,1-76.3-1.59A90,90,0,0,1,1251.83,0Z"/></g><g id="Layer_11" data-name="Layer 11"><path class="cls-13" d="M1854.85,221.15q-2.74,4.93-5.86,9.77a179.36,179.36,0,0,1-248.22,53.6c-33-21.28-48.74-51.3-69.61-82.78-17.73-26.77-43.94-49.85-75.1-26.84a129.58,129.58,0,0,1-203.49-76.09,49.68,49.68,0,0,0-63.18-36.64,77.86,77.86,0,0,1-65.31-9A77.78,77.78,0,0,1,1089.35,0h397.34c3.38,4,6.92,8.05,10.83,11.94,5.46,5.43,12,10.06,19.48,11.87C1534.23,28,1558.8,12.56,1576.5,0h241.58A179.61,179.61,0,0,1,1854.85,221.15Z"/></g></g></g></svg>