<svg width="25" height="25" viewBox="0 0 25 25" fill="none" xmlns="http://www.w3.org/2000/svg">
<path d="M12.5 0.390625C5.81221 0.390625 0.390625 5.81216 0.390625 12.5C0.390625 19.1878 5.81221 24.6094 12.5 24.6094C19.1878 24.6094 24.6094 19.1878 24.6094 12.5C24.6094 5.81221 19.1878 0.390625 12.5 0.390625ZM18.8529 6.14707C22.0486 9.34277 22.2709 14.2272 19.8625 17.6528L7.34717 5.1375C10.7751 2.72754 15.659 2.95317 18.8529 6.14707ZM6.14707 18.8529C2.95137 15.6572 2.7291 10.7728 5.13745 7.34722L17.6528 19.8625C14.225 22.2725 9.34102 22.0469 6.14707 18.8529Z" fill="#F00202"/>
</svg>
