<svg width="18" height="20" viewBox="0 0 18 20" fill="none" xmlns="http://www.w3.org/2000/svg">
<path fill-rule="evenodd" clip-rule="evenodd" d="M12.7322 0C13.1144 0 13.4245 0.310148 13.4245 0.692294L13.4249 1.47487C14.7727 1.56728 15.8921 2.02893 16.6843 2.82281C17.5492 3.69141 18.0043 4.94031 17.9997 6.43843V14.8595C17.9997 17.9351 16.0465 19.8459 12.9034 19.8459H5.09621C1.95319 19.8459 0 17.9084 0 14.7893V6.43659C0 3.53559 1.74186 1.67345 4.5827 1.47519L4.58327 0.692294C4.58327 0.310148 4.89341 0 5.27556 0C5.65771 0 5.96786 0.310148 5.96786 0.692294L5.96758 1.45751H12.0395L12.0399 0.692294C12.0399 0.310148 12.3501 0 12.7322 0ZM16.6151 8.21892H1.38459V14.7893C1.38459 17.1579 2.70272 18.4613 5.09621 18.4613H12.9034C15.2969 18.4613 16.6151 17.1819 16.6151 14.8595L16.6151 8.21892ZM13.1086 14.0271C13.4907 14.0271 13.8008 14.3372 13.8008 14.7194C13.8008 15.1015 13.4907 15.4117 13.1086 15.4117C12.7264 15.4117 12.4126 15.1015 12.4126 14.7194C12.4126 14.3372 12.7181 14.0271 13.1002 14.0271H13.1086ZM9.01247 14.0271C9.39462 14.0271 9.70477 14.3372 9.70477 14.7194C9.70477 15.1015 9.39462 15.4117 9.01247 15.4117C8.63033 15.4117 8.31649 15.1015 8.31649 14.7194C8.31649 14.3372 8.62202 14.0271 9.00417 14.0271H9.01247ZM4.90781 14.0271C5.28996 14.0271 5.60011 14.3372 5.60011 14.7194C5.60011 15.1015 5.28996 15.4117 4.90781 15.4117C4.52567 15.4117 4.2109 15.1015 4.2109 14.7194C4.2109 14.3372 4.51736 14.0271 4.89951 14.0271H4.90781ZM13.1086 10.4394C13.4907 10.4394 13.8008 10.7496 13.8008 11.1317C13.8008 11.5139 13.4907 11.824 13.1086 11.824C12.7264 11.824 12.4126 11.5139 12.4126 11.1317C12.4126 10.7496 12.7181 10.4394 13.1002 10.4394H13.1086ZM9.01247 10.4394C9.39462 10.4394 9.70477 10.7496 9.70477 11.1317C9.70477 11.5139 9.39462 11.824 9.01247 11.824C8.63033 11.824 8.31649 11.5139 8.31649 11.1317C8.31649 10.7496 8.62202 10.4394 9.00417 10.4394H9.01247ZM4.90781 10.4394C5.28996 10.4394 5.60011 10.7496 5.60011 11.1317C5.60011 11.5139 5.28996 11.824 4.90781 11.824C4.52567 11.824 4.2109 11.5139 4.2109 11.1317C4.2109 10.7496 4.51736 10.4394 4.89951 10.4394H4.90781ZM12.0395 2.8421H5.96758L5.96786 3.73008C5.96786 4.11223 5.65771 4.42238 5.27556 4.42238C4.89341 4.42238 4.58327 4.11223 4.58327 3.73008L4.58278 2.86306C2.51491 3.03677 1.38459 4.29025 1.38459 6.43659V6.83433H16.6151L16.6151 6.43659C16.6188 5.29661 16.3123 4.41047 15.704 3.80125C15.17 3.2657 14.3894 2.94585 13.4253 2.8635L13.4245 3.73008C13.4245 4.11223 13.1144 4.42238 12.7322 4.42238C12.3501 4.42238 12.0399 4.11223 12.0399 3.73008L12.0395 2.8421Z" fill="black"/>
</svg>
