<svg width="19" height="20" viewBox="0 0 19 20" fill="none" xmlns="http://www.w3.org/2000/svg">
<path fill-rule="evenodd" clip-rule="evenodd" d="M13.1437 0C13.5382 0 13.8584 0.310148 13.8584 0.692295L13.8589 1.47487C15.2502 1.56728 16.4057 2.02893 17.2236 2.82281C18.1164 3.69141 18.5862 4.94031 18.5815 6.43843V14.8595C18.5815 17.9351 16.5651 19.8459 13.3205 19.8459H5.26093C2.01632 19.8459 0 17.9084 0 14.7893V6.43659C0 3.53559 1.79816 1.67345 4.73082 1.47519L4.73141 0.692295C4.73141 0.310148 5.05158 0 5.44608 0C5.84058 0 6.16075 0.310148 6.16075 0.692295L6.16046 1.45751H12.4286L12.4291 0.692295C12.4291 0.310148 12.7493 0 13.1437 0ZM17.1521 8.21892H1.42934V14.7893C1.42934 17.1579 2.79007 18.4613 5.26093 18.4613H13.3205C15.7914 18.4613 17.1521 17.1819 17.1521 14.8595L17.1521 8.21892ZM13.5322 14.0271C13.9267 14.0271 14.2469 14.3372 14.2469 14.7194C14.2469 15.1015 13.9267 15.4117 13.5322 15.4117C13.1377 15.4117 12.8138 15.1015 12.8138 14.7194C12.8138 14.3372 13.1292 14.0271 13.5237 14.0271H13.5322ZM9.30378 14.0271C9.69827 14.0271 10.0184 14.3372 10.0184 14.7194C10.0184 15.1015 9.69827 15.4117 9.30378 15.4117C8.90928 15.4117 8.58529 15.1015 8.58529 14.7194C8.58529 14.3372 8.9007 14.0271 9.2952 14.0271H9.30378ZM5.06644 14.0271C5.46094 14.0271 5.78112 14.3372 5.78112 14.7194C5.78112 15.1015 5.46094 15.4117 5.06644 15.4117C4.67195 15.4117 4.34701 15.1015 4.34701 14.7194C4.34701 14.3372 4.66337 14.0271 5.05787 14.0271H5.06644ZM13.5322 10.4394C13.9267 10.4394 14.2469 10.7496 14.2469 11.1317C14.2469 11.5139 13.9267 11.824 13.5322 11.824C13.1377 11.824 12.8138 11.5139 12.8138 11.1317C12.8138 10.7496 13.1292 10.4394 13.5237 10.4394H13.5322ZM9.30378 10.4394C9.69827 10.4394 10.0184 10.7496 10.0184 11.1317C10.0184 11.5139 9.69827 11.824 9.30378 11.824C8.90928 11.824 8.58529 11.5139 8.58529 11.1317C8.58529 10.7496 8.9007 10.4394 9.2952 10.4394H9.30378ZM5.06644 10.4394C5.46094 10.4394 5.78112 10.7496 5.78112 11.1317C5.78112 11.5139 5.46094 11.824 5.06644 11.824C4.67195 11.824 4.34701 11.5139 4.34701 11.1317C4.34701 10.7496 4.66337 10.4394 5.05787 10.4394H5.06644ZM12.4286 2.8421H6.16046L6.16075 3.73008C6.16075 4.11223 5.84058 4.42238 5.44608 4.42238C5.05158 4.42238 4.73141 4.11223 4.73141 3.73008L4.7309 2.86306C2.5962 3.03677 1.42934 4.29025 1.42934 6.43659V6.83433H17.1521L17.1521 6.43659C17.1559 5.29661 16.8396 4.41047 16.2116 3.80125C15.6604 3.2657 14.8545 2.94585 13.8592 2.8635L13.8584 3.73008C13.8584 4.11223 13.5382 4.42238 13.1437 4.42238C12.7493 4.42238 12.4291 4.11223 12.4291 3.73008L12.4286 2.8421Z" fill="#91359F"/>
</svg>
