<svg width="18" height="20" viewBox="0 0 18 20" fill="none" xmlns="http://www.w3.org/2000/svg">
<path fill-rule="evenodd" clip-rule="evenodd" d="M12.7322 0C13.1144 0 13.4245 0.312168 13.4245 0.696805L13.4249 1.48448C14.7727 1.57749 15.8921 2.04215 16.6843 2.8412C17.5492 3.71546 18.0043 4.97249 17.9997 6.48038V14.9563C17.9997 18.052 16.0465 19.9752 12.9034 19.9752H5.09621C1.95319 19.9752 0 18.025 0 14.8857V6.47852C0 3.55862 1.74186 1.68435 4.5827 1.4848L4.58327 0.696805C4.58327 0.312168 4.89341 0 5.27556 0C5.65771 0 5.96786 0.312168 5.96786 0.696805L5.96758 1.46701H12.0395L12.0399 0.696805C12.0399 0.312168 12.3501 0 12.7322 0ZM16.6151 8.27246H1.38459V14.8857C1.38459 17.2697 2.70272 18.5815 5.09621 18.5815H12.9034C15.2969 18.5815 16.6151 17.2939 16.6151 14.9563L16.6151 8.27246ZM13.1086 14.1185C13.4907 14.1185 13.8008 14.4306 13.8008 14.8153C13.8008 15.1999 13.4907 15.5121 13.1086 15.5121C12.7264 15.5121 12.4126 15.1999 12.4126 14.8153C12.4126 14.4306 12.7181 14.1185 13.1002 14.1185H13.1086ZM9.01247 14.1185C9.39462 14.1185 9.70477 14.4306 9.70477 14.8153C9.70477 15.1999 9.39462 15.5121 9.01247 15.5121C8.63033 15.5121 8.31649 15.1999 8.31649 14.8153C8.31649 14.4306 8.62202 14.1185 9.00417 14.1185H9.01247ZM4.90781 14.1185C5.28996 14.1185 5.60011 14.4306 5.60011 14.8153C5.60011 15.1999 5.28996 15.5121 4.90781 15.5121C4.52567 15.5121 4.2109 15.1999 4.2109 14.8153C4.2109 14.4306 4.51736 14.1185 4.89951 14.1185H4.90781ZM13.1086 10.5074C13.4907 10.5074 13.8008 10.8196 13.8008 11.2042C13.8008 11.5889 13.4907 11.9011 13.1086 11.9011C12.7264 11.9011 12.4126 11.5889 12.4126 11.2042C12.4126 10.8196 12.7181 10.5074 13.1002 10.5074H13.1086ZM9.01247 10.5074C9.39462 10.5074 9.70477 10.8196 9.70477 11.2042C9.70477 11.5889 9.39462 11.9011 9.01247 11.9011C8.63033 11.9011 8.31649 11.5889 8.31649 11.2042C8.31649 10.8196 8.62202 10.5074 9.00417 10.5074H9.01247ZM4.90781 10.5074C5.28996 10.5074 5.60011 10.8196 5.60011 11.2042C5.60011 11.5889 5.28996 11.9011 4.90781 11.9011C4.52567 11.9011 4.2109 11.5889 4.2109 11.2042C4.2109 10.8196 4.51736 10.5074 4.89951 10.5074H4.90781ZM12.0395 2.86062H5.96758L5.96786 3.75438C5.96786 4.13902 5.65771 4.45119 5.27556 4.45119C4.89341 4.45119 4.58327 4.13902 4.58327 3.75438L4.58278 2.88171C2.51491 3.05655 1.38459 4.3182 1.38459 6.47852V6.87885H16.6151L16.6151 6.47852C16.6188 5.33111 16.3123 4.4392 15.704 3.82601C15.17 3.28697 14.3894 2.96504 13.4253 2.88215L13.4245 3.75438C13.4245 4.13902 13.1144 4.45119 12.7322 4.45119C12.3501 4.45119 12.0399 4.13902 12.0399 3.75438L12.0395 2.86062Z" fill="#B5B5B5"/>
</svg>
