<svg width="18" height="18" viewBox="0 0 18 18" fill="none" xmlns="http://www.w3.org/2000/svg">
<path fill-rule="evenodd" clip-rule="evenodd" d="M9 0C13.9626 0 18 4.0374 18 9C18 13.9626 13.9626 18 9 18C4.0374 18 0 13.9626 0 9C0 4.0374 4.0374 0 9 0ZM9 1.35C4.7817 1.35 1.35 4.7817 1.35 9C1.35 13.2183 4.7817 16.65 9 16.65C13.2183 16.65 16.65 13.2183 16.65 9C16.65 4.7817 13.2183 1.35 9 1.35ZM8.69508 4.58586C9.06858 4.58586 9.37008 4.88826 9.37008 5.26086V9.24066L12.4346 11.0677C12.7541 11.2594 12.8594 11.6734 12.6686 11.9938C12.5417 12.2053 12.3176 12.3232 12.0881 12.3232C11.9702 12.3232 11.8514 12.2926 11.7425 12.2287L8.34948 10.2046C8.14608 10.0822 8.02008 9.86166 8.02008 9.62406V5.26086C8.02008 4.88826 8.32248 4.58586 8.69508 4.58586Z" fill="black"/>
</svg>
