<svg width="18" height="19" viewBox="0 0 18 19" fill="none" xmlns="http://www.w3.org/2000/svg">
<path fill-rule="evenodd" clip-rule="evenodd" d="M9 0C13.9626 0 18 4.0637 18 9.05863C18 14.0536 13.9626 18.1173 9 18.1173C4.0374 18.1173 0 14.0536 0 9.05863C0 4.0637 4.0374 0 9 0ZM9 1.35879C4.7817 1.35879 1.35 4.81285 1.35 9.05863C1.35 13.3044 4.7817 16.7585 9 16.7585C13.2183 16.7585 16.65 13.3044 16.65 9.05863C16.65 4.81285 13.2183 1.35879 9 1.35879ZM8.69508 4.61574C9.06858 4.61574 9.37008 4.9201 9.37008 5.29513V9.30086L12.4346 11.1398C12.7541 11.3327 12.8594 11.7494 12.6686 12.0719C12.5417 12.2848 12.3176 12.4034 12.0881 12.4034C11.9702 12.4034 11.8514 12.3726 11.7425 12.3083L8.34948 10.271C8.14608 10.1478 8.02008 9.92591 8.02008 9.68676V5.29513C8.02008 4.9201 8.32248 4.61574 8.69508 4.61574Z" fill="#B5B5B5"/>
</svg>
