<svg width="326" height="81" viewBox="0 0 326 81" fill="none" xmlns="http://www.w3.org/2000/svg">
<rect width="326" height="81" fill="#E4E4E4"/>
<mask id="mask0" mask-type="alpha" maskUnits="userSpaceOnUse" x="0" y="0" width="326" height="81">
<rect x="0.42041" y="0.608398" width="325" height="80" fill="#BCBCBC"/>
</mask>
<g mask="url(#mask0)">
<rect x="0.42041" y="0.608398" width="325" height="80" fill="#BCBCBC"/>
<g opacity="0.6">
<g style="mix-blend-mode:overlay">
<path d="M123.116 84.5062C124.889 83.8469 125.336 81.8311 123.87 80.4929C121.964 78.7535 119.943 77.2398 117.864 75.9951C116.26 75.044 114.629 74.324 113.018 73.41C108.103 70.6294 103.508 68.418 98.6246 67.3311C94.1374 66.3211 89.8114 66.0785 85.6943 66.3237C85.4026 66.3406 85.1105 66.3607 84.8219 66.3828C84.2849 66.4245 83.7512 66.4745 83.2206 66.5327C73.2404 67.6185 64.289 71.0599 53.988 71.3427C53.0745 71.3665 52.146 71.3643 51.198 71.3282C41.5005 70.9476 30.2899 67.1565 21.2695 57.9874C6.41023 42.8975 1.70249 17.9446 -14.7218 6.16529C-23.8907 -0.406157 -33.6606 -0.191372 -40.699 3.21481C-47.7375 6.62099 -52.8469 12.7589 -59.0244 17.4114C-63.2506 20.6863 -65.4448 26.133 -62.6469 30.9948L-17.0103 110.296C-10.1234 122.262 5.95083 128.063 18.8926 123.252L123.116 84.5062Z" fill="#F5F5F5" fill-opacity="0.47"/>
</g>
<g style="mix-blend-mode:overlay">
<path d="M85.7 66.3216C84.9335 65.7513 84.1547 65.2195 83.3669 64.7286C75.7151 59.9556 67.0474 58.9679 61.1991 62.2791C57.2531 64.5135 54.6729 68.4604 51.2114 71.3232C50.8053 71.6595 50.3848 71.98 49.9498 72.2849C43.0288 77.0876 32.4851 76.4531 22.5121 72.1861C12.539 67.9191 3.08856 60.3469 -5.20957 51.8568C-12.2283 44.6755 -18.8454 36.5205 -27.0295 31.5032C-34.6485 26.8316 -42.9108 25.4406 -49.9325 26.5476C-57.9616 27.8096 -59.6154 36.2624 -55.6915 43.0808L-17.0103 110.296C-10.1234 122.262 5.95083 128.063 18.8926 123.252L94.7252 95.0606C98.6309 93.6086 101.07 90.1406 99.9314 86.2938C97.6855 78.7499 92.3017 71.2356 85.7 66.3216Z" fill="#F5F5F5" fill-opacity="0.47"/>
</g>
<g style="mix-blend-mode:overlay">
<path d="M89.9945 96.8193C90.5985 96.5948 90.6956 95.8779 90.2297 95.3959C85.9083 91.1818 80.8203 88.5759 76.0487 87.3052C73.2863 86.5755 70.5963 86.2521 68.0498 86.3437C60.3375 86.6053 54.0121 89.9011 47.4073 92.486C39.4665 95.5878 30.962 97.6923 21.9991 98.7735C16.5498 99.435 10.5097 99.6055 4.38254 96.0437C-1.22359 92.7872 -5.98546 86.8892 -9.72945 80.9192C-13.4734 74.9492 -16.4918 68.6651 -20.3627 62.7644C-27.7972 51.4329 -38.6055 41.6905 -49.4581 37.6273C-54.3439 35.8146 -57.3734 40.1582 -54.9657 44.342L-17.0102 110.296C-10.1234 122.263 5.95083 128.063 18.8926 123.252L89.9945 96.8193Z" fill="#F5F5F5" fill-opacity="0.47"/>
</g>
</g>
<g opacity="0.6">
<g style="mix-blend-mode:overlay">
<path d="M242.687 -1.05836C242.09 -1.05836 241.699 -0.447221 242.032 0.0477438C242.52 0.773068 243.14 1.44419 243.874 2.04191C244.444 2.50044 245.1 2.89347 245.685 3.34171C247.473 4.70703 249.264 5.86834 251.56 6.72833C253.666 7.52188 255.923 8.07025 258.219 8.45111C258.382 8.47825 258.545 8.50445 258.708 8.52972C259.01 8.57651 259.314 8.62049 259.618 8.66166C265.336 9.4393 271.231 9.40562 276.872 10.4565C277.372 10.5501 277.872 10.653 278.372 10.7681C283.483 11.9491 288.351 14.3073 290.37 18.0177C293.7 24.1255 288.495 32.0376 293.696 37.337C296.601 40.2941 301.935 41.3066 306.787 41.0726C311.639 40.8387 316.299 39.5829 321.073 38.8848C324.447 38.368 327.242 35.6592 327.242 32.2466L327.242 18.625C327.242 7.75419 318.429 -1.05835 307.558 -1.05835L242.687 -1.05836Z" fill="#F5F5F5" fill-opacity="0.47"/>
</g>
<g style="mix-blend-mode:overlay">
<path d="M258.215 8.45111C258.452 8.70453 258.707 8.9479 258.979 9.18009C261.624 11.4372 265.991 12.6846 270.172 12.3477C272.993 12.1203 275.609 11.2351 278.364 10.7681C278.687 10.7132 279.013 10.6646 279.342 10.6221C284.564 9.96148 290.053 11.3109 294.106 13.6737C298.159 16.0366 300.905 19.3212 302.745 22.7509C304.301 25.6518 305.339 28.797 308.195 31.1851C310.853 33.4086 314.877 34.7308 319.006 35.1763C323.667 35.6802 327.242 31.5637 327.242 26.8758L327.242 17.9661C327.242 7.45918 318.724 -1.05835 308.217 -1.05835L260.49 -1.05835C258.948 -1.05836 257.382 -0.43642 256.739 0.965752C255.609 3.4484 256.181 6.26792 258.215 8.45111Z" fill="#F5F5F5" fill-opacity="0.47"/>
</g>
</g>
</g>
</svg>
