<svg width="24" height="24" viewBox="0 0 24 24" fill="none" xmlns="http://www.w3.org/2000/svg">
<path d="M20.1818 4.86357C20.8081 4.86357 21.3182 5.37372 21.3182 5.99993C21.3182 6.62614 20.8081 7.1363 20.1818 7.1363C19.5556 7.1363 19.0455 6.62614 19.0455 5.99993C19.0455 5.37372 19.5556 4.86357 20.1818 4.86357ZM22.3182 5.99993C22.3182 4.82144 21.3603 3.86357 20.1818 3.86357C19.0033 3.86357 18.0455 4.82144 18.0455 5.99993C18.0455 7.17843 19.0033 8.1363 20.1818 8.1363C21.3603 8.1363 22.3182 7.17843 22.3182 5.99993ZM2.72726 12.5909C2.10105 12.5909 1.59089 12.0807 1.59089 11.4545C1.59089 10.8283 2.10105 10.3181 2.72726 10.3181C3.35347 10.3181 3.86362 10.8283 3.86362 11.4545C3.86362 12.0807 3.35347 12.5909 2.72726 12.5909ZM0.590892 11.4545C0.590892 12.633 1.54876 13.5909 2.72726 13.5909C3.90575 13.5909 4.86362 12.633 4.86362 11.4545C4.86362 10.276 3.90575 9.31813 2.72726 9.31813C1.54876 9.31813 0.590892 10.276 0.590892 11.4545ZM5.45456 22.409C4.52737 22.409 3.77273 21.6544 3.77273 20.7272C3.77273 19.8 4.52737 19.0454 5.45456 19.0454C6.38176 19.0454 7.1364 19.8 7.1364 20.7272C7.1364 21.6544 6.38172 22.409 5.45456 22.409ZM2.77273 20.7272C2.77273 22.2067 3.97508 23.409 5.45456 23.409C6.93399 23.409 8.1364 22.2067 8.1364 20.7272C8.1364 19.2477 6.93405 18.0454 5.45456 18.0454C3.97508 18.0454 2.77273 19.2477 2.77273 20.7272ZM8.72729 4.95451C7.8001 4.95451 7.04546 4.19983 7.04546 3.27268C7.04546 2.34552 7.8001 1.59084 8.72729 1.59084C9.65447 1.59084 10.4091 2.34551 10.4091 3.27268C10.4091 4.19984 9.65443 4.95451 8.72729 4.95451ZM6.04546 3.27268C6.04546 4.7521 7.2478 5.95451 8.72729 5.95451C10.2067 5.95451 11.4091 4.75209 11.4091 3.27268C11.4091 1.79327 10.2068 0.590841 8.72729 0.590841C7.2478 0.590841 6.04546 1.79325 6.04546 3.27268ZM12 14.7727C10.4715 14.7727 9.22729 13.5285 9.22729 12C9.22729 10.4714 10.4715 9.22724 12 9.22724C13.5286 9.22724 14.7727 10.4714 14.7727 12C14.7727 13.5285 13.5285 14.7727 12 14.7727ZM8.22729 12C8.22729 14.0808 9.91917 15.7727 12 15.7727C14.0808 15.7727 15.7727 14.0808 15.7727 12C15.7727 9.91912 14.0809 8.22724 12 8.22724C9.91917 8.22724 8.22729 9.91912 8.22729 12ZM21.2727 20.2272C20.6465 20.2272 20.1364 19.7171 20.1364 19.0908C20.1364 18.4646 20.6465 17.9545 21.2727 17.9545C21.8989 17.9545 22.4091 18.4646 22.4091 19.0908C22.4091 19.7171 21.8989 20.2272 21.2727 20.2272ZM19.1364 19.0908C19.1364 20.2693 20.0942 21.2272 21.2727 21.2272C22.4512 21.2272 23.4091 20.2693 23.4091 19.0908C23.4091 17.9123 22.4512 16.9545 21.2727 16.9545C20.0942 16.9545 19.1364 17.9123 19.1364 19.0908ZM19.1878 17.4397L19.5121 17.6877L19.8199 17.4196C20.2165 17.0743 20.7204 16.8636 21.2727 16.8636C22.5003 16.8636 23.5 17.8632 23.5 19.0908C23.5 20.3184 22.5003 21.3181 21.2727 21.3181C20.0452 21.3181 19.0455 20.3184 19.0455 19.0908C19.0455 18.7502 19.1306 18.4263 19.2767 18.1258L19.4555 17.7582L19.1308 17.51L15.4076 14.6628L15.0574 14.395L14.7478 14.709C14.0452 15.4216 13.0738 15.8635 12 15.8635C11.3129 15.8635 10.6706 15.6671 10.0991 15.3403L9.71582 15.1211L9.4509 15.4744L7.42197 18.1798L7.16852 18.5177L7.4594 18.8241C7.93457 19.3245 8.22729 19.9918 8.22729 20.7272C8.22729 22.2557 6.98313 23.4999 5.45456 23.4999C3.926 23.4999 2.68184 22.2557 2.68184 20.7272C2.68184 19.1986 3.926 17.9544 5.45456 17.9544C5.90345 17.9544 6.32727 18.0737 6.71594 18.2747L7.09178 18.4692L7.34566 18.1306L9.37127 15.4297L9.63577 15.077L9.31899 14.7704C8.65412 14.1269 8.23129 13.2442 8.16467 12.2574L8.13499 11.8178L7.6951 11.7919L5.38102 11.6561L4.97422 11.6323L4.86876 12.0259C4.61318 12.9798 3.75127 13.6818 2.72726 13.6818C1.49968 13.6818 0.5 12.6821 0.5 11.4545C0.5 10.2269 1.49968 9.22724 2.72726 9.22724C3.8423 9.22724 4.7644 10.0576 4.92037 11.138L4.97867 11.5418L5.38594 11.5657L7.6878 11.7008L8.12792 11.7266L8.20864 11.2932C8.42669 10.1223 9.18077 9.14414 10.2102 8.59936L10.5988 8.39367L10.4445 7.98192L9.81668 6.30716L9.66839 5.91155L9.25358 5.99175C9.07733 6.02583 8.90259 6.04546 8.72729 6.04546C7.19873 6.04546 5.95456 4.80129 5.95456 3.27273C5.95456 1.74417 7.19873 0.5 8.72729 0.5C10.2559 0.5 11.5 1.74417 11.5 3.27273C11.5 4.28817 10.943 5.17279 10.1138 5.6573L9.7499 5.8699L9.89782 6.26452L10.526 7.94036L10.6809 8.35337L11.11 8.25127C11.408 8.18036 11.7018 8.13635 12 8.13635C13.0994 8.13635 14.0887 8.60425 14.7963 9.35073L15.0995 9.6706L15.4549 9.40992L18.0058 7.53884L18.3353 7.29715L18.1641 6.92612C18.0311 6.63801 17.9546 6.32672 17.9546 5.99993C17.9546 4.77236 18.9543 3.77268 20.1818 3.77268C21.4094 3.77268 22.4091 4.7724 22.4091 5.99998C22.4091 7.22756 21.4094 8.22724 20.1818 8.22724C19.6125 8.22724 19.0942 8.0054 18.6943 7.64303L18.3919 7.36899L18.0629 7.61035L15.5012 9.4892L15.1452 9.75031L15.3602 10.1359C15.6745 10.6995 15.8636 11.3282 15.8636 12C15.8636 12.7006 15.6609 13.3547 15.3232 13.9328L15.1004 14.314L15.4511 14.5822L19.1878 17.4397Z" stroke="#BFBFBF"/>
</svg>
