<svg width="54" height="40" viewBox="0 0 54 40" fill="none" xmlns="http://www.w3.org/2000/svg">
<path d="M22.5648 16.9145C23.4902 16.9145 24.3949 16.6401 25.1644 16.126C25.9338 15.6118 26.5336 14.8811 26.8877 14.0261C27.2419 13.1711 27.3345 12.2303 27.154 11.3226C26.9734 10.415 26.5278 9.58125 25.8734 8.92687C25.219 8.27249 24.3853 7.82685 23.4777 7.64631C22.57 7.46576 21.6292 7.55842 20.7742 7.91257C19.9192 8.26672 19.1884 8.86645 18.6743 9.63592C18.1602 10.4054 17.8857 11.31 17.8857 12.2355C17.8871 13.476 18.3806 14.6653 19.2578 15.5425C20.135 16.4197 21.3243 16.9131 22.5648 16.9145ZM22.5648 9.29003C23.1474 9.29003 23.7168 9.46278 24.2012 9.78643C24.6856 10.1101 25.0631 10.5701 25.286 11.1083C25.509 11.6465 25.5673 12.2387 25.4537 12.8101C25.34 13.3815 25.0595 13.9063 24.6475 14.3182C24.2356 14.7301 23.7108 15.0107 23.1394 15.1243C22.5681 15.238 21.9758 15.1796 21.4376 14.9567C20.8994 14.7338 20.4394 14.3562 20.1158 13.8719C19.7921 13.3875 19.6194 12.818 19.6194 12.2355C19.6203 11.4546 19.9309 10.7059 20.4831 10.1537C21.0352 9.60153 21.7839 9.29092 22.5648 9.29003Z" fill="#B5B5B5"/>
<path d="M48.4332 28.6049H44.6409V24.8126C44.6409 24.5827 44.5495 24.3622 44.387 24.1997C44.2244 24.0371 44.0039 23.9458 43.774 23.9458C43.5441 23.9458 43.3237 24.0371 43.1611 24.1997C42.9985 24.3622 42.9072 24.5827 42.9072 24.8126V28.6049H39.2233C38.9934 28.6049 38.7729 28.6963 38.6103 28.8588C38.4478 29.0214 38.3564 29.2419 38.3564 29.4717C38.3564 29.7016 38.4478 29.9221 38.6103 30.0847C38.7729 30.2472 38.9934 30.3386 39.2233 30.3386H42.9072V34.0225C42.9072 34.2524 42.9985 34.4729 43.1611 34.6355C43.3237 34.798 43.5441 34.8893 43.774 34.8893C44.0039 34.8893 44.2244 34.798 44.387 34.6355C44.5495 34.4729 44.6409 34.2524 44.6409 34.0225V30.3386H48.4332C48.6631 30.3386 48.8835 30.2472 49.0461 30.0847C49.2087 29.9221 49.3 29.7016 49.3 29.4717C49.3 29.2419 49.2087 29.0214 49.0461 28.8588C48.8835 28.6963 48.6631 28.6049 48.4332 28.6049Z" fill="#B5B5B5"/>
<path d="M50.3836 21.576V5.17101C50.3836 2.30315 48.0226 2.39746e-05 45.1547 2.39746e-05H5.17414C4.49435 -0.00204851 3.82085 0.130266 3.19237 0.389359C2.56388 0.648453 1.99281 1.02922 1.51197 1.50976C1.03114 1.9903 0.650029 2.56114 0.390554 3.18947C0.131079 3.8178 -0.00164415 4.49122 1.53722e-05 5.17101V31.2952C1.53722e-05 34.1634 2.30639 36.5146 5.17414 36.5146H36.6922C38.1108 37.9311 39.9173 38.8954 41.8836 39.2857C43.8499 39.6761 45.8878 39.4749 47.7399 38.7076C49.5919 37.9404 51.175 36.6414 52.2892 34.9749C53.4035 33.3084 53.9988 31.349 54 29.3443C54 26.2303 52.5507 23.4358 50.3836 21.576ZM5.17414 1.73365H45.1547C47.0666 1.73365 48.65 3.25914 48.65 5.17101V20.4027C47.1797 19.6157 45.5373 19.2056 43.8696 19.2091C43.491 19.2092 43.1126 19.2302 42.7363 19.272L35.4744 14.1303C35.3082 14.0127 35.106 13.9572 34.903 13.9735C34.7001 13.9898 34.5093 14.0768 34.3639 14.2194L24.5772 23.8374L13.2027 18.2942C13.0772 18.2319 12.9381 18.202 12.7981 18.2071C12.658 18.2122 12.5215 18.2522 12.4009 18.3235L1.73365 24.5183V5.17101C1.73174 4.71881 1.81945 4.27071 1.99171 3.85261C2.16397 3.4345 2.41738 3.05467 2.73728 2.73506C3.05718 2.41545 3.43724 2.1624 3.85551 1.99051C4.27377 1.81863 4.72195 1.73133 5.17414 1.73365ZM1.73365 31.2952V26.5225L12.8712 20.0549L23.2712 25.1359L13.4607 34.781H5.17414C4.25575 34.7747 3.37745 34.404 2.73229 33.7503C2.08714 33.0967 1.72794 32.2136 1.73365 31.2952ZM15.9339 34.781L35.0603 15.9733L40.4658 19.7981C38.4948 20.502 36.7895 21.7975 35.5829 23.5076C34.3764 25.2176 33.7276 27.2586 33.7252 29.3515C33.7252 31.3451 34.3042 33.1559 35.3025 34.7812L15.9339 34.781ZM43.8556 37.7364C42.1947 37.7364 40.5712 37.2439 39.1902 36.3212C37.8093 35.3984 36.733 34.0869 36.0974 32.5525C35.4619 31.0181 35.2956 29.3296 35.6197 27.7007C35.9437 26.0718 36.7435 24.5755 37.918 23.4012C39.0924 22.2268 40.5887 21.4271 42.2177 21.1031C43.8466 20.7792 45.535 20.9456 47.0694 21.5812C48.6038 22.2169 49.9153 23.2932 50.8379 24.6742C51.7605 26.0552 52.2529 27.6788 52.2528 29.3397C52.2503 31.5659 51.3648 33.7003 49.7905 35.2744C48.2162 36.8486 46.0818 37.734 43.8556 37.7364Z" fill="#B5B5B5"/>
</svg>
