<svg width="77" height="46" viewBox="0 0 77 46" fill="none" xmlns="http://www.w3.org/2000/svg">
<path d="M36.3858 23.3956C37.1399 23.3956 37.877 23.172 38.5039 22.7531C39.1309 22.3342 39.6196 21.7387 39.9081 21.0421C40.1967 20.3454 40.2722 19.5788 40.1251 18.8393C39.978 18.0997 39.6149 17.4204 39.0817 16.8872C38.5485 16.354 37.8692 15.9909 37.1296 15.8438C36.39 15.6967 35.6235 15.7722 34.9268 16.0607C34.2301 16.3493 33.6347 16.838 33.2158 17.4649C32.7968 18.0919 32.5732 18.829 32.5732 19.5831C32.5744 20.5939 32.9764 21.5629 33.6912 22.2777C34.4059 22.9924 35.375 23.3945 36.3858 23.3956ZM36.3858 17.1831C36.8605 17.1831 37.3245 17.3238 37.7192 17.5876C38.1138 17.8513 38.4214 18.2261 38.6031 18.6646C38.7847 19.1032 38.8323 19.5857 38.7397 20.0513C38.6471 20.5168 38.4185 20.9445 38.0828 21.2801C37.7472 21.6158 37.3196 21.8443 36.854 21.9369C36.3885 22.0295 35.9059 21.982 35.4674 21.8004C35.0288 21.6187 34.654 21.3111 34.3903 20.9164C34.1266 20.5218 33.9858 20.0577 33.9858 19.5831C33.9865 18.9468 34.2396 18.3368 34.6896 17.8868C35.1395 17.4369 35.7495 17.1838 36.3858 17.1831Z" fill="#B5B5B5"/>
<path d="M57.4636 32.9208H54.3735V29.8308C54.3735 29.6435 54.2991 29.4638 54.1667 29.3314C54.0342 29.1989 53.8546 29.1245 53.6673 29.1245C53.4799 29.1245 53.3003 29.1989 53.1678 29.3314C53.0354 29.4638 52.961 29.6435 52.961 29.8308V32.9208H49.9592C49.7719 32.9208 49.5923 32.9952 49.4598 33.1277C49.3273 33.2602 49.2529 33.4398 49.2529 33.6271C49.2529 33.8144 49.3273 33.9941 49.4598 34.1265C49.5923 34.259 49.7719 34.3334 49.9592 34.3334H52.961V37.3351C52.961 37.5225 53.0354 37.7021 53.1678 37.8346C53.3003 37.967 53.4799 38.0414 53.6673 38.0414C53.8546 38.0414 54.0342 37.967 54.1667 37.8346C54.2991 37.7021 54.3735 37.5225 54.3735 37.3351V34.3334H57.4636C57.6509 34.3334 57.8305 34.259 57.963 34.1265C58.0954 33.9941 58.1699 33.8144 58.1699 33.6271C58.1699 33.4398 58.0954 33.2602 57.963 33.1277C57.8305 32.9952 57.6509 32.9208 57.4636 32.9208Z" fill="#B5B5B5"/>
<path d="M59.0532 27.1937V13.8267C59.0532 11.4899 57.1293 9.6133 54.7926 9.6133H22.216C21.6621 9.61161 21.1133 9.71942 20.6012 9.93054C20.0891 10.1416 19.6238 10.4519 19.232 10.8435C18.8402 11.235 18.5297 11.7001 18.3182 12.2121C18.1068 12.7241 17.9987 13.2728 18 13.8267V35.113C18 37.45 19.8793 39.3658 22.216 39.3658H47.8972C49.0531 40.52 50.5251 41.3057 52.1273 41.6238C53.7295 41.9418 55.39 41.7779 56.899 41.1527C58.4081 40.5275 59.698 39.4692 60.6059 38.1112C61.5138 36.7533 61.9988 35.1568 61.9998 33.5234C61.9998 30.986 60.8189 28.709 59.0532 27.1937ZM22.216 11.0259H54.7926C56.3504 11.0259 57.6406 12.2689 57.6406 13.8267V26.2376C56.4426 25.5964 55.1043 25.2622 53.7455 25.2651C53.437 25.2652 53.1287 25.2823 52.822 25.3164L46.905 21.1268C46.7696 21.031 46.6048 20.9858 46.4394 20.9991C46.274 21.0123 46.1186 21.0832 46.0001 21.1994L38.0258 29.0363L28.7577 24.5196C28.6554 24.4688 28.5421 24.4445 28.428 24.4486C28.3139 24.4528 28.2027 24.4854 28.1044 24.5435L19.4126 29.5911V13.8267C19.411 13.4582 19.4825 13.0931 19.6229 12.7524C19.7632 12.4118 19.9697 12.1023 20.2304 11.8418C20.491 11.5814 20.8007 11.3752 21.1415 11.2352C21.4823 11.0951 21.8475 11.024 22.216 11.0259ZM19.4126 35.113V31.2241L28.4876 25.9542L36.9616 30.0943L28.9679 37.9532H22.216C21.4676 37.9481 20.752 37.646 20.2263 37.1134C19.7006 36.5808 19.4079 35.8613 19.4126 35.113ZM30.9831 37.9532L46.5676 22.6285L50.972 25.745C49.3661 26.3185 47.9765 27.3742 46.9934 28.7675C46.0103 30.1609 45.4816 31.8239 45.4797 33.5292C45.4797 35.1537 45.9515 36.6291 46.7649 37.9534L30.9831 37.9532ZM53.734 40.3613C52.3808 40.3613 51.0579 39.96 49.9327 39.2082C48.8075 38.4563 47.9305 37.3877 47.4126 36.1374C46.8948 34.8872 46.7593 33.5114 47.0233 32.1841C47.2874 30.8569 47.9391 29.6377 48.896 28.6808C49.853 27.7239 51.0722 27.0723 52.3995 26.8084C53.7267 26.5444 55.1025 26.68 56.3527 27.1979C57.603 27.7158 58.6715 28.5929 59.4233 29.7181C60.1751 30.8434 60.5763 32.1663 60.5762 33.5196C60.5742 35.3336 59.8526 37.0727 58.5699 38.3553C57.2872 39.638 55.548 40.3594 53.734 40.3613Z" fill="#B5B5B5"/>
</svg>
