<svg width="26" height="26" viewBox="0 0 26 26" fill="none" xmlns="http://www.w3.org/2000/svg">
<path d="M12.5098 6.18374C8.96066 6.18374 6.09793 9.08941 6.09793 12.6917C6.09793 16.2941 8.96066 19.1998 12.5098 19.1998C16.0589 19.1998 18.9216 16.2941 18.9216 12.6917C18.9216 9.08941 16.0589 6.18374 12.5098 6.18374ZM12.5098 16.9228C10.2162 16.9228 8.34124 15.0253 8.34124 12.6917C8.34124 10.3582 10.2107 8.46069 12.5098 8.46069C14.8089 8.46069 16.6783 10.3582 16.6783 12.6917C16.6783 15.0253 14.8033 16.9228 12.5098 16.9228ZM20.6794 5.91753C20.6794 6.76148 20.0098 7.4355 19.1839 7.4355C18.3524 7.4355 17.6883 6.75581 17.6883 5.91753C17.6883 5.07925 18.358 4.39956 19.1839 4.39956C20.0098 4.39956 20.6794 5.07925 20.6794 5.91753ZM24.9261 7.45816C24.8312 5.42476 24.3736 3.62358 22.906 2.1396C21.4439 0.655615 19.6694 0.191162 17.666 0.089209C15.6013 -0.0297363 9.41267 -0.0297363 7.34794 0.089209C5.35017 0.185498 3.57561 0.649951 2.10798 2.13394C0.640346 3.61792 0.188337 5.41909 0.0878906 7.45249C-0.0292969 9.54819 -0.0292969 15.8296 0.0878906 17.9253C0.182757 19.9587 0.640346 21.7599 2.10798 23.2439C3.57561 24.7279 5.34459 25.1923 7.34794 25.2943C9.41267 25.4132 15.6013 25.4132 17.666 25.2943C19.6694 25.198 21.4439 24.7335 22.906 23.2439C24.368 21.7599 24.8256 19.9587 24.9261 17.9253C25.0432 15.8296 25.0432 9.55386 24.9261 7.45816ZM22.2586 20.174C21.8234 21.2841 20.9807 22.1394 19.8814 22.5869C18.2352 23.2496 14.329 23.0966 12.5098 23.0966C10.6906 23.0966 6.77874 23.2439 5.13811 22.5869C4.04436 22.1451 3.20173 21.2898 2.76088 20.174C2.10798 18.5031 2.25865 14.5382 2.25865 12.6917C2.25865 10.8453 2.11356 6.87476 2.76088 5.20952C3.19615 4.09937 4.03878 3.24409 5.13811 2.79663C6.78432 2.13394 10.6906 2.28687 12.5098 2.28687C14.329 2.28687 18.2408 2.1396 19.8814 2.79663C20.9752 3.23843 21.8178 4.0937 22.2586 5.20952C22.9116 6.88042 22.7609 10.8453 22.7609 12.6917C22.7609 14.5382 22.9116 18.5087 22.2586 20.174Z" fill="#B5B5B5"/>
</svg>
