<svg width="180" height="141" viewBox="0 0 180 141" fill="none" xmlns="http://www.w3.org/2000/svg">
<path d="M31.7196 9.50906C-4.46473 29.2904 50.7363 45.8382 64.0984 59.8705C73.6873 69.9398 68.2079 89.1158 83.2654 101.606C99.0917 114.714 123.92 117.022 137.057 111.83C156.904 104.009 160.491 60.3179 130.977 41.6533C108.598 27.4931 89.4457 43.2776 66.2122 31.4524C51.6018 24.0151 51.4194 -1.26334 31.7196 9.50906Z" fill="#378FED"/>
<path opacity="0.9" d="M31.7196 9.50906C-4.46473 29.2904 50.7363 45.8382 64.0984 59.8705C73.6873 69.9398 68.2079 89.1158 83.2654 101.606C99.0917 114.714 123.92 117.022 137.057 111.83C156.904 104.009 160.491 60.3179 130.977 41.6533C108.598 27.4931 89.4457 43.2776 66.2122 31.4524C51.6018 24.0151 51.4194 -1.26334 31.7196 9.50906Z" fill="white"/>
<path d="M90 140.083C128.299 140.083 159.346 138.177 159.346 135.826C159.346 133.476 128.299 131.57 90 131.57C51.701 131.57 20.6536 133.476 20.6536 135.826C20.6536 138.177 51.701 140.083 90 140.083Z" fill="#F5F5F5"/>
<path d="M133.034 36.0584C133.917 33.0504 124.879 32.3661 122.701 37.7692C119.65 45.3381 124.099 49.5944 124.099 49.5944C126.692 48.1318 131.764 47.9137 134.536 48.88L133.034 36.0584Z" fill="#263238"/>
<path d="M133.731 132.72L130.941 132.833L130.927 129.664L133.713 129.551L133.731 132.72Z" fill="#B55B52"/>
<path d="M130.83 132.228H133.992C134.048 132.228 134.103 132.248 134.147 132.284C134.192 132.32 134.224 132.37 134.239 132.427L134.925 135.059C134.943 135.121 134.946 135.186 134.935 135.25C134.924 135.314 134.899 135.373 134.861 135.425C134.824 135.476 134.776 135.517 134.72 135.545C134.665 135.573 134.604 135.587 134.543 135.586C133.438 135.563 132.901 135.495 131.513 135.495C130.659 135.495 128.455 135.589 127.275 135.589C126.095 135.589 125.88 134.364 126.36 134.255C128.505 133.754 129.729 133.07 130.39 132.416C130.508 132.296 130.666 132.229 130.83 132.228Z" fill="#378FED"/>
<path opacity="0.2" d="M130.927 129.667L130.934 131.299L133.724 131.314L133.717 129.551L130.927 129.667Z" fill="black"/>
<path d="M124.553 70.9963C124.099 74.6059 125.648 91.7289 126.953 99.1963C128.688 109.119 130.33 130.634 130.33 130.634L134.089 130.397C134.089 130.397 134.543 106.81 133.391 98.8128C133.316 88.3186 133.495 69.9397 133.495 69.9397L124.553 70.9963Z" fill="#263238"/>
<path opacity="0.2" d="M133.409 81.3777C133.409 78.7156 131.535 76.6137 131.066 81.6973C130.77 84.9346 131.968 90.3641 133.373 94.1241C133.37 90.0294 133.388 85.4422 133.409 81.3777Z" fill="black"/>
<path d="M150.326 133.048L147.769 133.119L146.564 129.453L149.125 129.382L150.326 133.048Z" fill="#B55B52"/>
<path d="M150.265 132.228H147.111C147.086 132.226 147.061 132.23 147.038 132.239C147.015 132.249 146.994 132.264 146.976 132.283C146.959 132.302 146.946 132.325 146.939 132.35C146.931 132.375 146.929 132.401 146.932 132.427L147.165 135.059C147.189 135.202 147.258 135.331 147.361 135.427C147.465 135.523 147.596 135.578 147.733 135.586C148.828 135.563 149.343 135.495 150.73 135.495C151.585 135.495 152.708 135.589 153.889 135.589C155.069 135.589 154.854 134.364 154.339 134.255C152.025 133.754 151.664 133.07 150.763 132.416C150.619 132.302 150.445 132.237 150.265 132.228Z" fill="#378FED"/>
<path opacity="0.2" d="M146.567 129.457L147.186 131.344L149.797 131.423L149.128 129.382L146.567 129.457Z" fill="black"/>
<path d="M128.845 70.4887C128.845 70.4887 134.643 92.8043 137.554 99.3881C139.446 109.559 146.217 130.874 146.217 130.874L150.151 130.589C150.151 130.589 145.859 109.021 143.22 99.0045C141.789 89.6985 140.855 74.1885 136.782 69.5487L128.845 70.4887Z" fill="#263238"/>
<path d="M123.227 54.3997C123.151 56.2797 122.998 58.1033 122.787 59.9494C122.576 61.7956 122.318 63.623 121.978 65.4541L121.846 66.1422L121.774 66.5182C121.73 66.7399 121.662 66.9556 121.571 67.1611C121.433 67.4844 121.22 67.7662 120.952 67.9808C120.619 68.2376 120.213 68.37 119.8 68.3568C119.532 68.3458 119.268 68.2847 119.02 68.1763C118.85 68.1017 118.686 68.011 118.53 67.9056C118.081 67.5839 117.672 67.205 117.311 66.7776C116.985 66.4016 116.689 66.0256 116.406 65.6496C115.328 64.1477 114.371 62.5542 113.545 60.8857C113.458 60.7097 113.436 60.5063 113.482 60.3142C113.529 60.122 113.641 59.9546 113.797 59.8437C113.953 59.7328 114.143 59.6861 114.33 59.7125C114.517 59.7389 114.688 59.8366 114.811 59.987C115.912 61.3557 117.025 62.7582 118.191 63.9914C118.477 64.2998 118.77 64.5968 119.063 64.86C119.307 65.0965 119.576 65.3022 119.865 65.4729C119.911 65.4917 119.954 65.5142 119.958 65.5067C119.961 65.4992 119.936 65.4804 119.811 65.4691C119.617 65.4656 119.427 65.529 119.271 65.6496C119.172 65.7216 119.09 65.8169 119.031 65.9278C119.01 65.9767 119.031 65.9278 119.031 65.9278L119.074 65.6158L119.164 64.9502C119.389 63.1793 119.568 61.3895 119.732 59.5998C119.897 57.81 120.022 55.9977 120.136 54.2305V54.2079C120.159 53.7776 120.344 53.3744 120.649 53.0871C120.955 52.7998 121.356 52.6518 121.766 52.6757C122.175 52.6996 122.558 52.8935 122.832 53.2147C123.105 53.5359 123.246 53.9581 123.223 54.3884L123.227 54.3997Z" fill="#B55B52"/>
<path d="M121.914 51.888C119.26 53.2529 119.675 56.87 119.675 56.87L123.92 60.0134C123.92 60.0134 125.473 56.0841 125.151 54.2004C124.818 52.264 123.881 50.8916 121.914 51.888Z" fill="#378FED"/>
<path opacity="0.2" d="M121.474 54.9186C122.096 53.8883 123.166 54.1365 124.41 54.9562C124.7 55.2198 124.942 55.5356 125.126 55.8886C124.859 57.3038 124.464 58.6888 123.945 60.0246L120.952 57.81C120.833 56.8124 121.015 55.8008 121.474 54.9186Z" fill="black"/>
<path d="M115.011 60.4984L114.378 57.9529L112.232 59.9833C112.232 59.9833 113.008 61.3444 114.256 61.5286L115.011 60.4984Z" fill="#B55B52"/>
<path d="M112.733 56.9151L112.296 57.3701C111.965 57.7113 111.772 58.1746 111.76 58.6622C111.747 59.1498 111.915 59.6235 112.229 59.9833L114.374 57.9529L113.774 57.0241C113.717 56.9376 113.644 56.8651 113.558 56.8117C113.472 56.7582 113.377 56.7252 113.277 56.7148C113.178 56.7044 113.078 56.7169 112.984 56.7515C112.89 56.7861 112.804 56.842 112.733 56.9151Z" fill="#B55B52"/>
<path d="M113.82 57.0881C113.278 56.3237 112.787 55.5209 112.35 54.6854C112.214 54.3997 111.774 54.7982 111.992 55.2156C112.211 55.6329 112.615 56.9941 113.044 57.4904C113.473 57.9867 113.82 57.0881 113.82 57.0881Z" fill="#B55B52"/>
<path d="M120.93 53.9522C121.685 61.2165 123.938 66.2813 124.553 70.9963L136.764 69.56C136.074 64.8412 135.723 61.7542 136.582 53.016C136.619 52.636 136.581 52.2519 136.47 51.8881C136.359 51.5243 136.177 51.1889 135.936 50.9031C135.695 50.6173 135.399 50.3875 135.069 50.2282C134.739 50.0689 134.38 49.9837 134.017 49.9779C133.273 49.9779 132.451 49.9779 131.621 50.0343C129.76 50.1115 127.908 50.3302 126.077 50.6885C124.79 50.9668 123.42 51.3578 122.44 51.6586C121.974 51.7967 121.568 52.1013 121.292 52.5199C121.017 52.9385 120.889 53.445 120.93 53.9522Z" fill="#378FED"/>
<path d="M126.077 50.681C126.077 50.681 124.117 52.9107 127.039 55.945C128.127 53.6342 129.692 51.6083 131.621 50.0155L126.077 50.681Z" fill="white"/>
<path d="M130.373 43.5257C130.222 45.4433 130.24 48.9213 131.621 50.0268C131.621 50.0268 128.57 51.7714 126.925 54.8396C124.779 52.5836 126.077 50.681 126.077 50.681C128.012 49.929 127.797 48.3987 127.293 46.9849L130.373 43.5257Z" fill="#B55B52"/>
<path opacity="0.2" d="M130.036 43.9055C130.129 45.0243 129.994 46.1511 129.639 47.2105C129.393 47.94 128.541 48.3573 127.64 48.5341C127.597 48.0015 127.476 47.4791 127.282 46.9849L130.036 43.9055Z" fill="black"/>
<path d="M132.962 40.8449C132.433 43.9506 132.268 45.2779 130.587 46.6992C128.055 48.8349 124.543 47.47 124.181 44.2589C123.856 41.3675 124.782 36.7728 127.833 35.8854C128.505 35.6869 129.215 35.6723 129.894 35.8432C130.573 36.014 131.199 36.3646 131.713 36.8615C132.227 37.3585 132.612 37.9853 132.83 38.6825C133.049 39.3797 133.094 40.1241 132.962 40.8449Z" fill="#B55B52"/>
<path d="M130.684 38.352C129.968 40.0139 130.594 42.8339 132.862 42.661C131.027 44.8606 131.463 49.6846 131.463 49.6846C132.611 49.7706 133.757 49.5097 134.768 48.9326C134.768 48.9326 134.053 44.3717 134.807 41.172C135.423 38.5701 135.333 33.5204 129.968 34.6183C129.342 34.7462 125.265 35.8704 124.854 38.1226C124.822 38.3257 129.207 39.6605 130.684 38.352Z" fill="#263238"/>
<path d="M133.634 42.6083C133.571 42.903 133.452 43.1817 133.286 43.4281C133.12 43.6746 132.909 43.8841 132.665 44.0446C132.011 44.4695 131.471 43.9093 131.474 43.1422C131.474 42.4504 131.832 41.3976 132.565 41.2848C132.728 41.2624 132.893 41.2832 133.047 41.3454C133.2 41.4075 133.336 41.509 133.442 41.6406C133.549 41.7722 133.622 41.9297 133.655 42.0988C133.689 42.2678 133.682 42.443 133.634 42.6083Z" fill="#B55B52"/>
<path opacity="0.2" d="M134.661 55.099C134.614 55.7405 134.728 56.3838 134.991 56.9645C135.255 57.5452 135.659 58.0429 136.163 58.4078C136.227 57.1069 136.335 55.648 136.492 53.971C135.87 53.2679 134.807 53.8808 134.661 55.099Z" fill="black"/>
<path d="M136.853 68.7817L137.526 69.8645C137.579 69.951 137.49 70.0526 137.347 70.0676L124.543 71.5716C124.432 71.5716 124.335 71.5378 124.321 71.4663L124.085 70.3383C124.085 70.2594 124.16 70.1804 124.278 70.1654L136.646 68.7065C136.684 68.699 136.723 68.702 136.759 68.7152C136.795 68.7284 136.828 68.7513 136.853 68.7817Z" fill="#263238"/>
<path d="M135.362 70.4323L135.694 70.391C135.759 70.391 135.805 70.3421 135.798 70.3007L135.483 68.823C135.483 68.7817 135.412 68.7516 135.344 68.7591L135.015 68.8005C134.947 68.8005 134.9 68.8493 134.911 68.8907L135.226 70.3646C135.233 70.4097 135.297 70.4398 135.362 70.4323Z" fill="#378FED"/>
<path d="M125.501 71.5942L125.83 71.5565C125.898 71.5565 125.945 71.5039 125.934 71.4625L125.619 69.9886C125.619 69.9435 125.548 69.9172 125.483 69.9247L125.151 69.9623C125.086 69.9623 125.04 70.0112 125.047 70.0563L125.362 71.5302C125.372 71.5716 125.433 71.6017 125.501 71.5942Z" fill="#378FED"/>
<path d="M130.415 71.0113L130.748 70.9737C130.812 70.9737 130.859 70.9249 130.852 70.8797L130.537 69.4058C130.537 69.3645 130.466 69.3344 130.401 69.3419L130.069 69.3795C130.004 69.3795 129.958 69.4284 129.965 69.4735L130.28 70.9474C130.305 70.9925 130.365 71.0189 130.415 71.0113Z" fill="#378FED"/>
<path d="M127.912 41.1607C127.883 41.4164 127.733 41.6082 127.576 41.5894C127.418 41.5706 127.311 41.345 127.34 41.093C127.368 40.8411 127.518 40.6456 127.679 40.6644C127.84 40.6832 127.951 40.9088 127.912 41.1607Z" fill="#263238"/>
<path d="M125.183 40.8223C125.154 41.078 125.004 41.2698 124.847 41.251C124.689 41.2322 124.582 41.0066 124.611 40.7546C124.639 40.5027 124.789 40.3072 124.968 40.326C125.147 40.3448 125.212 40.5704 125.183 40.8223Z" fill="#263238"/>
<path d="M125.018 40.3485L124.453 40.1004C124.453 40.1004 124.693 40.608 125.018 40.3485Z" fill="#263238"/>
<path d="M125.859 41.36C125.577 41.9089 125.226 42.4149 124.815 42.864C124.927 42.972 125.062 43.0526 125.208 43.1001C125.353 43.1475 125.507 43.1606 125.659 43.1385L125.859 41.36Z" fill="#A02724"/>
<path d="M126.338 44.0371C126.327 44.0289 126.318 44.0176 126.312 44.0043C126.306 43.991 126.304 43.9764 126.306 43.9619C126.307 43.952 126.311 43.9424 126.315 43.9338C126.32 43.9252 126.327 43.9177 126.334 43.9118C126.342 43.9058 126.351 43.9015 126.36 43.8992C126.369 43.8968 126.379 43.8964 126.388 43.898C126.687 43.9529 126.994 43.9329 127.285 43.8395C127.575 43.746 127.84 43.5819 128.059 43.3603C128.065 43.3529 128.073 43.3469 128.081 43.3426C128.09 43.3383 128.099 43.3358 128.108 43.3353C128.118 43.3348 128.127 43.3362 128.136 43.3395C128.145 43.3429 128.153 43.348 128.16 43.3547C128.167 43.3613 128.173 43.3694 128.177 43.3784C128.181 43.3874 128.184 43.3971 128.184 43.4071C128.185 43.417 128.183 43.427 128.18 43.4364C128.177 43.4458 128.172 43.4544 128.166 43.4618C127.934 43.7023 127.65 43.8809 127.339 43.9829C127.028 44.085 126.699 44.1074 126.378 44.0484L126.338 44.0371Z" fill="#263238"/>
<path d="M129.224 39.8222C129.203 39.8106 129.185 39.7922 129.174 39.7695C129.087 39.6037 128.964 39.4618 128.815 39.3553C128.666 39.2488 128.495 39.1808 128.316 39.1566C128.278 39.1566 128.242 39.1408 128.215 39.1126C128.188 39.0844 128.173 39.0461 128.173 39.0062C128.173 38.9663 128.188 38.9281 128.215 38.8999C128.242 38.8717 128.278 38.8558 128.316 38.8558C128.542 38.8813 128.758 38.9628 128.948 39.0935C129.137 39.2243 129.295 39.4006 129.407 39.6078C129.416 39.6248 129.423 39.6437 129.426 39.6633C129.428 39.683 129.427 39.703 129.423 39.7222C129.418 39.7414 129.41 39.7595 129.399 39.7753C129.387 39.7912 129.373 39.8046 129.357 39.8146C129.337 39.8262 129.314 39.8328 129.291 39.8341C129.268 39.8354 129.246 39.8314 129.224 39.8222Z" fill="#263238"/>
<path d="M124.46 39.3258L124.439 39.307C124.426 39.2934 124.415 39.277 124.408 39.2589C124.4 39.2408 124.397 39.2214 124.397 39.2017C124.397 39.1821 124.4 39.1627 124.408 39.1446C124.415 39.1265 124.426 39.1101 124.439 39.0965C124.582 38.9108 124.766 38.7638 124.974 38.6677C125.183 38.5715 125.41 38.5291 125.637 38.5437C125.675 38.5487 125.71 38.5694 125.733 38.6011C125.756 38.6328 125.767 38.6731 125.762 38.713C125.758 38.7528 125.738 38.7891 125.708 38.8138C125.678 38.8385 125.639 38.8495 125.601 38.8445C125.421 38.834 125.242 38.8691 125.077 38.947C124.913 39.0249 124.769 39.1432 124.657 39.292C124.634 39.3227 124.602 39.3432 124.565 39.3494C124.529 39.3557 124.491 39.3473 124.46 39.3258Z" fill="#263238"/>
<path d="M136.442 51.9594C137.493 53.0874 138.491 54.2154 139.464 55.4073C139.951 56.0014 140.441 56.5993 140.895 57.231C141.389 57.8811 141.847 58.5617 142.265 59.2689C142.397 59.4889 142.517 59.7175 142.622 59.9532C142.698 60.135 142.758 60.3238 142.801 60.5172C142.817 60.5954 142.829 60.6745 142.837 60.7541V60.9007C142.84 60.9658 142.84 61.0311 142.837 61.0962V61.1977V61.2429V61.2805L142.819 61.3557C142.726 61.7617 142.658 62.1716 142.536 62.5702C142.322 63.3827 142.041 64.1741 141.696 64.9352C141.342 65.7078 140.904 66.4346 140.391 67.101C140.127 67.4388 139.838 67.7532 139.525 68.041C139.368 68.1876 139.207 68.3267 139.031 68.4621C138.946 68.526 138.853 68.5899 138.76 68.6501C138.667 68.7102 138.581 68.7629 138.431 68.8456L137.654 67.4582C137.654 67.4394 137.733 67.3717 137.772 67.319L137.923 67.1423C138.023 67.0182 138.119 66.8866 138.212 66.7663C138.396 66.4886 138.565 66.1998 138.717 65.9015C139.022 65.2996 139.275 64.6704 139.475 64.0215C139.564 63.6831 139.664 63.356 139.732 63.0063C139.8 62.6566 139.875 62.322 139.929 61.9761C139.983 61.6302 140.022 61.2729 140.072 60.9233V60.8556V60.8255V60.8932C140.072 60.9345 140.072 60.9909 140.072 61.0173C140.07 61.041 140.07 61.0649 140.072 61.0887V61.1827C140.072 61.2579 140.072 61.2353 140.072 61.2053C140.072 61.1752 139.958 61.0097 139.875 60.8857C139.518 60.3705 139.067 59.7877 138.609 59.235C138.152 58.6823 137.672 58.107 137.179 57.5543L134.228 54.2229L136.442 51.9594Z" fill="#B55B52"/>
<path d="M139.203 68.3417L137.057 70.4361L135.666 68.056C135.666 68.056 137.004 67.0446 138.205 67.4243L139.203 68.3417Z" fill="#B55B52"/>
<path d="M135.423 70.876L134.707 70.0901C134.571 69.9394 134.498 69.7385 134.502 69.5309C134.506 69.3233 134.587 69.1257 134.729 68.9809L135.644 68.0372L137.032 70.4361L136.435 70.9512C136.287 71.0732 136.102 71.133 135.915 71.1191C135.728 71.1052 135.552 71.0185 135.423 70.876Z" fill="#B55B52"/>
<path d="M131.603 51.8542C131.438 53.1965 134.84 57.1181 134.84 57.1181L138.023 52.9295C138.023 52.9295 136.539 50.7412 135.405 50.2449C133.584 49.4365 131.789 50.3238 131.603 51.8542Z" fill="#378FED"/>
<path d="M127.758 40.687L127.193 40.4388C127.193 40.4388 127.44 40.9539 127.758 40.687Z" fill="#263238"/>
<path d="M46.5874 38.055C45.2677 39.5928 43.626 44.2026 48.7119 43.2776C53.7979 42.3526 46.5874 38.055 46.5874 38.055Z" fill="#263238"/>
<path d="M48.2076 33.8174C48.5188 31.772 44.9601 27.0758 43.5581 29.9747C41.8377 33.464 48.2076 33.8174 48.2076 33.8174Z" fill="#263238"/>
<path d="M48.2184 35.0582C49.8315 33.8701 50.5539 27.9142 47.5889 28.8693C44.0157 30.0161 48.2184 35.0582 48.2184 35.0582Z" fill="#263238"/>
<path d="M56.3802 53.3018C56.348 53.6176 56.3194 54.0124 56.2943 54.3734C56.2693 54.7343 56.255 55.1254 56.2443 55.5014C56.2443 56.2534 56.2013 57.0054 56.2228 57.7386C56.2528 59.2238 56.3807 60.705 56.6055 62.1716C56.6556 62.5476 56.7342 62.8935 56.7986 63.2545L56.8201 63.3786C56.8194 63.3923 56.8194 63.4062 56.8201 63.4199C56.8201 63.4199 56.8201 63.4199 56.8201 63.4538C56.8201 63.4876 56.9918 63.5779 57.235 63.6042C57.5189 63.6394 57.8058 63.6394 58.0898 63.6042C59.4643 63.3707 60.8085 62.9708 62.0955 62.4123L62.7894 63.7095C62.4567 63.9614 62.1384 64.1719 61.8022 64.3825C61.466 64.593 61.1334 64.7961 60.7793 64.9766C60.0581 65.3696 59.2992 65.6809 58.5154 65.9053C58.0716 66.0299 57.6154 66.0993 57.1563 66.1121C56.5564 66.1303 55.9638 65.9699 55.4467 65.6496C55.1357 65.4467 54.8707 65.1746 54.6706 64.8525C54.5754 64.701 54.4951 64.5398 54.4309 64.3712C54.3982 64.2927 54.3696 64.2123 54.3451 64.1306L54.3093 64.0103L54.2915 63.935C54.1949 63.5365 54.0804 63.1342 53.9982 62.7318C53.6554 61.1251 53.4507 59.4892 53.3866 57.8438C53.3472 57.0279 53.3329 56.2158 53.3615 55.3998C53.3615 54.99 53.3937 54.5839 53.4223 54.1741C53.451 53.7643 53.4867 53.3732 53.544 52.9145L56.3802 53.3018Z" fill="#FFB573"/>
<path d="M56.0224 49.7561C57.0954 50.2674 57.0954 55.3246 57.0954 55.3246L52.2384 57.6408C52.2384 57.6408 51.4086 51.4932 52.4995 50.3389C53.5903 49.1846 54.4523 49.0116 56.0224 49.7561Z" fill="#263238"/>
<path opacity="0.2" d="M55.7543 50.8352L56.4839 55.6292L53.8479 56.8813L55.7543 50.8352Z" fill="black"/>
<path d="M61.4732 63.0439L63.5011 60.709L64.1377 63.2808C64.1377 63.2808 62.8394 64.5855 61.7343 64.2095L61.4732 63.0439Z" fill="#FFB573"/>
<path d="M64.8066 60.6338L65.107 61.9084C65.1295 62.0087 65.1269 62.1134 65.0993 62.2123C65.0717 62.3112 65.0201 62.4008 64.9496 62.4724L64.1378 63.2808L63.5012 60.709L63.8946 60.333C63.9662 60.2649 64.0535 60.2176 64.1478 60.1958C64.2422 60.1741 64.3403 60.1787 64.4324 60.2091C64.5246 60.2395 64.6076 60.2946 64.6732 60.3691C64.7388 60.4436 64.7848 60.5348 64.8066 60.6338Z" fill="#FFB573"/>
<path d="M56.634 50.9217C56.4981 52.64 55.6791 56.8286 52.3422 66.9806L41.1475 64.9465C42.0739 60.4345 42.5603 57.5543 42.1311 48.5604C42.1207 48.3574 42.1503 48.1543 42.2178 47.9638C42.2853 47.7734 42.3894 47.5995 42.5236 47.4531C42.6578 47.3068 42.8192 47.191 42.9978 47.1131C43.1764 47.0351 43.3684 46.9966 43.5617 47C44.6841 47.0107 45.8052 47.0847 46.9201 47.2218C48.6324 47.3978 50.3307 47.7006 52.0024 48.128C53.3686 48.504 54.8315 49.053 55.7149 49.3914C56.0078 49.5032 56.257 49.7142 56.4234 49.9913C56.5898 50.2683 56.6639 50.5956 56.634 50.9217Z" fill="#263238"/>
<path opacity="0.2" d="M42.3421 51.0758C43.3113 51.527 44.0588 52.8581 43.5939 54.9787C43.3715 55.9409 42.894 56.8171 42.2169 57.5054C42.3099 55.8247 42.3242 53.8582 42.2491 51.324L42.3421 51.0758Z" fill="black"/>
<path d="M48.408 41.2961C48.4473 43.0746 48.2506 46.2818 46.9165 47.2218C46.9165 47.2218 47.8858 48.4965 50.5933 50.6923C53.1756 49.1883 52.0024 48.143 52.0024 48.143C50.2535 47.3572 50.5325 45.9434 51.069 44.665L48.408 41.2961Z" fill="#FFB573"/>
<path opacity="0.2" d="M49.4952 42.6722L51.0689 44.6613C50.9394 44.958 50.8353 45.2663 50.7577 45.5825C50.0782 45.3494 49.0839 44.5259 49.066 43.7025C49.0552 43.3152 49.4058 42.8377 49.4952 42.6722Z" fill="black"/>
<path d="M47.081 38.0211C47.2348 40.9351 47.2383 42.1571 48.6296 43.6611C50.7219 45.9171 54.0911 45.0899 54.7706 42.1872C55.3822 39.5552 55.0281 35.2462 52.3242 34.0694C51.7277 33.8063 51.0771 33.7083 50.4343 33.7846C49.7915 33.8609 49.1781 34.1089 48.6523 34.5051C48.1266 34.9014 47.7062 35.4325 47.4311 36.048C47.156 36.6635 47.0355 37.3428 47.081 38.0211Z" fill="#FFB573"/>
<path d="M47.056 39.9726C48.2506 40.0365 49.6204 37.615 49.066 36.5209C49.6919 36.3742 52.36 36.6901 52.3493 35.6561C53.5546 36.5397 56.2012 36.5848 56.6412 35.3854C57.0811 34.1859 56.0796 33.0692 54.7778 33.5054C53.8371 30.9561 49.3128 30.4297 47.6247 32.8511C45.4859 32.7947 40.8399 36.472 47.056 39.9726Z" fill="#263238"/>
<path d="M51.8737 38.8258C51.8737 39.0626 51.9881 39.2544 52.1383 39.2544C52.2885 39.2544 52.403 39.0664 52.4065 38.8295C52.4101 38.5926 52.2885 38.3971 52.1419 38.3971C51.9953 38.3971 51.8737 38.5889 51.8737 38.8258Z" fill="#263238"/>
<path d="M54.4201 38.8408C54.4201 39.0777 54.5381 39.2694 54.6848 39.2732C54.8315 39.277 54.9531 39.0814 54.9566 38.8446C54.9602 38.6077 54.8386 38.4159 54.692 38.4122C54.5453 38.4084 54.4237 38.6039 54.4201 38.8408Z" fill="#263238"/>
<path d="M54.6276 38.4272L55.1677 38.2655C55.1677 38.2655 54.8887 38.728 54.6276 38.4272Z" fill="#263238"/>
<path d="M53.6332 39.2619C53.8308 39.7993 54.098 40.3054 54.4273 40.7659C54.3119 40.8515 54.1801 40.9096 54.0411 40.9362C53.9021 40.9628 53.7592 40.9573 53.6225 40.9201L53.6332 39.2619Z" fill="#ED893E"/>
<path d="M52.3099 41.8563C52.4199 41.875 52.5312 41.8838 52.6426 41.8826C52.6513 41.8831 52.6601 41.8818 52.6683 41.8786C52.6765 41.8754 52.684 41.8705 52.6904 41.8642C52.6968 41.8578 52.7018 41.8502 52.7053 41.8417C52.7087 41.8333 52.7105 41.8242 52.7105 41.8149C52.7096 41.7963 52.7022 41.7786 52.6896 41.7654C52.6771 41.7522 52.6603 41.7444 52.6426 41.7435C52.3613 41.747 52.0833 41.6808 51.831 41.5501C51.5786 41.4195 51.3592 41.2281 51.1905 40.9915C51.1861 40.9833 51.1801 40.9761 51.1729 40.9704C51.1658 40.9647 51.1575 40.9607 51.1488 40.9585C51.14 40.9564 51.1309 40.9563 51.1221 40.958C51.1133 40.9598 51.1049 40.9636 51.0975 40.969C51.0857 40.9822 51.0791 40.9997 51.0791 41.0178C51.0791 41.036 51.0857 41.0535 51.0975 41.0667C51.2404 41.2756 51.421 41.4528 51.629 41.5883C51.837 41.7238 52.0684 41.8148 52.3099 41.8563Z" fill="#263238"/>
<path d="M51.9345 42.2549C52.0294 42.3145 52.1287 42.366 52.2313 42.409C52.2393 42.4127 52.2479 42.4146 52.2566 42.4147C52.2653 42.4148 52.2739 42.413 52.2819 42.4095C52.2899 42.406 52.2972 42.4008 52.3032 42.3943C52.3093 42.3877 52.314 42.38 52.3172 42.3714C52.3207 42.3631 52.3225 42.354 52.3226 42.3449C52.3226 42.3358 52.321 42.3267 52.3176 42.3183C52.3143 42.3099 52.3093 42.3022 52.3031 42.2958C52.2969 42.2895 52.2895 42.2845 52.2814 42.2812C52.0214 42.1739 51.789 42.0041 51.6026 41.7854C51.4163 41.5666 51.2813 41.3051 51.2084 41.0216C51.2068 41.0126 51.2034 41.0041 51.1984 40.9965C51.1935 40.9889 51.1872 40.9825 51.1798 40.9775C51.1725 40.9726 51.1642 40.9693 51.1556 40.9678C51.147 40.9664 51.1382 40.9668 51.1298 40.969C51.113 40.9726 51.0982 40.9828 51.0882 40.9974C51.0783 41.012 51.0739 41.0301 51.0761 41.0479C51.1363 41.2987 51.2431 41.5345 51.3905 41.7416C51.5378 41.9488 51.7227 42.1232 51.9345 42.2549Z" fill="#263238"/>
<path d="M46.2333 40.2922C46.3875 40.8321 46.7367 41.287 47.2062 41.5593C47.8321 41.9127 48.3006 41.36 48.2577 40.6531C48.2184 40.0177 47.8428 39.0664 47.149 39.0063C46.9976 38.9959 46.8461 39.0255 46.7083 39.0922C46.5705 39.159 46.4507 39.2608 46.3598 39.3885C46.2689 39.5162 46.2097 39.6657 46.1876 39.8235C46.1655 39.9813 46.1813 40.1424 46.2333 40.2922Z" fill="#FFB573"/>
<path d="M50.7148 37.5022C50.7402 37.5151 50.7687 37.519 50.7964 37.5136C50.824 37.5082 50.8493 37.4937 50.8686 37.4722C51.3014 37.0172 52.0811 37.1488 52.0882 37.1488C52.1227 37.1544 52.158 37.1457 52.1866 37.1247C52.2152 37.1037 52.2351 37.072 52.242 37.036C52.2451 37.0177 52.2446 36.9989 52.2407 36.9808C52.2367 36.9627 52.2294 36.9456 52.219 36.9306C52.2087 36.9155 52.1956 36.9027 52.1805 36.8931C52.1654 36.8834 52.1486 36.877 52.1311 36.8743C52.0954 36.8743 51.2084 36.7202 50.6826 37.2766C50.67 37.2896 50.6599 37.3051 50.653 37.3222C50.6462 37.3393 50.6426 37.3577 50.6426 37.3763C50.6426 37.3948 50.6462 37.4132 50.653 37.4303C50.6599 37.4475 50.67 37.4629 50.6826 37.4759L50.7148 37.5022Z" fill="#263238"/>
<path d="M55.2821 37.5549C55.3047 37.5581 55.3276 37.5553 55.3489 37.5467C55.3701 37.5382 55.389 37.5242 55.4037 37.506C55.426 37.4775 55.4366 37.441 55.4332 37.4044C55.4299 37.3677 55.4128 37.3339 55.3859 37.3105C55.2275 37.1652 55.0385 37.0617 54.8344 37.0088C54.6304 36.9558 54.4172 36.9548 54.2128 37.0059C54.1797 37.0171 54.1522 37.0416 54.1362 37.0739C54.1201 37.1063 54.1168 37.144 54.1269 37.1789C54.1314 37.1967 54.1393 37.2134 54.1501 37.2278C54.161 37.2423 54.1745 37.2544 54.1899 37.2632C54.2053 37.272 54.2223 37.2774 54.2397 37.279C54.2572 37.2807 54.2748 37.2786 54.2914 37.2729C54.4538 37.2339 54.6226 37.2365 54.7838 37.2803C54.945 37.3241 55.0938 37.408 55.2178 37.5248C55.2362 37.5408 55.2585 37.5511 55.2821 37.5549Z" fill="#263238"/>
<path d="M51.2728 132.111H54.0696L53.8908 125.302H51.0939L51.2728 132.111Z" fill="#FFB573"/>
<path d="M54.2342 131.769H51.0903C51.0368 131.767 50.9847 131.787 50.9452 131.825C50.9058 131.863 50.8821 131.916 50.8793 131.972L50.6468 134.585C50.6444 134.653 50.6549 134.72 50.6777 134.783C50.7005 134.846 50.7351 134.904 50.7795 134.953C50.8238 135.001 50.8771 135.04 50.936 135.067C50.9949 135.094 51.0583 135.108 51.1225 135.108C52.2169 135.089 52.7391 135.022 54.1233 135.022C54.9709 135.022 56.7342 135.112 57.9073 135.112C59.0805 135.112 59.0876 133.894 58.5905 133.781C56.3765 133.284 55.4788 132.604 54.7098 131.95C54.5752 131.835 54.4075 131.771 54.2342 131.769Z" fill="#263238"/>
<g opacity="0.2">
<path opacity="0.2" d="M53.8908 125.302L53.9838 128.814H51.1869L51.0939 125.302H53.8908Z" fill="black"/>
</g>
<path d="M52.3493 66.9806C52.3493 66.9806 54.0947 85.3407 54.6383 94.297C55.2034 103.611 54.4631 128.137 54.4631 128.137H50.6826C50.6826 128.137 48.3471 100.509 48.3471 94.9964C46.8592 85.0061 42.7569 74.6586 44.1517 65.4954L52.3493 66.9806Z" fill="#378FED"/>
<path opacity="0.6" d="M52.3493 66.9806C52.3493 66.9806 54.0947 85.3407 54.6383 94.297C55.2034 103.611 54.4631 128.137 54.4631 128.137H50.6826C50.6826 128.137 48.3471 100.509 48.3471 94.9964C46.8592 85.0061 42.7569 74.6586 44.1517 65.4954L52.3493 66.9806Z" fill="white"/>
<path opacity="0.2" d="M46.4086 74.2487C45.6133 74.4733 44.9044 74.9531 44.3806 75.6211C44.9565 79.43 45.9293 83.3366 46.8235 87.247C47.4637 82.9982 47.081 75.8392 46.4086 74.2487Z" fill="#378FED"/>
<path d="M50.3536 128.276H54.7922L55.1177 126.787L50.1461 126.607L50.3536 128.276Z" fill="#263238"/>
<path d="M55.3072 132.284C55.5465 132.306 55.7858 132.242 55.9867 132.104C56.0318 132.062 56.0662 132.01 56.0868 131.95C56.1075 131.891 56.1136 131.828 56.1048 131.765C56.1029 131.727 56.0917 131.689 56.0723 131.656C56.0529 131.624 56.026 131.596 55.9939 131.577C55.6362 131.382 54.5346 131.98 54.4094 132.047C54.3972 132.054 54.3874 132.064 54.3815 132.077C54.3757 132.09 54.3742 132.105 54.3772 132.119C54.3789 132.133 54.3846 132.146 54.3935 132.157C54.4024 132.168 54.4142 132.175 54.4273 132.179C54.7169 132.242 55.0114 132.278 55.3072 132.284ZM55.8079 131.675C55.8499 131.672 55.8919 131.681 55.9295 131.701C55.9433 131.708 55.955 131.719 55.9633 131.732C55.9715 131.745 55.976 131.761 55.976 131.777C55.9815 131.818 55.9772 131.859 55.9635 131.898C55.9497 131.937 55.927 131.971 55.8973 131.999C55.7292 132.16 55.2678 132.187 54.649 132.081C55.007 131.878 55.3953 131.741 55.7972 131.675H55.8079Z" fill="#378FED"/>
<path d="M54.4309 132.179H54.4559C54.7921 132.021 55.4502 131.386 55.4001 131.051C55.4001 130.972 55.3322 130.874 55.1498 130.856C55.0856 130.85 55.0209 130.857 54.9595 130.878C54.8981 130.899 54.8412 130.932 54.7921 130.976C54.4345 131.284 54.3773 132.074 54.3737 132.104C54.3734 132.116 54.3758 132.128 54.3808 132.139C54.3858 132.15 54.3931 132.16 54.4023 132.168C54.4109 132.174 54.4207 132.177 54.4309 132.179ZM55.0961 130.987H55.1355C55.2571 130.987 55.2642 131.051 55.2678 131.066C55.3 131.269 54.8529 131.765 54.5132 131.984C54.54 131.649 54.6649 131.331 54.8708 131.074C54.9342 131.018 55.0138 130.988 55.0961 130.987Z" fill="#378FED"/>
<path d="M28.0929 127.494L30.6788 128.615L33.322 122.396L30.7396 121.275L28.0929 127.494Z" fill="#FFB573"/>
<path d="M30.8827 128.592L28.1502 126.96C28.1039 126.931 28.049 126.921 27.9962 126.933C27.9433 126.944 27.8963 126.975 27.8641 127.02L26.3369 129.092C26.3002 129.146 26.2748 129.208 26.2622 129.273C26.2497 129.338 26.2504 129.406 26.2642 129.471C26.278 129.535 26.3047 129.597 26.3425 129.65C26.3803 129.703 26.4284 129.748 26.4835 129.78C27.4456 130.329 27.9356 130.532 29.1373 131.262C29.8741 131.705 31.362 132.698 32.3813 133.307C33.4006 133.916 34.0301 132.89 33.6581 132.555C31.9843 130.983 31.5551 129.942 31.2189 128.994C31.1576 128.821 31.0379 128.678 30.8827 128.592Z" fill="#263238"/>
<g opacity="0.2">
<path opacity="0.2" d="M33.322 122.399L31.9593 125.603L29.3734 124.482L30.7361 121.275L33.322 122.399Z" fill="black"/>
</g>
<path d="M49.2056 66.4091C49.2056 66.4091 44.6347 87.5102 43.8621 96.444C41.92 104.742 32.7746 125.208 32.7746 125.208L29.2767 123.704C29.2767 123.704 34.7596 101.84 37.7711 95.8161C38.0573 85.8295 38.0072 73.7975 41.0258 64.9277L49.2056 66.4091Z" fill="#378FED"/>
<path opacity="0.6" d="M49.2056 66.4091C49.2056 66.4091 44.6347 87.5102 43.8621 96.444C41.92 104.742 32.7746 125.208 32.7746 125.208L29.2767 123.704C29.2767 123.704 34.7596 101.84 37.7711 95.8161C38.0573 85.8295 38.0072 73.7975 41.0258 64.9277L49.2056 66.4091Z" fill="white"/>
<path d="M28.9048 123.696L33.0072 125.475L33.8477 124.23L29.3197 122.068L28.9048 123.696Z" fill="#263238"/>
<path d="M31.555 129.57C31.7532 129.713 31.9912 129.781 32.231 129.765C32.2896 129.752 32.3442 129.724 32.3899 129.684C32.4355 129.643 32.4706 129.591 32.4921 129.532C32.5097 129.499 32.5189 129.461 32.5189 129.423C32.5189 129.385 32.5097 129.347 32.4921 129.314C32.2883 128.96 31.0364 128.904 30.8969 128.9C30.8833 128.899 30.8696 128.902 30.8579 128.909C30.8462 128.917 30.8373 128.928 30.8325 128.942C30.8247 128.953 30.8204 128.967 30.8204 128.981C30.8204 128.995 30.8247 129.009 30.8325 129.021C31.0569 129.226 31.2988 129.41 31.555 129.57ZM32.2704 129.299C32.3084 129.32 32.3414 129.349 32.3669 129.385C32.3748 129.399 32.379 129.415 32.379 129.43C32.379 129.446 32.3748 129.462 32.3669 129.476C32.3527 129.514 32.3299 129.547 32.3007 129.574C32.2715 129.601 32.2365 129.62 32.1988 129.63C31.9735 129.679 31.5622 129.464 31.0722 129.051C31.4832 129.061 31.8896 129.145 32.2739 129.299H32.2704Z" fill="#378FED"/>
<path d="M30.8505 129.028C30.8505 129.028 30.8505 129.028 30.8755 129.028C31.2332 129.062 32.113 128.851 32.2239 128.536C32.2489 128.46 32.2489 128.348 32.0987 128.235C32.0472 128.197 31.9891 128.17 31.9277 128.156C31.8663 128.142 31.8029 128.14 31.741 128.152C31.2904 128.235 30.8648 128.904 30.8469 128.904C30.8409 128.914 30.8377 128.926 30.8377 128.938C30.8377 128.95 30.8409 128.962 30.8469 128.972C30.8431 128.981 30.8414 128.991 30.842 129C30.8426 129.01 30.8456 129.02 30.8505 129.028ZM31.9878 128.34C32.0012 128.345 32.0134 128.352 32.0236 128.363C32.1201 128.434 32.1058 128.483 32.0987 128.498C32.0307 128.69 31.4084 128.874 31.0257 128.904C31.2053 128.626 31.4629 128.415 31.7625 128.299C31.8399 128.286 31.919 128.301 31.9878 128.34Z" fill="#378FED"/>
<path d="M52.0882 38.4084L52.6282 38.2505C52.6282 38.2505 52.3385 38.6904 52.0882 38.4084Z" fill="#263238"/>
<path d="M41.101 64.2283L40.6432 65.2285C40.5895 65.3037 40.6682 65.4014 40.797 65.4278L52.3171 67.5183C52.4172 67.5371 52.5102 67.5183 52.5281 67.4318L52.8035 66.3978C52.8214 66.3264 52.7427 66.2474 52.6318 66.2286L41.2977 64.1719C41.263 64.1627 41.2267 64.1631 41.1923 64.173C41.1578 64.1828 41.1264 64.2019 41.101 64.2283Z" fill="#263238"/>
<path d="M42.4314 65.8413L42.1274 65.7887C42.0666 65.7887 42.0273 65.7361 42.038 65.6947L42.3957 64.3524C42.3957 64.3148 42.4636 64.2922 42.5244 64.3035L42.8284 64.3562C42.8892 64.3562 42.9286 64.4088 42.9179 64.4502L42.5602 65.7925C42.5602 65.8301 42.503 65.8526 42.4314 65.8413Z" fill="#378FED"/>
<g opacity="0.6">
<path opacity="0.6" d="M42.4314 65.8413L42.1274 65.7887C42.0666 65.7887 42.0273 65.7361 42.038 65.6947L42.3957 64.3524C42.3957 64.3148 42.4636 64.2922 42.5244 64.3035L42.8284 64.3562C42.8892 64.3562 42.9286 64.4088 42.9179 64.4502L42.5602 65.7925C42.5602 65.8301 42.503 65.8526 42.4314 65.8413Z" fill="white"/>
</g>
<path d="M51.4444 67.477L51.1441 67.4206C51.0833 67.4206 51.0404 67.3679 51.0511 67.3303L51.4087 65.988C51.4087 65.9466 51.4766 65.9241 51.5374 65.9354L51.8414 65.9918C51.9022 65.9918 51.9415 66.0444 51.9308 66.082L51.5732 67.4243C51.566 67.4657 51.5052 67.4882 51.4444 67.477Z" fill="#378FED"/>
<g opacity="0.6">
<path opacity="0.6" d="M51.4444 67.477L51.1441 67.4206C51.0833 67.4206 51.0404 67.3679 51.0511 67.3303L51.4087 65.988C51.4087 65.9466 51.4766 65.9241 51.5374 65.9354L51.8414 65.9918C51.9022 65.9918 51.9415 66.0444 51.9308 66.082L51.5732 67.4243C51.566 67.4657 51.5052 67.4882 51.4444 67.477Z" fill="white"/>
</g>
<path d="M46.963 66.6648L46.659 66.6084C46.5982 66.6084 46.5588 66.5558 46.5696 66.5182L46.9272 65.1721C46.9272 65.1345 46.9951 65.1119 47.0559 65.1232L47.3599 65.1758C47.4172 65.1758 47.4601 65.2285 47.4493 65.2698L47.0917 66.6122C47.081 66.6498 47.0238 66.6723 46.963 66.6648Z" fill="#378FED"/>
<g opacity="0.6">
<path opacity="0.6" d="M46.963 66.6648L46.659 66.6084C46.5982 66.6084 46.5588 66.5558 46.5696 66.5182L46.9272 65.1721C46.9272 65.1345 46.9951 65.1119 47.0559 65.1232L47.3599 65.1758C47.4172 65.1758 47.4601 65.2285 47.4493 65.2698L47.0917 66.6122C47.081 66.6498 47.0238 66.6723 46.963 66.6648Z" fill="white"/>
</g>
<path d="M39.8777 66.5219L41.9736 68.808L39.1374 69.0073C39.1374 69.0073 38.1682 67.4168 38.7333 66.349L39.8777 66.5219Z" fill="#FFB573"/>
<path d="M42.8821 50.9781C42.0738 52.3317 41.2369 53.6778 40.3999 55.0126C39.563 56.3474 38.7082 57.701 37.9429 58.9944L37.8213 59.1974C37.8213 59.1974 37.8213 59.22 37.7926 59.2463C37.7632 59.3323 37.7452 59.4221 37.739 59.5133C37.7163 59.8109 37.7295 60.1103 37.7783 60.4044C37.8983 61.1231 38.0753 61.8299 38.3077 62.5175C38.5366 63.2394 38.8048 63.9651 39.1017 64.6833C39.3985 65.4014 39.7061 66.1309 40.0173 66.834L38.8155 67.6236C37.8558 66.2986 37.0175 64.881 36.3119 63.3898C35.9362 62.5972 35.6367 61.7672 35.4178 60.912C35.2942 60.421 35.2293 59.9158 35.2247 59.408C35.2258 59.0973 35.263 58.788 35.3355 58.4868C35.382 58.3116 35.4418 58.1406 35.5144 57.9754L35.6002 57.795L35.6717 57.6483C36.0509 56.8963 36.43 56.197 36.8234 55.4901C37.2168 54.7832 37.6102 54.0989 38.0108 53.4108C38.812 52.0309 39.6274 50.6735 40.4822 49.3312L42.8821 50.9781Z" fill="#FFB573"/>
<path d="M43.6403 47.0677C40.8935 46.5713 38.8298 51.027 38.8298 51.027L42.0487 55.193C42.0487 55.193 44.1124 52.7678 44.5702 51.215C45.0566 49.5982 44.9779 47.3121 43.6403 47.0677Z" fill="#263238"/>
<path d="M42.2169 71.267L39.8313 71.2971L39.1375 69.0073L41.9737 68.808L42.2169 71.267Z" fill="#FFB573"/>
<path d="M136.539 17.5479C137.445 17.5489 138.343 17.7377 139.18 18.1035C140.018 18.4694 140.778 19.0051 141.419 19.68C142.059 20.355 142.567 21.156 142.913 22.0372C143.258 22.9185 143.436 23.8627 143.434 24.816V80.0278C143.432 81.9499 142.705 83.7926 141.412 85.1516C140.12 86.5107 138.367 87.2751 136.539 87.2771H119.049C117.626 87.2771 116.262 87.8713 115.256 88.929C114.249 89.9867 113.684 91.4213 113.684 92.9171V98.2638L102.987 88.6307C102.014 87.7562 100.776 87.2761 99.4959 87.2771H43.4615C41.6333 87.2751 39.8804 86.5107 38.5876 85.1516C37.2949 83.7926 36.5678 81.9499 36.5659 80.0278V24.816C36.5678 22.894 37.2949 21.0512 38.5876 19.6922C39.8804 18.3331 41.6333 17.5687 43.4615 17.5667H136.539V17.5479ZM136.539 11.9267H43.4615C40.2127 11.9366 37.0997 13.2978 34.8024 15.7129C32.5052 18.1279 31.2104 21.4006 31.201 24.816V80.0278C31.2104 83.4432 32.5052 86.7159 34.8024 89.131C37.0997 91.546 40.2127 92.9072 43.4615 92.9171H99.4959L119.049 110.521V92.9171H136.539C139.787 92.9072 142.9 91.546 145.198 89.131C147.495 86.7159 148.79 83.4432 148.799 80.0278V24.816C148.79 21.4006 147.495 18.1279 145.198 15.7129C142.9 13.2978 139.787 11.9366 136.539 11.9267Z" fill="#378FED"/>
<path d="M86.0157 133.232C86.3448 133.232 86.6559 133.187 86.7561 133.033C86.7835 132.992 86.7982 132.943 86.7982 132.893C86.7982 132.844 86.7835 132.795 86.7561 132.754C86.7342 132.717 86.7056 132.685 86.6718 132.66C86.638 132.635 86.5998 132.617 86.5594 132.608C86.1338 132.487 85.2646 133.018 85.2253 133.04C85.2147 133.047 85.2065 133.057 85.2019 133.069C85.1974 133.082 85.1968 133.095 85.2002 133.108C85.2025 133.12 85.2086 133.132 85.2176 133.141C85.2266 133.15 85.2381 133.155 85.2503 133.157C85.5027 133.207 85.7589 133.232 86.0157 133.232ZM86.402 132.717C86.4412 132.713 86.4808 132.713 86.52 132.717C86.5689 132.73 86.6112 132.762 86.6381 132.807C86.6846 132.886 86.6702 132.924 86.6559 132.946C86.5451 133.119 85.9013 133.123 85.4256 133.055C85.7276 132.88 86.0593 132.769 86.402 132.728V132.717Z" fill="#378FED"/>
<path d="M85.2467 133.16H85.2717C85.5722 133.017 86.1587 132.438 86.1015 132.138C86.1015 132.066 86.0371 131.976 85.8726 131.961C85.8132 131.953 85.753 131.959 85.6958 131.977C85.6385 131.995 85.5855 132.025 85.54 132.066C85.2288 132.348 85.1823 133.066 85.1823 133.096C85.1826 133.108 85.1853 133.12 85.1902 133.13C85.1952 133.14 85.2022 133.149 85.2109 133.157C85.2222 133.162 85.2347 133.163 85.2467 133.16ZM85.8261 132.077H85.8654C85.9727 132.077 85.9799 132.134 85.9835 132.149C86.0192 132.329 85.6258 132.784 85.3146 132.984C85.3305 132.682 85.4383 132.393 85.6222 132.16C85.6777 132.106 85.7506 132.077 85.8261 132.077Z" fill="#378FED"/>
<path d="M82.4463 133.096H84.9892L85.0214 126.908H82.4785L82.4463 133.096Z" fill="#CE7A63"/>
<path d="M84.9641 132.788H82.1851C82.1358 132.787 82.0878 132.805 82.0497 132.838C82.0117 132.871 81.9862 132.918 81.9777 132.969L81.5592 135.36C81.5492 135.419 81.5516 135.479 81.5663 135.536C81.581 135.594 81.6075 135.648 81.644 135.693C81.6806 135.739 81.7262 135.775 81.7777 135.8C81.8291 135.825 81.8852 135.838 81.9419 135.838C82.9433 135.819 84.3883 135.755 85.6473 135.755C87.1173 135.755 87.2997 135.841 89.0272 135.841C90.0716 135.841 90.3184 134.732 89.8784 134.631C87.8755 134.172 87.3426 134.123 85.5865 133.01C85.4021 132.878 85.1869 132.801 84.9641 132.788Z" fill="#263238"/>
<path opacity="0.2" d="M85.0214 126.908L85.0071 130.1H82.4606L82.4785 126.908H85.0214Z" fill="black"/>
<path d="M65.6148 132.311C65.6342 132.027 65.5512 131.747 65.3824 131.525C65.3439 131.495 65.2976 131.48 65.25 131.48C65.2025 131.48 65.1562 131.495 65.1177 131.525C65.0837 131.546 65.0546 131.575 65.0324 131.609C65.0101 131.644 64.9953 131.683 64.989 131.724C64.896 132.168 65.4503 133.104 65.4753 133.145C65.4821 133.156 65.4918 133.165 65.5033 133.17C65.5147 133.176 65.5274 133.178 65.5397 133.175C65.5515 133.174 65.5625 133.168 65.5709 133.159C65.5793 133.151 65.5847 133.139 65.5862 133.127C65.6164 132.856 65.626 132.583 65.6148 132.311ZM65.0998 131.882C65.0944 131.842 65.0944 131.802 65.0998 131.762C65.1029 131.736 65.1112 131.712 65.1242 131.691C65.1372 131.669 65.1545 131.651 65.1749 131.638C65.25 131.592 65.2858 131.611 65.3073 131.638C65.4789 131.762 65.5183 132.438 65.4789 132.935C65.2895 132.613 65.1608 132.255 65.0998 131.882Z" fill="#378FED"/>
<path d="M65.5863 133.104C65.5884 133.095 65.5884 133.086 65.5863 133.078C65.4325 132.754 64.8495 132.111 64.5634 132.156C64.4954 132.156 64.4131 132.217 64.406 132.393C64.4022 132.522 64.4458 132.647 64.5276 132.743C64.8136 132.986 65.1626 133.133 65.5291 133.164C65.5395 133.166 65.5501 133.164 65.5597 133.159C65.5692 133.155 65.5772 133.147 65.5827 133.138C65.5874 133.127 65.5887 133.115 65.5863 133.104ZM64.5133 132.442V132.405C64.5133 132.292 64.5598 132.284 64.5741 132.284C64.7458 132.254 65.2 132.69 65.4075 133.036C65.1112 133.005 64.8308 132.88 64.6027 132.679C64.5532 132.616 64.5243 132.539 64.5204 132.457L64.5133 132.442Z" fill="#378FED"/>
<path d="M65.5469 133.134L68.0398 133.318L69.0663 127.08L66.5769 126.896L65.5469 133.134Z" fill="#CE7A63"/>
<path d="M65.5219 132.536L68.2723 132.281C68.3236 132.276 68.375 132.289 68.4184 132.318C68.4618 132.348 68.4946 132.391 68.5119 132.442L69.3488 134.762C69.3682 134.816 69.3758 134.873 69.3708 134.93C69.3659 134.987 69.3486 135.042 69.3203 135.091C69.292 135.14 69.2535 135.182 69.2076 135.213C69.1617 135.244 69.1097 135.263 69.0555 135.27C68.0612 135.345 66.6163 135.416 65.3681 135.533C63.9124 135.668 64.8602 135.665 63.1506 135.826C62.117 135.924 61.6735 134.845 62.0777 134.698C63.9804 134.059 64.3059 133.619 64.9389 132.796C65.0146 132.714 65.1052 132.648 65.2054 132.604C65.3055 132.559 65.4131 132.536 65.5219 132.536Z" fill="#263238"/>
<path opacity="0.2" d="M69.0663 127.084L68.537 130.299L66.0441 130.115L66.5734 126.896L69.0663 127.084Z" fill="black"/>
<path d="M85.937 65.1044C85.937 65.1044 81.2875 85.6378 79.5278 93.2593C77.5857 101.603 69.9712 129.291 69.9712 129.291L65.4289 128.257C65.4289 128.257 70.3646 104.468 72.3067 92.8269C73.7981 83.8894 77.1672 65.1044 77.1672 65.1044H85.937Z" fill="#263238"/>
<path d="M70.6865 127.84L70.3503 129.679L64.9245 129.07L64.8494 127.385L70.6865 127.84Z" fill="#378FED"/>
<path opacity="0.3" d="M83.2582 74.621C80.0392 75.0684 79.4562 86.9274 79.3811 93.8834L79.5277 93.2555C80.4934 89.0969 82.3139 81.0769 83.7732 74.6586C83.6063 74.6058 83.4304 74.593 83.2582 74.621Z" fill="black"/>
<path d="M90.7619 65.1044C90.7619 65.1044 89.5208 85.1001 88.9736 93.2405C88.3978 101.708 86.1123 129.479 86.1123 129.479H81.7738C81.7738 129.479 81.3196 102.216 81.1944 93.8872C81.0549 84.8106 81.8168 65.1044 81.8168 65.1044H90.7619Z" fill="#263238"/>
<path d="M86.6952 127.678C86.7131 127.678 86.52 129.558 86.52 129.558H81.2803L81.0764 127.878L86.6952 127.678Z" fill="#378FED"/>
<path d="M78.7337 45.872C78.0398 47.3497 77.3353 48.9026 76.6843 50.4291C76.0334 51.9557 75.3932 53.501 74.8961 55.0426L74.7029 55.6179L74.5312 56.1894L74.4526 56.4489C74.4589 56.3877 74.4589 56.3259 74.4526 56.2646C74.4283 56.0115 74.3132 55.7775 74.1307 55.6104C73.9912 55.5126 73.9876 55.554 74.0413 55.5841C74.1408 55.6325 74.2452 55.6691 74.3524 55.6931C74.6731 55.764 74.9982 55.8105 75.3252 55.8322C76.8908 55.8829 78.4578 55.8339 80.0177 55.6856H80.0606C80.2915 55.6673 80.5209 55.7371 80.7068 55.8822C80.8926 56.0274 81.0225 56.2381 81.0725 56.4758C81.1224 56.7134 81.0892 56.9621 80.9789 57.1761C80.8686 57.3901 80.6886 57.5551 80.4719 57.6408C78.848 58.3294 77.1454 58.792 75.4075 59.017C74.9083 59.0708 74.4054 59.0758 73.9053 59.032C73.6031 59.0063 73.3037 58.9509 73.0112 58.8666C72.5815 58.7491 72.1828 58.5306 71.8453 58.2274C71.6011 58.0075 71.4006 57.7392 71.2551 57.4378C71.1088 57.1249 71.0214 56.7853 70.9976 56.4376C70.9828 56.1603 71.0032 55.8821 71.0584 55.6104L71.1371 55.2344L71.2873 54.5538L71.459 53.8883C71.9289 52.1587 72.4962 50.4599 73.1578 48.801C73.8159 47.1542 74.5134 45.5712 75.3252 43.9694C75.5637 43.5008 75.9677 43.1493 76.4503 42.9908C76.9328 42.8323 77.4553 42.8794 77.9051 43.122C78.355 43.3646 78.6961 43.7833 78.8551 44.2878C79.0141 44.7924 78.9782 45.3424 78.7552 45.8194L78.7337 45.872Z" fill="#CF7A64"/>
<path d="M80.0894 55.7871L81.6702 55.1329L81.5915 58.2236C80.9534 58.1766 80.3376 57.9578 79.8032 57.5882C79.6722 57.4883 79.5735 57.3486 79.5204 57.1879C79.4673 57.0272 79.4624 56.8532 79.5064 56.6895L79.5958 56.3511C79.6295 56.2226 79.6918 56.1044 79.7777 56.0064C79.8635 55.9083 79.9704 55.8331 80.0894 55.7871Z" fill="#CE7A63"/>
<path d="M84.2739 54.7832L83.7052 57.4603L81.5915 58.2198L81.6702 55.1329L84.2739 54.7832Z" fill="#CE7A63"/>
<path d="M87.2174 32.0427C87.2603 32.2533 87.3998 32.3999 87.5286 32.3736C87.6574 32.3473 87.7361 32.1518 87.6932 31.9412C87.6502 31.7306 87.5143 31.5652 87.3819 31.6066C87.2496 31.6479 87.178 31.8284 87.2174 32.0427Z" fill="#263238"/>
<path d="M87.3784 32.4037C87.7431 32.9991 88.1848 33.5382 88.691 34.0054C88.5732 34.1381 88.4292 34.2421 88.2693 34.3103C88.1093 34.3785 87.9371 34.4092 87.7647 34.4002L87.3784 32.4037Z" fill="#BA4D3C"/>
<path d="M86.2553 31.0237C86.2249 31.0234 86.1956 31.0113 86.173 30.9899C86.1619 30.9784 86.1531 30.9646 86.147 30.9494C86.141 30.9343 86.1379 30.918 86.1379 30.9015C86.1379 30.8851 86.141 30.8688 86.147 30.8537C86.1531 30.8385 86.1619 30.8247 86.173 30.8132C86.2998 30.662 86.4591 30.5449 86.6377 30.4717C86.8162 30.3984 87.0088 30.3711 87.1995 30.3921C87.2306 30.3985 87.2581 30.4174 87.2761 30.4448C87.2941 30.4722 87.3013 30.5059 87.296 30.5387C87.2939 30.5551 87.2886 30.5708 87.2805 30.585C87.2725 30.5992 87.2618 30.6116 87.2492 30.6214C87.2365 30.6312 87.2221 30.6383 87.2068 30.6422C87.1915 30.646 87.1757 30.6467 87.1601 30.644C87.0092 30.6286 86.8569 30.6516 86.7162 30.7112C86.5755 30.7707 86.4505 30.8651 86.3519 30.9862C86.3392 30.9993 86.3241 31.0094 86.3074 31.0159C86.2908 31.0224 86.273 31.025 86.2553 31.0237Z" fill="#263238"/>
<path d="M81.638 35.8854C81.9956 37.8406 82.221 40.5516 80.9227 41.8563C80.9227 41.8563 81.4341 43.8378 84.8891 43.8378C88.6873 43.8378 86.7167 42.097 86.7167 42.097C85.1358 41.5818 85.1501 39.6906 85.5114 38.1715L81.638 35.8854Z" fill="#CE7A63"/>
<path d="M76.3697 41.8638C73.9841 42.4391 72.4139 49.1996 72.4139 49.1996L76.409 52.343C77.8878 51.2269 78.9361 49.5897 79.3633 47.7294C80.1644 44.368 78.8053 41.2773 76.3697 41.8638Z" fill="#378FED"/>
<path opacity="0.2" d="M78.4119 46.5676C77.0503 48.0915 76.2578 50.0809 76.1801 52.17L76.3911 52.343C77.8687 51.2257 78.9168 49.589 79.3454 47.7294C79.3919 47.5302 79.4348 47.3271 79.4706 47.1316L78.4119 46.5676Z" fill="black"/>
<path d="M91.4307 44.5447C91.9458 47.4061 92.7219 54.1966 91.2698 65.7398C91.2563 65.8345 91.2142 65.9221 91.1498 65.9897C91.0855 66.0574 91.0021 66.1016 90.9121 66.1158C89.6659 66.2705 88.4057 66.2528 87.1638 66.0632C84.6602 65.6872 82.5822 65.8489 80.1537 66.0632C79.0827 66.1506 78.0076 66.167 76.9347 66.1121C76.8771 66.109 76.8207 66.0933 76.7691 66.0662C76.7174 66.039 76.6717 66.001 76.6348 65.9544C76.5978 65.9078 76.5704 65.8536 76.5544 65.7953C76.5383 65.7371 76.5338 65.6759 76.5413 65.6157C76.9168 62.6453 78.2795 51.6022 76.3875 41.8751C77.8902 41.5723 79.4098 41.3713 80.937 41.2735C82.8631 41.155 84.7942 41.155 86.7203 41.2735C87.357 41.3337 87.9829 41.4314 88.5408 41.533C89.255 41.6707 89.913 42.0318 90.4286 42.5692C90.9442 43.1066 91.2935 43.7952 91.4307 44.5447Z" fill="#378FED"/>
<path d="M80.429 33.0241C81.08 35.5884 81.3411 37.1225 82.8433 38.1865C85.1073 39.7921 87.9221 37.9497 88.0115 35.2349C88.0902 32.7909 87.01 29.0121 84.3955 28.4933C83.8192 28.3759 83.2238 28.4155 82.6661 28.6083C82.1085 28.8011 81.607 29.1408 81.2094 29.5949C80.8119 30.049 80.5314 30.6025 80.3948 31.2027C80.2583 31.803 80.27 32.43 80.429 33.0241Z" fill="#CE7A63"/>
<path d="M86.1337 33.8099C86.8955 35.5771 86.6559 37.1939 85.7081 37.9459C84.6351 38.8032 81.6272 38.9348 80.4863 37.7203C80.9191 37.2654 81.1587 36.6976 80.6043 35.8892C80.0499 35.0808 78.0149 33.825 77.9755 32.0991C77.9362 30.3733 79.0235 30.1778 78.9591 30.1778C77.997 29.7266 78.0578 28.1022 79.1165 27.2074C80.2395 26.2561 82.0636 25.9929 84.2346 26.4554C85.6044 26.7411 86.9492 26.7148 86.7131 25.8049C88.3262 26.7787 87.525 30.3846 85.9656 30.8583C86.2124 31.5088 87.2925 32.5428 87.2925 32.5428C87.2925 32.5428 87.0279 33.6182 86.1337 33.8099Z" fill="#263238"/>
<path d="M79.1165 29.8281C79.1165 29.8281 78.53 30.2041 76.9884 29.7303C77.4033 30.5387 78.9449 30.5688 79.3168 30.3845C79.6888 30.2003 79.1165 29.8281 79.1165 29.8281Z" fill="#263238"/>
<path d="M85.1538 33.1632C85.294 33.7675 85.6211 34.3057 86.0837 34.6935C86.6953 35.2011 87.1567 34.7349 87.1567 33.9904C87.1316 33.3211 86.799 32.2533 86.1052 32.0352C85.4113 31.8171 84.9928 32.4337 85.1538 33.1632Z" fill="#CE7A63"/>
<path d="M91.5273 44.1537C91.8456 44.932 92.146 45.7178 92.4536 46.4999C92.7612 47.282 93.0616 48.0678 93.3585 48.8537L95.1253 53.5499C95.4221 54.3245 95.719 55.0953 96.0194 55.836L96.2483 56.3699L96.3056 56.5015V56.5316C96.3056 56.5316 96.3056 56.5316 96.2841 56.494C96.2331 56.3999 96.1745 56.3106 96.1088 56.227C95.9757 56.0728 95.8169 55.9454 95.6403 55.851C95.5108 55.7749 95.3709 55.7203 95.2254 55.6894C95.1361 55.6683 95.0451 55.6557 94.9536 55.6518C94.8976 55.6479 94.8415 55.6479 94.7855 55.6518C94.7298 55.6556 94.6746 55.6657 94.621 55.6818C94.5907 55.6879 94.5617 55.6993 94.5351 55.7157C94.6424 55.6943 94.7461 55.6563 94.8427 55.6029C94.9858 55.5352 95.1467 55.4525 95.3041 55.3622C95.955 54.9862 96.6418 54.5764 97.3249 54.159C98.008 53.7417 98.7162 53.3206 99.4243 52.922H99.4458C99.6443 52.8094 99.874 52.7732 100.095 52.8195C100.316 52.8658 100.515 52.9918 100.658 53.1758C100.8 53.3597 100.877 53.5901 100.875 53.8273C100.873 54.0644 100.793 54.2934 100.648 54.4749C99.5777 55.8393 98.3794 57.0864 97.0709 58.1973C96.8957 58.3402 96.7133 58.483 96.5094 58.6297C96.2667 58.8087 96.008 58.9623 95.7369 59.0884C95.6209 59.1404 95.5013 59.1832 95.3792 59.2162C95.2772 59.2444 95.1731 59.2632 95.0681 59.2726C94.9859 59.2783 94.9035 59.2783 94.8213 59.2726C94.7009 59.2705 94.5811 59.2553 94.4636 59.2275C94.2953 59.1881 94.1329 59.1249 93.9808 59.0395C93.78 58.9269 93.6016 58.775 93.455 58.5921C93.3808 58.4989 93.3138 58.3996 93.2547 58.295L93.2226 58.2311L93.2011 58.1935L93.1224 58.0394C93.0115 57.8326 92.9185 57.637 92.8148 57.434C92.425 56.6444 92.0709 55.8661 91.7418 55.084C91.0516 53.5236 90.4042 51.967 89.7712 50.4028C89.4564 49.6207 89.1464 48.8361 88.8412 48.049C88.5372 47.2632 88.2332 46.4774 87.9435 45.6878C87.7505 45.1891 87.7538 44.6304 87.9526 44.1343C88.1515 43.6382 88.5297 43.2455 89.004 43.0426C89.4783 42.8397 90.0098 42.8431 90.4817 43.0522C90.9535 43.2613 91.3271 43.6588 91.5201 44.1574L91.5273 44.1537Z" fill="#CF7A64"/>
<path d="M100.862 51.3654C100.405 51.6404 100.005 52.0075 99.6831 52.4456C99.3615 52.8837 99.1253 53.3842 98.9879 53.9184L99.8713 55.1103L101.803 54.4824C101.956 54.4316 102.088 54.3284 102.178 54.1891L103.169 52.6513C103.246 52.5016 103.281 52.3318 103.27 52.162C103.258 51.9922 103.201 51.8293 103.105 51.6925L102.057 50.211L100.862 51.3654Z" fill="#CE7A63"/>
<path d="M86.2768 46.0299C86.4986 49.0116 89.6209 52.907 89.6209 52.907L94.0236 49.4365C94.0236 49.4365 93.3548 45.2441 91.073 42.9693C88.2511 40.1605 86.0658 43.24 86.2768 46.0299Z" fill="#378FED"/>
<path d="M87.3461 41.2622C86.9384 40.0064 82.2495 39.7883 79.424 40.0891C76.5986 40.3899 78.022 42.7023 78.4977 43.0257C77.2173 43.5257 77.9004 45.9021 80.286 47.0677C82.6716 48.2333 87.854 42.7775 87.3461 41.2622Z" fill="#263238"/>
</svg>
