<svg width="20" height="24" viewBox="0 0 20 24" fill="none" xmlns="http://www.w3.org/2000/svg">
<path fill-rule="evenodd" clip-rule="evenodd" d="M13.4707 0C17.3757 0 19.6161 1.93294 19.6161 5.30033V22.0348C19.6161 22.7371 19.2546 23.3691 18.6467 23.7225C18.0412 24.0771 17.3113 24.084 16.6988 23.7387L9.83738 19.8624L2.91265 23.7467C2.61332 23.9148 2.28522 24 1.95596 24C1.61635 24 1.27673 23.909 0.968197 23.7271C0.361491 23.3737 0 22.7417 0 22.0406V5.08965C0 1.85465 2.24147 0 6.14995 0H13.4707ZM13.4707 1.72687H6.14995C3.21543 1.72687 1.72687 2.85739 1.72687 5.08965V22.0406C1.72687 22.1488 1.78903 22.2075 1.84084 22.2374C1.89265 22.2697 1.97438 22.2927 2.06879 22.2397L9.41603 18.1183C9.67851 17.9721 9.99971 17.9709 10.2633 18.1194L17.5473 22.234C17.6428 22.2892 17.7246 22.2639 17.7764 22.2328C17.8282 22.2017 17.8892 22.143 17.8892 22.0348L17.8888 5.16914C17.8801 4.1783 17.6883 1.72687 13.4707 1.72687ZM13.9759 7.74615C14.4525 7.74615 14.8393 8.13297 14.8393 8.60958C14.8393 9.0862 14.4525 9.47301 13.9759 9.47301H5.55107C5.07445 9.47301 4.68764 9.0862 4.68764 8.60958C4.68764 8.13297 5.07445 7.74615 5.55107 7.74615H13.9759Z" fill="black" fill-opacity="0.44"/>
</svg>
