<svg xmlns="http://www.w3.org/2000/svg" xmlns:xlink="http://www.w3.org/1999/xlink" viewBox="0 0 686.62 450.57"><defs><style>.cls-1{isolation:isolate;}.cls-2{mix-blend-mode:overlay;fill:url(#linear-gradient);}</style><linearGradient id="linear-gradient" x1="-218.19" y1="806.98" x2="534.87" y2="-270.94" gradientUnits="userSpaceOnUse"><stop offset="0" stop-color="#ffed25"/><stop offset="0.04" stop-color="#fae139"/><stop offset="0.09" stop-color="#f4d154"/><stop offset="0.15" stop-color="#f0c567"/><stop offset="0.21" stop-color="#edbe72"/><stop offset="0.28" stop-color="#ecbc76"/><stop offset="0.47" stop-color="#db9188"/><stop offset="0.75" stop-color="#cf698b"/><stop offset="1" stop-color="#c02484"/></linearGradient></defs><title>Asset 8</title><g class="cls-1"><g id="Layer_2" data-name="Layer 2"><g id="Layer_1-2" data-name="Layer 1"><path class="cls-2" d="M686.62,0a85,85,0,0,1-4.88,11.82A93.81,93.81,0,0,1,667,33.13c-4.56,4.9-9.81,9.1-14.49,13.89-14.3,14.59-28.63,27-47,36.19-16.85,8.48-34.91,14.34-53.28,18.41-1.3.29-2.61.57-3.91.84q-3.63.75-7.28,1.41c-45.75,8.31-92.91,7.95-138.05,19.18-4,1-8,2.1-12,3.33C350.1,139,311.15,164.2,295,203.85c-26.64,65.27,15,149.82-26.61,206.45-23.24,31.6-65.92,42.42-104.74,39.92S87.55,434.3,49.35,426.84A235.89,235.89,0,0,0,0,422.06V0Z"/></g></g></g></svg>