<svg width="22" height="27" viewBox="0 0 22 27" fill="none" xmlns="http://www.w3.org/2000/svg">
<path d="M14.5658 0C18.1316 0 21.0132 1.40789 21.0526 4.98684V24.9605C21.0526 25.1842 21 25.4079 20.8947 25.6053C20.7237 25.9211 20.4342 26.1579 20.0789 26.2632C19.7368 26.3684 19.3553 26.3158 19.0395 26.1316L10.5132 21.8684L1.97368 26.1316C1.77763 26.2355 1.55263 26.3026 1.32895 26.3026C0.592105 26.3026 0 25.6974 0 24.9605L0 4.98684C0 1.40789 2.89474 0 6.44737 0L14.5658 0ZM15.4605 7.94737L5.55263 7.94737C4.98684 7.94737 4.52632 8.40789 4.52632 8.98684C4.52632 9.56447 4.98684 10.0263 5.55263 10.0263L15.4605 10.0263C16.0263 10.0263 16.4868 9.56447 16.4868 8.98684C16.4868 8.40789 16.0263 7.94737 15.4605 7.94737Z" fill="white"/>
</svg>
