<svg width="21" height="26" viewBox="0 0 21 26" fill="none" xmlns="http://www.w3.org/2000/svg">
<path d="M14.5584 0C17.8962 0 20.5935 1.33753 20.6304 4.73761V23.7131C20.6304 23.9256 20.5811 24.1381 20.4826 24.3256C20.3225 24.6256 20.0515 24.8506 19.719 24.9506C19.3988 25.0506 19.0416 25.0006 18.746 24.8256L10.7649 20.7755L2.77154 24.8256C2.58803 24.9243 2.37741 24.9881 2.16804 24.9881C1.47831 24.9881 0.924072 24.4131 0.924072 23.7131L0.924072 4.73761C0.924072 1.33753 3.63369 0 6.95914 0L14.5584 0ZM15.3959 7.55018L6.12162 7.55018C5.59201 7.55018 5.16094 7.98769 5.16094 8.5377C5.16094 9.08646 5.59201 9.52522 6.12162 9.52522L15.3959 9.52522C15.9255 9.52522 16.3566 9.08646 16.3566 8.5377C16.3566 7.98769 15.9255 7.55018 15.3959 7.55018Z" fill="#FCA800"/>
<path d="M15.3959 7.55018L6.12162 7.55018C5.59201 7.55018 5.16094 7.98769 5.16094 8.5377C5.16094 9.08646 5.59201 9.52522 6.12162 9.52522L15.3959 9.52522C15.9255 9.52522 16.3566 9.08646 16.3566 8.5377C16.3566 7.98769 15.9255 7.55018 15.3959 7.55018Z" fill="#FCA800"/>
</svg>
