<svg width="26" height="28" viewBox="0 0 26 28" fill="none" xmlns="http://www.w3.org/2000/svg">
<path d="M24.5713 4.65533C24.5713 6.7444 22.8889 8.43795 20.8133 8.43795C18.7378 8.43795 17.0554 6.7444 17.0554 4.65533C17.0554 2.56647 18.7378 0.872925 20.8133 0.872925C22.8889 0.872925 24.5713 2.56647 24.5713 4.65533V4.65533Z" fill="white"/>
<path d="M20.8134 9.31078C18.2625 9.31078 16.1882 7.22278 16.1882 4.65529C16.1882 2.08801 18.2625 0 20.8134 0C23.3643 0 25.4385 2.08801 25.4385 4.65529C25.4385 7.22278 23.3643 9.31078 20.8134 9.31078ZM20.8134 1.74576C19.2189 1.74576 17.9227 3.05167 17.9227 4.65529C17.9227 6.25912 19.2189 7.56502 20.8134 7.56502C22.4079 7.56502 23.7041 6.25912 23.7041 4.65529C23.7041 3.05167 22.4079 1.74576 20.8134 1.74576Z" fill="white"/>
<path d="M24.5713 23.2769C24.5713 25.3657 22.8889 27.0593 20.8133 27.0593C18.7378 27.0593 17.0554 25.3657 17.0554 23.2769C17.0554 21.1878 18.7378 19.4943 20.8133 19.4943C22.8889 19.4943 24.5713 21.1878 24.5713 23.2769V23.2769Z" fill="white"/>
<path d="M20.8134 27.9321C18.2625 27.9321 16.1882 25.8441 16.1882 23.2768C16.1882 20.7093 18.2625 18.6213 20.8134 18.6213C23.3643 18.6213 25.4385 20.7093 25.4385 23.2768C25.4385 25.8441 23.3643 27.9321 20.8134 27.9321ZM20.8134 20.3671C19.2189 20.3671 17.9227 21.673 17.9227 23.2768C17.9227 24.8805 19.2189 26.1864 20.8134 26.1864C22.4079 26.1864 23.7041 24.8805 23.7041 23.2768C23.7041 21.673 22.4079 20.3671 20.8134 20.3671V20.3671Z" fill="white"/>
<path d="M8.38325 13.966C8.38325 16.0551 6.70066 17.7484 4.62511 17.7484C2.54977 17.7484 0.867188 16.0551 0.867188 13.966C0.867188 11.8769 2.54977 10.1836 4.62511 10.1836C6.70066 10.1836 8.38325 11.8769 8.38325 13.966Z" fill="white"/>
<path d="M4.62515 18.6214C2.07449 18.6214 0 16.5336 0 13.9661C0 11.3986 2.07449 9.31079 4.62515 9.31079C7.17603 9.31079 9.25052 11.3986 9.25052 13.9661C9.25052 16.5336 7.17603 18.6214 4.62515 18.6214ZM4.62515 11.0565C3.03065 11.0565 1.73446 12.3622 1.73446 13.9661C1.73446 15.5699 3.03065 16.8756 4.62515 16.8756C6.21987 16.8756 7.51606 15.5699 7.51606 13.9661C7.51606 12.3622 6.21987 11.0565 4.62515 11.0565Z" fill="white"/>
<path d="M7.35546 13.4075C6.95297 13.4075 6.56212 13.1967 6.34934 12.8198C6.03365 12.2623 6.22802 11.5511 6.78189 11.2321L17.5111 5.07551C18.065 4.75542 18.7715 4.95105 19.0885 5.51067C19.4041 6.06815 19.2098 6.77928 18.6559 7.0983L7.92648 13.2549C7.74609 13.3585 7.54961 13.4075 7.35546 13.4075V13.4075Z" fill="white"/>
<path d="M18.0834 23.0092C17.889 23.0092 17.6925 22.9602 17.5121 22.8566L6.78271 16.7C6.22883 16.3823 6.03468 15.6711 6.35036 15.1124C6.66478 14.5538 7.37237 14.3571 7.92751 14.6772L18.6569 20.8338C19.2108 21.1516 19.405 21.8627 19.0893 22.4215C18.8754 22.7984 18.4846 23.0092 18.0834 23.0092V23.0092Z" fill="white"/>
</svg>
