<svg width="26" height="27" viewBox="0 0 26 27" fill="none" xmlns="http://www.w3.org/2000/svg">
<path d="M10.7786 20.3795L7.71486 23.4432C6.44471 24.7134 4.3878 24.7134 3.11872 23.4435C1.84939 22.1741 1.84939 20.117 3.11847 18.8479L9.24694 12.7195C10.516 11.4503 12.5731 11.4503 13.8422 12.7195C14.2653 13.1425 14.9512 13.1425 15.3743 12.7195C15.7974 12.2964 15.7974 11.6105 15.3743 11.1874C13.259 9.07214 9.83011 9.07214 7.71486 11.1874L1.58644 17.3158C-0.528814 19.4311 -0.528814 22.86 1.58644 24.9752C3.70144 27.0916 7.13062 27.0916 9.24699 24.9752L12.3107 21.9115C12.7338 21.4885 12.7338 20.8025 12.3107 20.3795C11.8876 19.9564 11.2016 19.9564 10.7786 20.3795Z" fill="black"/>
<path d="M24.4131 2.14894C22.2978 0.0336865 18.8678 0.0336865 16.7525 2.14894L13.0767 5.82471C12.6537 6.24777 12.6537 6.93373 13.0767 7.35679C13.4998 7.77985 14.1858 7.77985 14.6088 7.35679L18.2846 3.68102C19.5537 2.41189 21.6119 2.41189 22.881 3.68102C24.1501 4.9501 24.1501 7.00721 22.881 8.27629L16.1404 15.0169C14.8713 16.286 12.8143 16.286 11.5452 15.0169C11.1221 14.5938 10.4362 14.5938 10.0131 15.0169C9.59004 15.4399 9.59004 16.1259 10.0131 16.549C12.1284 18.6642 15.5573 18.6642 17.6725 16.549L24.4131 9.80842C26.5283 7.69317 26.5283 4.26419 24.4131 2.14894Z" fill="black"/>
</svg>
