<svg width="363" height="238" viewBox="0 0 363 238" fill="none" xmlns="http://www.w3.org/2000/svg">
<path style="mix-blend-mode:overlay" d="M0 238C0.701843 235.857 1.5643 233.77 2.57996 231.756C4.64389 227.662 7.26645 223.874 10.3727 220.5C12.7834 217.912 15.559 215.693 18.0332 213.163C25.5933 205.456 33.1692 198.901 42.881 194.047C51.7892 189.567 61.3371 186.472 71.0489 184.322C71.7362 184.169 72.4287 184.021 73.116 183.879C74.3954 183.614 75.6783 183.366 76.9648 183.134C101.152 178.744 126.084 178.934 149.949 173.003C152.063 172.474 154.178 171.893 156.293 171.244C177.91 164.577 198.502 151.266 207.04 130.322C221.124 95.8455 199.11 51.1845 221.108 21.2714C233.395 4.57965 255.959 -1.13569 276.482 0.184868C297.005 1.50543 316.714 8.59413 336.91 12.5347C345.494 14.2897 354.239 15.136 363 15.0595L363 238L0 238Z" fill="url(#paint0_linear)"/>
<path style="mix-blend-mode:overlay" d="M71.033 184.322C72.0325 182.892 73.1109 181.518 74.2632 180.207C85.45 167.467 103.922 160.426 121.606 162.327C133.538 163.611 144.604 168.608 156.256 171.244C157.623 171.553 159.003 171.828 160.395 172.068C182.483 175.797 205.698 168.18 222.843 154.842C239.988 141.505 251.603 122.964 259.385 103.605C265.967 87.2302 270.355 69.4767 282.435 55.9966C293.68 43.4461 310.698 35.9823 328.166 33.468C339.696 31.8041 351.427 32.1527 363 33.748L363 238L70.388 238C68.0525 234.44 66.1717 230.601 64.7893 226.575C60.0101 212.561 62.4262 196.646 71.033 184.322Z" fill="url(#paint1_linear)"/>
<path style="mix-blend-mode:overlay" d="M97.8052 238C98.2079 237.28 98.5612 236.533 98.8625 235.766C103.187 226.031 111.371 218.509 120.586 213.417C125.928 210.478 131.639 208.265 137.567 206.835C155.5 202.477 174.252 204.057 192.708 204.273C214.89 204.524 237.048 202.755 258.909 198.991C272.205 196.709 286.204 193.239 295.504 183.472C304.016 174.54 307.135 161.715 307.838 149.402C308.541 137.089 307.177 124.702 308.261 112.426C310.344 88.8519 322.207 65.8373 341.626 52.2938C348.123 47.7938 355.356 44.4601 363 42.4425L363 238L97.8052 238Z" fill="url(#paint2_linear)"/>
<defs>
<linearGradient id="paint0_linear" x1="478.352" y1="-188.263" x2="80.6892" y2="381.439" gradientUnits="userSpaceOnUse">
<stop stop-color="#FFED25"/>
<stop offset="0.04" stop-color="#FAE139"/>
<stop offset="0.09" stop-color="#F4D154"/>
<stop offset="0.15" stop-color="#F0C567"/>
<stop offset="0.21" stop-color="#EDBE72"/>
<stop offset="0.28" stop-color="#ECBC76"/>
<stop offset="0.47" stop-color="#DB9188"/>
<stop offset="0.75" stop-color="#CF698B"/>
<stop offset="1" stop-color="#C02484"/>
</linearGradient>
<linearGradient id="paint1_linear" x1="57034.7" y1="-146967" x2="-53011.3" y2="83328.7" gradientUnits="userSpaceOnUse">
<stop stop-color="#FFED25"/>
<stop offset="0.04" stop-color="#FAE139"/>
<stop offset="0.09" stop-color="#F4D154"/>
<stop offset="0.15" stop-color="#F0C567"/>
<stop offset="0.21" stop-color="#EDBE72"/>
<stop offset="0.28" stop-color="#ECBC76"/>
<stop offset="0.47" stop-color="#DB9188"/>
<stop offset="0.75" stop-color="#CF698B"/>
<stop offset="1" stop-color="#C02484"/>
</linearGradient>
<linearGradient id="paint2_linear" x1="-22809.7" y1="-85938.3" x2="-65528" y2="70265.4" gradientUnits="userSpaceOnUse">
<stop stop-color="#FFED25"/>
<stop offset="0.04" stop-color="#FAE139"/>
<stop offset="0.09" stop-color="#F4D154"/>
<stop offset="0.15" stop-color="#F0C567"/>
<stop offset="0.21" stop-color="#EDBE72"/>
<stop offset="0.28" stop-color="#ECBC76"/>
<stop offset="0.47" stop-color="#DB9188"/>
<stop offset="0.75" stop-color="#CF698B"/>
<stop offset="1" stop-color="#C02484"/>
</linearGradient>
</defs>
</svg>
