<svg width="24" height="24" viewBox="0 0 24 24" fill="none" xmlns="http://www.w3.org/2000/svg">
<path d="M9.94942 18.2926L7.1214 21.1206C5.94895 22.293 4.05027 22.293 2.87882 21.1208C1.70712 19.9491 1.70712 18.0503 2.87858 16.8788L8.53562 11.2218C9.70708 10.0503 11.6059 10.0503 12.7774 11.2218C13.1679 11.6123 13.8011 11.6123 14.1916 11.2218C14.5821 10.8312 14.5821 10.1981 14.1916 9.80754C12.2391 7.85501 9.07393 7.85501 7.1214 9.80754L1.4644 15.4645C-0.488135 17.4171 -0.488135 20.5822 1.4644 22.5348C3.41671 24.4883 6.5821 24.4883 8.53567 22.5348L11.3637 19.7067C11.7542 19.3162 11.7542 18.683 11.3637 18.2925C10.9732 17.902 10.3399 17.902 9.94942 18.2926Z" fill="#B5B5B5"/>
<path d="M22.5353 1.4644C20.5828 -0.488135 17.4166 -0.488135 15.4641 1.4644L12.0711 4.85742C11.6805 5.24793 11.6805 5.88112 12.0711 6.27164C12.4616 6.66216 13.0948 6.66216 13.4853 6.27164L16.8783 2.87863C18.0498 1.70712 19.9496 1.70712 21.1211 2.87863C22.2926 4.05009 22.2926 5.94895 21.1211 7.12041L14.8991 13.3425C13.7276 14.514 11.8288 14.514 10.6573 13.3425C10.2668 12.952 9.6336 12.952 9.24308 13.3425C8.85257 13.733 8.85257 14.3662 9.24308 14.7567C11.1956 16.7092 14.3608 16.7092 16.3133 14.7567L22.5353 8.53468C24.4879 6.58214 24.4879 3.41694 22.5353 1.4644Z" fill="#B5B5B5"/>
</svg>
