<svg width="36" height="30" viewBox="0 0 36 30" fill="none" xmlns="http://www.w3.org/2000/svg">
<g filter="url(#filter0_d)">
<path d="M31.3 10.9375H28.5V8.1875C28.5 7.80938 28.185 7.5 27.8 7.5H26.4C26.015 7.5 25.7 7.80938 25.7 8.1875V10.9375H22.9C22.515 10.9375 22.2 11.2469 22.2 11.625V13C22.2 13.3781 22.515 13.6875 22.9 13.6875H25.7V16.4375C25.7 16.8156 26.015 17.125 26.4 17.125H27.8C28.185 17.125 28.5 16.8156 28.5 16.4375V13.6875H31.3C31.685 13.6875 32 13.3781 32 13V11.625C32 11.2469 31.685 10.9375 31.3 10.9375ZM13.8 13C16.8931 13 19.4 10.5379 19.4 7.5C19.4 4.46211 16.8931 2 13.8 2C10.7069 2 8.2 4.46211 8.2 7.5C8.2 10.5379 10.7069 13 13.8 13ZM17.72 14.375H16.9894C16.0181 14.8133 14.9375 15.0625 13.8 15.0625C12.6625 15.0625 11.5863 14.8133 10.6106 14.375H9.88C6.63375 14.375 4 16.9617 4 20.15V21.9375C4 23.0762 4.94063 24 6.1 24H21.5C22.6594 24 23.6 23.0762 23.6 21.9375V20.15C23.6 16.9617 20.9662 14.375 17.72 14.375Z" fill="white"/>
</g>
<defs>
<filter id="filter0_d" x="0" y="0" width="36" height="30" filterUnits="userSpaceOnUse" color-interpolation-filters="sRGB">
<feFlood flood-opacity="0" result="BackgroundImageFix"/>
<feColorMatrix in="SourceAlpha" type="matrix" values="0 0 0 0 0 0 0 0 0 0 0 0 0 0 0 0 0 0 127 0"/>
<feOffset dy="2"/>
<feGaussianBlur stdDeviation="2"/>
<feColorMatrix type="matrix" values="0 0 0 0 0 0 0 0 0 0 0 0 0 0 0 0 0 0 0.15 0"/>
<feBlend mode="normal" in2="BackgroundImageFix" result="effect1_dropShadow"/>
<feBlend mode="normal" in="SourceGraphic" in2="effect1_dropShadow" result="shape"/>
</filter>
</defs>
</svg>
