<svg width="162" height="96" viewBox="0 0 162 96" fill="none" xmlns="http://www.w3.org/2000/svg">
<mask id="mask0" mask-type="alpha" maskUnits="userSpaceOnUse" x="0" y="0" width="162" height="96">
<rect width="162" height="96" fill="#FBC75E"/>
</mask>
<g mask="url(#mask0)">
<rect width="162" height="96" fill="#BCBCBC"/>
<g opacity="0.6">
<g style="mix-blend-mode:overlay">
<path d="M143.692 98.5864C142.826 97.6401 141.918 96.7417 140.976 95.8987C139.061 94.1845 137.033 92.6908 134.95 91.4605C133.343 90.5202 131.71 89.8063 130.096 88.9023C125.172 86.1522 120.573 83.9616 115.694 82.8713C111.211 81.8583 106.895 81.5982 102.792 81.817C102.501 81.832 102.21 81.8502 101.923 81.8703C101.388 81.9084 100.856 81.9546 100.327 82.009C90.3844 83.021 81.487 86.3465 71.2178 86.5701C70.3071 86.5887 69.3812 86.5817 68.4356 86.5414C58.7626 86.1181 47.5527 82.3452 38.4822 73.3142C23.5404 58.4514 18.6396 33.9773 2.1647 22.3502C-7.03246 15.8636 -16.7726 16.0233 -23.7628 19.3243C-30.753 22.6252 -35.7971 28.6127 -41.9184 33.1394C-44.4972 35.1022 -47.3944 36.6461 -50.5621 37.7453L13.3579 145.665L143.692 98.5864Z" fill="#ECECEC" fill-opacity="0.58"/>
</g>
<g style="mix-blend-mode:overlay">
<path d="M102.667 81.8246C101.898 81.2619 101.117 80.7368 100.328 80.2519C92.6597 75.536 84.01 74.5234 78.2067 77.7369C74.2911 79.9055 71.7513 83.7588 68.324 86.5455C67.9219 86.8728 67.5053 87.1847 67.0742 87.4811C60.2139 92.1503 49.6968 91.4739 39.7185 87.2418C29.7403 83.0097 20.2557 75.5422 11.9124 67.1815C4.85541 60.1096 -1.80914 52.0859 -10.0101 47.128C-17.6447 42.5118 -25.8936 41.1061 -32.8849 42.1542C-37.5012 42.8441 -41.6127 44.534 -45.3098 46.8068L13.2422 145.665L118.286 107.721C118.104 105.695 117.679 103.593 117.021 101.465C114.719 94.0627 109.29 86.673 102.667 81.8246Z" fill="#ECECEC" fill-opacity="0.58"/>
</g>
<g style="mix-blend-mode:overlay">
<path d="M108.366 111.285C108.015 110.989 107.674 110.674 107.346 110.341C103.004 106.191 97.9114 103.613 93.1451 102.343C90.3858 101.614 87.7021 101.283 85.1648 101.36C77.4803 101.576 71.2031 104.771 64.6417 107.269C56.7529 110.265 48.294 112.283 39.3698 113.295C33.9441 113.915 27.9255 114.05 21.7892 110.53C16.1747 107.311 11.3799 101.51 7.59898 95.6432C3.81804 89.7765 0.757764 83.6061 -3.14918 77.8066C-10.6527 66.6696 -21.5057 57.0715 -32.3558 53.0355C-35.9773 51.7004 -39.5285 51.025 -42.8498 51.0397L13.1929 145.665L108.366 111.285Z" fill="#ECECEC" fill-opacity="0.58"/>
</g>
</g>
</g>
</svg>
