<svg width="326" height="96" viewBox="0 0 326 96" fill="none" xmlns="http://www.w3.org/2000/svg">
<mask id="mask0" mask-type="alpha" maskUnits="userSpaceOnUse" x="0" y="0" width="326" height="96">
<path d="M0.88916 0H325.889V96H0.88916V0Z" fill="#A2E4B5"/>
</mask>
<g mask="url(#mask0)">
<path d="M0.88916 0H325.889V96H0.88916V0Z" fill="#A2E4B5"/>
<g opacity="0.6">
<g style="mix-blend-mode:overlay">
<path d="M44.1978 131.967C46.051 133.208 48.7851 132.605 49.6587 130.635C50.7773 128.113 51.581 125.625 52.0468 123.242C52.3952 121.408 52.4636 119.682 52.766 117.863C53.6793 112.318 54.0845 107.353 53.0538 102.786C52.1201 98.5831 50.3744 94.9421 48.1625 91.7445C48.0065 91.5177 47.8464 91.2924 47.6857 91.0709C47.386 90.6593 47.0782 90.255 46.7623 89.858C40.8325 82.3829 32.6605 77.0653 27.509 68.879C27.0536 68.1523 26.6213 67.3989 26.219 66.6106C22.1171 58.5404 21.2501 47.3276 27.6276 34.8665C38.1164 14.3474 64.7646 -3.491 70.6926 -23.4173C73.9967 -34.5388 69.1725 -42.3329 61.9374 -46.1206C54.7022 -49.9083 45.2119 -50.5979 36.9388 -52.9875C31.2311 -54.5547 24.3205 -53.8362 20.5937 -49.5148L-53.673 36.6022C-62.6901 47.0582 -60.6983 61.7601 -49.2241 69.4398L44.1978 131.967Z" fill="#F5F5F5" fill-opacity="0.47"/>
</g>
<g style="mix-blend-mode:overlay">
<path d="M48.1677 91.7479C48.4682 90.8065 48.7183 89.8766 48.9169 88.9626C50.8522 80.0809 47.9346 72.5038 41.3667 69.6269C36.9349 67.6859 31.1625 67.8139 26.231 66.6187C25.652 66.4787 25.0844 66.3181 24.5281 66.1371C15.7332 63.2295 11.5286 54.3311 11.7915 43.8534C12.0544 33.3756 16.3839 21.4636 22.3145 9.96926C27.3309 0.246967 33.6613 -9.69713 35.6297 -19.1473C37.4631 -27.9453 35.2017 -35.4207 30.6329 -40.487C25.4024 -46.2942 15.4968 -43.6046 10.2418 -37.5111L-53.673 36.6022C-62.6902 47.0582 -60.6983 61.7601 -49.2241 69.4398L18.3203 114.647C22.3029 117.313 27.8879 117.537 31.7392 114.502C39.4104 108.443 45.5777 99.858 48.1677 91.7479Z" fill="#F5F5F5" fill-opacity="0.47"/>
</g>
<g style="mix-blend-mode:overlay">
<path d="M14.7489 112.257C15.3846 112.683 16.3255 112.418 16.6705 111.758C19.5193 105.889 20.1495 100.303 19.3839 95.7227C18.9339 93.0746 18.0479 90.7136 16.7493 88.7021C12.8346 82.6011 6.06103 79.3291 -0.0213098 75.4312C-7.3271 70.7414 -13.7438 65.0344 -19.1919 58.3809C-22.509 54.3381 -25.5351 49.5406 -24.2864 42.5749C-23.1466 36.2029 -18.5571 29.0303 -13.4074 22.6418C-8.25782 16.2532 -2.40526 10.2761 2.60472 3.82368C12.2253 -8.56794 18.4282 -22.7998 18.0436 -33.8755C17.8615 -38.5866 11.6927 -39.1935 8.41082 -35.388L-53.673 36.6022C-62.6902 47.0582 -60.6983 61.7601 -49.2241 69.4398L14.7489 112.257Z" fill="#F5F5F5" fill-opacity="0.47"/>
</g>
</g>
<g opacity="0.6">
<g style="mix-blend-mode:overlay">
<path d="M330.891 61.7171C330.891 62.355 330.272 62.8102 329.695 62.5381C328.911 62.1685 328.185 61.6989 327.539 61.1427C327.043 60.711 326.619 60.214 326.134 59.771C324.658 58.4172 323.403 57.0607 322.473 55.3216C321.615 53.7265 321.022 52.0168 320.611 50.2778C320.581 50.1547 320.553 50.0307 320.526 49.9076C320.475 49.6786 320.427 49.4488 320.383 49.2185C319.542 44.8875 319.579 40.423 318.443 36.1497C318.341 35.7711 318.23 35.3924 318.106 35.0137C316.829 31.1428 314.28 27.4555 310.269 25.9267C303.666 23.4048 295.113 27.3467 289.384 23.4076C286.187 21.2075 285.092 17.1672 285.345 13.4922C285.598 9.81724 286.956 6.28807 287.71 2.6718C288.264 0.139366 290.308 -2 292.901 -2L309.642 -2C321.377 -2 330.891 7.51337 330.891 19.2487L330.891 61.7171Z" fill="#F5F5F5" fill-opacity="0.47"/>
</g>
<g style="mix-blend-mode:overlay">
<path d="M320.611 50.2806C320.337 50.1017 320.073 49.9086 319.822 49.7022C317.382 47.6991 316.034 44.3914 316.398 41.2248C316.644 39.0882 317.601 37.1068 318.106 35.0204C318.165 34.7755 318.218 34.5284 318.264 34.2791C318.978 30.3239 317.519 26.1671 314.965 23.0971C312.41 20.027 308.859 17.9472 305.152 16.5537C302.016 15.3751 298.616 14.5894 296.034 12.4263C293.631 10.4127 292.201 7.36537 291.72 4.23759C291.171 0.683019 294.438 -2 298.034 -2L309.898 -2C321.492 -2 330.891 7.39877 330.891 18.9927L330.891 47.9835C330.891 49.4825 330.13 50.9405 328.702 51.3986C326.019 52.2544 322.971 51.8218 320.611 50.2806Z" fill="#F5F5F5" fill-opacity="0.47"/>
</g>
<g style="mix-blend-mode:overlay">
<path d="M277.246 100.155C277.061 100.155 276.948 99.9451 277.027 99.7778C277.906 98.1353 279.569 96.8662 281.442 96.0071C282.528 95.5114 283.689 95.138 284.894 94.8967C288.539 94.1614 292.35 94.4279 296.102 94.4644C300.61 94.5067 305.114 94.2084 309.557 93.5732C312.26 93.1882 315.106 92.6027 316.996 90.9549C318.726 89.4478 319.36 87.284 319.503 85.2066C319.646 83.1292 319.368 81.0393 319.589 78.9682C320.012 74.9907 322.423 71.1077 326.37 68.8227C328.45 67.627 330.715 69.4311 330.715 71.8303L330.715 85.4438C330.715 93.5684 324.129 100.155 316.004 100.155L277.246 100.155Z" fill="#F5F5F5" fill-opacity="0.47"/>
</g>
</g>
</g>
</svg>
