<svg width="325" height="96" viewBox="0 0 325 96" fill="none" xmlns="http://www.w3.org/2000/svg">
<mask id="mask0" mask-type="alpha" maskUnits="userSpaceOnUse" x="0" y="0" width="325" height="96">
<path d="M0 0H325V96H0V0Z" fill="#FADCA1"/>
</mask>
<g mask="url(#mask0)">
<path d="M0 0H325V96H0V0Z" fill="#FADCA1"/>
<g opacity="0.6">
<g style="mix-blend-mode:overlay">
<path d="M43.3087 131.967C45.1619 133.207 47.896 132.605 48.7695 130.635C49.8881 128.113 50.6918 125.625 51.1577 123.242C51.506 121.408 51.5745 119.681 51.8769 117.863C52.7901 112.318 53.1953 107.353 52.1647 102.786C51.2309 98.5828 49.4852 94.9419 47.2734 91.7442C47.1173 91.5174 46.9572 91.2921 46.7965 91.0707C46.4968 90.6591 46.189 90.2548 45.8732 89.8577C39.9433 82.3826 31.7714 77.065 26.6198 68.8788C26.1644 68.1521 25.7321 67.3986 25.3298 66.6104C21.2279 58.5402 20.361 47.3273 26.7384 34.8663C37.2273 14.3472 63.8755 -3.49125 69.8034 -23.4175C73.1076 -34.539 68.2834 -42.3332 61.0482 -46.1209C53.813 -49.9085 44.3227 -50.5981 36.0496 -52.9878C30.342 -54.5549 23.4313 -53.8365 19.7045 -49.515L-54.5621 36.602C-63.5793 47.0579 -61.5875 61.7598 -50.1132 69.4396L43.3087 131.967Z" fill="#B3B3B3"/>
</g>
<g style="mix-blend-mode:overlay">
<path d="M47.2785 91.7477C47.579 90.8062 47.8291 89.8763 48.0277 88.9623C49.963 80.0806 47.0454 72.5036 40.4775 69.6266C36.0457 67.6857 30.2734 67.8137 25.3418 66.6184C24.7628 66.4784 24.1952 66.3179 23.6389 66.1369C14.8441 63.2293 10.6394 54.3309 10.9023 43.8531C11.1653 33.3754 15.4948 21.4634 21.4253 9.96902C26.4418 0.246723 32.7722 -9.69738 34.7406 -19.1476C36.5739 -27.9456 34.3126 -35.421 29.7437 -40.4873C24.5132 -46.2944 14.6076 -43.6049 9.3526 -37.5113L-54.5622 36.602C-63.5793 47.0579 -61.5875 61.7598 -50.1132 69.4396L17.4312 114.647C21.4138 117.313 26.9988 117.537 30.8501 114.502C38.5212 108.443 44.6885 99.8578 47.2785 91.7477Z" fill="#B3B3B3"/>
</g>
<g style="mix-blend-mode:overlay">
<path d="M13.8597 112.257C14.4954 112.682 15.4363 112.418 15.7813 111.758C18.6302 105.889 19.2603 100.302 18.4947 95.7225C18.0447 93.0744 17.1587 90.7134 15.8601 88.7019C11.9455 82.6009 5.17187 79.3289 -0.91047 75.4309C-8.21626 70.7411 -14.633 65.0342 -20.0811 58.3807C-23.3982 54.3378 -26.4243 49.5404 -25.1755 42.5747C-24.0358 36.2027 -19.4462 29.03 -14.2966 22.6415C-9.14698 16.253 -3.29442 10.2759 1.71556 3.82344C11.3362 -8.56818 17.5391 -22.8 17.1545 -33.8757C16.9724 -38.5869 10.8035 -39.1937 7.52166 -35.3882L-54.5622 36.602C-63.5793 47.0579 -61.5875 61.7598 -50.1132 69.4396L13.8597 112.257Z" fill="#B3B3B3"/>
</g>
</g>
<g opacity="0.6">
<g style="mix-blend-mode:overlay">
<path d="M330.001 61.7171C330.001 62.355 329.383 62.8102 328.806 62.5381C328.022 62.1685 327.296 61.6989 326.65 61.1427C326.154 60.711 325.729 60.214 325.245 59.771C323.769 58.4172 322.513 57.0607 321.584 55.3216C320.726 53.7265 320.133 52.0168 319.721 50.2778C319.692 50.1547 319.664 50.0307 319.636 49.9076C319.586 49.6786 319.538 49.4488 319.494 49.2185C318.653 44.8875 318.689 40.423 317.553 36.1497C317.452 35.7711 317.341 35.3924 317.217 35.0137C315.94 31.1428 313.391 27.4555 309.38 25.9267C302.777 23.4048 294.223 27.3467 288.495 23.4076C285.298 21.2075 284.203 17.1672 284.456 13.4922C284.709 9.81724 286.067 6.28807 286.821 2.6718C287.375 0.139366 289.419 -2 292.012 -2L308.753 -2C320.488 -2 330.001 7.51337 330.001 19.2487L330.001 61.7171Z" fill="#B3B3B3"/>
</g>
<g style="mix-blend-mode:overlay">
<path d="M319.721 50.2806C319.447 50.1017 319.184 49.9086 318.933 49.7022C316.493 47.6991 315.145 44.3914 315.509 41.2248C315.755 39.0882 316.712 37.1068 317.217 35.0204C317.276 34.7755 317.329 34.5284 317.374 34.2791C318.089 30.3239 316.63 26.1671 314.075 23.0971C311.521 20.027 307.97 17.9472 304.263 16.5537C301.127 15.3751 297.727 14.5894 295.145 12.4263C292.741 10.4127 291.312 7.36537 290.83 4.23759C290.282 0.683019 293.549 -2 297.145 -2L309.009 -2C320.603 -2 330.001 7.39877 330.001 18.9927L330.001 47.9835C330.001 49.4825 329.241 50.9405 327.813 51.3986C325.129 52.2544 322.081 51.8218 319.721 50.2806Z" fill="#B3B3B3"/>
</g>
<g style="mix-blend-mode:overlay">
<path d="M276.357 100.155C276.172 100.155 276.058 99.9451 276.138 99.7778C277.017 98.1353 278.68 96.8662 280.553 96.0071C281.639 95.5114 282.8 95.138 284.005 94.8967C287.65 94.1614 291.461 94.4279 295.212 94.4644C299.721 94.5067 304.225 94.2084 308.668 93.5732C311.371 93.1882 314.216 92.6027 316.107 90.9549C317.837 89.4478 318.471 87.284 318.614 85.2066C318.756 83.1292 318.479 81.0393 318.699 78.9682C319.123 74.9907 321.534 71.1077 325.481 68.8227C327.561 67.627 329.826 69.4311 329.826 71.8303L329.826 85.4438C329.826 93.5684 323.239 100.155 315.115 100.155L276.357 100.155Z" fill="#B3B3B3"/>
</g>
</g>
</g>
</svg>
