<svg width="43" height="42" viewBox="0 0 43 42" fill="none" xmlns="http://www.w3.org/2000/svg">
<path d="M30.1091 14.4235C30.1091 12.5852 30.7986 11.0952 31.6488 11.0952C32.4991 11.0952 33.1885 12.5852 33.1885 14.4235C33.1885 16.2618 32.4991 17.7521 31.6488 17.7521C30.7986 17.7521 30.1091 16.2618 30.1091 14.4235Z" fill="white"/>
<path d="M41.636 11.1157C42.1422 11.6002 42.4268 12.2584 42.4268 12.9448C42.4268 13.6315 42.1422 14.2895 41.636 14.7743L39.3474 16.9775V15.1418C39.3438 13.5974 39.1155 12.0609 38.6699 10.5772C39.6816 10.1708 40.8483 10.3825 41.636 11.1157Z" fill="white"/>
<path d="M17.7913 14.4235C17.7913 12.5852 18.4807 11.0952 19.3309 11.0952C20.1812 11.0952 20.8706 12.5852 20.8706 14.4235C20.8706 16.2618 20.1812 17.7521 19.3309 17.7521C18.4807 17.7521 17.7913 16.2618 17.7913 14.4235Z" fill="white"/>
<path d="M5.82342 31.3352C6.62204 29.9659 7.03253 28.4193 7.01378 26.85V21.4776C7.0437 21.1189 7.12694 21.0447 7.12694 20.8777C7.30077 20.5436 7.46045 20.4443 7.2779 20.2676L1.56163 14.7755C0.511387 13.7636 0.511387 12.126 1.56163 11.1141C2.62831 10.137 4.30579 10.137 5.37247 11.1141L11.0884 16.6062C11.3907 16.8865 11.8709 16.8824 12.1676 16.5973C12.4646 16.312 12.4689 15.8506 12.1771 15.5605L7.51637 11.0825C9.26555 4.55763 15.3903 -0.00189553 22.4032 5.91164e-07H22.6417C29.2717 0.150426 35.0616 4.34969 37.0289 10.4343C37.546 11.9541 37.8088 13.543 37.8081 15.1418V29.5867C37.8015 30.7585 37.5219 31.9142 36.9898 32.9684C34.5077 37.9448 26.7706 41.4213 18.1766 41.4213C9.69216 41.4213 3.17596 38.8186 0.000247955 34.2243C2.35859 34.419 4.62353 33.2952 5.82342 31.3352ZM34.7284 14.4235C34.7284 11.6823 33.4045 9.61553 31.6491 9.61553C29.894 9.61553 28.5698 11.6823 28.5698 14.4235C28.5698 17.1646 29.894 19.2314 31.6491 19.2314C33.4045 19.2314 34.7284 17.1646 34.7284 14.4235ZM21.4362 31.4904C21.4507 31.5865 21.4849 31.6784 21.5372 31.7612C22.32 33.7894 23.7373 34.0246 25.4901 34.0246C27.2432 34.0246 28.6606 33.7894 29.4434 31.7612C29.4957 31.6784 29.5299 31.5865 29.5444 31.4904C29.9818 29.9056 30.1723 28.2667 30.1094 26.6281C30.1094 22.4807 28.08 19.2314 25.4901 19.2314C22.9005 19.2314 20.8711 22.4807 20.8711 26.6281C20.808 28.2667 20.9984 29.9056 21.4362 31.4904ZM19.3314 19.2314C21.0866 19.2314 22.4108 17.1646 22.4108 14.4235C22.4108 11.6823 21.0866 9.61553 19.3314 9.61553C17.576 9.61553 16.2521 11.6823 16.2521 14.4235C16.2521 17.1646 17.576 19.2314 19.3314 19.2314Z" fill="white"/>
</svg>
