<svg width="39" height="39" viewBox="0 0 39 39" fill="none" xmlns="http://www.w3.org/2000/svg">
<g clip-path="url(#clip0)">
<path d="M39.0004 19.4995C39.0004 17.6145 37.4728 16.0869 35.5868 16.0869H22.9132V3.41268C22.9132 1.52715 21.385 -0.000507355 19.5002 0C18.5577 0 17.7045 0.381405 17.0875 0.998764C16.4697 1.61697 16.0878 2.4697 16.0882 3.41174L16.0877 16.0874H3.41261C2.47065 16.0874 1.61818 16.4688 0.999889 17.0871C0.383123 17.7038 0.00146497 18.557 0.00146497 19.4995C0.000955528 21.3842 1.52861 22.9122 3.41439 22.9122H16.0882V35.5866C16.0882 37.4718 17.6167 39 19.5017 39C21.3859 38.9995 22.9131 37.4729 22.9141 35.5878V22.9122H35.5892C37.4738 22.9112 38.9995 21.3842 39.0004 19.4995Z" fill="#797979"/>
</g>
<defs>
<clipPath id="clip0">
<rect width="39" height="39" fill="white" transform="matrix(1 0 0 -1 0 39)"/>
</clipPath>
</defs>
</svg>
