<svg width="162" height="96" viewBox="0 0 162 96" fill="none" xmlns="http://www.w3.org/2000/svg">
<mask id="mask0" mask-type="alpha" maskUnits="userSpaceOnUse" x="0" y="0" width="162" height="96">
<rect width="162" height="96" fill="#FBC75E"/>
</mask>
<g mask="url(#mask0)">
<rect x="-2.37817" width="163" height="96" fill="#41B562"/>
<g opacity="0.6">
<g style="mix-blend-mode:overlay">
<path d="M-2.00025 34.1547C-1.62546 34.2804 -1.26045 34.4348 -0.908303 34.6167C-0.192262 34.9863 0.470269 35.4559 1.06034 36.0121C1.513 36.4438 1.901 36.9408 2.34351 37.3838C3.69135 38.7376 4.83779 40.0941 5.68678 41.8332C6.47017 43.4283 7.01152 45.138 7.38751 46.877C7.4143 47.0001 7.44017 47.1241 7.46511 47.2471C7.5113 47.4762 7.55472 47.706 7.59537 47.9363C8.36305 52.2673 8.3298 56.7318 9.36724 61.0051C9.45962 61.3837 9.56124 61.7624 9.67486 62.1411C10.8407 66.012 13.1687 69.6992 16.8316 71.2281C22.8613 73.75 30.6721 69.8081 35.9037 73.7472C38.8229 75.9472 39.8225 79.9876 39.5915 83.6626C39.3606 87.3375 38.1208 90.8667 37.4317 94.483C37.1247 96.02 36.9767 97.5859 36.9901 99.1548L-2.00024 99.1548L-2.00025 34.1547Z" fill="#86E6A1" fill-opacity="0.65"/>
</g>
<g style="mix-blend-mode:overlay">
<path d="M7.38751 46.8742C7.63768 47.0531 7.87794 47.2462 8.10716 47.4526C10.3354 49.4557 11.5668 52.7634 11.2343 55.93C11.0098 58.0666 10.1358 60.048 9.67487 62.1344C9.62067 62.3793 9.57263 62.6264 9.53075 62.8757C8.87854 66.8308 10.2107 70.9877 12.5433 74.0577C14.8759 77.1277 18.1185 79.2076 21.5043 80.6011C24.3681 81.7797 27.473 82.5654 29.8306 84.7285C32.0255 86.7421 33.3309 89.7894 33.7706 92.9172C34.0616 94.9819 34.0006 97.0825 33.7216 99.1548L-2.00024 99.1548L-2.00025 46.7587C-1.37755 46.3405 -0.70628 46.0037 -0.00204469 45.7561C2.44882 44.9004 5.23226 45.333 7.38751 46.8742Z" fill="#86E6A1" fill-opacity="0.65"/>
</g>
<g style="mix-blend-mode:overlay">
<path d="M47.3842 -3C47.3094 -2.87852 47.2438 -2.75257 47.1879 -2.62302C46.3852 -0.980529 44.8661 0.288546 43.1557 1.14767C42.1641 1.64339 41.1041 2.01683 40.0038 2.25811C36.6752 2.99335 33.1946 2.72688 29.7688 2.69034C25.6516 2.6481 21.5387 2.9464 17.481 3.58155C15.013 3.96655 12.4145 4.55207 10.6884 6.19991C9.10853 7.70694 8.52956 9.87078 8.39905 11.9482C8.26854 14.0256 8.52171 16.1155 8.32054 18.1866C7.93391 22.1641 5.73187 26.047 2.12756 28.3321C0.921506 29.0913 -0.421062 29.6538 -1.83984 29.9942L-1.83984 -3L47.3842 -3Z" fill="#86E6A1" fill-opacity="0.65"/>
</g>
</g>
</g>
</svg>
