<svg width="163" height="96" viewBox="0 0 163 96" fill="none" xmlns="http://www.w3.org/2000/svg">
<mask id="mask0" mask-type="alpha" maskUnits="userSpaceOnUse" x="0" y="0" width="163" height="96">
<rect width="163" height="96" fill="#FBC75E"/>
</mask>
<g mask="url(#mask0)">
<rect y="-0.00170898" width="163" height="96" fill="#52A1C7"/>
<g opacity="0.6">
<g style="mix-blend-mode:overlay">
<path d="M58.9239 132.357C59.5707 131.12 60.1476 129.875 60.6497 128.635C61.6712 126.113 62.4052 123.625 62.8306 121.242C63.1487 119.408 63.2112 117.682 63.4873 115.863C64.3213 110.318 64.6913 105.353 63.7502 100.786C62.8975 96.5831 61.3033 92.9421 59.2835 89.7445C59.1409 89.5177 58.9947 89.2924 58.848 89.0709C58.5743 88.6593 58.2932 88.255 58.0048 87.858C52.5897 80.3829 45.1271 75.0653 40.4227 66.879C40.0069 66.1523 39.6121 65.3989 39.2447 64.6106C35.4988 56.5404 34.7072 45.3276 40.531 32.8665C50.1094 12.3474 74.4444 -5.49101 79.8578 -25.4173C82.8751 -36.5388 78.4697 -44.3329 71.8626 -48.1206C65.2554 -51.9083 56.5889 -52.5979 49.034 -54.9875C45.7909 -55.9626 42.8624 -57.4329 40.2972 -59.3741L-48.6221 53.5344L58.9239 132.357Z" fill="#74C5E0" fill-opacity="0.77"/>
</g>
<g style="mix-blend-mode:overlay">
<path d="M59.2882 89.7479C59.5626 88.8065 59.791 87.8766 59.9723 86.9625C61.7396 78.0809 59.0753 70.5038 53.0775 67.6269C49.0304 65.6859 43.7591 65.8139 39.2557 64.6187C38.7269 64.4787 38.2086 64.3181 37.7006 64.1371C29.6692 61.2295 25.8295 52.3311 26.0696 41.8534C26.3097 31.3756 30.2634 19.4636 35.6791 7.96925C40.2601 -1.75304 46.041 -11.6971 47.8385 -21.1473C49.5127 -29.9453 47.4477 -37.4207 43.2754 -42.487C40.523 -45.8335 36.9083 -48.2043 32.8434 -49.9093L-48.6221 53.5344L38.07 117.073C40.182 115.777 42.2701 114.242 44.2857 112.502C51.291 106.443 56.923 97.858 59.2882 89.7479Z" fill="#74C5E0" fill-opacity="0.77"/>
</g>
<g style="mix-blend-mode:overlay">
<path d="M29.9471 111.12C30.115 110.668 30.3081 110.213 30.525 109.758C33.1266 103.889 33.702 98.3025 33.0029 93.7227C32.592 91.0746 31.7829 88.7136 30.597 86.7021C27.0222 80.6011 20.8365 77.3291 15.2822 73.4312C8.61056 68.7414 2.75086 63.0344 -2.22435 56.3809C-5.25349 52.3381 -8.01691 47.5406 -6.87659 40.5749C-5.83577 34.2029 -1.6446 27.0303 3.05801 20.6418C7.76062 14.2532 13.1052 8.27613 17.6802 1.82368C26.4657 -10.5679 32.1302 -24.7998 31.779 -35.8755C31.6488 -39.5654 30.8354 -42.8244 29.3756 -45.506L-48.6221 53.5344L29.9471 111.12Z" fill="#74C5E0" fill-opacity="0.77"/>
</g>
</g>
<g opacity="0.6">
<g style="mix-blend-mode:overlay">
<path d="M184.672 58.9981C184.297 58.8724 183.932 58.718 183.58 58.5361C182.864 58.1665 182.202 57.6969 181.612 57.1407C181.159 56.7091 180.771 56.2121 180.328 55.769C178.981 54.4153 177.834 53.0587 176.985 51.3197C176.202 49.7245 175.66 48.0149 175.284 46.2758C175.258 46.1528 175.232 46.0288 175.207 45.9057C175.161 45.6766 175.117 45.4469 175.077 45.2165C174.309 40.8855 174.342 36.421 173.305 32.1478C173.212 31.7691 173.111 31.3904 172.997 31.0118C171.831 27.1409 169.503 23.4536 165.84 21.9247C159.811 19.4028 152 23.3447 146.768 19.4056C143.849 17.2056 142.849 13.1652 143.08 9.49025C143.311 5.81529 144.551 2.28611 145.24 -1.33015C145.547 -2.8672 145.695 -4.43312 145.682 -6.00195L184.672 -6.00195L184.672 58.9981Z" fill="#74C5E0" fill-opacity="0.77"/>
</g>
<g style="mix-blend-mode:overlay">
<path d="M175.284 46.2787C175.034 46.0997 174.794 45.9066 174.565 45.7003C172.336 43.6971 171.105 40.3895 171.438 37.2229C171.662 35.0862 172.536 33.1049 172.997 31.0184C173.051 30.7735 173.099 30.5265 173.141 30.2772C173.793 26.322 172.461 22.1652 170.129 19.0951C167.796 16.0251 164.553 13.9453 161.168 12.5518C158.304 11.3732 155.199 10.5874 152.841 8.4243C150.646 6.41074 149.341 3.36342 148.901 0.235634C148.61 -1.82905 148.671 -3.9297 148.95 -6.00195L184.672 -6.00195L184.672 46.3942C184.049 46.8124 183.378 47.1492 182.674 47.3967C180.223 48.2525 177.44 47.8198 175.284 46.2787Z" fill="#74C5E0" fill-opacity="0.77"/>
</g>
<g style="mix-blend-mode:overlay">
<path d="M135.288 96.1528C135.362 96.0314 135.428 95.9054 135.484 95.7758C136.287 94.1334 137.806 92.8643 139.516 92.0052C140.508 91.5094 141.568 91.136 142.668 90.8947C145.997 90.1595 149.477 90.4259 152.903 90.4625C157.02 90.5047 161.133 90.2064 165.191 89.5713C167.659 89.1863 170.257 88.6008 171.983 86.9529C173.563 85.4459 174.142 83.282 174.273 81.2047C174.403 79.1273 174.15 77.0374 174.351 74.9662C174.738 70.9888 176.94 67.1058 180.544 64.8207C181.75 64.0615 183.093 63.499 184.512 63.1586L184.512 96.1528L135.288 96.1528Z" fill="#74C5E0" fill-opacity="0.77"/>
</g>
</g>
</g>
</svg>
