<svg width="162" height="96" viewBox="0 0 162 96" fill="none" xmlns="http://www.w3.org/2000/svg">
<mask id="mask0" mask-type="alpha" maskUnits="userSpaceOnUse" x="0" y="0" width="162" height="96">
<rect width="162" height="96" fill="#FBC75E"/>
</mask>
<g mask="url(#mask0)">
<rect width="163" height="96" fill="#C74545"/>
<g opacity="0.6">
<g style="mix-blend-mode:overlay">
<path d="M5.46041 136.545C6.78 136.088 8.05325 135.578 9.26938 135.02C11.7423 133.885 13.9829 132.578 15.9271 131.136C17.4167 130.019 18.6462 128.806 20.0945 127.672C24.5044 124.209 28.179 120.849 30.6267 116.88C32.8889 113.237 34.226 109.494 34.9493 105.781C35.0012 105.519 35.0493 105.254 35.0944 104.993C35.1775 104.505 35.2503 104.018 35.3127 103.532C36.4991 94.3777 34.7156 85.3896 36.9069 76.2057C37.1027 75.3916 37.3322 74.5725 37.6055 73.7469C40.4147 65.3049 47.5293 56.6021 60.3141 51.5284C81.3581 43.1659 111.302 46.8754 128.908 36.0876C138.732 30.0639 140.872 21.3703 138.662 14.0823C136.452 6.79426 130.618 0.348263 126.759 -6.57249C125.068 -9.50645 123.945 -12.585 123.41 -15.757L-18.7397 5.42078L5.46041 136.545Z" fill="#DB8181" fill-opacity="0.66"/>
</g>
<g style="mix-blend-mode:overlay">
<path d="M34.9504 105.787C35.7958 105.29 36.5998 104.77 37.3587 104.229C44.7365 98.9782 47.9946 91.6368 45.6031 85.4295C43.9892 81.2412 40.0654 77.7189 37.608 73.7603C37.3192 73.2958 37.0521 72.8234 36.8066 72.3433C32.9563 64.7188 36.2653 55.6097 43.6264 48.1496C50.9876 40.6894 62.0349 34.7326 73.8598 30.0825C83.8618 26.1494 94.8891 22.8779 102.679 17.2337C109.932 11.9795 113.556 5.12319 113.995 -1.42531C114.287 -5.74844 113.282 -9.95296 111.494 -13.9818L-18.7397 5.42078L0.767846 111.119C3.19374 111.625 5.76643 111.939 8.42606 112.056C17.68 112.451 27.6667 110.067 34.9504 105.787Z" fill="#DB8181" fill-opacity="0.66"/>
</g>
<g style="mix-blend-mode:overlay">
<path d="M-1.05998 101.215C-0.627752 101.002 -0.175319 100.803 0.294188 100.621C6.21309 98.1343 10.4635 94.4635 13.0959 90.6512C14.6132 88.4423 15.6437 86.1692 16.1604 83.892C17.7434 77.0004 15.4863 70.3767 14.1178 63.7305C12.4793 55.7417 12.1294 47.5696 13.0723 39.3154C13.6409 34.2957 14.9204 28.9091 20.5278 24.6222C25.6556 20.6991 33.6252 18.354 41.4291 16.9304C49.233 15.5068 57.2219 14.8228 64.9768 13.2652C79.8693 10.2734 93.7527 3.80179 101.094 -4.4991C103.53 -7.27366 105.173 -10.2031 105.95 -13.1558L-18.7397 5.42078L-1.05998 101.215Z" fill="#DB8181" fill-opacity="0.66"/>
</g>
</g>
<g opacity="0.6">
<g style="mix-blend-mode:overlay">
<path d="M184.672 59C184.298 58.8744 183.933 58.7199 183.58 58.5381C182.864 58.1685 182.202 57.6989 181.612 57.1427C181.159 56.711 180.771 56.214 180.329 55.771C178.981 54.4172 177.834 53.0607 176.985 51.3216C176.202 49.7265 175.661 48.0168 175.285 46.2778C175.258 46.1547 175.232 46.0307 175.207 45.9076C175.161 45.6786 175.117 45.4488 175.077 45.2185C174.309 40.8875 174.342 36.423 173.305 32.1497C173.212 31.7711 173.111 31.3924 172.997 31.0137C171.831 27.1428 169.503 23.4555 165.84 21.9267C159.811 19.4048 152 23.3467 146.768 19.4076C143.849 17.2075 142.85 13.1672 143.081 9.4922C143.312 5.81724 144.551 2.28807 145.24 -1.3282C145.547 -2.86525 145.695 -4.43116 145.682 -6L184.672 -6L184.672 59Z" fill="#DB8181" fill-opacity="0.66"/>
</g>
<g style="mix-blend-mode:overlay">
<path d="M175.285 46.2806C175.034 46.1017 174.794 45.9086 174.565 45.7022C172.337 43.6991 171.105 40.3914 171.438 37.2248C171.662 35.0882 172.536 33.1068 172.997 31.0204C173.051 30.7755 173.099 30.5284 173.141 30.2791C173.794 26.3239 172.461 22.1671 170.129 19.0971C167.796 16.027 164.554 13.9472 161.168 12.5537C158.304 11.3751 155.199 10.5894 152.842 8.42626C150.647 6.41269 149.341 3.36537 148.902 0.237587C148.611 -1.82709 148.671 -3.92775 148.95 -6L184.672 -6L184.672 46.3961C184.05 46.8143 183.378 47.1511 182.674 47.3986C180.223 48.2544 177.44 47.8218 175.285 46.2806Z" fill="#DB8181" fill-opacity="0.66"/>
</g>
<g style="mix-blend-mode:overlay">
<path d="M135.288 96.1548C135.363 96.0333 135.429 95.9074 135.484 95.7778C136.287 94.1353 137.806 92.8662 139.517 92.0071C140.508 91.5114 141.568 91.138 142.669 90.8967C145.997 90.1614 149.478 90.4279 152.904 90.4644C157.021 90.5067 161.134 90.2084 165.191 89.5732C167.659 89.1882 170.258 88.6027 171.984 86.9549C173.564 85.4478 174.143 83.284 174.273 81.2066C174.404 79.1292 174.151 77.0393 174.352 74.9682C174.738 70.9907 176.94 67.1077 180.545 64.8227C181.751 64.0635 183.093 63.501 184.512 63.1606L184.512 96.1548L135.288 96.1548Z" fill="#DB8181" fill-opacity="0.66"/>
</g>
</g>
</g>
</svg>
