<svg width="163" height="96" viewBox="0 0 163 96" fill="none" xmlns="http://www.w3.org/2000/svg">
<mask id="mask0" mask-type="alpha" maskUnits="userSpaceOnUse" x="0" y="0" width="163" height="96">
<rect width="163" height="96" fill="#FBC75E"/>
</mask>
<g mask="url(#mask0)">
<rect width="163" height="96" fill="#F5C35E"/>
<g opacity="0.6">
<g style="mix-blend-mode:overlay">
<path d="M60.5459 137.357C61.1927 136.12 61.7696 134.875 62.2718 133.635C63.2933 131.113 64.0272 128.625 64.4526 126.242C64.7707 124.408 64.8333 122.682 65.1094 120.863C65.9434 115.318 66.3134 110.353 65.3722 105.786C64.5196 101.583 62.9254 97.9421 60.9055 94.7445C60.763 94.5177 60.6168 94.2924 60.4701 94.0709C60.1964 93.6593 59.9153 93.255 59.6269 92.858C54.2117 85.3829 46.7492 80.0653 42.0448 71.879C41.6289 71.1523 41.2342 70.3989 40.8668 69.6106C37.1209 61.5404 36.3292 50.3276 42.1531 37.8665C51.7315 17.3474 76.0665 -0.491005 81.4798 -20.4173C84.4972 -31.5388 80.0917 -39.3329 73.4846 -43.1206C66.8775 -46.9083 58.211 -47.5979 50.656 -49.9875C47.4129 -50.9626 44.4845 -52.4329 41.9192 -54.3741L-47 58.5344L60.5459 137.357Z" fill="#FDE0A4" fill-opacity="0.53"/>
</g>
<g style="mix-blend-mode:overlay">
<path d="M60.9102 94.7479C61.1846 93.8065 61.4131 92.8766 61.5944 91.9625C63.3617 83.0809 60.6973 75.5038 54.6996 72.6269C50.6525 70.6859 45.3812 70.8139 40.8777 69.6187C40.349 69.4787 39.8306 69.3181 39.3227 69.1371C31.2912 66.2295 27.4515 57.3311 27.6917 46.8534C27.9318 36.3756 31.8854 24.4636 37.3012 12.9693C41.8822 3.24696 47.6631 -6.69714 49.4606 -16.1473C51.1348 -24.9453 49.0698 -32.4207 44.8975 -37.487C42.145 -40.8335 38.5303 -43.2043 34.4654 -44.9093L-47 58.5344L39.6921 122.073C41.8041 120.777 43.8922 119.242 45.9078 117.502C52.9131 111.443 58.545 102.858 60.9102 94.7479Z" fill="#FDE0A4" fill-opacity="0.53"/>
</g>
<g style="mix-blend-mode:overlay">
<path d="M31.5692 116.12C31.7371 115.668 31.9301 115.213 32.1471 114.758C34.7487 108.889 35.3241 103.303 34.625 98.7227C34.2141 96.0746 33.405 93.7136 32.2191 91.7021C28.6442 85.6011 22.4586 82.3291 16.9042 78.4312C10.2326 73.7414 4.37293 68.0344 -0.602284 61.3809C-3.63142 57.3381 -6.39484 52.5406 -5.25452 45.5749C-4.2137 39.2029 -0.0225302 32.0303 4.68008 25.6418C9.38269 19.2532 14.7272 13.2761 19.3023 6.82368C28.0878 -5.56794 33.7523 -19.7998 33.4011 -30.8755C33.2708 -34.5654 32.4575 -37.8244 30.9976 -40.506L-47 58.5344L31.5692 116.12Z" fill="#FDE0A4" fill-opacity="0.53"/>
</g>
</g>
<g opacity="0.6">
<g style="mix-blend-mode:overlay">
<path d="M184.672 59C184.297 58.8744 183.932 58.7199 183.58 58.5381C182.864 58.1685 182.202 57.6989 181.612 57.1427C181.159 56.711 180.771 56.214 180.328 55.771C178.981 54.4172 177.834 53.0607 176.985 51.3216C176.202 49.7265 175.66 48.0168 175.284 46.2778C175.258 46.1547 175.232 46.0307 175.207 45.9076C175.161 45.6786 175.117 45.4488 175.077 45.2185C174.309 40.8875 174.342 36.423 173.305 32.1497C173.212 31.7711 173.111 31.3924 172.997 31.0137C171.831 27.1428 169.503 23.4555 165.84 21.9267C159.811 19.4048 152 23.3467 146.768 19.4076C143.849 17.2075 142.849 13.1672 143.08 9.4922C143.311 5.81724 144.551 2.28807 145.24 -1.3282C145.547 -2.86525 145.695 -4.43116 145.682 -6L184.672 -6L184.672 59Z" fill="#FDE0A4" fill-opacity="0.53"/>
</g>
<g style="mix-blend-mode:overlay">
<path d="M175.284 46.2806C175.034 46.1017 174.794 45.9086 174.565 45.7022C172.336 43.6991 171.105 40.3914 171.438 37.2248C171.662 35.0882 172.536 33.1068 172.997 31.0204C173.051 30.7755 173.099 30.5284 173.141 30.2791C173.793 26.3239 172.461 22.1671 170.129 19.0971C167.796 16.027 164.553 13.9472 161.168 12.5537C158.304 11.3751 155.199 10.5894 152.841 8.42626C150.646 6.41269 149.341 3.36537 148.901 0.237587C148.61 -1.82709 148.671 -3.92775 148.95 -6L184.672 -6L184.672 46.3961C184.049 46.8143 183.378 47.1511 182.674 47.3986C180.223 48.2544 177.44 47.8218 175.284 46.2806Z" fill="#FDE0A4" fill-opacity="0.53"/>
</g>
<g style="mix-blend-mode:overlay">
<path d="M135.288 96.1548C135.362 96.0333 135.428 95.9074 135.484 95.7778C136.287 94.1353 137.806 92.8662 139.516 92.0071C140.508 91.5114 141.568 91.138 142.668 90.8967C145.997 90.1614 149.477 90.4279 152.903 90.4644C157.02 90.5067 161.133 90.2084 165.191 89.5732C167.659 89.1882 170.257 88.6027 171.983 86.9549C173.563 85.4478 174.142 83.284 174.273 81.2066C174.403 79.1292 174.15 77.0393 174.351 74.9682C174.738 70.9907 176.94 67.1077 180.544 64.8227C181.75 64.0635 183.093 63.501 184.512 63.1606L184.512 96.1548L135.288 96.1548Z" fill="#FDE0A4" fill-opacity="0.53"/>
</g>
</g>
</g>
</svg>
