<svg xmlns="http://www.w3.org/2000/svg" xmlns:xlink="http://www.w3.org/1999/xlink" viewBox="0 0 830.65 313.2"><defs><style>.cls-1{isolation:isolate;}.cls-2,.cls-3,.cls-4{mix-blend-mode:screen;}.cls-2{fill:url(#Безымянный_градиент_2);}.cls-3{opacity:0.53;fill:url(#Безымянный_градиент_2-2);}.cls-4{opacity:0.5;fill:url(#linear-gradient);}</style><linearGradient id="Безымянный_градиент_2" x1="525.09" y1="134.36" x2="830.65" y2="134.36" gradientUnits="userSpaceOnUse"><stop offset="0" stop-color="#212e59"/><stop offset="1" stop-color="#2c55a1"/></linearGradient><linearGradient id="Безымянный_градиент_2-2" x1="162.48" y1="120.95" x2="830.65" y2="120.95" xlink:href="#Безымянный_градиент_2"/><linearGradient id="linear-gradient" y1="156.6" x2="788.31" y2="156.6" gradientUnits="userSpaceOnUse"><stop offset="0" stop-color="#213b7e"/><stop offset="0.97" stop-color="#83cff1" stop-opacity="0"/></linearGradient></defs><title>Asset 5</title><g class="cls-1"><g id="Layer_2" data-name="Layer 2"><g id="Layer_6" data-name="Layer 6"><path class="cls-2" d="M830.65,0V234.44a74.08,74.08,0,0,0-23.41,2.71,75.14,75.14,0,0,0-16.43,6.79A175.4,175.4,0,0,1,734,265.52c-1.42.27-2.83.53-4.24.77A175.75,175.75,0,0,1,533.93,148a177.77,177.77,0,0,1-5.64-21.78A175,175,0,0,1,551.75,0Z"/></g><g id="Layer_10" data-name="Layer 10"><path class="cls-3" d="M830.65,0V241.91a203.6,203.6,0,0,1-23.41-4.76,208.32,208.32,0,0,1-38.89-14.56q-1.44-.71-2.85-1.44c-39-20.16-60.71-51.84-88.23-84.48-24-28.41-57.19-51.46-89.95-20.84A150.05,150.05,0,0,1,533.93,148a149.51,149.51,0,0,1-115.3-7.15,149.48,149.48,0,0,1-75.45-85.36,57.52,57.52,0,0,0-77.53-33.71,90.09,90.09,0,0,1-76.3-1.59A90,90,0,0,1,162.48,0Z"/></g><g id="Layer_11" data-name="Layer 11"><path class="cls-4" d="M765.5,221.15q-2.75,4.93-5.86,9.77a179.36,179.36,0,0,1-248.22,53.6c-33-21.28-48.74-51.3-69.61-82.78-17.73-26.77-43.94-49.85-75.1-26.84A129.58,129.58,0,0,1,163.22,98.81,49.68,49.68,0,0,0,100,62.17a77.86,77.86,0,0,1-65.31-9A77.78,77.78,0,0,1,0,0H397.34c3.38,4,6.92,8.05,10.83,11.94,5.46,5.43,12,10.06,19.48,11.87C444.88,28,469.45,12.56,487.15,0H728.73A179.61,179.61,0,0,1,765.5,221.15Z"/></g></g></g></svg>