<svg width="19" height="20" viewBox="0 0 19 20" fill="none" xmlns="http://www.w3.org/2000/svg">
<path fill-rule="evenodd" clip-rule="evenodd" d="M13.5156 0C13.9101 0 14.2302 0.310148 14.2302 0.692294L14.2307 1.47487C15.622 1.56728 16.7775 2.02893 17.5954 2.82281C18.4883 3.69141 18.958 4.94031 18.9533 6.43843V14.8595C18.9533 17.9351 16.9369 19.8459 13.6923 19.8459H5.63276C2.38815 19.8459 0.371826 17.9084 0.371826 14.7893V6.43659C0.371826 3.53559 2.16999 1.67345 5.10265 1.47519L5.10323 0.692294C5.10323 0.310148 5.42341 0 5.8179 0C6.2124 0 6.53257 0.310148 6.53257 0.692294L6.53229 1.45751H12.8004L12.8009 0.692294C12.8009 0.310148 13.1211 0 13.5156 0ZM17.5239 8.21892H1.80117V14.7893C1.80117 17.1579 3.1619 18.4613 5.63276 18.4613H13.6923C16.1632 18.4613 17.524 17.1819 17.524 14.8595L17.5239 8.21892ZM13.9041 14.0271C14.2986 14.0271 14.6187 14.3372 14.6187 14.7194C14.6187 15.1015 14.2986 15.4117 13.9041 15.4117C13.5096 15.4117 13.1856 15.1015 13.1856 14.7194C13.1856 14.3372 13.501 14.0271 13.8955 14.0271H13.9041ZM9.6756 14.0271C10.0701 14.0271 10.3903 14.3372 10.3903 14.7194C10.3903 15.1015 10.0701 15.4117 9.6756 15.4117C9.2811 15.4117 8.95712 15.1015 8.95712 14.7194C8.95712 14.3372 9.27253 14.0271 9.66703 14.0271H9.6756ZM5.43827 14.0271C5.83277 14.0271 6.15294 14.3372 6.15294 14.7194C6.15294 15.1015 5.83277 15.4117 5.43827 15.4117C5.04377 15.4117 4.71884 15.1015 4.71884 14.7194C4.71884 14.3372 5.0352 14.0271 5.42969 14.0271H5.43827ZM13.9041 10.4394C14.2986 10.4394 14.6187 10.7496 14.6187 11.1317C14.6187 11.5139 14.2986 11.824 13.9041 11.824C13.5096 11.824 13.1856 11.5139 13.1856 11.1317C13.1856 10.7496 13.501 10.4394 13.8955 10.4394H13.9041ZM9.6756 10.4394C10.0701 10.4394 10.3903 10.7496 10.3903 11.1317C10.3903 11.5139 10.0701 11.824 9.6756 11.824C9.2811 11.824 8.95712 11.5139 8.95712 11.1317C8.95712 10.7496 9.27253 10.4394 9.66703 10.4394H9.6756ZM5.43827 10.4394C5.83277 10.4394 6.15294 10.7496 6.15294 11.1317C6.15294 11.5139 5.83277 11.824 5.43827 11.824C5.04377 11.824 4.71884 11.5139 4.71884 11.1317C4.71884 10.7496 5.0352 10.4394 5.42969 10.4394H5.43827ZM12.8004 2.8421H6.53229L6.53257 3.73008C6.53257 4.11223 6.2124 4.42238 5.8179 4.42238C5.42341 4.42238 5.10323 4.11223 5.10323 3.73008L5.10273 2.86306C2.96802 3.03677 1.80117 4.29025 1.80117 6.43659V6.83433H17.5239L17.524 6.43659C17.5277 5.29661 17.2114 4.41047 16.5834 3.80125C16.0322 3.2657 15.2264 2.94585 14.2311 2.8635L14.2302 3.73008C14.2302 4.11223 13.9101 4.42238 13.5156 4.42238C13.1211 4.42238 12.8009 4.11223 12.8009 3.73008L12.8004 2.8421Z" fill="#B25959"/>
</svg>
