<svg width="27" height="26" viewBox="0 0 27 26" fill="none" xmlns="http://www.w3.org/2000/svg">
<path d="M13.5051 6.54885C9.95602 6.54885 7.0933 9.45452 7.0933 13.0569C7.0933 16.6592 9.95602 19.5649 13.5051 19.5649C17.0542 19.5649 19.917 16.6592 19.917 13.0569C19.917 9.45452 17.0542 6.54885 13.5051 6.54885ZM13.5051 17.2879C11.2116 17.2879 9.3366 15.3905 9.3366 13.0569C9.3366 10.7233 11.206 8.82581 13.5051 8.82581C15.8042 8.82581 17.6737 10.7233 17.6737 13.0569C17.6737 15.3905 15.7987 17.2879 13.5051 17.2879ZM21.6748 6.28264C21.6748 7.12659 21.0051 7.80061 20.1792 7.80061C19.3478 7.80061 18.6837 7.12092 18.6837 6.28264C18.6837 5.44436 19.3533 4.76467 20.1792 4.76467C21.0051 4.76467 21.6748 5.44436 21.6748 6.28264ZM25.9214 7.82327C25.8266 5.78987 25.369 3.9887 23.9013 2.50471C22.4393 1.02073 20.6647 0.556274 18.6614 0.454321C16.5966 0.335376 10.408 0.335376 8.3433 0.454321C6.34553 0.55061 4.57098 1.01506 3.10334 2.49905C1.63571 3.98303 1.1837 5.7842 1.08325 7.8176C0.966064 9.91331 0.966064 16.1948 1.08325 18.2905C1.17812 20.3239 1.63571 22.125 3.10334 23.609C4.57098 25.093 6.33995 25.5574 8.3433 25.6594C10.408 25.7783 16.5966 25.7783 18.6614 25.6594C20.6647 25.5631 22.4393 25.0987 23.9013 23.609C25.3634 22.125 25.821 20.3239 25.9214 18.2905C26.0386 16.1948 26.0386 9.91897 25.9214 7.82327ZM23.254 20.5391C22.8187 21.6492 21.9761 22.5045 20.8768 22.952C19.2306 23.6147 15.3243 23.4617 13.5051 23.4617C11.6859 23.4617 7.7741 23.609 6.13347 22.952C5.03972 22.5102 4.19709 21.6549 3.75624 20.5391C3.10334 18.8682 3.25401 14.9033 3.25401 13.0569C3.25401 11.2104 3.10892 7.23987 3.75624 5.57463C4.19151 4.46448 5.03414 3.6092 6.13347 3.16174C7.77968 2.49905 11.6859 2.65198 13.5051 2.65198C15.3243 2.65198 19.2362 2.50471 20.8768 3.16174C21.9705 3.60354 22.8132 4.45881 23.254 5.57463C23.9069 7.24553 23.7562 11.2104 23.7562 13.0569C23.7562 14.9033 23.9069 18.8739 23.254 20.5391Z" fill="black"/>
</svg>
