<svg xmlns="http://www.w3.org/2000/svg" viewBox="0 0 1133.24 317.29"><defs><style>.cls-1{fill:#fff;}</style></defs><title>Asset 3</title><g id="Layer_2" data-name="Layer 2"><g id="Layer_7" data-name="Layer 7"><path class="cls-1" d="M68.84,238.85a66.67,66.67,0,0,1-26.71-5.41,70.72,70.72,0,0,1-22-14.81A68.46,68.46,0,0,1,5.34,196.72,67.67,67.67,0,0,1,0,169.87V78.44H36.52v91.43a32.3,32.3,0,0,0,32.32,32.32,32.2,32.2,0,0,0,32.33-32.32V78.44h36.65v91.43a67.14,67.14,0,0,1-5.35,26.71,68.72,68.72,0,0,1-14.87,22,71.13,71.13,0,0,1-22,14.88A66.67,66.67,0,0,1,68.84,238.85Z"/><path class="cls-1" d="M325.54,238.85H288.89V226a77.34,77.34,0,0,1-43.55,12.85,78.81,78.81,0,0,1-31.24-6.23,79.61,79.61,0,0,1-25.57-17.24,82.24,82.24,0,0,1-17.24-25.56,80.4,80.4,0,0,1,0-62.35,81.59,81.59,0,0,1,17.31-25.56,80.75,80.75,0,0,1,25.56-17.25,80.91,80.91,0,0,1,62.22,0,81.1,81.1,0,0,1,42.87,42.88,77.88,77.88,0,0,1,6.29,31.1Zm-80.2-36.66a42.28,42.28,0,0,0,30.84-12.71q12.57-13.24,12.57-30.43a44.2,44.2,0,0,0-12.57-31.24,43.86,43.86,0,0,0-61.75,0,43.5,43.5,0,0,0,0,61.6A42.1,42.1,0,0,0,245.34,202.19Z"/><path class="cls-1" d="M389.24,317.29H352.59V159.73q0-34.08,23.4-57.75a80.69,80.69,0,0,1,25.69-17.32,80.91,80.91,0,0,1,62.22,0,80.66,80.66,0,0,1,42.87,42.81,81.24,81.24,0,0,1,0,62.35A80.76,80.76,0,0,1,464,232.62a78.33,78.33,0,0,1-31.17,6.23A77.34,77.34,0,0,1,389.24,226Zm43.55-115.1a43.65,43.65,0,0,0,43.69-43.55A43.71,43.71,0,0,0,402,127.81q-12.7,13.38-12.71,30.83T402,189.48A42.28,42.28,0,0,0,432.79,202.19Z"/><path class="cls-1" d="M576.69,317.29H540V159.73q0-34.08,23.4-57.75a80.62,80.62,0,0,1,25.7-17.32,80.89,80.89,0,0,1,62.21,0,80.66,80.66,0,0,1,42.87,42.81,81.12,81.12,0,0,1,0,62.35,80.78,80.78,0,0,1-42.8,42.8,78.33,78.33,0,0,1-31.17,6.23A77.37,77.37,0,0,1,576.69,226Zm43.56-115.1a43.63,43.63,0,0,0,43.68-43.55,43.71,43.71,0,0,0-74.52-30.83q-12.72,13.38-12.72,30.83t12.72,30.84A42.24,42.24,0,0,0,620.25,202.19Z"/><path class="cls-1" d="M751.17,47.2a22.89,22.89,0,0,1-16.71-6.9,22.56,22.56,0,0,1-7-16.63,22.82,22.82,0,0,1,7-16.71,23.6,23.6,0,0,1,33.41-.06,22.73,22.73,0,0,1,7,16.77,22.56,22.56,0,0,1-7,16.63A22.9,22.9,0,0,1,751.17,47.2Zm18.39,191.65H732.91V78.31h36.65Z"/><path class="cls-1" d="M945.79,238.85H909.13V147.28q0-13-9.87-22.45a36.16,36.16,0,0,0-25.43-9.73q-15,0-25.42,9.73-10,9.48-10,22.45v91.57H801.75V147.28a64.33,64.33,0,0,1,5.75-27,69,69,0,0,1,15.69-22,73.53,73.53,0,0,1,50.64-19.88,72.38,72.38,0,0,1,27.66,5.28,73.84,73.84,0,0,1,22.86,14.6,69,69,0,0,1,15.69,22,64.49,64.49,0,0,1,5.75,27Z"/><path class="cls-1" d="M1053,317.29a77.74,77.74,0,0,1-31.18-6.29,81.59,81.59,0,0,1-25.56-17.31,80.56,80.56,0,0,1-17.24-25.56,78.06,78.06,0,0,1-6.23-31h36.66a43.55,43.55,0,1,0,87.1,0V226A80.38,80.38,0,0,1,1053,238.85a78.38,78.38,0,0,1-31.18-6.23,80.6,80.6,0,0,1-42.8-42.87,80.77,80.77,0,0,1,0-62.21,80.47,80.47,0,0,1,42.87-42.88,81.06,81.06,0,0,1,62.28,0A80.91,80.91,0,0,1,1127,127.47a78.5,78.5,0,0,1,6.22,31.17v78.45a78.62,78.62,0,0,1-6.22,31.1,79.8,79.8,0,0,1-17.25,25.57A82.24,82.24,0,0,1,1084.21,311,77.69,77.69,0,0,1,1053,317.29Zm0-115.1a50.92,50.92,0,0,0,19.4-4.32q8.6-3.93,15.49-13a42.47,42.47,0,0,0,8.66-26.24,43.55,43.55,0,1,0-74.32,30.84A42,42,0,0,0,1053,202.19Z"/></g></g></svg>