<svg xmlns="http://www.w3.org/2000/svg" viewBox="0 0 1063.67 297.81"><title>Asset 2</title><g id="Layer_2" data-name="Layer 2"><g id="Layer_1-2" data-name="Layer 1"><path d="M64.62,224.18a62.6,62.6,0,0,1-25.08-5.07,66.39,66.39,0,0,1-20.62-13.9A64.25,64.25,0,0,1,5,184.64a63.55,63.55,0,0,1-5-25.2V73.63H34.27v85.81a30.34,30.34,0,0,0,30.35,30.34A30.23,30.23,0,0,0,95,159.44V73.63h34.4v85.81a63,63,0,0,1-5,25.07,64.44,64.44,0,0,1-14,20.63,66.74,66.74,0,0,1-20.69,14A62.59,62.59,0,0,1,64.62,224.18Z"/><path d="M305.56,224.18H271.15V212.13a72.57,72.57,0,0,1-40.87,12.05A74,74,0,0,1,201,218.34a74.73,74.73,0,0,1-24-16.18,77.13,77.13,0,0,1-16.18-24,75.41,75.41,0,0,1,0-58.53,76.73,76.73,0,0,1,16.24-24,75.82,75.82,0,0,1,24-16.18,75.89,75.89,0,0,1,58.39,0,76,76,0,0,1,40.24,40.24,73,73,0,0,1,5.91,29.2Zm-75.28-34.4a39.66,39.66,0,0,0,28.94-11.93Q271,165.42,271,149.29A41.51,41.51,0,0,0,259.22,120a41,41,0,0,0-70,29,41,41,0,0,0,41,40.87Z"/><path d="M365.35,297.81H331V149.92q0-32,22-54.2A75.72,75.72,0,0,1,377,79.47a75.9,75.9,0,0,1,58.39,0,75.62,75.62,0,0,1,40.24,40.17,76.25,76.25,0,0,1,0,58.53,75.78,75.78,0,0,1-40.18,40.17,73.43,73.43,0,0,1-29.26,5.84,72.57,72.57,0,0,1-40.87-12.05Zm40.87-108a41,41,0,0,0,41-40.87,41,41,0,0,0-70-28.95q-11.94,12.57-11.93,29t11.93,28.94A39.66,39.66,0,0,0,406.22,189.78Z"/><path d="M541.29,297.81h-34.4V149.92q0-32,22-54.2A75.72,75.72,0,0,1,553,79.47a75.92,75.92,0,0,1,58.4,0,75.62,75.62,0,0,1,40.24,40.17,76.25,76.25,0,0,1,0,58.53,75.78,75.78,0,0,1-40.18,40.17,73.47,73.47,0,0,1-29.26,5.84,72.63,72.63,0,0,1-40.88-12.05Zm40.88-108a41,41,0,0,0,41-40.87A41,41,0,0,0,553.23,120q-11.94,12.57-11.94,29t11.94,28.94A39.66,39.66,0,0,0,582.17,189.78Z"/><path d="M705.05,44.3a21.44,21.44,0,0,1-15.67-6.47,21.17,21.17,0,0,1-6.54-15.61,21.38,21.38,0,0,1,6.54-15.68,22.14,22.14,0,0,1,31.35-.07,21.34,21.34,0,0,1,6.54,15.75,21.17,21.17,0,0,1-6.54,15.61A21.47,21.47,0,0,1,705.05,44.3Zm17.27,179.88h-34.4V73.5h34.4Z"/><path d="M887.73,224.18h-34.4V138.24q0-12.18-9.27-21.07a35.73,35.73,0,0,0-47.73,0q-9.41,8.88-9.4,21.07v85.94h-34.4V138.24a60.41,60.41,0,0,1,5.4-25.32,64.55,64.55,0,0,1,14.72-20.63,69.2,69.2,0,0,1,21.52-13.71,70.73,70.73,0,0,1,52,0,69.34,69.34,0,0,1,21.45,13.71,64.55,64.55,0,0,1,14.72,20.63,60.41,60.41,0,0,1,5.4,25.32Z"/><path d="M988.4,297.81a72.79,72.79,0,0,1-29.26-5.9,76.69,76.69,0,0,1-24-16.25,75.72,75.72,0,0,1-16.18-24,73.17,73.17,0,0,1-5.84-29.14h34.4a40.88,40.88,0,1,0,81.75,0v-10.4a75.42,75.42,0,0,1-40.87,12.05,73.43,73.43,0,0,1-29.26-5.84A75.6,75.6,0,0,1,919,178.1a75.9,75.9,0,0,1,0-58.39A75.44,75.44,0,0,1,959.2,79.47a76.07,76.07,0,0,1,58.46,0,75.81,75.81,0,0,1,40.17,40.17,73.52,73.52,0,0,1,5.84,29.27v73.62a73.6,73.6,0,0,1-5.84,29.2,74.78,74.78,0,0,1-16.18,24,77.27,77.27,0,0,1-24,16.19A72.86,72.86,0,0,1,988.4,297.81Zm0-108a47.54,47.54,0,0,0,18.21-4.06,38.69,38.69,0,0,0,14.54-12.19,39.88,39.88,0,0,0,8.12-24.62,40.88,40.88,0,1,0-69.76,28.94A39.47,39.47,0,0,0,988.4,189.78Z"/></g></g></svg>