<svg xmlns="http://www.w3.org/2000/svg" viewBox="0 0 402.36 606.74"><defs><style>.cls-1,.cls-5{isolation:isolate;}.cls-2{fill:#3f37c9;}.cls-3{fill:#fca800;}.cls-4{fill:#0070cc;}.cls-5{fill:#4893ff;mix-blend-mode:overlay;}.cls-6{fill:#4895ef;}.cls-7{fill:#4361ee;}.cls-8{fill:#f72585;}.cls-9{fill:#a5a5a5;opacity:0.37;mix-blend-mode:soft-light;}</style></defs><title>Asset 1</title><g class="cls-1"><g id="Layer_2" data-name="Layer 2"><g id="Layer_1-2" data-name="Layer 1"><path class="cls-2" d="M182.8,398C87.37,504.44,36.88,293.12,9.61,369.57,42.8,272.83,103.45,276.06,182.8,398Z"/><path class="cls-2" d="M159.56,562C50,559.65-23,481.72,6.61,379.16c-.22.8-.41,1.58-.6,2.36-.64,2.5-1.15,4.94-1.56,7.3-.12.63-.22,1.24-.29,1.87-.15.9-.3,1.78-.39,2.63s-.2,1.58-.27,2.36c0,.58-.1,1.17-.15,1.73-.07.85-.12,1.7-.14,2.55,0,1.05-.08,2.07-.08,3.07a56.21,56.21,0,0,0,9.69,32.48c.61.95,1.26,1.85,1.94,2.75a76.82,76.82,0,0,0,8.74,9.68c1.46,1.39,3,2.73,4.57,4.07s3.24,2.62,4.94,3.91c.86.66,1.71,1.29,2.58,1.93,1.73,1.26,3.53,2.5,5.38,3.74,26.64,17.94,62.44,33.31,90.66,61.68,1,1,2,2,2.9,3A145.82,145.82,0,0,1,159.56,562Z"/><path class="cls-2" d="M299.13,72.48a54.91,54.91,0,1,1-34.5-69.59A54.9,54.9,0,0,1,299.13,72.48Z"/><path class="cls-3" d="M122.19,234.83A17.82,17.82,0,1,1,111,212.27,17.83,17.83,0,0,1,122.19,234.83Z"/><path class="cls-4" d="M393.56,505.12c-7.73,21.51-17.44,36.55-29,46.91A143.18,143.18,0,0,0,393.56,505.12Z"/><path class="cls-4" d="M399.55,482.2a88.07,88.07,0,0,1-3.8,16.5A124.46,124.46,0,0,0,399.55,482.2Z"/><path class="cls-5" d="M364.56,552c-59.49,64.85-171.88,76.8-205,10C252.49,564,321.57,590.53,364.56,552Z"/><path class="cls-6" d="M399.55,482.15c8-69.9-143.56,40-196.07-50.44Q193,413.55,182.8,398c30.95-34.53,66.62-102.49,107.77-224.51C324.56,72.62,419.87,360.62,399.55,482.15Z"/><path class="cls-7" d="M399.55,482.15v.05a124.46,124.46,0,0,1-3.8,16.5c-.24.83-.53,1.63-.8,2.43-.44,1.34-.92,2.68-1.39,4a143.18,143.18,0,0,1-29,46.91c-43,38.5-112.07,12-205,10a145.82,145.82,0,0,0-25-35.74c-.95-1-1.93-2-2.9-3-28.22-28.37-64-43.74-90.66-61.68-1.85-1.24-3.65-2.48-5.38-3.74-.87-.64-1.72-1.27-2.58-1.93-1.7-1.29-3.35-2.58-4.94-3.91s-3.11-2.68-4.57-4.07a76.82,76.82,0,0,1-8.74-9.68c-.68-.9-1.33-1.8-1.94-2.75A56.21,56.21,0,0,1,3.13,403c0-1,0-2,.08-3.07,0-.85.07-1.7.14-2.55,0-.56.1-1.15.15-1.73.07-.78.17-1.56.27-2.36s.24-1.73.39-2.63c.07-.63.17-1.24.29-1.87.41-2.36.92-4.8,1.56-7.3.24-1,.53-2,.8-3.09a1.94,1.94,0,0,0,.14-.51c.1-.27.17-.56.25-.83.29-1.07.63-2.14,1-3.24s.58-1.85.9-2.8c.17-.51.34-1,.54-1.48C36.88,293.12,87.37,504.44,182.8,398q10.14,15.58,20.68,33.74C256,522.18,407.51,412.25,399.55,482.15Z"/><path class="cls-8" d="M186.22,152.06a33.65,33.65,0,1,1-21.12-42.63A33.67,33.67,0,0,1,186.22,152.06Z"/><path class="cls-9" d="M399.55,482.15v.05a88.07,88.07,0,0,1-3.8,16.5c-.24.83-.53,1.63-.8,2.43-.44,1.34-.92,2.68-1.39,4-7.73,21.51-17.44,36.55-29,46.91-59.49,64.85-171.88,76.8-205,10C50,559.65-23,481.72,6.61,379.16a7.27,7.27,0,0,0,.2-.73,1.94,1.94,0,0,0,.14-.51c.1-.27.17-.56.25-.83.29-1.07.63-2.14,1-3.24s.58-1.85.9-2.8c.17-.51.34-1,.54-1.48C42.8,272.83,103.45,276.06,182.8,398c30.95-34.53,66.62-102.49,107.77-224.51C324.56,72.62,419.87,360.62,399.55,482.15Z"/></g></g></g></svg>