<svg xmlns="http://www.w3.org/2000/svg" xmlns:xlink="http://www.w3.org/1999/xlink" viewBox="0 0 501.62 370.22"><defs><style>.cls-1{fill:url(#linear-gradient);}</style><linearGradient id="linear-gradient" x1="87.38" y1="440.67" x2="367.27" y2="-314.03" gradientUnits="userSpaceOnUse"><stop offset="0" stop-color="#ffed25"/><stop offset="0.04" stop-color="#fae139"/><stop offset="0.09" stop-color="#f4d154"/><stop offset="0.15" stop-color="#f0c567"/><stop offset="0.21" stop-color="#edbe72"/><stop offset="0.28" stop-color="#ecbc76"/><stop offset="0.47" stop-color="#db9188"/><stop offset="0.75" stop-color="#cf698b"/><stop offset="1" stop-color="#c02484"/></linearGradient></defs><title>Asset 10</title><g id="Layer_2" data-name="Layer 2"><g id="Layer_1-2" data-name="Layer 1"><path class="cls-1" d="M501.62,0a34.46,34.46,0,0,0-2,4.23c-8.18,18.43-23.66,32.67-41.09,42.31A129.77,129.77,0,0,1,426.41,59c-33.92,8.25-69.39,5.26-104.3,4.85a691.27,691.27,0,0,0-125.22,10c-25.15,4.32-51.63,10.89-69.22,29.38-16.1,16.91-22,41.19-23.33,64.5s1.25,46.76-.8,70c-3.94,44.63-26.38,88.2-63.11,113.84A128.65,128.65,0,0,1,0,370.22V0Z"/></g></g></svg>