<svg xmlns="http://www.w3.org/2000/svg" xmlns:xlink="http://www.w3.org/1999/xlink" viewBox="0 0 686.62 450.57"><defs><style>.cls-1{isolation:isolate;}.cls-2,.cls-3,.cls-4{mix-blend-mode:overlay;}.cls-2{fill:url(#linear-gradient);}.cls-3{fill:url(#linear-gradient-2);}.cls-4{fill:url(#linear-gradient-3);}</style><linearGradient id="linear-gradient" x1="-218.19" y1="806.98" x2="534.87" y2="-270.94" gradientUnits="userSpaceOnUse"><stop offset="0" stop-color="#ffed25"/><stop offset="0.04" stop-color="#fae139"/><stop offset="0.09" stop-color="#f4d154"/><stop offset="0.15" stop-color="#f0c567"/><stop offset="0.21" stop-color="#edbe72"/><stop offset="0.28" stop-color="#ecbc76"/><stop offset="0.47" stop-color="#db9188"/><stop offset="0.75" stop-color="#cf698b"/><stop offset="1" stop-color="#c02484"/></linearGradient><linearGradient id="linear-gradient-2" x1="-188.51" y1="715.89" x2="457.36" y2="-208.6" xlink:href="#linear-gradient"/><linearGradient id="linear-gradient-3" x1="87.38" y1="440.67" x2="367.27" y2="-314.03" xlink:href="#linear-gradient"/></defs><title>Asset 6</title><g class="cls-1"><g id="Layer_2" data-name="Layer 2"><g id="Layer_1-2" data-name="Layer 1"><path class="cls-2" d="M686.62,0a85,85,0,0,1-4.88,11.82A93.81,93.81,0,0,1,667,33.13c-4.56,4.9-9.81,9.1-14.49,13.89-14.3,14.59-28.63,27-47,36.19-16.85,8.48-34.91,14.34-53.28,18.41-1.3.29-2.61.57-3.91.84q-3.63.75-7.28,1.41c-45.75,8.31-92.91,7.95-138.05,19.18-4,1-8,2.1-12,3.33C350.1,139,311.15,164.2,295,203.85c-26.64,65.27,15,149.82-26.61,206.45-23.24,31.6-65.92,42.42-104.74,39.92S87.55,434.3,49.35,426.84A235.89,235.89,0,0,0,0,422.06V0Z"/><path class="cls-3" d="M552.26,101.62a89,89,0,0,1-6.11,7.79c-21.16,24.12-56.1,37.45-89.55,33.85-22.57-2.43-43.5-11.89-65.54-16.88q-3.88-.88-7.83-1.56c-41.78-7.06-85.69,7.36-118.12,32.61s-54.4,60.35-69.12,97c-12.45,31-20.75,64.61-43.6,90.13-21.27,23.76-53.46,37.89-86.5,42.65-21.81,3.15-44,2.49-65.89-.53V0H553.48a96.69,96.69,0,0,1,10.59,21.63C573.11,48.16,568.54,78.29,552.26,101.62Z"/><path class="cls-4" d="M501.62,0a34.46,34.46,0,0,0-2,4.23c-8.18,18.43-23.66,32.67-41.09,42.31A129.77,129.77,0,0,1,426.41,59c-33.92,8.25-69.39,5.26-104.3,4.85a691.27,691.27,0,0,0-125.22,10c-25.15,4.32-51.63,10.89-69.22,29.38-16.1,16.91-22,41.19-23.33,64.5s1.25,46.76-.8,70c-3.94,44.63-26.38,88.2-63.11,113.84A128.65,128.65,0,0,1,0,370.22V0Z"/></g></g></g></svg>