<svg xmlns="http://www.w3.org/2000/svg" xmlns:xlink="http://www.w3.org/1999/xlink" viewBox="0 0 568.65 389.32"><defs><style>.cls-1{fill:url(#linear-gradient);}</style><linearGradient id="linear-gradient" x1="-188.51" y1="715.89" x2="457.36" y2="-208.6" gradientUnits="userSpaceOnUse"><stop offset="0" stop-color="#ffed25"/><stop offset="0.04" stop-color="#fae139"/><stop offset="0.09" stop-color="#f4d154"/><stop offset="0.15" stop-color="#f0c567"/><stop offset="0.21" stop-color="#edbe72"/><stop offset="0.28" stop-color="#ecbc76"/><stop offset="0.47" stop-color="#db9188"/><stop offset="0.75" stop-color="#cf698b"/><stop offset="1" stop-color="#c02484"/></linearGradient></defs><title>Asset 9</title><g id="Layer_2" data-name="Layer 2"><g id="Layer_1-2" data-name="Layer 1"><path class="cls-1" d="M552.26,101.62a89,89,0,0,1-6.11,7.79c-21.16,24.12-56.1,37.45-89.55,33.85-22.57-2.43-43.5-11.89-65.54-16.88q-3.88-.88-7.83-1.56c-41.78-7.06-85.69,7.36-118.12,32.61s-54.4,60.35-69.12,97c-12.45,31-20.75,64.61-43.6,90.13-21.27,23.76-53.46,37.89-86.5,42.65-21.81,3.15-44,2.49-65.89-.53V0H553.48a96.69,96.69,0,0,1,10.59,21.63C573.11,48.16,568.54,78.29,552.26,101.62Z"/></g></g></svg>