<svg width="26" height="28" viewBox="0 0 26 28" fill="none" xmlns="http://www.w3.org/2000/svg">
<path d="M25.0976 4.65527C25.0976 6.74434 23.4153 8.43789 21.3397 8.43789C19.2642 8.43789 17.5818 6.74434 17.5818 4.65527C17.5818 2.56641 19.2642 0.872864 21.3397 0.872864C23.4153 0.872864 25.0976 2.56641 25.0976 4.65527Z" fill="black"/>
<path d="M21.3398 9.31078C18.7889 9.31078 16.7146 7.22278 16.7146 4.65528C16.7146 2.08801 18.7889 0 21.3398 0C23.8906 0 25.9649 2.08801 25.9649 4.65528C25.9649 7.22278 23.8906 9.31078 21.3398 9.31078ZM21.3398 1.74576C19.7452 1.74576 18.4491 3.05167 18.4491 4.65528C18.4491 6.25912 19.7452 7.56502 21.3398 7.56502C22.9343 7.56502 24.2305 6.25912 24.2305 4.65528C24.2305 3.05167 22.9343 1.74576 21.3398 1.74576Z" fill="black"/>
<path d="M25.0976 23.2768C25.0976 25.3657 23.4153 27.0592 21.3397 27.0592C19.2642 27.0592 17.5818 25.3657 17.5818 23.2768C17.5818 21.1878 19.2642 19.4942 21.3397 19.4942C23.4153 19.4942 25.0976 21.1878 25.0976 23.2768Z" fill="black"/>
<path d="M21.3398 27.9321C18.7889 27.9321 16.7146 25.8441 16.7146 23.2768C16.7146 20.7093 18.7889 18.6213 21.3398 18.6213C23.8906 18.6213 25.9649 20.7093 25.9649 23.2768C25.9649 25.8441 23.8906 27.9321 21.3398 27.9321ZM21.3398 20.3671C19.7452 20.3671 18.4491 21.673 18.4491 23.2768C18.4491 24.8805 19.7452 26.1864 21.3398 26.1864C22.9343 26.1864 24.2305 24.8805 24.2305 23.2768C24.2305 21.673 22.9343 20.3671 21.3398 20.3671Z" fill="black"/>
<path d="M8.90962 13.966C8.90962 16.0551 7.22703 17.7484 5.15148 17.7484C3.07614 17.7484 1.39355 16.0551 1.39355 13.966C1.39355 11.8769 3.07614 10.1836 5.15148 10.1836C7.22703 10.1836 8.90962 11.8769 8.90962 13.966Z" fill="black"/>
<path d="M5.15152 18.6213C2.60086 18.6213 0.526367 16.5335 0.526367 13.966C0.526367 11.3985 2.60086 9.31073 5.15152 9.31073C7.7024 9.31073 9.77689 11.3985 9.77689 13.966C9.77689 16.5335 7.7024 18.6213 5.15152 18.6213ZM5.15152 11.0565C3.55701 11.0565 2.26083 12.3622 2.26083 13.966C2.26083 15.5698 3.55701 16.8755 5.15152 16.8755C6.74624 16.8755 8.04243 15.5698 8.04243 13.966C8.04243 12.3622 6.74624 11.0565 5.15152 11.0565Z" fill="black"/>
<path d="M7.88182 13.4075C7.47933 13.4075 7.08849 13.1967 6.8757 12.8198C6.56002 12.2623 6.75438 11.5511 7.30826 11.2321L18.0375 5.07551C18.5913 4.75542 19.2979 4.95105 19.6148 5.51067C19.9305 6.06815 19.7361 6.77928 19.1823 7.0983L8.45285 13.2549C8.27246 13.3585 8.07598 13.4075 7.88182 13.4075Z" fill="black"/>
<path d="M18.6097 23.0092C18.4154 23.0092 18.2189 22.9602 18.0385 22.8566L7.30908 16.7C6.7552 16.3823 6.56105 15.6711 6.87673 15.1124C7.19115 14.5538 7.89873 14.3571 8.45388 14.6772L19.1833 20.8338C19.7372 21.1516 19.9313 21.8627 19.6157 22.4215C19.4018 22.7984 19.011 23.0092 18.6097 23.0092Z" fill="black"/>
</svg>
