<svg width="272" height="200" viewBox="0 0 272 200" fill="none" xmlns="http://www.w3.org/2000/svg">
<path d="M43.4539 199.96C42.2191 199.96 40.9282 199.96 39.6373 199.881V199.039C40.9394 199.095 42.2528 199.118 43.4988 199.118H44.105V199.96H43.4202H43.4539ZM49.7739 199.758L49.7178 198.916C51.2107 198.815 52.7037 198.68 54.208 198.501L54.309 199.342C52.7935 199.511 51.2781 199.657 49.7739 199.758V199.758ZM34.0582 199.522C32.5989 199.387 31.0834 199.23 29.568 199.039L29.669 198.197C31.1732 198.388 32.6662 198.557 34.1592 198.68L34.0582 199.522ZM59.8768 198.467L59.7084 197.647C61.179 197.356 62.6383 197.03 64.0639 196.66L64.2772 197.479C62.8067 197.849 61.3249 198.186 59.8431 198.467H59.8768ZM23.9552 198.197C22.4847 197.939 20.9917 197.659 19.5324 197.355L19.7008 196.536C21.1601 196.839 22.6418 197.12 24.1012 197.367L23.9552 198.197ZM14.0094 196.098C12.5389 195.739 11.0796 195.346 9.65392 194.976L9.87845 194.167C11.2929 194.572 12.7522 194.964 14.2115 195.29L14.0094 196.098ZM69.6093 195.829L69.3287 195.032C70.7431 194.538 72.1351 193.988 73.4822 193.404L73.8189 194.167C72.4943 194.762 71.0799 195.369 69.643 195.829H69.6093ZM4.2657 193.269C1.5828 192.383 0.022451 191.743 0 191.743L0.325532 190.957C0.325532 190.957 1.87465 191.586 4.5351 192.472L4.2657 193.269ZM78.8816 191.664L78.4663 190.923C79.7572 190.205 81.0369 189.419 82.2717 188.6L82.732 189.307C81.5196 190.138 80.2399 190.878 78.9153 191.664H78.8816ZM87.3008 185.995L86.7844 185.333C87.9743 184.413 89.1417 183.47 90.2531 182.515L90.8031 183.155C89.7142 184.143 88.5356 185.075 87.3344 185.995H87.3008ZM94.9565 179.35L94.3728 178.744C95.428 177.7 96.472 176.622 97.4711 175.533L98.0884 176.106C97.0782 177.206 96.0679 178.295 94.9902 179.35H94.9565ZM101.748 171.806L101.086 171.29C102.017 170.167 102.915 168.91 103.757 167.709L104.453 168.192C103.623 169.415 102.691 170.672 101.782 171.795L101.748 171.806ZM107.518 163.466L106.799 163.028C107.574 161.748 108.304 160.435 108.988 159.133L109.729 159.526C109.078 160.839 108.304 162.164 107.552 163.466H107.518ZM112.154 154.429L111.391 154.092C111.963 152.757 112.513 151.353 113.041 149.95L113.838 150.242C113.344 151.668 112.794 153.071 112.188 154.429H112.154ZM115.578 144.876L114.77 144.641C115.185 143.226 115.555 141.767 115.892 140.319L116.712 140.51C116.408 141.969 116.027 143.439 115.611 144.854L115.578 144.876ZM117.756 134.964L116.925 134.829C117.149 133.37 117.329 131.877 117.475 130.407L118.306 130.485C118.205 131.978 118.014 133.482 117.789 134.964H117.756ZM118.654 124.861H117.812C117.812 124.21 117.812 123.559 117.812 122.908C117.812 122.066 117.812 121.224 117.812 120.393H118.654C118.654 121.235 118.654 122.077 118.654 122.93C118.71 123.525 118.698 124.188 118.687 124.85L118.654 124.861ZM122.886 123.885C122.279 123.885 121.684 123.885 121.078 123.885V123.043C122.555 123.127 124.036 123.127 125.512 123.043L125.568 123.885C124.749 123.84 123.829 123.873 122.897 123.873L122.886 123.885ZM115.454 123.211C113.966 122.942 112.494 122.593 111.043 122.167L111.278 121.359C112.7 121.776 114.142 122.117 115.6 122.38L115.454 123.211ZM131.226 123.02L131.058 122.201C132.508 121.911 133.94 121.536 135.346 121.078L135.604 121.875C134.179 122.337 132.729 122.715 131.26 123.009L131.226 123.02ZM105.767 120.158C104.389 119.534 103.047 118.833 101.748 118.059L102.175 117.34C103.449 118.094 104.764 118.776 106.115 119.383L105.767 120.158ZM140.869 119.63L140.498 118.878C141.819 118.202 143.101 117.453 144.338 116.633L144.798 117.329C143.53 118.178 142.214 118.953 140.858 119.653L140.869 119.63ZM97.0894 114.837C96.3485 114.242 95.6076 113.602 94.9004 112.94C94.4963 112.558 94.1034 112.176 93.7779 111.817L94.3728 111.222C94.7433 111.604 95.1249 111.974 95.4954 112.345C96.1913 112.996 96.9098 113.613 97.6394 114.208L97.0894 114.837ZM117.452 114.769C117.284 113.276 117.071 111.795 116.824 110.358L117.654 110.212C117.913 111.671 118.126 113.175 118.283 114.702L117.452 114.769ZM149.31 113.905L148.749 113.276C149.862 112.296 150.919 111.255 151.915 110.156L152.532 110.728C151.515 111.854 150.435 112.922 149.299 113.928L149.31 113.905ZM90.1632 107.361C89.3227 106.097 88.6296 104.741 88.0978 103.319L88.8836 103.039C89.3888 104.412 90.0438 105.726 90.8368 106.957L90.1632 107.361ZM156.068 106.238L155.372 105.755C156.012 104.857 156.618 103.903 157.191 102.949C157.382 102.635 157.572 102.32 157.752 101.995L158.482 102.41C158.291 102.736 158.111 103.061 157.92 103.376C157.325 104.442 156.697 105.396 156.057 106.317L156.068 106.238ZM115.656 104.857C115.252 103.376 114.803 101.95 114.309 100.614L115.106 100.322C115.6 101.681 116.06 103.129 116.465 104.633L115.656 104.857ZM88.0192 97.7067H87.1773C87.2295 96.1622 87.5643 94.6403 88.1651 93.2165L88.9397 93.542C88.3873 94.8644 88.0756 96.2747 88.0192 97.7067ZM160.985 97.4822L160.222 97.1566C160.783 95.832 161.344 94.4289 161.827 93.0032L162.624 93.2726C162.108 94.6758 161.557 96.0902 160.974 97.4261L160.985 97.4822ZM112.008 95.6861C111.314 94.3907 110.503 93.1619 109.583 92.0154L110.234 91.4765C111.187 92.6653 112.029 93.9391 112.749 95.282L112.008 95.6861ZM92.1726 89.2314L91.6563 88.5804C92.8697 87.6023 94.2666 86.8771 95.7648 86.4475L95.9893 87.2558C94.5995 87.6376 93.2987 88.2899 92.1614 89.1753L92.1726 89.2314ZM105.419 88.5355C104.154 87.822 102.781 87.3178 101.355 87.0425L101.512 86.2118C103.028 86.511 104.487 87.049 105.834 87.8058L105.419 88.5355ZM164.263 87.8732L163.443 87.6599C163.803 86.324 164.151 84.8984 164.51 83.3156L165.329 83.4952C164.959 85.0443 164.611 86.4812 164.252 87.817L164.263 87.8732ZM166.508 77.9947L165.677 77.8263L166.542 73.4259L167.361 73.5831L166.508 77.9947ZM168.506 68.1051L167.687 67.9142C168.046 66.2978 168.405 64.8609 168.809 63.5363L169.617 63.7608C169.18 65.018 168.82 66.4437 168.461 68.0489L168.506 68.1051ZM171.312 58.4623L170.527 58.1705C171.028 56.7218 171.617 55.3048 172.289 53.9272L173.041 54.3089C172.375 55.6449 171.783 57.0165 171.268 58.4174L171.312 58.4623ZM175.993 49.6952L175.309 49.1901C176.205 47.972 177.184 46.8168 178.239 45.7326L178.833 46.3163C177.798 47.358 176.835 48.4681 175.949 49.6391L175.993 49.6952ZM183.009 42.7017L182.504 42.017C183.727 41.1292 184.998 40.3085 186.31 39.5586L186.725 40.2995C185.424 41.0225 184.168 41.8247 182.965 42.7017H183.009ZM191.709 37.8635L191.372 37.089C192.551 36.5951 193.797 36.1236 195.088 35.6858L195.357 36.4828C194.044 36.8533 192.821 37.3135 191.664 37.8074L191.709 37.8635Z" fill="#263238"/>
<path d="M192.731 18.4997L184.143 42.0958L202.182 28.0077L271.129 3.00854L192.731 18.4997Z" fill="#FFC727" fill-opacity="0.9"/>
<path opacity="0.1" d="M192.731 18.4997L184.143 42.0958L202.182 28.0077L271.129 3.00854L192.731 18.4997Z" fill="black"/>
<path d="M204.495 33.5081L184.143 42.0956L202.182 28.0076L204.495 33.5081Z" fill="#263238"/>
<path d="M202.183 28.0078L271.13 3.00854L214.576 58.1931L202.183 28.0078Z" fill="#FFC727" fill-opacity="0.9"/>
<path d="M192.73 18.4996L164.083 0L271.129 3.00844L192.73 18.4996Z" fill="#FFC727" fill-opacity="0.9"/>
</svg>
