<svg width="338" height="244" viewBox="0 0 338 244" fill="none" xmlns="http://www.w3.org/2000/svg">
<path d="M142.226 10.097C145.367 7.30123 149.435 5.47031 154.43 4.60422C159.424 3.73812 164.704 4.28785 170.269 6.25339C175.815 8.21893 180.888 11.7686 185.488 16.9023C189.765 21.6771 192.655 26.6784 194.158 31.9064C195.658 36.7409 195.795 41.8953 194.555 46.8028C193.377 51.3517 190.869 55.4459 187.353 58.5624C184.85 60.9088 181.796 62.5871 178.474 63.4426C175.507 64.1814 172.445 64.4629 169.393 64.2773C166.463 64.0888 161.379 63.5884 154.14 62.7762C152.446 62.5918 150.743 62.4974 149.038 62.4935C147.871 62.4857 146.707 62.6191 145.571 62.8906C144.671 63.1202 143.796 63.4405 142.96 63.8465C142.152 64.2436 140.785 64.9773 138.847 66.0611C134.862 68.4978 131.397 68.0715 128.454 64.7821C127.722 64.0043 127.152 63.0893 126.777 62.0898C126.401 61.0904 126.228 60.0265 126.266 58.9595C126.342 56.792 127.482 54.721 129.685 52.7465C134.173 48.446 140.185 46.1025 146.399 46.2306C149.937 46.3487 153.466 46.6452 156.974 47.1192C160.703 47.5702 163.456 47.8529 165.234 47.9471C166.998 48.0479 168.767 47.9006 170.491 47.5096C172.21 47.1287 173.799 46.3049 175.102 45.12C176.376 44.0136 177.397 42.6452 178.094 41.1083C178.791 39.5713 179.148 37.902 179.14 36.2144C179.194 32.6244 177.848 29.2879 175.102 26.205C171.857 22.5835 168.557 20.7369 165.2 20.6651C161.843 20.5933 157.847 21.5581 153.211 23.5596C148.495 25.7719 144.737 25.3232 141.936 22.2133C141.14 21.359 140.53 20.3478 140.146 19.2444C139.762 18.1409 139.613 16.9695 139.708 15.8051C139.729 14.7343 139.962 13.6781 140.394 12.6982C140.826 11.7182 141.449 10.834 142.226 10.097ZM109.687 82.5864C107.928 80.6754 106.946 78.1764 106.934 75.5791C106.893 72.9225 108.04 70.5463 110.373 68.4507C111.334 67.5625 112.468 66.8831 113.704 66.4556C114.94 66.028 116.252 65.8616 117.556 65.9668C118.876 66.0467 120.167 66.3918 121.352 66.9817C122.536 67.5715 123.589 68.3939 124.449 69.3998C125.332 70.3565 126.015 71.481 126.455 72.7065C126.896 73.932 127.086 75.2336 127.013 76.534C126.941 77.8343 126.608 79.1069 126.035 80.2761C125.461 81.4453 124.659 82.4874 123.674 83.3403C121.372 85.4001 118.904 86.2797 116.27 85.979C113.725 85.7228 111.372 84.5103 109.687 82.5864Z" fill="#378FED"/>
<g opacity="0.5">
<path opacity="0.5" d="M202.417 55.2304C203.362 52.9846 204.929 51.0556 206.934 49.6703C209.29 47.992 212.04 46.9531 214.917 46.6547C218.269 46.2941 221.657 46.7897 224.765 48.0952C227.701 49.1813 230.352 50.9189 232.52 53.1773C234.398 55.1317 235.702 57.5653 236.289 60.2115C236.83 62.6849 236.619 65.2636 235.683 67.616C235.048 69.3415 233.988 70.8789 232.6 72.0856C231.358 73.1533 229.96 74.025 228.454 74.6704C227.009 75.2852 224.453 76.268 220.787 77.6187C219.93 77.9332 219.091 78.2973 218.276 78.7092C217.715 78.9843 217.191 79.328 216.715 79.7323C216.336 80.0563 215.993 80.4195 215.691 80.8161C215.402 81.1998 214.924 81.8796 214.258 82.8355C212.911 84.9626 211.15 85.5908 208.974 84.7202C208.436 84.5233 207.943 84.2221 207.523 83.834C207.102 83.4458 206.763 82.9784 206.523 82.4585C206.283 81.8501 206.172 81.1983 206.198 80.5447C206.223 79.8911 206.385 79.2499 206.671 78.6621C207.787 75.5256 210.102 72.9596 213.107 71.5269C214.827 70.7257 216.586 70.0113 218.377 69.3863C220.269 68.7132 221.655 68.1814 222.53 67.8045C223.398 67.4278 224.21 66.9316 224.94 66.3303C225.672 65.7332 226.235 64.9561 226.576 64.0753C226.921 63.2401 227.08 62.3402 227.044 61.4373C227.008 60.5345 226.777 59.6502 226.367 58.8451C225.466 57.0731 223.916 55.7177 222.039 55.0621C219.616 54.1062 217.596 54.0143 215.981 54.7861C214.019 55.8301 212.303 57.2804 210.946 59.0403C209.214 61.2347 207.302 61.9078 205.211 61.0597C204.624 60.8403 204.09 60.5015 203.642 60.0646C203.193 59.6277 202.84 59.1024 202.606 58.522C202.358 58.0132 202.213 57.4602 202.181 56.8951C202.148 56.33 202.229 55.7641 202.417 55.2304ZM204.255 97.7722C202.954 97.2792 201.884 96.3193 201.253 95.0797C200.929 94.4279 200.755 93.7126 200.741 92.9852C200.727 92.2578 200.874 91.5364 201.172 90.8726C201.415 90.2142 201.792 89.6137 202.28 89.1095C202.768 88.6053 203.356 88.2085 204.006 87.9445C204.658 87.6662 205.36 87.5228 206.069 87.5228C206.778 87.5228 207.48 87.6662 208.132 87.9445C208.785 88.1903 209.382 88.5647 209.887 89.0454C210.393 89.5262 210.796 90.1035 211.074 90.7432C211.352 91.3829 211.499 92.0719 211.506 92.7694C211.513 93.4669 211.38 94.1587 211.114 94.8037C210.881 95.4948 210.499 96.1259 209.994 96.6519C209.489 97.1779 208.874 97.5858 208.193 97.8463C206.918 98.3197 205.511 98.2933 204.255 97.7722Z" fill="#378FED"/>
</g>
<g opacity="0.1">
<path opacity="0.1" d="M247.693 51.2656C247.084 50.3076 246.759 49.1965 246.757 48.0615C246.734 46.7166 247.064 45.3893 247.713 44.2112C248.462 42.839 249.548 41.6806 250.87 40.8455C252.062 40.0063 253.429 39.4493 254.868 39.2165C256.115 39.0144 257.393 39.1588 258.564 39.6339C259.66 40.0777 260.597 40.8397 261.256 41.8215C261.751 42.5208 262.061 43.3334 262.158 44.1842C262.235 44.9415 262.199 45.7061 262.05 46.4527C261.902 47.1752 261.602 48.4137 261.148 50.1684C261.046 50.5813 260.965 50.9992 260.906 51.4204C260.828 51.9389 260.869 52.4686 261.027 52.9686C261.101 53.184 261.236 53.5475 261.438 54.0591C261.561 54.2687 261.641 54.5006 261.673 54.7413C261.706 54.9821 261.691 55.2269 261.628 55.4616C261.565 55.6964 261.457 55.9164 261.309 56.1089C261.161 56.3014 260.976 56.4627 260.765 56.5833C260.327 56.8909 259.784 57.012 259.257 56.9199C258.96 56.8528 258.679 56.7241 258.435 56.542C258.19 56.36 257.986 56.1287 257.837 55.8631C257.363 55.1915 257.028 54.4315 256.854 53.6283C256.714 52.9319 256.698 52.2165 256.807 51.5146C256.952 50.6436 257.143 49.7808 257.379 48.9298C257.621 48.0211 257.783 47.3547 257.87 46.9104C257.955 46.467 257.98 46.0142 257.944 45.5642C257.906 45.125 257.755 44.7032 257.507 44.3391C257.277 43.9871 256.974 43.6888 256.619 43.4646C256.263 43.2404 255.864 43.0956 255.447 43.0399C254.522 42.9139 253.584 43.1556 252.835 43.713C252.41 43.9491 252.039 44.2708 251.745 44.6578C251.45 45.0448 251.239 45.4887 251.126 45.9613C251.009 46.9899 251.112 48.0317 251.428 49.0173C251.812 50.2626 251.563 51.1713 250.695 51.757C250.456 51.9231 250.186 52.0382 249.901 52.095C249.616 52.1518 249.323 52.149 249.039 52.0868C248.771 52.0472 248.514 51.9541 248.282 51.813C248.051 51.6719 247.85 51.4858 247.693 51.2656ZM264.487 61.8068C263.954 62.1717 263.304 62.3275 262.663 62.2443C262.325 62.1962 262.001 62.0726 261.717 61.8826C261.433 61.6927 261.195 61.4414 261.021 61.1471C260.833 60.8804 260.702 60.5776 260.637 60.2578C260.572 59.938 260.574 59.6082 260.644 59.2893C260.709 58.9655 260.838 58.6581 261.025 58.3852C261.211 58.1123 261.45 57.8796 261.727 57.7007C261.994 57.5149 262.295 57.3851 262.614 57.3192C262.932 57.2532 263.26 57.2525 263.578 57.317C263.898 57.376 264.203 57.5003 264.473 57.6822C264.743 57.864 264.972 58.0994 265.147 58.3738C265.35 58.6462 265.491 58.9597 265.559 59.2923C265.628 59.6249 265.623 59.9686 265.544 60.299C265.393 60.9162 265.016 61.4542 264.487 61.8068Z" fill="#378FED"/>
</g>
<path d="M125.64 238.706L120.551 237.386L123.587 225.748L128.676 227.067L125.64 238.706Z" fill="#FFC3BD"/>
<path d="M120.497 236.04L126.178 237.837C126.225 237.849 126.27 237.87 126.309 237.899C126.348 237.928 126.38 237.965 126.405 238.007C126.429 238.049 126.445 238.096 126.451 238.144C126.457 238.192 126.454 238.241 126.441 238.288L125.242 242.697C125.158 242.929 124.988 243.119 124.768 243.228C124.547 243.337 124.293 243.357 124.058 243.283C122.092 242.61 121.184 242.219 118.673 241.425C117.131 240.94 113.416 239.843 111.268 239.17C109.121 238.497 109.922 236.478 110.858 236.605C115.179 237.056 117.69 236.693 119.487 236.067C119.812 235.947 120.167 235.937 120.497 236.04Z" fill="#263238"/>
<path opacity="0.2" d="M128.676 227.074L123.587 225.755L122.025 231.752L127.114 233.072L128.676 227.074Z" fill="black"/>
<path d="M141.499 108.058C141.499 108.058 132.183 152.33 129.706 166.822C127.014 182.694 121.097 228.138 121.097 228.138L129.746 231.281C129.746 231.281 143.283 183.092 145.336 167.832C149.637 152.915 160.535 108.058 160.535 108.058H141.499Z" fill="#378FED" fill-opacity="0.8"/>
<path opacity="0.3" d="M153.46 122.51C150.438 129.766 149.341 142.98 149.866 150.882C152.262 141.553 154.921 130.897 156.981 122.55C156.315 120.255 155.399 117.845 153.46 122.51Z" fill="black"/>
<path d="M129.571 232.304L120.295 229.625L120.645 225.701L131.684 228.804L129.571 232.304Z" fill="#263238"/>
<path d="M118.411 236.323C118.87 236.454 119.341 236.538 119.817 236.572C119.841 236.576 119.866 236.572 119.888 236.561C119.91 236.551 119.927 236.533 119.939 236.511C119.951 236.492 119.958 236.47 119.958 236.447C119.958 236.425 119.951 236.402 119.939 236.383C119.811 236.222 118.7 234.828 118.007 234.869C117.927 234.872 117.849 234.895 117.781 234.936C117.713 234.977 117.656 235.035 117.616 235.104C117.548 235.201 117.506 235.315 117.495 235.433C117.485 235.551 117.506 235.67 117.556 235.778C117.764 236.058 118.068 236.252 118.411 236.323ZM119.555 236.323C118.586 236.208 117.933 235.973 117.771 235.65C117.74 235.58 117.728 235.503 117.738 235.427C117.747 235.351 117.777 235.279 117.825 235.219C117.844 235.185 117.871 235.156 117.904 235.134C117.937 235.113 117.974 235.101 118.013 235.098C118.377 235.084 119.09 235.764 119.555 236.309V236.323Z" fill="#378FED" fill-opacity="0.8"/>
<path d="M119.79 236.572H119.85C119.87 236.569 119.889 236.561 119.906 236.549C119.922 236.538 119.935 236.522 119.945 236.504C119.945 236.444 120.564 235.077 120.214 234.445C120.166 234.364 120.102 234.294 120.025 234.239C119.949 234.185 119.862 234.147 119.77 234.128C119.668 234.099 119.56 234.104 119.462 234.141C119.364 234.179 119.28 234.248 119.224 234.337C118.921 234.835 119.332 236.087 119.736 236.531C119.749 236.55 119.768 236.564 119.79 236.572ZM119.79 234.377C119.836 234.391 119.879 234.415 119.916 234.446C119.953 234.477 119.984 234.516 120.005 234.559C120.127 235.115 120.058 235.696 119.81 236.208C119.494 235.71 119.251 234.781 119.453 234.458C119.453 234.398 119.554 234.33 119.729 234.364L119.79 234.377Z" fill="#378FED" fill-opacity="0.8"/>
<path d="M148.708 70.1402C148.257 71.2307 147.826 72.2 147.362 73.1962C146.897 74.1925 146.399 75.1685 145.894 76.1445C144.871 78.0899 143.794 80.0083 142.61 81.8796C140.252 85.7692 137.402 89.3373 134.128 92.4949L134.007 92.6161C133.835 92.7707 133.645 92.9041 133.442 93.0132C132.881 93.3154 132.265 93.5009 131.631 93.5584C131.268 93.5844 130.903 93.5844 130.54 93.5584C129.997 93.5234 129.457 93.4492 128.925 93.3363C127.969 93.1344 127.121 92.8853 126.286 92.6228C124.63 92.0977 123.089 91.4583 121.574 90.8121C120.06 90.1659 118.565 89.4658 117.098 88.7052C115.631 87.9445 114.19 87.1839 112.763 86.3223C112.432 86.1202 112.184 85.8068 112.064 85.4382C111.943 85.0697 111.958 84.6703 112.106 84.3118C112.253 83.9532 112.524 83.6591 112.869 83.4823C113.214 83.3055 113.611 83.2575 113.988 83.3471C117.111 84.101 120.228 84.9424 123.297 85.6895C124.825 86.0732 126.353 86.4098 127.821 86.6925C128.513 86.8325 129.211 86.9336 129.914 86.9954C130.179 87.0108 130.444 87.0108 130.709 86.9954C130.81 86.9954 130.85 86.9954 130.823 86.9954C130.584 87.002 130.351 87.0742 130.15 87.2041L129.477 87.7224C130.779 86.2809 131.987 84.7564 133.092 83.1586C134.222 81.5229 135.293 79.7929 136.323 78.0562C137.352 76.3196 138.342 74.4954 139.278 72.6712C140.213 70.847 141.142 68.969 141.97 67.2121L142.011 67.1246C142.408 66.232 143.143 65.5337 144.055 65.1834C144.967 64.8331 145.981 64.8594 146.874 65.2567C147.767 65.6539 148.465 66.3894 148.815 67.3015C149.165 68.2135 149.139 69.2274 148.742 70.12L148.708 70.1402Z" fill="#FFC3BD"/>
<path d="M147.672 63.0184C143.337 63.1396 140.362 67.8448 137.521 73.7078C139.698 77.4718 142.819 80.6037 146.575 82.795C146.575 82.795 157.964 62.729 147.672 63.0184Z" fill="#E0E0E0"/>
<path d="M112.547 86.3492L108.643 85.3529L111.686 81.442C111.686 81.442 115.051 81.9738 116.33 84.8077L114.944 85.7972C114.607 86.0559 114.219 86.239 113.806 86.3343C113.392 86.4295 112.963 86.4346 112.547 86.3492Z" fill="#FFC3BD"/>
<path d="M107.694 81.3546L108.448 80.6814C108.757 80.4112 109.15 80.2584 109.56 80.2498C109.97 80.2411 110.37 80.3773 110.69 80.6343L111.686 81.4353L108.643 85.3462L107.398 83.4076C107.192 83.0871 107.108 82.703 107.163 82.3258C107.217 81.9486 107.406 81.6037 107.694 81.3546Z" fill="#FFC3BD"/>
<path d="M171.19 238.1H165.866L164.594 226.239H169.918L171.19 238.1Z" fill="#FFC3BD"/>
<path d="M165.401 237.507H171.386C171.485 237.502 171.582 237.536 171.656 237.601C171.73 237.667 171.776 237.759 171.783 237.857L172.072 242.408C172.067 242.652 171.966 242.885 171.791 243.056C171.616 243.228 171.381 243.323 171.137 243.323C169.057 243.283 168.06 243.169 165.428 243.169C163.813 243.169 159.37 243.33 157.115 243.33C154.86 243.33 154.941 241.203 155.89 241.014C160.138 240.146 162.978 238.955 164.486 237.824C164.748 237.621 165.07 237.509 165.401 237.507Z" fill="#263238"/>
<path opacity="0.2" d="M169.918 226.239H164.594L165.253 232.358H170.578L169.918 226.239Z" fill="black"/>
<path d="M151.905 108.058C151.905 108.058 153.083 152.565 153.925 167.233C154.867 183.293 162.844 230.877 162.844 230.877H172.604C172.604 230.877 170.463 182.688 168.848 166.93C169.521 149.671 169.965 108.044 169.965 108.044L151.905 108.058Z" fill="#378FED" fill-opacity="0.8"/>
<path d="M172.995 230.877H161.928L161.403 227.316L173.291 227.518L172.995 230.877Z" fill="#263238"/>
<path d="M163.517 238.396C163.995 238.386 164.471 238.325 164.937 238.214C164.96 238.21 164.981 238.199 164.996 238.182C165.012 238.165 165.022 238.143 165.025 238.12C165.031 238.097 165.03 238.073 165.021 238.052C165.013 238.03 164.997 238.011 164.977 237.999C164.809 237.891 163.301 236.895 162.648 237.144C162.576 237.171 162.511 237.216 162.46 237.275C162.41 237.334 162.375 237.404 162.359 237.481C162.317 237.596 162.309 237.721 162.336 237.84C162.364 237.96 162.426 238.069 162.514 238.154C162.808 238.351 163.164 238.437 163.517 238.396ZM164.594 238.046C163.638 238.228 162.938 238.194 162.689 237.958C162.637 237.902 162.602 237.833 162.587 237.758C162.571 237.684 162.576 237.606 162.601 237.534C162.608 237.497 162.623 237.462 162.647 237.433C162.67 237.403 162.701 237.38 162.736 237.366C163.086 237.231 163.974 237.662 164.594 238.046Z" fill="#378FED" fill-opacity="0.8"/>
<path d="M164.904 238.221H164.964C164.982 238.21 164.998 238.196 165.009 238.178C165.021 238.161 165.029 238.141 165.032 238.12C165.032 238.059 165.153 236.585 164.614 236.101C164.546 236.035 164.462 235.986 164.371 235.958C164.28 235.93 164.183 235.923 164.089 235.939C163.985 235.94 163.885 235.976 163.803 236.041C163.722 236.105 163.664 236.195 163.638 236.296C163.517 236.854 164.311 237.925 164.843 238.228L164.904 238.221ZM164.15 236.141C164.2 236.139 164.249 236.148 164.296 236.167C164.342 236.185 164.384 236.213 164.419 236.249C164.714 236.738 164.837 237.311 164.769 237.878C164.305 237.501 163.773 236.686 163.854 236.323C163.854 236.249 163.914 236.168 164.096 236.148L164.15 236.141Z" fill="#378FED" fill-opacity="0.8"/>
<path d="M143.741 66.4448C144.028 65.5733 144.544 64.7952 145.236 64.1923C145.928 63.5894 146.769 63.184 147.672 63.0185C148.987 62.7117 150.32 62.4869 151.663 62.3454C155.699 62.1226 159.744 62.1226 163.78 62.3454C165.893 62.4396 168.047 62.6887 169.764 62.931H169.824C170.265 62.9823 170.691 63.1229 171.076 63.3441C171.461 63.5653 171.797 63.8625 172.063 64.2177C172.33 64.5728 172.521 64.9785 172.626 65.41C172.73 65.8415 172.746 66.2897 172.672 66.7275C171.328 73.5869 170.449 80.5292 170.04 87.507C169.622 97.6444 170.188 105.601 169.986 108.044H141.499C139.769 83.3201 142.004 72.0789 143.741 66.4448Z" fill="#E0E0E0"/>
<path d="M165.711 47.2605C166.208 47.6193 166.604 48.101 166.859 48.6585C167.113 49.2159 167.219 49.8299 167.166 50.4405C167.112 51.0512 166.901 51.6374 166.553 52.1419C166.205 52.6464 165.731 53.0519 165.18 53.3187C166.331 55.2236 163.268 58.5893 160.185 56.4756C157.102 54.362 161.457 45.4632 165.711 47.2605Z" fill="#263238"/>
<path d="M152.963 45.2142C152.54 45.2267 152.121 45.1292 151.747 44.9312C151.373 44.7331 151.057 44.4413 150.829 44.0844C150.602 43.7275 150.471 43.3177 150.45 42.8951C150.429 42.4725 150.517 42.0516 150.708 41.6736C149.274 41.1149 149.53 37.9848 152.114 37.8502C154.699 37.7156 156.032 44.4267 152.963 45.2142Z" fill="#263238"/>
<path d="M152.121 64.9908C151.928 64.814 151.785 64.5901 151.705 64.3411C151.625 64.0921 151.611 63.8266 151.665 63.5706C151.719 63.3146 151.838 63.077 152.011 62.8811C152.184 62.6852 152.405 62.5377 152.653 62.4531C155.251 61.4972 155.722 59.6125 155.514 57.5594C155.454 56.9821 155.36 56.4089 155.231 55.8429L159.64 52.3225L162.885 49.7376C162.077 53.1033 161.175 58.9663 162.885 61.9348C163.076 62.2454 163.15 62.6143 163.093 62.9748C163.037 63.3354 162.853 63.6637 162.575 63.9003C161.457 64.8898 159.169 66.1688 155.399 65.9668C153.669 65.8793 152.707 65.4822 152.121 64.9908Z" fill="#FFC3BD"/>
<path d="M142.28 66.566C142.601 65.5968 143.167 64.7269 143.923 64.0405C144.678 63.3542 145.599 62.8747 146.594 62.6483C147.872 62.4455 149.16 62.3106 150.451 62.2445C150.586 62.2251 150.724 62.2396 150.852 62.2866C150.98 62.3337 151.094 62.4118 151.184 62.514C151.274 62.6162 151.337 62.7392 151.368 62.8719C151.399 63.0046 151.396 63.1429 151.36 63.2743C149.105 71.6481 145.888 88.4023 146.884 109.155C146.888 109.284 146.867 109.413 146.82 109.533C146.773 109.654 146.702 109.763 146.611 109.855C146.52 109.947 146.412 110.02 146.292 110.068C146.172 110.117 146.044 110.141 145.915 110.138H140.26C140.015 110.142 139.777 110.052 139.596 109.887C139.415 109.722 139.303 109.494 139.284 109.249C137.581 83.8923 140.59 71.2577 142.28 66.566Z" fill="#263238"/>
<path d="M169.609 62.4262C167.799 62.1669 165.977 62.0006 164.15 61.928C163.819 61.904 163.49 61.9975 163.222 62.192C162.953 62.3866 162.762 62.6698 162.682 62.9916C160.589 72.2135 158.724 92.7036 158.644 109.189C158.646 109.314 158.674 109.438 158.724 109.553C158.774 109.668 158.847 109.772 158.938 109.859C159.028 109.945 159.135 110.014 159.252 110.059C159.369 110.105 159.494 110.127 159.62 110.124H169.717C169.967 110.13 170.209 110.037 170.391 109.866C170.574 109.695 170.682 109.459 170.693 109.209C170.76 105.89 170.302 98.1155 170.693 88.4628C171.066 81.5845 171.93 74.7415 173.277 67.9862C173.627 66.0947 171.608 62.7089 169.609 62.4262Z" fill="#263238"/>
<path d="M173.156 65.3543C175.317 68.6122 177.282 71.8769 179.14 75.3031C180.056 77.0196 180.958 78.763 181.772 80.5939C182.176 81.5094 182.573 82.4451 182.943 83.4346C183.351 84.505 183.667 85.6085 183.886 86.7329C184.052 87.5524 184.088 88.3928 183.994 89.2235C183.884 89.8958 183.71 90.5562 183.475 91.1957C183.091 92.2384 182.621 93.2472 182.068 94.2114C181.078 95.9599 179.974 97.6419 178.763 99.2464C176.435 102.354 173.889 105.291 171.143 108.037C170.826 108.355 170.403 108.546 169.955 108.572C169.507 108.599 169.065 108.459 168.712 108.181C168.36 107.903 168.122 107.504 168.044 107.062C167.966 106.62 168.053 106.165 168.289 105.782V105.742C170.248 102.585 172.227 99.3676 174.018 96.1769C174.906 94.5883 175.754 92.9728 176.434 91.4112C177.114 89.8495 177.612 88.1397 177.262 88.0926C177.047 87.3765 176.787 86.6749 176.481 85.9925C176.145 85.2251 175.761 84.4308 175.357 83.6432C174.536 82.0614 173.654 80.4526 172.732 78.8707C170.888 75.6936 168.922 72.4895 166.977 69.3863V69.3459C166.447 68.5265 166.265 67.5303 166.47 66.5766C166.676 65.6229 167.251 64.7898 168.071 64.2604C168.89 63.7311 169.886 63.549 170.84 63.7541C171.794 63.9592 172.627 64.5348 173.156 65.3543Z" fill="#FFC3BD"/>
<path d="M168.969 62.3387C173.304 62.2579 175.599 65.9265 178.44 71.7625C175.222 77.7197 169.083 80.2978 169.083 80.2978C169.083 80.2978 160.447 62.4868 168.969 62.3387Z" fill="#E0E0E0"/>
<path d="M166.748 105.607L164.25 106.402L168.875 109.916C168.875 109.916 172.658 107.95 171.473 106.166L170.706 105.823C169.457 105.272 168.049 105.195 166.748 105.607Z" fill="#FFC3BD"/>
<path d="M162.851 109.485L165.658 112.305C165.748 112.394 165.856 112.462 165.975 112.507C166.094 112.551 166.22 112.571 166.347 112.564C166.474 112.557 166.597 112.524 166.71 112.466C166.823 112.409 166.923 112.329 167.004 112.231L168.868 109.916L164.244 106.402L162.804 108.374C162.671 108.531 162.602 108.733 162.611 108.939C162.619 109.144 162.705 109.339 162.851 109.485Z" fill="#FFC3BD"/>
<path opacity="0.2" d="M155.23 55.8698C155.359 56.4358 155.453 57.009 155.513 57.5863C157.183 58.0104 159.552 56.0987 159.774 54.4765C159.803 53.7647 159.758 53.0519 159.639 52.3494L155.23 55.8698Z" fill="black"/>
<path d="M165.651 44.9584C164.513 49.9261 164.109 52.8878 161.053 55.1024C160.053 55.8336 158.878 56.2868 157.646 56.4157C156.414 56.5447 155.17 56.3448 154.041 55.8365C152.911 55.3283 151.937 54.5297 151.216 53.5222C150.496 52.5147 150.055 51.3342 149.94 50.1011C149.549 45.443 151.475 38.0992 156.913 36.7933C162.352 35.4874 166.788 39.9839 165.651 44.9584Z" fill="#FFC3BD"/>
<path d="M163.349 49.3068C161.908 49.3809 160.373 44.2987 163.551 41.8485C163.046 42.1245 161.666 41.6197 161.908 40.6706C160.973 41.061 156.88 40.8927 157.869 39.2301C155.789 39.7686 151.253 38.8666 150.768 36.8808C150.283 34.8951 152.626 34.8278 152.989 35.0903C151.959 33.6498 151.98 31.5362 154.712 30.7688C157.445 30.0014 161.565 33.9527 161.565 33.9527C161.134 32.9094 162.649 32.0679 164.217 32.9632C165.785 33.8585 166.519 36.4029 166.519 36.4029C166.519 35.6355 170.181 36.6654 168.444 39.883C170.242 40.5561 171.063 41.512 170.948 43.1746C170.834 44.8372 169.696 44.9315 169.696 44.9315C169.937 45.5301 169.97 46.1921 169.791 46.8118C169.612 47.4316 169.23 47.9735 168.707 48.351C166.842 49.8521 165.213 48.0885 163.349 49.3068Z" fill="#263238"/>
<path d="M166.203 49.6905C165.57 50.6169 164.635 51.295 163.558 51.6089C162.171 51.9791 161.7 50.7406 162.266 49.4482C162.777 48.2837 164.11 46.6816 165.416 46.8835C166.722 47.0855 166.984 48.5327 166.203 49.6905Z" fill="#FFC3BD"/>
<path d="M157.418 44.7565C157.351 45.1603 157.068 45.4632 156.792 45.4296C156.516 45.3959 156.341 45.0324 156.408 44.6218C156.476 44.2112 156.758 43.9487 157.034 43.9487C157.31 43.9487 157.452 44.3459 157.418 44.7565Z" fill="#263238"/>
<path d="M152.491 43.8612C152.424 44.2718 152.148 44.5747 151.872 44.5343C151.596 44.4939 151.421 44.1372 151.488 43.7266C151.555 43.3159 151.831 43.0534 152.107 43.0534C152.383 43.0534 152.558 43.4573 152.491 43.8612Z" fill="#263238"/>
<path d="M154.437 44.7767C153.72 45.9612 152.843 47.0416 151.832 47.9875C152.094 48.2336 152.405 48.421 152.745 48.5371C153.086 48.6532 153.447 48.6953 153.804 48.6606L154.437 44.7767Z" fill="#ED847E"/>
<path d="M156.788 49.5227C156.295 49.5383 155.811 49.6519 155.363 49.8571C154.915 50.0622 154.512 50.3547 154.179 50.7174C154.16 50.7441 154.153 50.7768 154.157 50.809C154.162 50.8412 154.179 50.8704 154.204 50.8906C154.231 50.9078 154.264 50.9146 154.295 50.91C154.327 50.9054 154.356 50.8896 154.377 50.8655C154.745 50.4753 155.197 50.1735 155.698 49.9829C156.199 49.7924 156.737 49.718 157.272 49.7653C157.288 49.767 157.304 49.7653 157.32 49.7603C157.336 49.7554 157.35 49.7473 157.363 49.7366C157.375 49.7259 157.385 49.7128 157.392 49.698C157.4 49.6833 157.404 49.6672 157.405 49.6508C157.406 49.6349 157.405 49.6188 157.4 49.6036C157.395 49.5883 157.387 49.5743 157.376 49.5624C157.365 49.5505 157.352 49.541 157.338 49.5344C157.323 49.5279 157.307 49.5245 157.291 49.5245C157.123 49.5115 156.955 49.511 156.788 49.5227Z" fill="#263238"/>
<path d="M157.62 41.9562C157.58 41.967 157.543 41.9878 157.513 42.0167C157.489 42.0388 157.471 42.0654 157.458 42.0949C157.445 42.1244 157.438 42.1562 157.438 42.1884C157.438 42.2206 157.445 42.2524 157.458 42.2819C157.471 42.3114 157.489 42.338 157.513 42.36C157.775 42.6531 158.104 42.8785 158.472 43.0168C158.84 43.1551 159.236 43.2023 159.626 43.1543C159.659 43.1511 159.69 43.1413 159.718 43.1254C159.747 43.1095 159.771 43.0879 159.791 43.062C159.811 43.0361 159.825 43.0064 159.832 42.9748C159.84 42.9432 159.841 42.9103 159.835 42.8784C159.829 42.8461 159.817 42.8152 159.8 42.7876C159.782 42.7599 159.759 42.736 159.732 42.7173C159.705 42.6985 159.675 42.6852 159.643 42.6782C159.611 42.6712 159.578 42.6706 159.546 42.6764C159.237 42.7037 158.926 42.6568 158.639 42.5397C158.353 42.4226 158.098 42.2387 157.896 42.0033C157.859 41.9709 157.814 41.9493 157.765 41.941C157.716 41.9327 157.666 41.938 157.62 41.9562Z" fill="#263238"/>
<path d="M151.098 40.7379C151.135 40.7544 151.175 40.763 151.216 40.763C151.256 40.763 151.296 40.7544 151.333 40.7379C151.621 40.5946 151.936 40.5161 152.257 40.508C152.578 40.4998 152.897 40.5622 153.191 40.6908C153.249 40.7233 153.316 40.7324 153.38 40.7161C153.444 40.6998 153.5 40.6594 153.534 40.6033C153.564 40.5449 153.57 40.4775 153.551 40.4149C153.532 40.3523 153.49 40.2993 153.433 40.2667C153.07 40.0924 152.672 40.0019 152.269 40.0019C151.866 40.0019 151.468 40.0924 151.104 40.2667C151.075 40.2795 151.049 40.2984 151.027 40.3221C151.005 40.3458 150.989 40.3738 150.979 40.4043C150.968 40.4347 150.965 40.467 150.968 40.499C150.971 40.531 150.981 40.5619 150.997 40.5898C151.012 40.6495 151.048 40.7019 151.098 40.7379Z" fill="#263238"/>
</svg>
