<svg width="277" height="207" viewBox="0 0 277 207" fill="none" xmlns="http://www.w3.org/2000/svg">
<path d="M138.5 206.398C197.824 206.398 245.915 203.591 245.915 200.127C245.915 196.663 197.824 193.856 138.5 193.856C79.1763 193.856 31.085 196.663 31.085 200.127C31.085 203.591 79.1763 206.398 138.5 206.398Z" fill="#F5F5F5"/>
<path d="M97.4438 59.9151H90.5299C90.2138 59.9154 89.9033 59.9984 89.6293 60.1558C89.3552 60.3133 89.1271 60.5397 88.9676 60.8126L85.5106 66.8013C85.3527 67.0761 85.2695 67.3874 85.2695 67.7043C85.2695 68.0213 85.3527 68.3326 85.5106 68.6074L88.9676 74.5906C89.1255 74.8652 89.3531 75.0934 89.6275 75.2519C89.9018 75.4105 90.2131 75.4938 90.5299 75.4936H97.4438C97.7606 75.4938 98.0719 75.4105 98.3462 75.2519C98.6205 75.0934 98.8482 74.8652 99.0061 74.5906L102.463 68.6074C102.621 68.3326 102.704 68.0213 102.704 67.7043C102.704 67.3874 102.621 67.0761 102.463 66.8013L99.0061 60.8126C98.8466 60.5397 98.6185 60.3133 98.3444 60.1558C98.0704 59.9984 97.7599 59.9154 97.4438 59.9151Z" fill="#378FED"/>
<path opacity="0.5" d="M97.4438 59.9151H90.5299C90.2138 59.9154 89.9033 59.9984 89.6293 60.1558C89.3552 60.3133 89.1271 60.5397 88.9676 60.8126L85.5106 66.8013C85.3527 67.0761 85.2695 67.3874 85.2695 67.7043C85.2695 68.0213 85.3527 68.3326 85.5106 68.6074L88.9676 74.5906C89.1255 74.8652 89.3531 75.0934 89.6275 75.2519C89.9018 75.4105 90.2131 75.4938 90.5299 75.4936H97.4438C97.7606 75.4938 98.0719 75.4105 98.3462 75.2519C98.6205 75.0934 98.8482 74.8652 99.0061 74.5906L102.463 68.6074C102.621 68.3326 102.704 68.0213 102.704 67.7043C102.704 67.3874 102.621 67.0761 102.463 66.8013L99.0061 60.8126C98.8466 60.5397 98.6185 60.3133 98.3444 60.1558C98.0704 59.9984 97.7599 59.9154 97.4438 59.9151Z" fill="white"/>
<path d="M53.1844 40.0708L52.791 39.6775L56.115 36.3535L56.5084 36.7468L53.1844 40.0708ZM58.9072 34.348L58.5138 33.9547L65.461 27.0075L65.8543 27.3953L58.9072 34.348Z" fill="#378FED"/>
<path opacity="0.5" d="M53.1844 40.0708L52.791 39.6775L56.115 36.3535L56.5084 36.7468L53.1844 40.0708ZM58.9072 34.348L58.5138 33.9547L65.461 27.0075L65.8543 27.3953L58.9072 34.348Z" fill="white"/>
<path d="M140.993 80.2414V55.1673L133.237 52.7353C132.96 51.9929 132.655 51.2616 132.334 50.5193L136.107 43.3173L118.379 25.5893L111.177 29.3675C110.451 29.0407 109.725 28.736 108.961 28.4534L106.528 20.6974H81.4378L79.0113 28.4534C78.2634 28.736 77.5376 29.0407 76.7953 29.3675L69.5933 25.5893L51.8653 43.3173L55.6436 50.5193C55.3167 51.245 55.012 51.9707 54.735 52.7353L46.979 55.1673V80.2414L54.735 82.6679C55.0175 83.4102 55.3222 84.1415 55.6436 84.8839L51.8653 92.0859L69.5933 109.814L76.7953 106.036C77.5155 106.362 78.2412 106.667 79.0113 106.95L81.4378 114.706H106.512L108.944 106.95C109.686 106.667 110.412 106.362 111.16 106.036L118.362 109.814L136.09 92.0859L132.312 84.8839C132.633 84.1637 132.943 83.4324 133.22 82.6679L140.993 80.2414ZM112.645 67.6988C112.645 71.3891 111.55 74.9966 109.5 78.065C107.45 81.1334 104.536 83.525 101.126 84.9372C97.7169 86.3494 93.9652 86.719 90.3458 85.999C86.7263 85.2791 83.4017 83.502 80.7922 80.8925C78.1827 78.283 76.4057 74.9584 75.6857 71.3389C74.9658 67.7195 75.3353 63.9679 76.7475 60.5584C78.1597 57.149 80.5513 54.2349 83.6197 52.1846C86.6881 50.1344 90.2956 49.0401 93.9859 49.0401C98.9341 49.0416 103.679 51.0078 107.178 54.5067C110.677 58.0056 112.643 62.7507 112.645 67.6988Z" fill="#378FED"/>
<path opacity="0.5" d="M140.993 80.2414V55.1673L133.237 52.7353C132.96 51.9929 132.655 51.2616 132.334 50.5193L136.107 43.3173L118.379 25.5893L111.177 29.3675C110.451 29.0407 109.725 28.736 108.961 28.4534L106.528 20.6974H81.4378L79.0113 28.4534C78.2634 28.736 77.5376 29.0407 76.7953 29.3675L69.5933 25.5893L51.8653 43.3173L55.6436 50.5193C55.3167 51.245 55.012 51.9707 54.735 52.7353L46.979 55.1673V80.2414L54.735 82.6679C55.0175 83.4102 55.3222 84.1415 55.6436 84.8839L51.8653 92.0859L69.5933 109.814L76.7953 106.036C77.5155 106.362 78.2412 106.667 79.0113 106.95L81.4378 114.706H106.512L108.944 106.95C109.686 106.667 110.412 106.362 111.16 106.036L118.362 109.814L136.09 92.0859L132.312 84.8839C132.633 84.1637 132.943 83.4324 133.22 82.6679L140.993 80.2414ZM112.645 67.6988C112.645 71.3891 111.55 74.9966 109.5 78.065C107.45 81.1334 104.536 83.525 101.126 84.9372C97.7169 86.3494 93.9652 86.719 90.3458 85.999C86.7263 85.2791 83.4017 83.502 80.7922 80.8925C78.1827 78.283 76.4057 74.9584 75.6857 71.3389C74.9658 67.7195 75.3353 63.9679 76.7475 60.5584C78.1597 57.149 80.5513 54.2349 83.6197 52.1846C86.6881 50.1344 90.2956 49.0401 93.9859 49.0401C98.9341 49.0416 103.679 51.0078 107.178 54.5067C110.677 58.0056 112.643 62.7507 112.645 67.6988Z" fill="white"/>
<path d="M105.305 113.188H82.6736C82.6437 113.188 82.6145 113.178 82.5905 113.16C82.5666 113.142 82.5491 113.117 82.5407 113.088L80.3247 106.097C80.3137 106.061 80.3171 106.023 80.3342 105.99C80.3514 105.958 80.3808 105.933 80.4161 105.922C80.4514 105.911 80.4896 105.914 80.5223 105.932C80.555 105.949 80.5796 105.978 80.5906 106.013L82.7457 112.911H105.172L107.476 105.631C107.483 105.611 107.494 105.593 107.508 105.578C107.522 105.562 107.54 105.55 107.559 105.543L108.318 105.26C108.961 105.016 109.642 104.734 110.412 104.39L111.149 104.058C111.183 104.043 111.221 104.042 111.256 104.056C111.29 104.069 111.317 104.096 111.332 104.13C111.347 104.164 111.347 104.202 111.334 104.236C111.32 104.27 111.294 104.298 111.26 104.313L110.523 104.64C109.753 104.989 109.061 105.271 108.418 105.515L107.72 105.781L105.438 113.088C105.428 113.116 105.411 113.141 105.387 113.159C105.363 113.177 105.334 113.187 105.305 113.188ZM118.047 107.908C118.01 107.907 117.975 107.893 117.947 107.869C117.933 107.856 117.923 107.841 117.915 107.824C117.908 107.807 117.904 107.788 117.904 107.77C117.904 107.751 117.908 107.733 117.915 107.715C117.923 107.698 117.933 107.683 117.947 107.67L133.88 91.7424L130.34 84.9836C130.33 84.9648 130.325 84.9439 130.325 84.9227C130.325 84.9015 130.33 84.8806 130.34 84.8617L130.672 84.1249C131.005 83.377 131.287 82.69 131.536 82.0363L131.819 81.2773C131.827 81.2579 131.839 81.2403 131.854 81.226C131.869 81.2116 131.888 81.2008 131.908 81.1942L139.193 78.9173V56.508L131.991 54.2588C131.971 54.2558 131.952 54.2486 131.935 54.2376C131.918 54.2266 131.904 54.2121 131.893 54.1951C131.883 54.178 131.876 54.1589 131.873 54.1389C131.871 54.119 131.873 54.0988 131.879 54.0796C131.885 54.0605 131.895 54.0429 131.909 54.0281C131.922 54.0133 131.939 54.0016 131.958 53.9939C131.976 53.9862 131.996 53.9826 132.016 53.9833C132.036 53.9841 132.056 53.9892 132.074 53.9984L139.353 56.2698C139.381 56.2798 139.404 56.2979 139.421 56.3217C139.438 56.3454 139.447 56.3737 139.448 56.4027V79.0336C139.448 79.0629 139.439 79.0916 139.422 79.1154C139.405 79.1393 139.381 79.1572 139.353 79.1666L132.057 81.438L131.797 82.136C131.548 82.7953 131.243 83.4823 130.921 84.2412L130.622 84.9171L134.173 91.7036C134.191 91.7267 134.2 91.7549 134.2 91.784C134.2 91.813 134.191 91.8412 134.173 91.8643L118.174 107.869C118.14 107.897 118.096 107.911 118.052 107.908H118.047ZM69.9206 107.908C69.8839 107.907 69.8487 107.893 69.8208 107.869L53.8213 91.8643C53.8054 91.8405 53.7968 91.8126 53.7968 91.784C53.7968 91.7553 53.8054 91.7274 53.8213 91.7036L57.4057 84.8562C57.4234 84.8239 57.4527 84.7996 57.4878 84.7882C57.5228 84.7769 57.5608 84.7794 57.5941 84.7952C57.6101 84.8039 57.6243 84.8157 57.6357 84.8299C57.6472 84.8441 57.6558 84.8604 57.6609 84.8779C57.6661 84.8954 57.6677 84.9138 57.6657 84.9319C57.6638 84.95 57.6582 84.9676 57.6495 84.9836L54.1149 91.7424L70.0424 107.67C70.0558 107.683 70.0665 107.698 70.0738 107.715C70.0811 107.733 70.0848 107.751 70.0848 107.77C70.0848 107.788 70.0811 107.807 70.0738 107.824C70.0665 107.841 70.0558 107.856 70.0424 107.869C70.0267 107.883 70.0083 107.894 69.9883 107.901C69.9683 107.907 69.9471 107.91 69.9261 107.908H69.9206ZM79.3386 105.421H79.2887C78.7347 105.205 78.1308 104.95 77.4605 104.651C77.4409 104.646 77.4226 104.637 77.4068 104.624C77.3911 104.611 77.3784 104.595 77.3695 104.577C77.3606 104.559 77.3559 104.539 77.3555 104.519C77.3551 104.498 77.3592 104.478 77.3674 104.46C77.3756 104.441 77.3878 104.425 77.403 104.412C77.4183 104.398 77.4363 104.389 77.4557 104.383C77.4751 104.378 77.4955 104.376 77.5155 104.379C77.5355 104.383 77.5545 104.39 77.5713 104.401C78.2361 104.695 78.8289 104.955 79.3884 105.16C79.4057 105.167 79.4214 105.177 79.4347 105.19C79.448 105.203 79.4586 105.218 79.4658 105.235C79.473 105.252 79.4768 105.271 79.4768 105.289C79.4768 105.308 79.4732 105.326 79.466 105.343C79.4543 105.369 79.4345 105.391 79.4096 105.405C79.3846 105.419 79.3558 105.424 79.3275 105.421H79.3386ZM93.9974 88.1691C88.5677 88.1588 83.3639 85.9947 79.5282 82.1517C75.6925 78.3087 73.5382 73.1008 73.5382 67.6711C73.5382 67.6344 73.5528 67.5991 73.5787 67.5732C73.6047 67.5472 73.6399 67.5326 73.6767 67.5326C73.7134 67.5326 73.7486 67.5472 73.7746 67.5732C73.8006 67.5991 73.8152 67.6344 73.8152 67.6711C73.8152 71.6628 74.9988 75.5648 77.2165 78.8837C79.4341 82.2027 82.5862 84.7895 86.274 86.317C89.9618 87.8446 94.0198 88.2443 97.9348 87.4655C101.85 86.6868 105.446 84.7646 108.268 81.9421C111.091 79.1196 113.013 75.5234 113.792 71.6085C114.571 67.6935 114.171 63.6355 112.643 59.9477C111.116 56.2599 108.529 53.1078 105.21 50.8902C101.891 48.6725 97.9891 47.4889 93.9974 47.4889C93.9607 47.4889 93.9254 47.4743 93.8995 47.4483C93.8735 47.4223 93.8589 47.3871 93.8589 47.3504C93.8589 47.3136 93.8735 47.2784 93.8995 47.2524C93.9254 47.2265 93.9607 47.2119 93.9974 47.2119C99.425 47.2119 104.63 49.368 108.468 53.2059C112.306 57.0438 114.462 62.2491 114.462 67.6766C114.462 73.1042 112.306 78.3095 108.468 82.1474C104.63 85.9853 99.425 88.1414 93.9974 88.1414V88.1691ZM56.3254 82.2247C56.2965 82.2235 56.2686 82.214 56.245 82.1973C56.2214 82.1806 56.2031 82.1574 56.1924 82.1305L55.9321 81.438L48.6137 79.15C48.586 79.1406 48.5619 79.1227 48.545 79.0988C48.5281 79.0749 48.5192 79.0463 48.5195 79.017V56.3861C48.52 56.357 48.5292 56.3288 48.546 56.305C48.5628 56.2813 48.5864 56.2632 48.6137 56.2532L55.6107 54.0704C55.646 54.0597 55.6841 54.0629 55.717 54.0794C55.75 54.0959 55.7754 54.1244 55.788 54.159C55.7971 54.195 55.7925 54.2331 55.7751 54.2658C55.7577 54.2986 55.7287 54.3237 55.6938 54.3363L48.7799 56.508V78.9339L56.065 81.2109C56.0845 81.217 56.1023 81.2278 56.1167 81.2423C56.1312 81.2567 56.142 81.2745 56.1481 81.294L56.4362 82.0529C56.449 82.0868 56.448 82.1243 56.4335 82.1574C56.419 82.1905 56.3922 82.2166 56.3586 82.2302L56.3254 82.2247ZM56.3254 53.4167H56.2755C56.2416 53.402 56.2147 53.3748 56.2002 53.3408C56.1858 53.3067 56.185 53.2685 56.198 53.2339C56.4639 52.5247 56.752 51.8489 57.0567 51.1619C57.0723 51.129 57.1002 51.1036 57.1345 51.0912C57.1687 51.0787 57.2064 51.0802 57.2395 51.0954C57.2563 51.1026 57.2714 51.1131 57.2842 51.1262C57.2969 51.1394 57.3068 51.1549 57.3135 51.1718C57.3202 51.1888 57.3235 51.207 57.3232 51.2252C57.3228 51.2435 57.3189 51.2615 57.3115 51.2782C57.0013 51.9541 56.7243 52.63 56.4584 53.3336C56.4487 53.3637 56.4293 53.3898 56.4032 53.4079C56.3772 53.4259 56.346 53.4348 56.3143 53.4333L56.3254 53.4167ZM130.667 50.2533H130.6C130.584 50.2446 130.57 50.2329 130.559 50.2187C130.547 50.2045 130.538 50.1882 130.533 50.1707C130.528 50.1532 130.527 50.1348 130.529 50.1167C130.53 50.0985 130.536 50.081 130.545 50.065L133.869 43.6663L131.21 40.996C131.194 40.9841 131.181 40.9689 131.171 40.9515C131.162 40.9341 131.156 40.9148 131.155 40.895C131.153 40.8752 131.156 40.8554 131.163 40.8368C131.17 40.8182 131.181 40.8013 131.195 40.7873C131.209 40.7732 131.226 40.7624 131.244 40.7554C131.263 40.7485 131.283 40.7456 131.302 40.747C131.322 40.7485 131.342 40.7541 131.359 40.7636C131.376 40.7731 131.392 40.7862 131.403 40.8021L134.173 43.5721C134.191 43.5952 134.2 43.6234 134.2 43.6524C134.2 43.6814 134.191 43.7096 134.173 43.7328L130.777 50.2201C130.763 50.2379 130.744 50.2517 130.723 50.2604C130.702 50.2691 130.678 50.2724 130.656 50.27L130.667 50.2533ZM53.921 43.766C53.8841 43.7664 53.8483 43.7525 53.8213 43.7272C53.7972 43.7007 53.7838 43.6661 53.7838 43.6303C53.7838 43.5944 53.7972 43.5598 53.8213 43.5333L69.8042 27.5393C69.8269 27.5209 69.8553 27.5108 69.8845 27.5108C69.9138 27.5108 69.9422 27.5209 69.9649 27.5393L76.7514 31.0905L77.4273 30.7913C78.081 30.4977 78.6793 30.2373 79.2555 30.0213C79.2725 30.0141 79.2909 30.0104 79.3094 30.0104C79.3279 30.0105 79.3462 30.0142 79.3633 30.0214C79.3803 30.0287 79.3957 30.0392 79.4086 30.0525C79.4215 30.0658 79.4316 30.0816 79.4383 30.0988C79.4508 30.1333 79.449 30.1714 79.4334 30.2047C79.4178 30.2379 79.3897 30.2636 79.3552 30.2761C78.8012 30.5032 78.1918 30.7525 77.5436 31.0406L76.8068 31.373C76.7875 31.3812 76.7668 31.3855 76.7458 31.3855C76.7249 31.3855 76.7042 31.3812 76.6849 31.373L69.9261 27.833L54.0208 43.766C53.9888 43.7789 53.953 43.7789 53.921 43.766ZM128.999 38.7135C128.962 38.7139 128.926 38.7 128.899 38.6747L118.002 27.8053L111.243 31.3453C111.226 31.355 111.206 31.3601 111.185 31.3601C111.165 31.3601 111.145 31.355 111.127 31.3453L110.39 31.0129C109.631 30.675 108.944 30.3924 108.296 30.1431L107.537 29.8606C107.518 29.8528 107.5 29.8408 107.486 29.8255C107.471 29.8102 107.461 29.7919 107.454 29.772L105.177 22.4924H82.7734L80.8122 28.7581C80.8072 28.7755 80.7987 28.7917 80.7872 28.8057C80.7757 28.8197 80.7615 28.8312 80.7454 28.8395C80.7293 28.8478 80.7117 28.8527 80.6937 28.8539C80.6756 28.8552 80.6575 28.8528 80.6405 28.8468C80.6062 28.8354 80.5778 28.811 80.5612 28.7789C80.5447 28.7468 80.5413 28.7096 80.5518 28.675L82.5462 22.3151C82.5556 22.2874 82.5735 22.2633 82.5974 22.2464C82.6213 22.2295 82.6499 22.2206 82.6792 22.2209H105.31C105.339 22.2214 105.367 22.2306 105.391 22.2474C105.415 22.2642 105.433 22.2878 105.443 22.3151L107.726 29.6279L108.424 29.8938C109.077 30.1376 109.764 30.4478 110.529 30.7692L111.205 31.0683L118.002 27.5172C118.025 27.4997 118.054 27.4902 118.083 27.4902C118.112 27.4902 118.14 27.4997 118.163 27.5172L129.082 38.4864C129.096 38.4993 129.106 38.5148 129.114 38.5319C129.121 38.5491 129.125 38.5675 129.125 38.5861C129.125 38.6047 129.121 38.6231 129.114 38.6403C129.106 38.6574 129.096 38.6729 129.082 38.6858C129.059 38.7075 129.03 38.7211 128.999 38.7246V38.7135Z" fill="#FAFAFA"/>
<path d="M173.591 72.2361C175.325 74.4521 176.948 76.6681 178.533 78.9561C180.117 81.2441 181.624 83.582 183.048 86.0196C183.408 86.6234 183.751 87.255 184.1 87.8755C184.604 88.8156 184.901 89.8527 184.97 90.9169C185.061 92.5324 184.904 94.1521 184.505 95.7201C183.815 98.5395 182.769 101.259 181.391 103.814L178.538 102.706C179.105 100.148 179.514 97.558 179.763 94.9501C179.873 93.8236 179.836 92.6875 179.652 91.5706C179.607 91.2606 179.491 90.965 179.314 90.7064C178.948 90.1524 178.594 89.5984 178.206 89.0444C176.705 86.8284 175.115 84.6623 173.513 82.4851L168.699 75.9589L173.591 72.2361Z" fill="#FF8B7B"/>
<path d="M178.338 102.385L176.865 105.022L182.006 105.781C182.006 105.781 182.56 103.565 181.269 102.036L178.338 102.385Z" fill="#FF8B7B"/>
<path d="M176.09 108.529L180.372 108.961L182.007 105.781L176.865 105.022L176.09 108.529Z" fill="#FF8B7B"/>
<path d="M190.023 124.262L191.552 116.124C191.729 115.18 192.274 114.345 193.066 113.801C193.859 113.258 194.834 113.052 195.779 113.227L208.615 115.631C207.849 113.066 206.487 110.719 204.641 108.782C202.794 106.844 200.515 105.371 197.99 104.483C195.466 103.595 192.766 103.317 190.114 103.671C187.461 104.026 184.929 105.003 182.726 106.523L124.49 72.0532C124.792 68.4089 123.909 64.7643 121.972 61.6627C120.034 58.5612 117.147 56.1688 113.739 54.8421C110.331 53.5153 106.586 53.3253 103.061 54.3004C99.5369 55.2755 96.4219 57.3635 94.1806 60.253L107.017 62.6574C107.96 62.8388 108.793 63.3855 109.334 64.1782C109.876 64.971 110.082 65.9457 109.909 66.89L108.38 75.0338C108.201 75.9772 107.656 76.8114 106.864 77.3543C106.072 77.8972 105.097 78.1046 104.153 77.9312L91.3164 75.5213C92.0855 78.1015 93.4578 80.4615 95.3196 82.4063C97.1815 84.3511 99.4796 85.8248 102.024 86.7056C104.568 87.5863 107.285 87.8488 109.951 87.4714C112.617 87.0939 115.155 86.0873 117.354 84.5349L175.475 118.938C175.139 122.59 175.997 126.253 177.918 129.377C179.84 132.5 182.722 134.917 186.133 136.265C189.543 137.613 193.299 137.819 196.837 136.853C200.375 135.886 203.504 133.799 205.756 130.905L192.92 128.495C191.976 128.315 191.142 127.768 190.599 126.976C190.056 126.183 189.849 125.207 190.023 124.262Z" fill="#407BFF"/>
<path d="M175.518 106.314L128.301 78.367C127.442 77.859 126.335 78.143 125.827 79.0013L123.902 82.2528C123.394 83.1112 123.678 84.2189 124.537 84.7269L171.754 112.674C172.613 113.182 173.72 112.898 174.228 112.039L176.153 108.788C176.661 107.929 176.377 106.822 175.518 106.314Z" fill="#407BFF"/>
<path opacity="0.2" d="M175.518 106.314L128.301 78.367C127.442 77.859 126.335 78.143 125.827 79.0013L123.902 82.2528C123.394 83.1112 123.678 84.2189 124.537 84.7269L171.754 112.674C172.613 113.182 173.72 112.898 174.228 112.039L176.153 108.788C176.661 107.929 176.377 106.822 175.518 106.314Z" fill="white"/>
<path d="M153.869 55.0177C153.814 55.3446 153.603 55.5717 153.392 55.5717C153.182 55.5717 153.049 55.2449 153.099 54.9236C153.149 54.6022 153.365 54.3696 153.575 54.3973C153.786 54.425 153.919 54.6964 153.869 55.0177Z" fill="#263238"/>
<path d="M153.63 55.5828C153.088 56.5136 152.421 57.3655 151.647 58.1146C151.843 58.311 152.079 58.4623 152.339 58.558C152.599 58.6537 152.878 58.6914 153.154 58.6686L153.63 55.5828Z" fill="#FF5652"/>
<path d="M155.325 53.4056C155.301 53.4058 155.276 53.4011 155.253 53.3915C155.23 53.382 155.21 53.368 155.192 53.3502C155.026 53.1748 154.82 53.0416 154.592 52.9617C154.363 52.8817 154.119 52.8573 153.879 52.8904C153.854 52.8961 153.828 52.8967 153.803 52.8922C153.778 52.8878 153.753 52.8783 153.732 52.8644C153.71 52.8505 153.691 52.8324 153.677 52.8111C153.662 52.7899 153.652 52.766 153.647 52.7408C153.641 52.716 153.641 52.6904 153.645 52.6654C153.65 52.6404 153.659 52.6165 153.673 52.5953C153.687 52.5741 153.705 52.5559 153.726 52.5419C153.748 52.5279 153.771 52.5182 153.796 52.5137C154.098 52.4659 154.406 52.4913 154.695 52.5877C154.984 52.6841 155.246 52.8487 155.458 53.0677C155.493 53.1055 155.512 53.1549 155.512 53.2062C155.512 53.2574 155.493 53.3068 155.458 53.3447C155.422 53.3798 155.375 53.4014 155.325 53.4056Z" fill="#263238"/>
<path d="M164.688 58.591C164.134 61.5716 163.525 67.0285 165.608 69.0118C165.608 69.0118 164.793 72.0311 159.259 72.0311C153.165 72.0311 156.35 69.0118 156.35 69.0118C159.674 68.2196 159.586 65.7543 159.009 63.4718L164.688 58.591Z" fill="#FF8B7B"/>
<path d="M168.417 71.2499C168.349 71.1519 168.299 71.0433 168.267 70.9286C167.802 69.1614 165.846 67.7819 163.309 67.7099C160.633 67.6434 157.614 67.9647 155.83 69.4384C155.043 70.0865 155.913 71.0339 155.913 71.0339L168.417 71.2499Z" fill="#407BFF"/>
<path opacity="0.5" d="M168.417 71.2499C168.349 71.1519 168.299 71.0433 168.267 70.9286C167.802 69.1614 165.846 67.7819 163.309 67.7099C160.633 67.6434 157.614 67.9647 155.83 69.4384C155.043 70.0865 155.913 71.0339 155.913 71.0339L168.417 71.2499Z" fill="white"/>
<path d="M187.979 182.726H187.94C187.859 182.715 187.783 182.678 187.723 182.621C187.663 182.565 187.623 182.491 187.608 182.41C187.588 182.347 187.583 182.281 187.591 182.216C187.6 182.151 187.623 182.089 187.658 182.033C187.968 181.507 189.32 181.23 189.358 181.219C189.377 181.215 189.396 181.217 189.414 181.224C189.431 181.231 189.447 181.242 189.458 181.258C189.467 181.274 189.472 181.292 189.472 181.31C189.472 181.329 189.467 181.347 189.458 181.363C189.253 181.712 188.494 182.726 187.979 182.726ZM189.17 181.457C188.727 181.574 188.007 181.812 187.824 182.128C187.806 182.161 187.797 182.198 187.797 182.236C187.797 182.273 187.806 182.31 187.824 182.344C187.874 182.515 187.962 182.526 187.984 182.532C188.234 182.565 188.821 181.967 189.17 181.457Z" fill="#407BFF"/>
<path d="M188.716 181.479C188.211 181.479 187.646 181.385 187.475 181.141C187.434 181.081 187.415 181.009 187.422 180.936C187.428 180.864 187.458 180.795 187.508 180.743C187.553 180.685 187.609 180.636 187.672 180.6C187.736 180.564 187.806 180.541 187.879 180.532C188.488 180.466 189.403 181.202 189.441 181.236C189.455 181.246 189.466 181.261 189.472 181.277C189.479 181.294 189.48 181.312 189.477 181.329C189.473 181.346 189.465 181.362 189.453 181.375C189.441 181.388 189.425 181.397 189.408 181.402C189.182 181.459 188.949 181.485 188.716 181.479ZM187.973 180.72H187.901C187.854 180.723 187.808 180.737 187.767 180.76C187.726 180.783 187.69 180.815 187.663 180.853C187.585 180.953 187.619 181.003 187.635 181.02C187.79 181.247 188.638 181.335 189.153 181.252C188.812 180.977 188.406 180.794 187.973 180.72Z" fill="#407BFF"/>
<path d="M147.742 196.177C147.221 196.177 146.717 196.105 146.545 195.872C146.502 195.811 146.479 195.737 146.479 195.662C146.479 195.586 146.502 195.513 146.545 195.451C146.579 195.394 146.624 195.345 146.677 195.306C146.731 195.267 146.791 195.239 146.855 195.224C147.531 195.041 148.955 195.85 149.016 195.889C149.033 195.899 149.046 195.914 149.054 195.932C149.062 195.95 149.064 195.969 149.06 195.989C149.056 196.008 149.047 196.025 149.033 196.039C149.019 196.053 149.002 196.062 148.983 196.066C148.573 196.138 148.158 196.175 147.742 196.177ZM147.094 195.39C147.033 195.381 146.971 195.381 146.911 195.39C146.872 195.398 146.835 195.414 146.802 195.437C146.77 195.46 146.743 195.489 146.722 195.523C146.65 195.645 146.678 195.706 146.722 195.739C146.911 196 147.941 196.005 148.7 195.9C148.203 195.627 147.657 195.454 147.094 195.39Z" fill="#407BFF"/>
<path d="M148.971 196.066H148.932C148.439 195.845 147.464 194.958 147.541 194.504C147.541 194.393 147.636 194.26 147.902 194.232C148 194.22 148.101 194.229 148.196 194.257C148.291 194.286 148.38 194.334 148.456 194.399C148.976 194.825 149.082 195.922 149.087 195.966C149.089 195.983 149.087 196 149.08 196.016C149.073 196.032 149.062 196.045 149.048 196.055C149.025 196.069 148.997 196.073 148.971 196.066ZM147.979 194.404H147.918C147.746 194.404 147.735 194.487 147.73 194.509C147.686 194.786 148.35 195.479 148.838 195.778C148.787 195.313 148.593 194.876 148.284 194.526C148.197 194.457 148.09 194.418 147.979 194.415V194.404Z" fill="#407BFF"/>
<path d="M153.448 195.972H149.376L148.971 186.548H153.043L153.448 195.972Z" fill="#FF8B7B"/>
<path d="M193.02 178.416L189.718 180.798L181.929 174.793L185.231 172.416L193.02 178.416Z" fill="#FF8B7B"/>
<path d="M189.247 180.765L192.416 177.441C192.471 177.382 192.545 177.345 192.625 177.335C192.705 177.325 192.786 177.343 192.854 177.385L196.023 179.308C196.098 179.356 196.163 179.42 196.211 179.496C196.259 179.572 196.289 179.657 196.3 179.747C196.31 179.836 196.301 179.926 196.272 180.011C196.243 180.096 196.196 180.174 196.133 180.238C195.025 181.374 194.399 181.867 193.009 183.319C192.15 184.211 189.823 187.346 188.638 188.582C187.452 189.817 186.084 188.803 186.455 188.194C188.117 185.457 188.926 182.742 188.97 181.391C188.986 181.156 189.084 180.934 189.247 180.765Z" fill="#263238"/>
<path d="M149.403 195.501H153.835C153.916 195.5 153.995 195.527 154.059 195.578C154.122 195.628 154.167 195.699 154.184 195.778L154.988 199.396C155.007 199.483 155.006 199.573 154.985 199.66C154.965 199.747 154.925 199.828 154.868 199.898C154.812 199.967 154.74 200.023 154.659 200.06C154.578 200.098 154.49 200.117 154.4 200.116C152.799 200.116 150.484 200 148.467 200C146.107 200 144.074 200.127 141.309 200.127C139.647 200.127 139.177 198.437 139.875 198.282C143.06 197.59 145.658 197.512 148.412 195.817C148.706 195.621 149.05 195.511 149.403 195.501Z" fill="#263238"/>
<path d="M167.896 77.6043C168.45 78.6292 169.076 79.6209 169.68 80.5461C170.721 82.1471 171.73 83.5321 172.45 84.485C173.098 85.3437 173.513 85.8478 173.513 85.8478L181.713 80.258C181.713 80.258 176.727 70.5519 172.887 69.9314C168.937 69.3054 165.32 73.0061 167.896 77.6043Z" fill="#407BFF"/>
<path opacity="0.5" d="M167.896 77.6043C168.45 78.6292 169.076 79.6209 169.68 80.5461C170.721 82.1471 171.73 83.5321 172.45 84.485C173.098 85.3437 173.513 85.8478 173.513 85.8478L181.713 80.258C181.713 80.258 176.727 70.5519 172.887 69.9314C168.937 69.3054 165.32 73.0061 167.896 77.6043Z" fill="black"/>
<path d="M169.68 80.5461C170.721 82.1471 171.729 83.5321 172.45 84.485C172.367 82.5792 171.973 79.499 170.494 77.15C169.957 77.6819 169.741 79.0558 169.68 80.5461Z" fill="#407BFF"/>
<path opacity="0.6" d="M169.68 80.5461C170.721 82.1471 171.729 83.5321 172.45 84.485C172.367 82.5792 171.973 79.499 170.494 77.15C169.957 77.6819 169.741 79.0558 169.68 80.5461Z" fill="black"/>
<path d="M148.09 83.4102C148.09 84.7952 148.124 86.3187 148.201 87.9974C148.401 92.5623 148.899 98.2519 149.863 105.321H171.63C171.779 101.997 169.68 85.6761 172.904 69.9314C170.496 69.4683 168.061 69.1612 165.613 69.0118C162.532 68.8344 159.443 68.8344 156.362 69.0118C154.25 69.2205 152.157 69.591 150.101 70.1198C150.101 70.1198 148.085 72.4078 148.09 83.4102Z" fill="#407BFF"/>
<path opacity="0.5" d="M148.09 83.4102C148.09 84.7952 148.124 86.3187 148.201 87.9974C148.401 92.5623 148.899 98.2519 149.863 105.321H171.63C171.779 101.997 169.68 85.6761 172.904 69.9314C170.496 69.4683 168.061 69.1612 165.613 69.0118C162.532 68.8344 159.443 68.8344 156.362 69.0118C154.25 69.2205 152.157 69.591 150.101 70.1198C150.101 70.1198 148.085 72.4078 148.09 83.4102Z" fill="black"/>
<path d="M148.09 83.4102C148.09 84.7952 148.124 86.3187 148.201 87.9973C150.755 85.5043 150.927 80.4131 150.927 80.4131L148.09 83.4102Z" fill="#407BFF"/>
<path opacity="0.6" d="M148.09 83.4102C148.09 84.7952 148.124 86.3187 148.201 87.9973C150.755 85.5043 150.927 80.4131 150.927 80.4131L148.09 83.4102Z" fill="black"/>
<path d="M152.628 77.0891C152.209 77.7898 151.746 78.4633 151.243 79.1057C150.783 79.704 150.323 80.2691 149.852 80.8286C148.916 81.9366 147.913 83.0058 146.894 84.0418C144.805 86.1622 142.493 88.0495 139.997 89.6704C139.325 90.0907 138.631 90.4754 137.919 90.8228L137.637 90.9557L137.498 91.0222L137.326 91.0942C137.053 91.2099 136.771 91.3062 136.484 91.3823L136.08 91.4876L135.692 91.554C135.445 91.5969 135.195 91.6247 134.944 91.6371C133.277 91.6921 131.612 91.4578 130.025 90.9446C127.218 90.0715 124.544 88.821 122.075 87.2273L123.388 84.4573C125.907 85.2115 128.474 85.7963 131.072 86.2079C132.171 86.3925 133.292 86.4075 134.396 86.2523C134.49 86.2369 134.583 86.2128 134.673 86.1802L134.795 86.147L134.883 86.1082C134.955 86.1082 134.972 86.0528 135.016 86.0362L135.349 85.8423C135.859 85.5458 136.352 85.2222 136.828 84.8728C138.872 83.3345 140.773 81.6137 142.506 79.7317C143.409 78.7843 144.279 77.7927 145.127 76.8066C145.548 76.308 145.958 75.8094 146.34 75.3052C146.722 74.8011 147.115 74.2859 147.343 73.9313L152.628 77.0891Z" fill="#FF8B7B"/>
<path d="M123.986 85.2052L121.282 81.992L119.443 86.6899C119.443 86.6899 121.775 87.7979 123.592 87.1553L123.986 85.2052Z" fill="#FF8B7B"/>
<path d="M117.316 81.2884L116.562 85.039L119.443 86.6844L121.283 81.9865L117.316 81.2884Z" fill="#FF8B7B"/>
<path d="M155.891 74.8842C155.409 78.7622 146.611 86.9337 146.611 86.9337L138.689 80.6513C140.68 77.7078 143.008 75.0064 145.625 72.6017C151.364 67.6268 156.472 70.2527 155.891 74.8842Z" fill="#407BFF"/>
<path opacity="0.5" d="M155.891 74.8842C155.409 78.7622 146.611 86.9337 146.611 86.9337L138.689 80.6513C140.68 77.7078 143.008 75.0064 145.625 72.6017C151.364 67.6268 156.472 70.2527 155.891 74.8842Z" fill="black"/>
<path d="M149.026 101.061C156.932 101.061 158.738 92.1191 159.153 88.2799C158.155 81.7869 155.842 75.5659 152.356 69.9979C152.313 69.9298 152.287 69.8522 152.281 69.7719C152.275 69.6916 152.289 69.6111 152.321 69.5373C152.353 69.4635 152.403 69.3988 152.466 69.3487C152.529 69.2986 152.604 69.2647 152.683 69.25L154.417 68.9287C154.515 68.9125 154.617 68.9253 154.708 68.9656C154.8 69.006 154.877 69.0721 154.932 69.1558C159.691 76.7733 161.248 83.233 161.752 86.557H163.17C164.621 83.3992 167.818 76.2027 167.558 69.4605C167.553 69.3882 167.564 69.3157 167.591 69.2484C167.618 69.181 167.659 69.1205 167.712 69.0711C167.765 69.0218 167.829 68.9849 167.898 68.9631C167.967 68.9413 168.04 68.9353 168.112 68.9453L169.973 69.1281C170.093 69.1362 170.205 69.1881 170.289 69.274C170.373 69.3598 170.422 69.4736 170.427 69.5935C170.699 76.0919 167.026 85.1055 165.613 87.9697C166.095 98.5732 171.995 100.407 171.995 100.407C172.14 103.044 172.024 105.688 171.646 108.301C159.153 110.329 152.927 109.094 149.364 107.62C149.641 104.955 149.143 103.088 149.026 101.061Z" fill="#407BFF"/>
<path opacity="0.3" d="M149.026 101.061C156.932 101.061 158.738 92.1191 159.153 88.2799C158.155 81.7869 155.842 75.5659 152.356 69.9979C152.313 69.9298 152.287 69.8522 152.281 69.7719C152.275 69.6916 152.289 69.6111 152.321 69.5373C152.353 69.4635 152.403 69.3988 152.466 69.3487C152.529 69.2986 152.604 69.2647 152.683 69.25L154.417 68.9287C154.515 68.9125 154.617 68.9253 154.708 68.9656C154.8 69.006 154.877 69.0721 154.932 69.1558C159.691 76.7733 161.248 83.233 161.752 86.557H163.17C164.621 83.3992 167.818 76.2027 167.558 69.4605C167.553 69.3882 167.564 69.3157 167.591 69.2484C167.618 69.181 167.659 69.1205 167.712 69.0711C167.765 69.0218 167.829 68.9849 167.898 68.9631C167.967 68.9413 168.04 68.9353 168.112 68.9453L169.973 69.1281C170.093 69.1362 170.205 69.1881 170.289 69.274C170.373 69.3598 170.422 69.4736 170.427 69.5935C170.699 76.0919 167.026 85.1055 165.613 87.9697C166.095 98.5732 171.995 100.407 171.995 100.407C172.14 103.044 172.024 105.688 171.646 108.301C159.153 110.329 152.927 109.094 149.364 107.62C149.641 104.955 149.143 103.088 149.026 101.061Z" fill="black"/>
<path d="M148.971 186.548L149.182 191.407H153.254L153.043 186.548H148.971Z" fill="#FF5652"/>
<path d="M185.236 172.416L181.934 174.798L185.951 177.889L189.252 175.507L185.236 172.416Z" fill="#FF5652"/>
<path d="M164.793 56.026C163.923 59.9705 163.613 62.325 161.281 64.0535C157.774 66.6573 153.142 64.0535 152.815 59.9373C152.522 56.2255 153.99 50.3974 158.139 49.4113C159.053 49.1999 160.005 49.2238 160.906 49.4806C161.808 49.7375 162.629 50.2189 163.294 50.8798C163.959 51.5408 164.445 52.3596 164.707 53.2596C164.97 54.1597 164.999 55.1115 164.793 56.026Z" fill="#FF8B7B"/>
<path d="M168.311 49.9043C171.774 49.9985 170.35 51.8212 168.616 52.8239C168.616 52.8239 170.616 53.7823 169.585 56.0703C168.023 59.5439 165.032 63.361 161.979 63.1505C158.179 62.8901 157.098 58.7572 157.237 54.6798C155.231 52.7906 154.893 51.7491 154.583 49.4777C153.957 44.9737 156.782 42.4973 168.311 49.9043Z" fill="#263238"/>
<path d="M163.852 42.3145C166.222 42.9225 168.254 44.4471 169.501 46.5529C170.748 48.6587 171.107 51.1734 170.5 53.5441L152.611 48.9791C152.911 47.8031 153.44 46.6977 154.167 45.7261C154.895 44.7546 155.806 43.9359 156.85 43.317C157.894 42.698 159.05 42.2909 160.251 42.1189C161.453 41.9469 162.676 42.0133 163.852 42.3145Z" fill="#407BFF"/>
<path opacity="0.5" d="M163.852 42.3145C166.222 42.9225 168.254 44.4471 169.501 46.5529C170.748 48.6587 171.107 51.1734 170.5 53.5441L152.611 48.9791C152.911 47.8031 153.44 46.6977 154.167 45.7261C154.895 44.7546 155.806 43.9359 156.85 43.317C157.894 42.698 159.05 42.2909 160.251 42.1189C161.453 41.9469 162.676 42.0133 163.852 42.3145Z" fill="white"/>
<path d="M167.386 53.5552C167.262 53.557 167.14 53.53 167.028 53.4764C166.917 53.4227 166.819 53.3439 166.743 53.2461C166.668 53.1483 166.616 53.0342 166.592 52.9129C166.568 52.7915 166.572 52.6662 166.605 52.5469C166.853 51.5407 166.888 50.4935 166.705 49.4732C166.523 48.4529 166.128 47.4824 165.547 46.6246C164.302 44.7516 162.397 43.4163 160.211 42.8851C160.004 42.8322 159.825 42.6989 159.716 42.5145C159.606 42.3301 159.574 42.1097 159.627 41.9018C159.68 41.6939 159.813 41.5155 159.998 41.4059C160.182 41.2963 160.402 41.2644 160.61 41.3173C163.189 41.9509 165.435 43.5335 166.898 45.7493C167.603 46.7936 168.081 47.9743 168.3 49.215C168.52 50.4556 168.476 51.7286 168.172 52.9513C168.127 53.125 168.025 53.2786 167.883 53.388C167.74 53.4973 167.565 53.5561 167.386 53.5552Z" fill="#407BFF"/>
<path opacity="0.3" d="M167.386 53.5552C167.262 53.557 167.14 53.53 167.028 53.4764C166.917 53.4227 166.819 53.3439 166.743 53.2461C166.668 53.1483 166.616 53.0342 166.592 52.9129C166.568 52.7915 166.572 52.6662 166.605 52.5469C166.853 51.5407 166.888 50.4935 166.705 49.4732C166.523 48.4529 166.128 47.4824 165.547 46.6246C164.302 44.7516 162.397 43.4163 160.211 42.8851C160.004 42.8322 159.825 42.6989 159.716 42.5145C159.606 42.3301 159.574 42.1097 159.627 41.9018C159.68 41.6939 159.813 41.5155 159.998 41.4059C160.182 41.2963 160.402 41.2644 160.61 41.3173C163.189 41.9509 165.435 43.5335 166.898 45.7493C167.603 46.7936 168.081 47.9743 168.3 49.215C168.52 50.4556 168.476 51.7286 168.172 52.9513C168.127 53.125 168.025 53.2786 167.883 53.388C167.74 53.4973 167.565 53.5561 167.386 53.5552Z" fill="white"/>
<path d="M150.135 49.2174L171.187 54.5912C171.405 54.6466 171.637 54.6131 171.832 54.4978C172.026 54.3825 172.166 54.195 172.223 53.9762C172.278 53.7566 172.245 53.5239 172.13 53.3288C172.014 53.1337 171.827 52.9921 171.608 52.9347L150.556 47.5609C150.335 47.5055 150.102 47.5396 149.907 47.656C149.711 47.7723 149.57 47.9612 149.514 48.1814C149.487 48.2902 149.481 48.4033 149.497 48.5142C149.514 48.6252 149.552 48.7318 149.61 48.828C149.667 48.9243 149.743 49.0082 149.833 49.075C149.923 49.1418 150.026 49.1902 150.135 49.2174Z" fill="#407BFF"/>
<path opacity="0.3" d="M150.135 49.2174L171.187 54.5912C171.405 54.6466 171.637 54.6131 171.832 54.4978C172.026 54.3825 172.166 54.195 172.223 53.9762C172.278 53.7566 172.245 53.5239 172.13 53.3288C172.014 53.1337 171.827 52.9921 171.608 52.9347L150.556 47.5609C150.335 47.5055 150.102 47.5396 149.907 47.656C149.711 47.7723 149.57 47.9612 149.514 48.1814C149.487 48.2902 149.481 48.4033 149.497 48.5142C149.514 48.6252 149.552 48.7318 149.61 48.828C149.667 48.9243 149.743 49.0082 149.833 49.075C149.923 49.1418 150.026 49.1902 150.135 49.2174Z" fill="white"/>
<path d="M159.315 55.6548C159.212 56.6532 158.779 57.5887 158.085 58.314C157.166 59.2614 156.257 58.6243 156.141 57.4276C156.035 56.3529 156.39 54.5634 157.492 54.0648C158.595 53.5662 159.431 54.4527 159.315 55.6548Z" fill="#FF8B7B"/>
<path d="M157.575 105.321C157.575 105.321 157.104 134.284 160.744 145.641C166.511 163.629 183.929 178.2 183.929 178.2L190.156 173.707C190.156 173.707 175.652 161.397 172.993 146.256C170.605 132.644 171.619 116.451 171.619 105.332L157.575 105.321Z" fill="#407BFF"/>
<path opacity="0.3" d="M157.575 105.321C157.575 105.321 157.104 134.284 160.744 145.641C166.511 163.629 183.929 178.2 183.929 178.2L190.156 173.707C190.156 173.707 175.652 161.397 172.993 146.256C170.605 132.644 171.619 116.451 171.619 105.332L157.575 105.321Z" fill="black"/>
<path d="M161.636 110.296C162.406 115.515 159.685 130.046 158.744 134.805C157.758 125.908 157.575 115.354 157.558 109.592C159.553 108.241 161.281 107.892 161.636 110.296Z" fill="#407BFF"/>
<path opacity="0.4" d="M161.636 110.296C162.406 115.515 159.685 130.046 158.744 134.805C157.758 125.908 157.575 115.354 157.558 109.592C159.553 108.241 161.281 107.892 161.636 110.296Z" fill="black"/>
<path d="M181.264 176.887C181.236 176.887 183.823 178.41 183.823 178.41L190.621 173.502L188.361 171.768L181.264 176.887Z" fill="#407BFF"/>
<path opacity="0.4" d="M181.264 176.887C181.236 176.887 183.823 178.41 183.823 178.41L190.621 173.502L188.361 171.768L181.264 176.887Z" fill="white"/>
<path d="M149.852 105.321C149.852 105.321 143.719 131.304 143.287 143.713C142.805 157.635 147.664 190.465 147.664 190.465H154.566C154.566 190.465 155.42 157.38 155.724 144.699C156.057 130.877 164.173 105.321 164.173 105.321H149.852Z" fill="#407BFF"/>
<path opacity="0.3" d="M149.852 105.321C149.852 105.321 143.719 131.304 143.287 143.713C142.805 157.635 147.664 190.465 147.664 190.465H154.566C154.566 190.465 155.42 157.38 155.724 144.699C156.057 130.877 164.173 105.321 164.173 105.321H149.852Z" fill="black"/>
<path d="M146.334 187.717C146.306 187.717 146.727 190.582 146.727 190.582H155.12L155.347 188.028L146.334 187.717Z" fill="#407BFF"/>
<path opacity="0.4" d="M146.334 187.717C146.306 187.717 146.727 190.582 146.727 190.582H155.12L155.347 188.028L146.334 187.717Z" fill="white"/>
</svg>
