<svg width="252" height="188" viewBox="0 0 252 188" fill="none" xmlns="http://www.w3.org/2000/svg">
<path d="M125.842 187.534C179.743 187.534 223.439 184.983 223.439 181.836C223.439 178.689 179.743 176.138 125.842 176.138C71.94 176.138 28.2441 178.689 28.2441 181.836C28.2441 184.983 71.94 187.534 125.842 187.534Z" fill="#F5F5F5"/>
<path d="M185.188 40.4554C182.168 42.1065 181.161 46.9992 182.576 49.1284C177.341 50.6989 180.059 59.6991 188.616 60.2024C197.173 60.7058 203.687 57.5799 199.484 50.9053C203.642 45.3028 201.729 39.046 198.084 39.7356C194.173 31.8982 181.076 32.1298 185.188 40.4554Z" fill="#263238"/>
<path d="M194.299 60.8065C192.979 60.8023 191.685 60.4405 190.554 59.7595C190.536 59.7529 190.52 59.7425 190.506 59.7288C190.492 59.7152 190.482 59.6988 190.475 59.6807C190.469 59.6626 190.467 59.6432 190.468 59.6241C190.47 59.6049 190.476 59.5864 190.486 59.5699C190.496 59.5533 190.509 59.5391 190.525 59.5283C190.541 59.5175 190.559 59.5103 190.578 59.5072C190.597 59.5042 190.616 59.5054 190.635 59.5107C190.653 59.516 190.67 59.5253 190.685 59.538C192.143 60.4109 193.866 60.7315 195.541 60.4415C197.216 60.1514 198.731 59.27 199.811 57.9574C201.185 56.2561 201.824 53.5278 199.423 50.9808C199.412 50.9686 199.403 50.9542 199.397 50.9384C199.391 50.9227 199.388 50.906 199.388 50.8891C199.389 50.8723 199.393 50.8557 199.399 50.8404C199.406 50.825 199.416 50.8111 199.428 50.7996C199.441 50.788 199.455 50.779 199.471 50.773C199.486 50.767 199.503 50.7641 199.52 50.7646C199.537 50.765 199.553 50.7688 199.569 50.7757C199.584 50.7826 199.598 50.7924 199.61 50.8046C202.096 53.4724 201.447 56.3416 200.007 58.1185C199.31 58.9564 198.437 59.6313 197.451 60.0957C196.465 60.5601 195.389 60.8027 194.299 60.8065Z" fill="#263238"/>
<path d="M181.63 50.7996C181.604 50.7989 181.579 50.7903 181.558 50.775C181.538 50.7597 181.522 50.7384 181.514 50.714C180.175 46.8784 181.967 41.7289 185.133 40.3195C185.164 40.3085 185.198 40.3091 185.228 40.3211C185.259 40.3332 185.284 40.3558 185.299 40.3849C185.306 40.4001 185.309 40.4165 185.31 40.4331C185.31 40.4497 185.307 40.4662 185.301 40.4816C185.295 40.4971 185.286 40.5111 185.274 40.5231C185.263 40.535 185.249 40.5445 185.234 40.5511C182.173 41.9101 180.447 46.9035 181.75 50.6184C181.756 50.6342 181.758 50.651 181.757 50.6678C181.756 50.6845 181.752 50.7009 181.744 50.7159C181.737 50.7309 181.726 50.7442 181.713 50.7551C181.701 50.7661 181.686 50.7743 181.67 50.7794L181.63 50.7996Z" fill="#263238"/>
<path d="M180.809 45.2575H180.763C180.733 45.2451 180.708 45.2217 180.694 45.1918C180.68 45.1619 180.678 45.1279 180.688 45.0964C181.594 42.6954 183.305 40.8682 185.148 40.3245C185.18 40.3152 185.214 40.319 185.243 40.335C185.273 40.3511 185.294 40.3781 185.304 40.4101C185.313 40.4422 185.309 40.4766 185.293 40.5059C185.277 40.5351 185.25 40.5568 185.218 40.5662C183.451 41.0695 181.805 42.8565 180.924 45.1871C180.914 45.2086 180.897 45.2267 180.877 45.2392C180.856 45.2517 180.833 45.2581 180.809 45.2575Z" fill="#263238"/>
<path d="M187.856 179.153L184.946 179.158L184.458 168.23L189.356 168.35L187.856 179.153Z" fill="#FFB573"/>
<path d="M182.797 84.8522C182.797 84.8522 182.54 115.18 181.901 128.383C181.876 128.775 181.876 129.169 181.901 129.561C182.858 142.795 184.443 168.23 184.443 168.23L189.371 168.355C189.371 168.355 193.665 148.045 191.007 129.647C195.281 108.838 197.581 90.2684 193.71 84.8472L182.797 84.8522Z" fill="#378FED"/>
<path opacity="0.2" d="M191.052 96.8978C189.542 101.962 191.012 118.24 191.792 125.751C192.854 120.324 193.76 115.104 194.43 110.292L191.052 96.8978Z" fill="black"/>
<path d="M184.62 177.743H188.4C188.479 177.74 188.557 177.768 188.617 177.82C188.677 177.873 188.714 177.946 188.722 178.025L189.104 181.121C189.106 181.217 189.089 181.312 189.054 181.401C189.019 181.49 188.966 181.571 188.899 181.64C188.832 181.708 188.752 181.762 188.664 181.8C188.575 181.837 188.48 181.856 188.385 181.856C186.719 181.856 185.923 181.735 183.824 181.74C182.531 181.74 181.75 181.871 179.963 181.871C178.176 181.871 178.176 180.159 178.926 180.003C182.294 179.304 182.727 178.916 183.9 177.99C184.106 177.83 184.359 177.743 184.62 177.743Z" fill="#263238"/>
<path d="M185.862 62.533C185.676 63.575 185.465 64.5465 185.238 65.5532C185.012 66.5599 184.78 67.5667 184.513 68.5734C183.985 70.5869 183.436 72.5601 182.711 74.5534C182.348 75.5839 181.924 76.5924 181.443 77.5736C181.176 78.1181 180.868 78.6414 180.522 79.139C180.421 79.2749 180.33 79.4058 180.2 79.5568C180.074 79.7171 179.934 79.8654 179.782 79.9998C179.396 80.3645 178.931 80.635 178.423 80.7901C177.89 80.951 177.325 80.9736 176.782 80.8555C176.354 80.7564 175.945 80.5863 175.574 80.3521C175.009 79.991 174.509 79.5385 174.094 79.0132C173.38 78.1249 172.811 77.1294 172.407 76.0635C172.319 75.8369 172.311 75.5867 172.386 75.3551C172.46 75.1235 172.612 74.9247 172.816 74.7922C173.02 74.6597 173.264 74.6017 173.506 74.6279C173.748 74.6541 173.973 74.7629 174.144 74.9359L174.204 75.0014C174.829 75.6612 175.502 76.2737 176.218 76.8336C176.498 77.0472 176.808 77.217 177.139 77.337C177.26 77.3672 177.345 77.3672 177.356 77.337C177.366 77.3068 177.285 77.2866 177.215 77.2917C177.144 77.2967 177.099 77.3219 177.119 77.2917C177.143 77.2478 177.17 77.2057 177.199 77.1658C177.249 77.1049 177.293 77.0391 177.33 76.9695C177.541 76.6229 177.726 76.2612 177.884 75.8873C178.251 75.025 178.573 74.1446 178.851 73.2497C179.424 71.4073 179.948 69.4895 180.401 67.5616C180.854 65.6337 181.302 63.6656 181.705 61.7427C181.829 61.2111 182.154 60.7483 182.612 60.4516C183.07 60.1549 183.626 60.0474 184.161 60.1517C184.697 60.256 185.172 60.564 185.485 61.0109C185.799 61.4578 185.927 62.0088 185.842 62.5481L185.862 62.533Z" fill="#FFB573"/>
<path d="M181.287 80.7347C181.287 81.973 200.586 82.2146 200.586 80.5787L190.725 78.0618L181.287 80.7347Z" fill="#263238"/>
<path d="M184.831 59.2863C189.919 58.4353 195.118 58.4864 200.188 59.4373C200.486 59.4844 200.77 59.5919 201.025 59.7532C201.279 59.9146 201.497 60.1263 201.667 60.3753C201.836 60.6243 201.953 60.9054 202.009 61.2012C202.066 61.497 202.061 61.8012 201.995 62.0951C199.267 74.3118 199.423 78.4192 199.685 84.8522H182.802C181.956 74.1205 181.508 67.9945 181.398 64.5163C181.307 61.8635 182.218 59.6739 184.831 59.2863Z" fill="#FFB573"/>
<path opacity="0.2" d="M200.138 62.835C200.032 64.5401 200.257 66.2496 200.802 67.8687C201.019 66.7059 201.27 65.4576 201.557 64.0935L200.138 62.835Z" fill="black"/>
<path d="M194.646 50.3667C194.143 52.808 193.685 57.293 195.396 58.9239C195.396 58.9239 194.727 61.4055 190.186 61.4055C185.188 61.4055 187.796 58.9239 187.796 58.9239C190.524 58.2695 190.453 56.246 189.98 54.3483L194.646 50.3667Z" fill="#FFB573"/>
<path opacity="0.2" d="M192.744 51.9926L189.98 54.3634C190.098 54.8055 190.177 55.2568 190.217 55.7124C191.259 55.5614 192.689 54.4188 192.799 53.3265C192.861 52.8821 192.843 52.4302 192.744 51.9926Z" fill="black"/>
<path d="M197.284 46.1283C196.348 50.11 196.041 51.8164 193.655 53.5328C190.071 56.1201 185.38 54.1067 185.098 49.9237C184.846 46.1636 186.411 40.2792 190.635 39.353C191.562 39.1439 192.528 39.1752 193.44 39.4439C194.352 39.7126 195.181 40.2099 195.847 40.8885C196.513 41.5672 196.994 42.4047 197.246 43.3217C197.497 44.2387 197.511 45.2048 197.284 46.1283Z" fill="#FFB573"/>
<path d="M195.764 40.1383C191.545 40.6064 192.829 48.469 196 49.2291C199.715 47.4119 202.005 40.5108 195.764 40.1383Z" fill="#263238"/>
<path d="M216.412 171.955L213.497 172.84L209.244 163.931L213.729 162.708L216.412 171.955Z" fill="#FFB573"/>
<path d="M212.657 171.949L216.402 170.5C216.467 170.475 216.54 170.473 216.606 170.496C216.672 170.519 216.728 170.565 216.764 170.626L218.44 173.455C218.481 173.525 218.505 173.603 218.512 173.684C218.519 173.765 218.509 173.847 218.482 173.923C218.455 174 218.411 174.069 218.354 174.127C218.298 174.186 218.229 174.231 218.154 174.26C216.84 174.763 216.205 175.02 214.559 175.659C213.553 176.052 211.972 177.361 210.573 177.899C209.173 178.438 208.559 177.159 209.063 176.716C210.427 175.526 211.501 174.04 212.204 172.372C212.246 172.275 212.309 172.187 212.386 172.114C212.464 172.041 212.556 171.985 212.657 171.949Z" fill="#263238"/>
<path d="M187.433 84.8522C187.433 84.8522 193.64 116.599 195.99 129.148C198.422 142.236 209.254 163.911 209.254 163.911L213.749 162.683C213.749 162.683 207.593 139.498 204.724 128.006C204.16 107.197 204.824 90.2533 199.69 84.8321L187.433 84.8522Z" fill="#378FED"/>
<path d="M190.68 46.1032C190.624 46.4304 190.408 46.6669 190.176 46.6065C189.945 46.5461 189.834 46.2743 189.89 45.9471C189.945 45.6199 190.166 45.3834 190.393 45.4186C190.619 45.4538 190.74 45.776 190.68 46.1032Z" fill="#263238"/>
<path d="M186.98 45.474C186.925 45.8012 186.703 46.0377 186.477 45.9773C186.25 45.9169 186.135 45.6502 186.19 45.3179C186.245 44.9857 186.467 44.7542 186.693 44.8146C186.92 44.875 187.036 45.1468 186.98 45.474Z" fill="#263238"/>
<path d="M186.784 44.8498L186.034 44.4874C186.034 44.4874 186.336 45.172 186.784 44.8498Z" fill="#263238"/>
<path d="M188.017 46.2592C187.601 46.9554 187.093 47.5921 186.507 48.1519C186.654 48.2987 186.83 48.412 187.025 48.4841C187.22 48.5562 187.427 48.5854 187.634 48.5697L188.017 46.2592Z" fill="#ED893E"/>
<path d="M189.195 50.1553C189.026 50.1554 188.857 50.1402 188.691 50.11C188.679 50.1081 188.667 50.1038 188.656 50.0972C188.645 50.0906 188.635 50.0819 188.628 50.0716C188.62 50.0613 188.615 50.0495 188.612 50.0371C188.609 50.0247 188.609 50.0118 188.611 49.9992C188.616 49.9743 188.63 49.9522 188.65 49.9372C188.671 49.9223 188.696 49.9157 188.721 49.9187C189.128 49.9961 189.547 49.9772 189.944 49.8636C190.342 49.75 190.708 49.5447 191.012 49.2643C191.021 49.2546 191.032 49.2468 191.044 49.2414C191.056 49.2361 191.069 49.2333 191.082 49.2333C191.095 49.2333 191.109 49.2361 191.121 49.2414C191.133 49.2468 191.144 49.2546 191.153 49.2643C191.17 49.2829 191.179 49.3071 191.179 49.3323C191.179 49.3574 191.17 49.3817 191.153 49.4002C190.626 49.901 189.922 50.1725 189.195 50.1553Z" fill="#263238"/>
<path d="M197.858 49.5613C197.457 50.2428 196.804 50.7398 196.041 50.9456C195.034 51.2023 194.531 50.2912 194.843 49.3449C195.11 48.4942 195.965 47.3314 196.977 47.4874C197.197 47.5276 197.403 47.6217 197.578 47.7612C197.752 47.9008 197.889 48.0815 197.976 48.2871C198.064 48.4927 198.098 48.7167 198.078 48.9391C198.057 49.1615 197.982 49.3753 197.858 49.5613Z" fill="#FFB573"/>
<path d="M192.285 45.5998C192.245 45.5994 192.205 45.586 192.173 45.5616C192.14 45.5371 192.116 45.5029 192.104 45.4639C191.837 44.6032 190.735 44.2307 190.725 44.2307C190.7 44.2233 190.677 44.2109 190.657 44.1943C190.637 44.1778 190.621 44.1573 190.609 44.1343C190.598 44.1112 190.591 44.086 190.589 44.0602C190.587 44.0344 190.591 44.0084 190.599 43.984C190.607 43.9592 190.619 43.9361 190.635 43.9163C190.652 43.8964 190.672 43.88 190.696 43.8683C190.719 43.8565 190.744 43.8495 190.77 43.8478C190.795 43.8461 190.821 43.8496 190.846 43.8582C190.896 43.8582 192.15 44.2961 192.477 45.3683C192.484 45.3931 192.487 45.4191 192.485 45.445C192.482 45.4708 192.475 45.496 192.463 45.5189C192.451 45.5419 192.434 45.5622 192.414 45.5786C192.394 45.5951 192.371 45.6074 192.346 45.6149L192.285 45.5998Z" fill="#263238"/>
<path d="M186.154 43.5712C186.121 43.5708 186.088 43.5618 186.059 43.5451C186.03 43.5283 186.005 43.5044 185.988 43.4756C185.963 43.4302 185.957 43.3766 185.971 43.3266C185.985 43.2766 186.018 43.2342 186.064 43.2088C186.329 43.0485 186.628 42.9539 186.937 42.9328C187.247 42.9118 187.556 42.965 187.841 43.088C187.886 43.1117 187.921 43.1524 187.937 43.2014C187.953 43.2503 187.949 43.3036 187.926 43.3498C187.902 43.3955 187.862 43.4301 187.813 43.4462C187.764 43.4622 187.711 43.4583 187.664 43.4353C187.437 43.3423 187.191 43.3039 186.947 43.3232C186.702 43.3424 186.465 43.4187 186.255 43.5461C186.225 43.5644 186.19 43.5732 186.154 43.5712Z" fill="#263238"/>
<path d="M201.568 60.137C203.002 62.0145 204.306 63.9122 205.544 65.9156C206.158 66.9224 206.762 67.9291 207.316 69.0013C207.918 70.1122 208.415 71.2767 208.801 72.4795C208.856 72.6406 208.897 72.8268 208.942 72.9829L208.977 73.1288L209.022 73.3403C209.043 73.472 209.056 73.6048 209.063 73.7379C209.086 74.1748 209.054 74.6128 208.967 75.0416C208.824 75.7216 208.61 76.3847 208.328 77.0199C207.831 78.1422 207.245 79.2229 206.576 80.2515C205.302 82.2283 203.869 84.0986 202.292 85.8438C202.12 86.0372 201.881 86.1596 201.624 86.1873C201.366 86.215 201.107 86.146 200.897 85.9938C200.687 85.8415 200.541 85.6168 200.487 85.3632C200.434 85.1095 200.476 84.8449 200.606 84.6207V84.5955C201.719 82.6576 202.821 80.6642 203.772 78.691C204.239 77.7397 204.644 76.7595 204.985 75.7564C205.132 75.3304 205.234 74.89 205.287 74.4426C205.306 74.3107 205.306 74.1769 205.287 74.045V74.0148V73.9544C205.252 73.8537 205.227 73.7631 205.182 73.6574C204.79 72.7136 204.329 71.8001 203.803 70.9241C203.249 69.9929 202.66 69.0617 202.056 68.1304C200.828 66.2881 199.539 64.4357 198.23 62.6438C197.917 62.1941 197.79 61.6401 197.878 61.099C197.966 60.5579 198.261 60.0723 198.701 59.7451C199.141 59.4179 199.691 59.2747 200.234 59.346C200.778 59.4173 201.272 59.6974 201.613 60.1269L201.568 60.137Z" fill="#FFB573"/>
<path d="M190.488 45.479L189.738 45.1166C189.738 45.1166 190.035 45.8062 190.488 45.479Z" fill="#263238"/>
<path d="M181.871 63.3132C182.182 62.0432 182.582 60.7968 183.069 59.5833C183.841 59.3526 184.63 59.1843 185.429 59.0799C187.057 60.5228 188.397 62.2617 189.376 64.2042C191.535 62.0196 195.668 59.8098 198.185 59.0044C199.036 58.9507 199.89 59.0583 200.702 59.3215C198.985 64.7378 197.233 70.1842 200.339 71.5835C200.284 74.1557 200.43 77.347 200.561 80.5736C197.626 80.2515 185.988 79.6927 181.262 80.7297C181.02 77.4578 180.934 74.6893 180.95 72.2983C178.75 69.4946 180.955 65.679 181.871 63.3132Z" fill="#263238"/>
<g opacity="0.2">
<path opacity="0.2" d="M186.496 73.3856C186.47 73.3887 186.445 73.3988 186.423 73.4147C186.402 73.4306 186.386 73.4518 186.375 73.4762C186.018 74.4774 186.029 75.5728 186.405 76.5668C186.058 76.2749 185.716 75.988 185.399 75.696C185.682 75.0899 185.792 74.4169 185.715 73.7521C185.639 73.0874 185.379 72.4568 184.966 71.9308C184.95 71.9103 184.929 71.894 184.906 71.8834C184.882 71.8729 184.856 71.8684 184.83 71.8704C184.803 71.8725 184.778 71.8822 184.756 71.8982C184.735 71.9142 184.719 71.936 184.709 71.9611C184.341 72.9903 184.364 74.1191 184.775 75.1322C184.321 74.7195 183.889 74.3067 183.491 73.9091C183.788 73.2999 183.908 72.6192 183.835 71.9452C183.763 71.2711 183.503 70.6311 183.083 70.0986C183.067 70.078 183.047 70.0617 183.023 70.0512C182.999 70.0406 182.973 70.0362 182.947 70.0382C182.921 70.0403 182.895 70.0499 182.874 70.066C182.852 70.082 182.836 70.1038 182.826 70.1288C182.461 71.1601 182.484 72.2896 182.892 73.305C182.202 72.5852 181.628 71.9308 181.201 71.3872C181.047 70.7786 180.741 70.2188 180.313 69.7602C179.884 69.3016 179.346 68.9591 178.749 68.7647C178.725 68.7604 178.7 68.762 178.676 68.7693C178.653 68.7766 178.631 68.7893 178.614 68.8065C178.596 68.8237 178.583 68.8448 178.575 68.8682C178.567 68.8916 178.564 68.9165 178.568 68.9409C179.021 71.1708 180.662 71.5584 180.994 71.6137C181.231 71.9107 181.498 72.2379 181.82 72.5903C181.031 72.2367 180.153 72.1314 179.303 72.2882C179.277 72.2942 179.254 72.3072 179.235 72.3259C179.216 72.3446 179.203 72.3682 179.197 72.3939C179.19 72.4189 179.189 72.4453 179.194 72.4708C179.199 72.4963 179.211 72.52 179.227 72.5399C179.66 73.0334 180.222 73.3962 180.85 73.5874C181.478 73.7786 182.147 73.7907 182.781 73.6221C183.063 73.9141 183.365 74.2111 183.682 74.5181C182.616 74.2133 181.478 74.2808 180.456 74.7094C180.431 74.7223 180.411 74.7415 180.397 74.765C180.383 74.7885 180.375 74.8154 180.375 74.8428C180.375 74.8702 180.383 74.8971 180.397 74.9206C180.411 74.9441 180.431 74.9633 180.456 74.9762C181.03 75.3341 181.689 75.5349 182.365 75.5588C183.042 75.5826 183.713 75.4286 184.311 75.1121C184.734 75.5098 185.182 75.9074 185.645 76.3051C184.614 75.8396 183.447 75.7715 182.368 76.1138C182.343 76.124 182.321 76.1404 182.305 76.1616C182.288 76.1828 182.277 76.2079 182.273 76.2346C182.27 76.2608 182.274 76.2873 182.283 76.3118C182.293 76.3363 182.308 76.3581 182.328 76.3756C182.858 76.8048 183.496 77.079 184.172 77.1678C184.849 77.2567 185.536 77.1567 186.159 76.8789L186.199 76.8538C186.215 76.8371 186.225 76.816 186.229 76.7934L186.798 77.2564C186.816 77.2802 186.84 77.2978 186.869 77.3068C187.171 77.5484 187.478 77.785 187.79 78.0165C187.817 78.0399 187.852 78.0528 187.888 78.0528C187.924 78.0528 187.959 78.0399 187.986 78.0165C187.998 78.0004 188.006 77.982 188.01 77.9626C188.015 77.9432 188.016 77.9231 188.012 77.9035C188.009 77.8838 188.002 77.865 187.991 77.8481C187.981 77.8313 187.967 77.8166 187.951 77.8051C187.664 77.5887 187.377 77.3722 187.1 77.1457C187.362 76.5461 187.456 75.8869 187.372 75.2381C187.289 74.5893 187.031 73.9752 186.627 73.4611C186.614 73.4381 186.595 73.419 186.572 73.4058C186.549 73.3925 186.523 73.3856 186.496 73.3856Z" fill="white"/>
<path opacity="0.2" d="M181.533 65.5884C181.559 65.5853 181.584 65.5752 181.605 65.5593C181.627 65.5434 181.643 65.5222 181.654 65.4978C182.011 64.4967 182 63.4012 181.624 62.4072C181.971 62.6991 182.313 62.9861 182.63 63.278C182.347 63.8842 182.237 64.5571 182.314 65.2219C182.39 65.8867 182.649 66.5172 183.063 67.0432C183.079 67.0638 183.1 67.0801 183.123 67.0906C183.147 67.1012 183.173 67.1056 183.199 67.1036C183.226 67.1015 183.251 67.0919 183.273 67.0758C183.294 67.0598 183.31 67.038 183.32 67.013C183.688 65.9838 183.665 64.8549 183.254 63.8418C183.707 64.2545 184.14 64.6673 184.538 65.0649C184.241 65.6742 184.121 66.3548 184.193 67.0289C184.266 67.7029 184.526 68.3429 184.946 68.8754C184.962 68.896 184.982 68.9123 185.006 68.9229C185.03 68.9334 185.056 68.9379 185.082 68.9358C185.108 68.9337 185.134 68.9241 185.155 68.9081C185.177 68.892 185.193 68.8702 185.202 68.8452C185.568 67.8139 185.545 66.6844 185.137 65.669C185.827 66.3888 186.4 67.0432 186.828 67.5868C186.982 68.1955 187.288 68.7552 187.716 69.2138C188.145 69.6724 188.683 70.0149 189.28 70.2093C189.304 70.2136 189.329 70.212 189.353 70.2047C189.376 70.1974 189.398 70.1847 189.415 70.1675C189.433 70.1503 189.446 70.1292 189.454 70.1058C189.462 70.0825 189.464 70.0576 189.461 70.0332C189.008 67.8033 187.367 67.4157 187.035 67.3603C186.798 67.0633 186.531 66.7361 186.209 66.3838C186.998 66.7387 187.876 66.8424 188.726 66.6808C188.752 66.6764 188.775 66.6644 188.794 66.6465C188.813 66.6286 188.826 66.6055 188.832 66.5801C188.839 66.5552 188.84 66.5287 188.835 66.5032C188.83 66.4778 188.818 66.454 188.801 66.4341C188.369 65.9406 187.807 65.5778 187.179 65.3866C186.551 65.1954 185.882 65.1834 185.248 65.3519C184.966 65.0599 184.664 64.7629 184.347 64.4559C185.413 64.7607 186.551 64.6932 187.573 64.2646C187.598 64.2517 187.618 64.2325 187.632 64.209C187.646 64.1855 187.654 64.1586 187.654 64.1312C187.654 64.1038 187.646 64.0769 187.632 64.0534C187.618 64.0299 187.598 64.0107 187.573 63.9978C186.999 63.64 186.34 63.4391 185.664 63.4152C184.987 63.3914 184.316 63.5454 183.718 63.8619C183.295 63.4642 182.847 63.0666 182.384 62.6689C183.415 63.1344 184.582 63.2025 185.661 62.8602C185.685 62.8493 185.707 62.8326 185.723 62.8116C185.74 62.7905 185.751 62.7658 185.756 62.7394C185.759 62.7132 185.755 62.6868 185.745 62.6623C185.736 62.6378 185.721 62.6159 185.701 62.5985C185.171 62.1692 184.533 61.895 183.857 61.8062C183.18 61.7173 182.493 61.8173 181.87 62.0951L181.83 62.1203C181.814 62.137 181.804 62.158 181.8 62.1807L181.231 61.7176C181.213 61.6938 181.189 61.6762 181.16 61.6672C180.858 61.4256 180.551 61.189 180.239 60.9575C180.212 60.9341 180.177 60.9212 180.141 60.9212C180.105 60.9212 180.07 60.9341 180.043 60.9575C180.02 60.99 180.011 61.0299 180.016 61.0692C180.022 61.1084 180.042 61.1441 180.073 61.1689C180.365 61.3854 180.652 61.6018 180.929 61.8283C180.667 62.4279 180.573 63.0872 180.657 63.736C180.74 64.3848 180.998 64.9989 181.402 65.5129C181.415 65.5359 181.434 65.555 181.457 65.5682C181.48 65.5815 181.506 65.5885 181.533 65.5884Z" fill="white"/>
<path opacity="0.2" d="M197.052 77.0601C197.026 77.0637 197.002 77.0733 196.981 77.0882C196.96 77.1031 196.943 77.1228 196.931 77.1457C196.578 78.1476 196.589 79.2415 196.961 80.2364C196.614 79.9494 196.272 79.6575 195.954 79.3655C196.238 78.7603 196.348 78.0881 196.271 77.4241C196.195 76.7601 195.935 76.1304 195.522 75.6054C195.506 75.5847 195.485 75.5684 195.462 75.5579C195.438 75.5475 195.412 75.5433 195.386 75.5459C195.36 75.5484 195.336 75.5575 195.314 75.5724C195.293 75.5872 195.276 75.6072 195.265 75.6306C194.899 76.6619 194.922 77.7914 195.33 78.8068C194.877 78.389 194.444 77.9813 194.047 77.5836C194.345 76.9756 194.465 76.2955 194.393 75.6219C194.321 74.9484 194.06 74.3091 193.639 73.7782C193.624 73.7565 193.604 73.7393 193.58 73.7286C193.556 73.7179 193.529 73.7142 193.503 73.7178C193.477 73.7209 193.453 73.7304 193.432 73.7453C193.411 73.7603 193.394 73.7802 193.382 73.8034C193.016 74.8347 193.04 75.9642 193.448 76.9796C192.758 76.2648 192.184 75.6054 191.756 75.0618C191.601 74.4539 191.295 73.895 190.866 73.4367C190.438 72.9783 189.901 72.6353 189.305 72.4392C189.281 72.4343 189.256 72.4354 189.232 72.4424C189.208 72.4495 189.187 72.4622 189.169 72.4795C189.151 72.4977 189.137 72.5199 189.129 72.5445C189.121 72.569 189.12 72.5951 189.124 72.6205C189.577 74.8453 191.223 75.2329 191.55 75.2883C191.787 75.5853 192.053 75.9175 192.376 76.2699C191.587 75.916 190.709 75.8107 189.859 75.9678C189.833 75.9748 189.81 75.9882 189.792 76.0067C189.773 76.0252 189.76 76.0483 189.753 76.0735C189.745 76.0976 189.744 76.1233 189.75 76.148C189.755 76.1727 189.766 76.1956 189.783 76.2145C190.213 76.7113 190.775 77.0765 191.404 77.268C192.033 77.4595 192.703 77.4694 193.337 77.2967C193.619 77.5887 193.921 77.8907 194.238 78.1977C193.172 77.8901 192.033 77.9576 191.011 78.389C190.988 78.4027 190.969 78.4218 190.955 78.4446C190.941 78.4674 190.933 78.4932 190.931 78.5199C190.93 78.5465 190.937 78.5728 190.95 78.5959C190.964 78.6189 190.983 78.6379 191.006 78.6508C191.581 79.0089 192.239 79.2104 192.915 79.2351C193.592 79.2598 194.263 79.107 194.862 78.7917C195.285 79.1843 195.733 79.582 196.196 79.9847C195.165 79.5192 193.998 79.4511 192.919 79.7934C192.894 79.8035 192.872 79.82 192.855 79.8412C192.839 79.8624 192.828 79.8875 192.824 79.9142C192.821 79.9402 192.825 79.9665 192.835 79.9904C192.846 80.0143 192.863 80.035 192.884 80.0501C193.414 80.4793 194.052 80.7536 194.728 80.8424C195.404 80.9312 196.092 80.8312 196.715 80.5535L196.75 80.5233C196.764 80.5068 196.776 80.4881 196.785 80.4679L197.354 80.931C197.37 80.9544 197.393 80.9721 197.419 80.9813C197.721 81.223 198.028 81.4595 198.34 81.6961C198.368 81.7195 198.403 81.7324 198.439 81.7324C198.475 81.7324 198.509 81.7195 198.537 81.6961C198.561 81.6641 198.571 81.6238 198.565 81.5842C198.56 81.5445 198.539 81.5087 198.507 81.4847C198.215 81.2683 197.933 81.0468 197.651 80.8253C197.914 80.2263 198.009 79.5671 197.926 78.9182C197.844 78.2693 197.587 77.655 197.183 77.1407C197.17 77.1171 197.151 77.0973 197.128 77.0832C197.105 77.0691 197.079 77.0611 197.052 77.0601Z" fill="white"/>
<path opacity="0.2" d="M206.732 80.5384C206.705 80.5405 206.679 80.5501 206.658 80.5661C206.637 80.5822 206.62 80.604 206.611 80.629C206.252 81.6295 206.261 82.7251 206.636 83.7197C206.289 83.4277 205.951 83.1358 205.629 82.8488C205.914 82.2433 206.025 81.5705 205.949 80.9056C205.874 80.2407 205.615 79.6099 205.201 79.0837C205.185 79.0623 205.163 79.0455 205.139 79.035C205.114 79.0244 205.087 79.0203 205.06 79.0233C205.034 79.0269 205.009 79.0371 204.988 79.053C204.967 79.0688 204.95 79.0898 204.94 79.1139C204.573 80.1435 204.597 81.2714 205.005 82.2851C204.552 81.8723 204.124 81.4595 203.726 81.0619C204.024 80.4527 204.143 79.772 204.071 79.098C203.999 78.424 203.738 77.7839 203.319 77.2514C203.303 77.2308 203.282 77.2145 203.258 77.204C203.235 77.1934 203.209 77.189 203.183 77.191C203.156 77.1931 203.131 77.2027 203.109 77.2188C203.088 77.2348 203.071 77.2566 203.062 77.2816C202.694 78.3126 202.717 79.4429 203.127 80.4578C202.438 79.738 201.859 79.0837 201.436 78.54C201.282 77.9314 200.977 77.3716 200.548 76.913C200.12 76.4544 199.582 76.1119 198.985 75.9175C198.96 75.912 198.935 75.9127 198.911 75.9196C198.887 75.9264 198.865 75.9391 198.847 75.9566C198.829 75.9741 198.815 75.9958 198.808 76.0197C198.8 76.0436 198.799 76.0691 198.804 76.0937C199.257 78.3236 200.898 78.7112 201.23 78.7665C201.461 79.0635 201.733 79.3907 202.055 79.7431C201.266 79.3905 200.389 79.2852 199.538 79.4411C199.514 79.4488 199.491 79.4625 199.473 79.4809C199.454 79.4993 199.441 79.5219 199.433 79.5468C199.426 79.5721 199.425 79.5988 199.432 79.6243C199.438 79.6498 199.45 79.6733 199.468 79.6927C199.9 80.1853 200.461 80.5476 201.088 80.7387C201.715 80.9299 202.383 80.9425 203.017 80.775C203.304 81.0669 203.601 81.3639 203.918 81.671C202.853 81.3661 201.717 81.4336 200.696 81.8622C200.672 81.8744 200.652 81.8931 200.637 81.9162C200.623 81.9393 200.616 81.966 200.616 81.9931C200.615 82.0198 200.621 82.0463 200.634 82.07C200.646 82.0937 200.664 82.114 200.686 82.129C201.262 82.4854 201.921 82.6854 202.599 82.7092C203.276 82.733 203.947 82.5799 204.547 82.2649C204.97 82.6609 205.413 83.0586 205.876 83.4579C204.844 82.9925 203.677 82.9243 202.599 83.2666C202.574 83.2761 202.552 83.2925 202.536 83.3139C202.52 83.3353 202.51 83.3608 202.508 83.3874C202.506 83.4136 202.509 83.4401 202.519 83.4646C202.529 83.4891 202.544 83.511 202.564 83.5284C203.094 83.9571 203.732 84.231 204.408 84.3198C205.084 84.4086 205.771 84.3089 206.394 84.0317C206.406 84.0341 206.418 84.0341 206.43 84.0317C206.448 84.0168 206.461 83.9952 206.465 83.9713L207.034 84.4344C207.05 84.4568 207.073 84.4742 207.099 84.4848C207.401 84.7264 207.708 84.963 208.02 85.1945C208.048 85.2179 208.082 85.2308 208.118 85.2308C208.154 85.2308 208.189 85.2179 208.216 85.1945C208.229 85.1789 208.238 85.1609 208.244 85.1416C208.249 85.1223 208.25 85.1021 208.247 85.0822C208.245 85.0624 208.238 85.0434 208.227 85.0263C208.217 85.0093 208.203 84.9946 208.186 84.9831L207.331 84.3237C207.593 83.7247 207.688 83.0655 207.606 82.4166C207.524 81.7677 207.267 81.1534 206.862 80.6391C206.852 80.6117 206.835 80.5878 206.811 80.57C206.788 80.5522 206.761 80.5413 206.732 80.5384Z" fill="white"/>
<path opacity="0.2" d="M184.599 81.1072C184.573 81.1094 184.548 81.1185 184.527 81.1335C184.505 81.1486 184.488 81.169 184.478 81.1928C184.119 82.1933 184.128 83.2889 184.503 84.2834C184.156 83.9965 183.818 83.7046 183.496 83.4126C183.781 82.807 183.892 82.1342 183.816 81.4694C183.741 80.8045 183.482 80.1737 183.068 79.6474C183.052 79.627 183.03 79.6111 183.006 79.6011C182.982 79.5912 182.955 79.5876 182.929 79.5906C182.903 79.5936 182.878 79.6032 182.857 79.6184C182.835 79.6336 182.818 79.654 182.807 79.6776C182.441 80.709 182.464 81.8385 182.872 82.8539C182.419 82.4361 181.991 82.0284 181.594 81.6307C181.891 81.0215 182.01 80.3408 181.938 79.6668C181.866 78.9928 181.605 78.3527 181.186 77.8202C181.17 77.7994 181.15 77.7832 181.126 77.7734C181.102 77.7637 181.075 77.7607 181.05 77.7649C181.024 77.7659 180.998 77.7746 180.977 77.7897C180.955 77.8049 180.939 77.826 180.929 77.8504C180.561 78.8814 180.584 80.0117 180.995 81.0267C180.398 80.4168 179.834 79.7767 179.303 79.1088C179.148 78.501 178.842 77.9421 178.413 77.4837C177.985 77.0254 177.448 76.6824 176.852 76.4863C176.827 76.4814 176.801 76.4825 176.776 76.4895C176.752 76.4965 176.729 76.5092 176.711 76.5266C176.695 76.545 176.683 76.5667 176.676 76.5902C176.669 76.6136 176.667 76.6383 176.671 76.6625C177.124 78.8924 178.765 79.28 179.097 79.3353C179.328 79.6323 179.6 79.9595 179.922 80.3421C179.135 79.9845 178.256 79.879 177.406 80.0401C177.381 80.0465 177.358 80.0592 177.34 80.0768C177.321 80.0944 177.307 80.1164 177.3 80.1407C177.293 80.1661 177.293 80.1927 177.299 80.2182C177.305 80.2438 177.317 80.2673 177.335 80.2867C177.764 80.7836 178.325 81.149 178.953 81.3405C179.581 81.532 180.25 81.5419 180.884 81.3689C181.171 81.6609 181.468 81.9629 181.785 82.27C180.721 81.9602 179.583 82.0278 178.563 82.4613C178.539 82.4726 178.519 82.4904 178.505 82.5126C178.491 82.5349 178.483 82.5607 178.483 82.5871C178.482 82.6139 178.488 82.6405 178.5 82.6643C178.512 82.6881 178.531 82.7083 178.553 82.723C179.129 83.0811 179.788 83.2825 180.465 83.3073C181.142 83.332 181.814 83.1791 182.414 82.8639C182.837 83.2566 183.28 83.6542 183.743 84.0519C182.711 83.5876 181.544 83.5213 180.466 83.8656C180.442 83.8747 180.42 83.8903 180.404 83.9108C180.388 83.9312 180.378 83.9556 180.375 83.9814C180.372 84.0077 180.375 84.0344 180.385 84.059C180.394 84.0837 180.41 84.1055 180.431 84.1223C180.961 84.5511 181.599 84.8249 182.275 84.9138C182.951 85.0026 183.638 84.9029 184.261 84.6257C184.273 84.628 184.285 84.628 184.297 84.6257C184.314 84.612 184.327 84.5924 184.332 84.5703L184.901 85.0334C184.918 85.0558 184.94 85.0732 184.966 85.0838C185.273 85.3254 185.575 85.562 185.887 85.7986C185.915 85.822 185.949 85.8348 185.985 85.8348C186.021 85.8348 186.056 85.822 186.084 85.7986C186.096 85.783 186.105 85.765 186.111 85.7456C186.116 85.7263 186.117 85.7061 186.114 85.6863C186.112 85.6665 186.105 85.6474 186.094 85.6304C186.084 85.6133 186.07 85.5986 186.053 85.5871L185.198 84.9277C185.46 84.3278 185.555 83.6679 185.473 83.0183C185.39 82.3686 185.134 81.7534 184.729 81.2381C184.727 81.2041 184.713 81.1722 184.689 81.1481C184.664 81.1241 184.633 81.1095 184.599 81.1072Z" fill="white"/>
<path opacity="0.2" d="M196.73 59.9004C196.704 59.9041 196.679 59.9143 196.658 59.9301C196.637 59.946 196.62 59.9669 196.609 59.991C196.257 60.9929 196.267 62.0869 196.639 63.0817C196.292 62.7897 195.95 62.5028 195.633 62.2109C195.916 61.6047 196.026 60.9318 195.949 60.267C195.873 59.6022 195.613 58.9717 195.2 58.4457C195.184 58.4251 195.163 58.4088 195.139 58.3983C195.116 58.3877 195.09 58.3833 195.064 58.3853C195.037 58.3874 195.012 58.397 194.99 58.4131C194.969 58.4291 194.952 58.4509 194.943 58.4759C194.577 59.5055 194.6 60.6335 195.008 61.6471C194.555 61.2343 194.122 60.8216 193.725 60.4239C194.022 59.8147 194.142 59.134 194.069 58.46C193.997 57.786 193.737 57.146 193.317 56.6134C193.302 56.5925 193.281 56.5759 193.257 56.5653C193.233 56.5548 193.207 56.5505 193.181 56.553C193.155 56.5551 193.129 56.5648 193.108 56.5808C193.086 56.5968 193.07 56.6186 193.06 56.6436C192.694 57.675 192.718 58.8045 193.126 59.8199C192.436 59.1001 191.862 58.4457 191.435 57.9021C191.281 57.2934 190.975 56.7336 190.547 56.275C190.118 55.8164 189.58 55.4739 188.983 55.2795C188.959 55.2753 188.934 55.2769 188.91 55.2842C188.887 55.2914 188.865 55.3042 188.848 55.3214C188.83 55.3386 188.817 55.3597 188.809 55.3831C188.801 55.4064 188.798 55.4313 188.802 55.4557C189.255 57.6856 190.901 58.0732 191.228 58.1286C191.465 58.4256 191.732 58.7527 192.054 59.1051C191.265 58.7513 190.387 58.6459 189.537 58.8031C189.512 58.8109 189.489 58.8245 189.471 58.8429C189.453 58.8613 189.439 58.8839 189.431 58.9088C189.424 58.9337 189.422 58.9601 189.428 58.9856C189.433 59.0111 189.445 59.0349 189.461 59.0548C189.894 59.5483 190.456 59.911 191.084 60.1023C191.712 60.2935 192.381 60.3055 193.015 60.137C193.297 60.429 193.599 60.7259 193.916 61.033C192.85 60.7282 191.712 60.7957 190.69 61.2243C190.667 61.238 190.647 61.257 190.633 61.2798C190.619 61.3026 190.611 61.3285 190.609 61.3551C190.609 61.3824 190.615 61.4093 190.629 61.4332C190.642 61.457 190.661 61.477 190.685 61.4911C191.259 61.8489 191.918 62.0498 192.594 62.0736C193.271 62.0975 193.942 61.9435 194.54 61.627C194.963 62.0246 195.411 62.4223 195.874 62.8199C194.843 62.3545 193.676 62.2864 192.597 62.6287C192.572 62.6388 192.55 62.6553 192.534 62.6764C192.517 62.6976 192.506 62.7228 192.502 62.7495C192.499 62.7762 192.503 62.8032 192.513 62.8279C192.524 62.8526 192.541 62.8741 192.562 62.8904C193.091 63.3192 193.729 63.5932 194.404 63.682C195.079 63.7709 195.766 63.6711 196.388 63.3938L196.428 63.3686C196.444 63.3519 196.454 63.3309 196.458 63.3082L197.027 63.7713C197.046 63.794 197.07 63.8114 197.097 63.8216C197.399 64.0632 197.706 64.2998 198.019 64.5314C198.046 64.5548 198.081 64.5676 198.117 64.5676C198.153 64.5676 198.187 64.5548 198.215 64.5314C198.239 64.4993 198.249 64.4591 198.244 64.4194C198.238 64.3798 198.217 64.344 198.185 64.32C197.893 64.1035 197.611 63.8871 197.329 63.6606C197.592 63.0615 197.687 62.4024 197.604 61.7535C197.522 61.1046 197.265 60.4902 196.861 59.9759C196.847 59.9539 196.827 59.9356 196.804 59.9224C196.782 59.9093 196.756 59.9018 196.73 59.9004Z" fill="white"/>
<path opacity="0.2" d="M191.948 69.4644C191.974 69.4622 191.998 69.4531 192.02 69.438C192.041 69.423 192.058 69.4025 192.068 69.3788C192.427 68.3783 192.418 67.2827 192.043 66.2881C192.391 66.575 192.728 66.867 193.05 67.1589C192.765 67.7645 192.654 68.4373 192.73 69.1022C192.806 69.7671 193.064 70.3979 193.478 70.9241C193.494 70.9445 193.516 70.9605 193.54 70.9704C193.564 70.9803 193.591 70.984 193.617 70.981C193.643 70.9779 193.668 70.9684 193.689 70.9532C193.711 70.938 193.728 70.9176 193.74 70.8939C194.106 69.8626 194.082 68.7331 193.674 67.7177C194.127 68.1338 194.555 68.5415 194.958 68.9409C194.66 69.5501 194.541 70.2308 194.613 70.9048C194.685 71.5788 194.946 72.2188 195.365 72.7513C195.382 72.7718 195.403 72.7877 195.428 72.7976C195.452 72.8075 195.479 72.8112 195.505 72.8082C195.531 72.8052 195.556 72.7956 195.577 72.7804C195.599 72.7652 195.616 72.7448 195.627 72.7211C195.994 71.6896 195.969 70.5592 195.557 69.5449C196.153 70.1548 196.717 70.7949 197.248 71.4627C197.404 72.0713 197.71 72.6308 198.14 73.0893C198.569 73.5477 199.107 73.8903 199.704 74.0852C199.729 74.0902 199.754 74.0891 199.777 74.082C199.801 74.075 199.823 74.0623 199.84 74.045C199.858 74.0263 199.87 74.0039 199.877 73.9793C199.884 73.9548 199.886 73.929 199.881 73.904C199.433 71.6792 197.787 71.2916 197.454 71.2362C197.223 70.9392 196.951 70.612 196.629 70.2295C197.417 70.5871 198.296 70.6926 199.146 70.5315C199.17 70.525 199.193 70.5124 199.212 70.4948C199.23 70.4772 199.244 70.4552 199.251 70.4308C199.258 70.4055 199.259 70.3788 199.253 70.3533C199.246 70.3278 199.234 70.3042 199.216 70.2848C198.787 69.7879 198.226 69.4226 197.598 69.2311C196.97 69.0396 196.301 69.0297 195.667 69.2026C195.386 68.9107 195.084 68.6086 194.766 68.3016C195.83 68.6114 196.968 68.5438 197.988 68.1103C198.012 68.0981 198.033 68.0794 198.047 68.0563C198.061 68.0332 198.069 68.0066 198.069 67.9794C198.07 67.9532 198.064 67.9271 198.052 67.9039C198.039 67.8808 198.021 67.8616 197.998 67.8486C197.423 67.4904 196.764 67.289 196.086 67.2643C195.409 67.2396 194.737 67.3924 194.137 67.7076C193.714 67.315 193.271 66.9173 192.808 66.5197C193.841 66.9816 195.007 67.0479 196.085 66.7059C196.11 66.6968 196.131 66.6812 196.147 66.6608C196.163 66.6404 196.173 66.6159 196.176 66.5901C196.18 66.5638 196.178 66.5368 196.168 66.5119C196.158 66.4871 196.142 66.4654 196.12 66.4492C195.591 66.0189 194.953 65.7441 194.276 65.6552C193.6 65.5663 192.912 65.6669 192.29 65.9458C192.278 65.9435 192.266 65.9435 192.255 65.9458C192.24 65.9623 192.228 65.981 192.219 66.0012L191.651 65.5381C191.635 65.5147 191.612 65.4971 191.585 65.4878C191.283 65.2462 190.976 64.9844 190.664 64.773C190.637 64.7496 190.602 64.7367 190.566 64.7367C190.53 64.7367 190.495 64.7496 190.468 64.773C190.444 64.805 190.433 64.8453 190.439 64.885C190.445 64.9246 190.466 64.9604 190.498 64.9844L191.354 65.6438C191.091 66.2437 190.996 66.9036 191.078 67.5533C191.161 68.203 191.418 68.8181 191.822 69.3335C191.826 69.3657 191.841 69.3956 191.864 69.4191C191.886 69.4426 191.916 69.4584 191.948 69.4644Z" fill="white"/>
</g>
<path d="M194.158 73.7933L160.433 77.196C159.533 77.2876 158.707 77.7323 158.135 78.4325C157.563 79.1328 157.292 80.0314 157.382 80.931L158.54 92.4631C159.418 91.8406 160.445 91.4594 161.516 91.3574C162.588 91.2554 163.668 91.4362 164.648 91.8818C165.628 92.3275 166.474 93.0223 167.101 93.8969C167.729 94.7716 168.116 95.7956 168.224 96.8667C168.333 97.9378 168.158 99.0186 167.718 100.001C167.278 100.984 166.589 101.834 165.718 102.467C164.847 103.099 163.825 103.493 162.754 103.607C161.684 103.722 160.602 103.553 159.617 103.119L160.78 114.651C160.873 115.551 161.318 116.377 162.017 116.949C162.717 117.522 163.615 117.794 164.515 117.707L198.24 114.309C199.14 114.215 199.966 113.769 200.538 113.069C201.111 112.368 201.383 111.47 201.296 110.569L197.898 76.8437C197.803 75.9449 197.356 75.1201 196.656 74.5488C195.955 73.9775 195.058 73.706 194.158 73.7933Z" fill="#378FED"/>
<path opacity="0.3" d="M194.158 73.7933L160.433 77.196C159.533 77.2876 158.707 77.7323 158.135 78.4325C157.563 79.1328 157.292 80.0314 157.382 80.931L158.54 92.4631C159.418 91.8406 160.445 91.4594 161.516 91.3574C162.588 91.2554 163.668 91.4362 164.648 91.8818C165.628 92.3275 166.474 93.0223 167.101 93.8969C167.729 94.7716 168.116 95.7956 168.224 96.8667C168.333 97.9378 168.158 99.0186 167.718 100.001C167.278 100.984 166.589 101.834 165.718 102.467C164.847 103.099 163.825 103.493 162.754 103.607C161.684 103.722 160.602 103.553 159.617 103.119L160.78 114.651C160.873 115.551 161.318 116.377 162.017 116.949C162.717 117.522 163.615 117.794 164.515 117.707L198.24 114.309C199.14 114.215 199.966 113.769 200.538 113.069C201.111 112.368 201.383 111.47 201.296 110.569L197.898 76.8437C197.803 75.9449 197.356 75.1201 196.656 74.5488C195.955 73.9775 195.058 73.706 194.158 73.7933Z" fill="black"/>
<path d="M203.36 84.1374L201.799 83.4579L198.135 84.3942C197.715 84.5041 197.343 84.7501 197.078 85.0938L196.303 86.1006C196.137 86.3211 196.054 86.592 196.066 86.8673C196.078 87.1426 196.184 87.4052 196.368 87.6107L197.244 88.5771C197.454 88.8073 197.745 88.9466 198.056 88.9654C198.368 88.9842 198.674 88.881 198.91 88.6778L200.898 86.9714C200.898 86.9714 203.294 85.8489 203.36 84.1374Z" fill="#FFB573"/>
<path d="M171.592 77.8504L173.213 77.644C173.431 77.6193 173.636 77.5238 173.795 77.372C173.954 77.2202 174.059 77.0205 174.094 76.8034L174.315 75.5148C174.345 75.3614 174.338 75.2031 174.296 75.0526C174.254 74.9021 174.177 74.7635 174.072 74.6478C173.967 74.532 173.837 74.4423 173.691 74.3857C173.545 74.3292 173.389 74.3073 173.233 74.3218L171.34 74.4577C171.074 74.472 170.824 74.5914 170.646 74.7896C170.468 74.9877 170.375 75.2485 170.389 75.5148L170.439 76.8739C170.442 77.0168 170.475 77.1574 170.537 77.2865C170.598 77.4156 170.686 77.5301 170.795 77.6225C170.904 77.7149 171.032 77.783 171.169 77.8223C171.306 77.8616 171.451 77.8712 171.592 77.8504Z" fill="#FFB573"/>
<path d="M196.816 40.8581C192.819 42.8716 185.797 41.9454 185.797 41.9454C185.797 41.9454 189.714 35.5426 196.816 40.8581Z" fill="#263238"/>
<path d="M126.486 168.572L124.478 179.027L119.394 177.799L121.402 167.344L126.486 168.572Z" fill="#7F3E3B"/>
<path d="M119.554 175.674L125.207 176.903C125.295 176.92 125.373 176.969 125.426 177.041C125.479 177.112 125.503 177.201 125.494 177.29L125.102 181.443C125.089 181.547 125.054 181.648 125 181.738C124.946 181.828 124.874 181.906 124.788 181.966C124.703 182.027 124.605 182.069 124.502 182.09C124.399 182.111 124.293 182.11 124.19 182.087C122.414 181.67 121.885 181.408 119.635 180.92C117.012 180.341 116.081 180.497 113.001 179.822C111.138 179.414 111.224 177.461 112.059 177.456C114.266 177.462 116.435 176.883 118.346 175.78C118.721 175.592 119.153 175.555 119.554 175.674Z" fill="#263238"/>
<path opacity="0.2" d="M126.491 168.577L125.454 173.963L120.365 172.735L121.402 167.344L126.491 168.577Z" fill="black"/>
<path d="M135.335 128.308C141.3 110.76 146.021 90.052 146.021 90.052L129.008 88.9748C129.008 88.9748 126.491 115.844 125.192 128.237C123.833 141.113 119.61 170.183 119.61 170.183L127.286 171.738C127.286 171.738 134.484 144.365 135.335 128.308Z" fill="#263238"/>
<path opacity="0.2" d="M138.174 99.8173L142.302 104.921C141.249 108.863 140.021 113.292 138.672 117.818C137.898 111.85 137.731 105.819 138.174 99.8173Z" fill="#263238"/>
<path d="M119.721 171.275L126.768 172.815C126.908 172.847 127.055 172.825 127.181 172.754C127.306 172.684 127.401 172.569 127.447 172.433L128.223 170.163C128.249 170.086 128.26 170.004 128.253 169.923C128.246 169.842 128.222 169.763 128.183 169.692C128.143 169.62 128.089 169.558 128.024 169.509C127.959 169.46 127.884 169.426 127.805 169.408L120.159 167.621C120.078 167.602 119.995 167.6 119.914 167.615C119.832 167.631 119.756 167.664 119.688 167.711C119.62 167.759 119.564 167.82 119.522 167.891C119.48 167.963 119.453 168.042 119.444 168.124L119.268 170.641C119.252 170.784 119.289 170.928 119.373 171.045C119.457 171.162 119.58 171.244 119.721 171.275Z" fill="#263238"/>
<path opacity="0.1" d="M119.721 171.275L126.768 172.815C126.908 172.847 127.055 172.825 127.181 172.754C127.306 172.684 127.401 172.569 127.447 172.433L128.223 170.163C128.249 170.086 128.26 170.004 128.253 169.923C128.246 169.842 128.222 169.763 128.183 169.692C128.143 169.62 128.089 169.558 128.024 169.509C127.959 169.46 127.884 169.426 127.805 169.408L120.159 167.621C120.078 167.602 119.995 167.6 119.914 167.615C119.832 167.631 119.756 167.664 119.688 167.711C119.62 167.759 119.564 167.82 119.522 167.891C119.48 167.963 119.453 168.042 119.444 168.124L119.268 170.641C119.252 170.784 119.289 170.928 119.373 171.045C119.457 171.162 119.58 171.244 119.721 171.275Z" fill="white"/>
<path d="M154.473 168.21L154.79 178.997L149.631 178.926L149.313 168.139L154.473 168.21Z" fill="#7F3E3B"/>
<path d="M149.5 176.711L154.987 176.792C155.076 176.791 155.162 176.824 155.228 176.884C155.294 176.943 155.335 177.025 155.344 177.114L155.787 181.262C155.795 181.367 155.782 181.472 155.747 181.572C155.712 181.671 155.657 181.762 155.585 181.839C155.513 181.916 155.426 181.977 155.329 182.018C155.232 182.059 155.127 182.079 155.022 182.077C153.2 182.022 152.626 181.871 150.325 181.836C147.637 181.79 147.059 182.128 143.908 182.082C142 182.052 141.693 180.119 142.508 179.948C144.673 179.515 146.686 178.519 148.342 177.059C148.67 176.8 149.084 176.676 149.5 176.711Z" fill="#263238"/>
<path opacity="0.2" d="M154.478 168.215L154.639 173.772L149.475 173.701L149.313 168.139L154.478 168.215Z" fill="black"/>
<path d="M153.189 127.95C151.73 109.492 152.963 99.5354 150.818 90.3691L135.335 89.4077C135.335 89.4077 140.142 116.539 142.795 128.811C145.448 141.083 148.302 170.892 148.302 170.892L155.913 170.988C155.913 170.988 156.844 142.352 153.189 127.95Z" fill="#263238"/>
<path d="M148.322 172.262L155.525 172.372C155.674 172.374 155.818 172.319 155.927 172.218C156.037 172.116 156.104 171.977 156.114 171.829L156.27 169.453C156.276 169.374 156.266 169.295 156.241 169.221C156.215 169.146 156.175 169.078 156.122 169.019C156.07 168.961 156.006 168.914 155.934 168.881C155.862 168.848 155.785 168.83 155.706 168.829L147.869 168.587C147.782 168.584 147.695 168.601 147.615 168.636C147.535 168.671 147.464 168.723 147.408 168.79C147.351 168.856 147.31 168.934 147.288 169.019C147.266 169.103 147.263 169.191 147.28 169.277L147.783 171.793C147.81 171.919 147.877 172.033 147.974 172.117C148.071 172.202 148.193 172.252 148.322 172.262Z" fill="#263238"/>
<path opacity="0.1" d="M148.322 172.262L155.525 172.372C155.674 172.374 155.818 172.319 155.927 172.218C156.037 172.116 156.104 171.977 156.114 171.829L156.27 169.453C156.276 169.374 156.266 169.295 156.241 169.221C156.215 169.146 156.175 169.078 156.122 169.019C156.07 168.961 156.006 168.914 155.934 168.881C155.862 168.848 155.785 168.83 155.706 168.829L147.869 168.587C147.782 168.584 147.695 168.601 147.615 168.636C147.535 168.671 147.464 168.723 147.408 168.79C147.351 168.856 147.31 168.934 147.288 169.019C147.266 169.103 147.263 169.191 147.28 169.277L147.783 171.793C147.81 171.919 147.877 172.033 147.974 172.117C148.071 172.202 148.193 172.252 148.322 172.262Z" fill="white"/>
<path d="M134.837 61.0129C134.243 62.2965 133.623 63.4341 132.949 64.6069C132.274 65.7798 131.565 66.9174 130.779 68.0348C129.986 69.1886 129.118 70.2899 128.182 71.3319C127.144 72.5316 125.926 73.5638 124.573 74.3923L124.397 74.493C124.096 74.6701 123.761 74.7813 123.414 74.8195C123.067 74.8577 122.716 74.8219 122.383 74.7145C121.402 74.3974 120.45 74.04 119.519 73.6574C118.588 73.2749 117.682 72.852 116.791 72.4091C115.9 71.9661 115.029 71.498 114.173 70.9946C113.318 70.4913 112.482 69.9879 111.657 69.3788C111.361 69.1692 111.148 68.863 111.054 68.5131C110.96 68.1631 110.991 67.7914 111.142 67.462C111.293 67.1326 111.555 66.8663 111.881 66.7089C112.207 66.5516 112.578 66.5132 112.93 66.6002H112.986C113.887 66.8167 114.818 67.0784 115.724 67.315L118.447 68.0348C119.348 68.2815 120.254 68.4879 121.145 68.7093C122.036 68.9308 122.927 69.102 123.803 69.2832L121.633 69.6104C122.387 68.9853 123.063 68.2722 123.647 67.4862C124.336 66.6002 125.001 65.6237 125.66 64.617C126.32 63.6103 126.919 62.5582 127.513 61.4911C128.107 60.424 128.711 59.3216 129.244 58.3048L129.274 58.2494C129.676 57.5812 130.314 57.0886 131.062 56.8698C131.81 56.6509 132.613 56.7218 133.311 57.0683C134.009 57.4149 134.551 58.0116 134.829 58.7398C135.107 59.468 135.101 60.2741 134.811 60.9978L134.837 61.0129Z" fill="#7F3E3B"/>
<path d="M136.075 52.2141C130.065 52.8986 125.504 62.2059 125.504 62.2059L131.706 68.805C131.706 68.805 134.469 65.513 137.439 61.3501C140.681 56.8148 140.832 51.6755 136.075 52.2141Z" fill="#378FED"/>
<path d="M135.335 53.6084C137.646 52.7879 147.995 54.1118 147.995 54.1118C145.981 56.7091 144.3 78.2179 144.114 90.5806C141.914 90.8826 133.478 90.3037 131.53 89.8507C131.781 84.9982 133.805 62.2361 135.335 53.6084Z" fill="white"/>
<path d="M128.655 60.132C128.927 57.8953 130.01 55.8361 131.7 54.3458C133.39 52.8554 135.569 52.0377 137.822 52.048C142.146 52.0825 146.455 52.5582 150.683 53.4674C151.341 53.6068 151.965 53.8768 152.517 54.2614C153.069 54.6461 153.539 55.1376 153.898 55.7068C154.257 56.2761 154.498 56.9116 154.607 57.5757C154.716 58.2398 154.691 58.919 154.533 59.5733C151.347 72.9376 152.188 85.6174 151.337 91.5168C148.304 92.632 145.083 93.1449 141.854 93.0269C141.854 93.0269 141.929 87.9379 142.639 79.3454C143.203 72.5148 144.214 56.4524 146.298 53.7846C146.298 53.7846 138.828 52.7778 136.518 53.5883C134.801 63.278 133.543 92.6293 133.543 92.6343C129.889 92.3725 128.167 90.3389 128.222 89.7349C127.483 77.8605 127.855 67.0935 128.655 60.132Z" fill="#378FED"/>
<path d="M146.565 45.2676C145.865 47.2811 145.055 50.8499 146.348 52.8533C146.414 52.9464 146.458 53.0529 146.478 53.1651C146.497 53.2773 146.492 53.3924 146.461 53.5022C146.431 53.6119 146.377 53.7136 146.302 53.7999C146.228 53.8861 146.135 53.9548 146.031 54.001C143.952 55.2004 141.549 55.718 139.16 55.4809C135.914 55.2192 136.14 53.7544 136.976 52.803C137.173 52.5833 137.447 52.4466 137.741 52.4204C140.806 52.053 140.836 50.2056 140.394 48.3935L146.565 45.2676Z" fill="#7F3E3B"/>
<path opacity="0.2" d="M144.048 46.5512L140.399 48.4086C140.514 48.8376 140.58 49.2784 140.595 49.7224C141.924 49.7224 143.807 48.8315 144.023 47.8096C144.134 47.3985 144.143 46.9664 144.048 46.5512Z" fill="black"/>
<path d="M141.698 38.2691C141.835 36.4533 140.848 34.8984 139.492 34.796C138.137 34.6936 136.927 36.0825 136.789 37.8982C136.652 39.714 137.64 41.2689 138.995 41.3713C140.351 41.4737 141.561 40.0848 141.698 38.2691Z" fill="#263238"/>
<path d="M148.538 39.7658C147.864 43.7374 147.668 46.0982 145.463 47.9455C142.146 50.7191 137.49 48.3734 136.986 44.281C136.528 40.6014 137.706 34.7171 141.723 33.5292C145.74 32.3412 149.213 35.7893 148.538 39.7658Z" fill="#7F3E3B"/>
<path d="M147.673 43.1233C147.622 43.1233 147.562 43.0579 147.507 43.0881C145.705 44.0948 145.121 41.9303 145.231 40.4907C145.268 40.0104 145.406 39.5434 145.636 39.1201C145.866 38.6968 146.183 38.3268 146.565 38.0343C144.612 38.2558 142.72 36.9973 142.689 35.8245C140.53 36.7759 137.928 36.8312 136.755 34.8178C135.582 32.8043 137.258 30.1717 139.493 30.8714C138.587 29.2506 142.418 26.0089 146.429 30.7909C146.555 27.3227 152.163 30.7909 151.242 34.1986C153.839 35.0946 156.064 40.0276 151.659 41.0796C151.367 45.6502 147.673 43.1233 147.673 43.1233Z" fill="#263238"/>
<path d="M149.797 44.3716C149.187 45.1197 148.317 45.6089 147.361 45.7408C146.152 45.8767 145.886 44.6485 146.505 43.531C147.064 42.5243 148.362 41.2457 149.439 41.6384C150.517 42.031 150.582 43.4152 149.797 44.3716Z" fill="#7F3E3B"/>
<path d="M142.78 40.0628C142.749 40.395 142.553 40.6417 142.337 40.6216C142.12 40.6014 141.969 40.3195 141.999 39.9873C142.03 39.6551 142.226 39.4135 142.442 39.4336C142.659 39.4538 142.805 39.7356 142.78 40.0628Z" fill="#263238"/>
<path d="M138.879 39.6299C138.849 39.9571 138.652 40.2038 138.436 40.1836C138.219 40.1635 138.073 39.8816 138.099 39.5544C138.124 39.2273 138.325 38.9756 138.541 38.9957C138.758 39.0158 138.929 39.2977 138.879 39.6299Z" fill="#263238"/>
<path d="M140.404 39.8162C139.923 40.7812 139.312 41.6755 138.587 42.474C138.796 42.656 139.042 42.7903 139.308 42.8677C139.574 42.9451 139.853 42.9636 140.127 42.9219L140.404 39.8162Z" fill="#630F0F"/>
<path d="M141.144 44.5227C141.509 44.5483 141.876 44.4995 142.222 44.3792C142.568 44.259 142.886 44.0697 143.157 43.823C143.166 43.8137 143.173 43.8028 143.178 43.7908C143.182 43.7789 143.185 43.7661 143.184 43.7532C143.184 43.7404 143.181 43.7277 143.176 43.7159C143.171 43.7041 143.164 43.6935 143.155 43.6846C143.145 43.6756 143.134 43.6686 143.122 43.6639C143.11 43.6592 143.098 43.6569 143.085 43.6571C143.072 43.6574 143.059 43.6601 143.047 43.6653C143.036 43.6704 143.025 43.6778 143.016 43.6871C142.71 43.9583 142.343 44.1531 141.947 44.2554C141.55 44.3578 141.135 44.3648 140.736 44.276C140.724 44.2731 140.711 44.2727 140.698 44.275C140.686 44.2773 140.674 44.2822 140.664 44.2893C140.653 44.2964 140.645 44.3056 140.638 44.3163C140.631 44.327 140.627 44.339 140.625 44.3515C140.621 44.3768 140.626 44.4029 140.64 44.4244C140.654 44.4459 140.676 44.4613 140.701 44.4673C140.862 44.4925 141.003 44.5126 141.144 44.5227Z" fill="#263238"/>
<path d="M144.068 39.2625C144.1 39.2698 144.132 39.2698 144.164 39.2625C144.187 39.2522 144.208 39.2373 144.226 39.2187C144.243 39.2001 144.257 39.1782 144.266 39.1543C144.275 39.1304 144.279 39.1049 144.278 39.0794C144.277 39.0539 144.27 39.0289 144.26 39.0058C144.141 38.721 143.957 38.4682 143.723 38.2678C143.489 38.0675 143.21 37.9254 142.911 37.8531C142.86 37.8458 142.808 37.8585 142.767 37.8886C142.726 37.9187 142.698 37.9637 142.689 38.0141C142.682 38.0648 142.694 38.1162 142.725 38.1576C142.755 38.199 142.8 38.227 142.85 38.2356C143.086 38.2966 143.305 38.4121 143.489 38.573C143.672 38.7338 143.816 38.9355 143.907 39.1618C143.924 39.1903 143.947 39.2143 143.975 39.2318C144.003 39.2493 144.035 39.2598 144.068 39.2625Z" fill="#263238"/>
<path d="M137.243 38.0242C137.274 38.0325 137.307 38.0332 137.339 38.0262C137.37 38.0192 137.399 38.0047 137.424 37.9839C137.604 37.8214 137.819 37.7034 138.052 37.6396C138.286 37.5757 138.531 37.5678 138.768 37.6165C138.817 37.6305 138.869 37.6245 138.914 37.6C138.958 37.5755 138.991 37.5343 139.005 37.4856C139.019 37.4362 139.013 37.3833 138.989 37.3381C138.964 37.2929 138.923 37.2591 138.874 37.244C138.574 37.1758 138.263 37.1809 137.966 37.2589C137.669 37.3369 137.395 37.4855 137.168 37.692C137.15 37.7098 137.135 37.7309 137.126 37.7543C137.116 37.7776 137.111 37.8026 137.111 37.8279C137.111 37.8532 137.116 37.8782 137.126 37.9015C137.135 37.9248 137.15 37.946 137.168 37.9638C137.187 37.9904 137.213 38.0113 137.243 38.0242Z" fill="#263238"/>
<path d="M155.731 59.3014C156.058 59.9407 156.325 60.4944 156.587 61.0934C156.848 61.6924 157.09 62.2713 157.352 62.8653C157.855 64.0532 158.293 65.2613 158.706 66.4845C159.545 68.9585 160.188 71.495 160.629 74.0702L160.765 75.0769L160.835 75.5803V75.7011V75.9226C160.835 76.0836 160.86 76.2447 160.86 76.4259C160.841 77.3434 160.658 78.2501 160.322 79.1038C159.82 80.4074 159.183 81.6543 158.419 82.8237C157.726 83.9183 156.975 84.9752 156.169 85.9899C155.379 86.9997 154.539 87.9691 153.652 88.8943C153.397 89.1642 153.054 89.3337 152.684 89.3718C152.315 89.41 151.944 89.3143 151.639 89.1021C151.335 88.89 151.116 88.5756 151.024 88.2159C150.931 87.8563 150.971 87.4754 151.135 87.1426V87.1023C152.177 84.9328 153.28 82.7381 154.155 80.5988C154.382 80.0653 154.583 79.5317 154.76 79.0132C154.935 78.5291 155.081 78.0349 155.197 77.5333C155.279 77.2215 155.308 76.8983 155.283 76.5769C155.283 76.5769 155.283 76.6071 155.283 76.5769L155.258 76.4763L155.162 76.0585L154.976 75.2279C154.395 72.9738 153.684 70.7553 152.847 68.5835C152.444 67.4761 151.986 66.3838 151.543 65.2865C151.322 64.7428 151.085 64.1992 150.848 63.6606L150.144 62.0901L150.103 61.9995C149.75 61.2586 149.705 60.4074 149.978 59.6334C150.252 58.8593 150.822 58.2257 151.563 57.8719C152.304 57.5181 153.155 57.4732 153.929 57.7469C154.703 58.0207 155.337 58.5907 155.691 59.3316L155.731 59.3014Z" fill="#7F3E3B"/>
<path d="M151.201 53.6084C157.906 55.2997 159.758 63.872 159.758 63.872L151.433 69.8419C151.433 69.8419 149.369 67.6825 148.745 62.6086C148.458 60.1874 149.842 53.543 151.201 53.6084Z" fill="#378FED"/>
<path d="M152.233 86.0754L148.357 87.5251L151.327 91.5017C151.327 91.5017 154.674 89.7651 154.04 87.8372L152.233 86.0754Z" fill="#7F3E3B"/>
<path d="M145.473 88.0889C144.429 87.9134 143.357 88.0105 142.362 88.3708L144.285 76.9444C144.434 76.0521 144.222 75.1373 143.698 74.4004C143.173 73.6636 142.378 73.1647 141.486 73.0131L108.063 67.3855C107.172 67.2382 106.259 67.4493 105.523 67.9727C104.788 68.4961 104.289 69.2893 104.136 70.1792L102.183 81.6307C103.178 81.2656 104.25 81.1684 105.294 81.3488C106.222 81.5045 107.102 81.8711 107.866 82.4204C108.631 82.9696 109.259 83.6869 109.702 84.5169C110.145 85.347 110.392 86.2677 110.424 87.2083C110.456 88.1488 110.271 89.0841 109.885 89.9421C109.498 90.8001 108.92 91.5579 108.194 92.1573C107.469 92.7567 106.615 93.1816 105.7 93.3994C104.784 93.6171 103.831 93.6219 102.913 93.4133C101.996 93.2048 101.138 92.7884 100.407 92.1964L98.4786 103.623C98.33 104.515 98.541 105.43 99.0656 106.167C99.5902 106.904 100.386 107.402 101.277 107.554L134.701 113.182C135.592 113.329 136.506 113.118 137.242 112.595C137.978 112.071 138.478 111.278 138.632 110.388L140.555 98.9565C141.287 99.5392 142.143 99.9471 143.057 100.149C143.971 100.351 144.918 100.342 145.828 100.122C146.738 99.9027 147.585 99.4783 148.306 98.8816C149.027 98.2849 149.603 97.5316 149.989 96.6789C150.374 95.8263 150.561 94.8969 150.533 93.9614C150.505 93.026 150.265 92.1091 149.829 91.2808C149.394 90.4524 148.775 89.7343 148.02 89.1812C147.265 88.628 146.394 88.2545 145.473 88.0889Z" fill="#378FED"/>
<path opacity="0.6" d="M145.473 88.0889C144.429 87.9134 143.357 88.0105 142.362 88.3708L144.285 76.9444C144.434 76.0521 144.222 75.1373 143.698 74.4004C143.173 73.6636 142.378 73.1647 141.486 73.0131L108.063 67.3855C107.172 67.2382 106.259 67.4493 105.523 67.9727C104.788 68.4961 104.289 69.2893 104.136 70.1792L102.183 81.6307C103.178 81.2656 104.25 81.1684 105.294 81.3488C106.222 81.5045 107.102 81.8711 107.866 82.4204C108.631 82.9696 109.259 83.6869 109.702 84.5169C110.145 85.347 110.392 86.2677 110.424 87.2083C110.456 88.1488 110.271 89.0841 109.885 89.9421C109.498 90.8001 108.92 91.5579 108.194 92.1573C107.469 92.7567 106.615 93.1816 105.7 93.3994C104.784 93.6171 103.831 93.6219 102.913 93.4133C101.996 93.2048 101.138 92.7884 100.407 92.1964L98.4786 103.623C98.33 104.515 98.541 105.43 99.0656 106.167C99.5902 106.904 100.386 107.402 101.277 107.554L134.701 113.182C135.592 113.329 136.506 113.118 137.242 112.595C137.978 112.071 138.478 111.278 138.632 110.388L140.555 98.9565C141.287 99.5392 142.143 99.9471 143.057 100.149C143.971 100.351 144.918 100.342 145.828 100.122C146.738 99.9027 147.585 99.4783 148.306 98.8816C149.027 98.2849 149.603 97.5316 149.989 96.6789C150.374 95.8263 150.561 94.8969 150.533 93.9614C150.505 93.026 150.265 92.1091 149.829 91.2808C149.394 90.4524 148.775 89.7343 148.02 89.1812C147.265 88.628 146.394 88.2545 145.473 88.0889Z" fill="white"/>
<path d="M146.545 91.4312L147.818 92.6494C148.063 92.8852 148.385 93.0259 148.724 93.0462C149.064 93.0665 149.399 92.965 149.671 92.7601L151.327 91.5168L148.357 87.5402L146.52 89.3825C146.384 89.5174 146.278 89.678 146.205 89.8549C146.133 90.0317 146.097 90.2212 146.1 90.4122C146.102 90.6032 146.143 90.7917 146.219 90.9668C146.296 91.1418 146.406 91.2997 146.545 91.4312Z" fill="#7F3E3B"/>
<path d="M109.231 68.4576L109.694 66.7412C109.771 66.5393 109.91 66.3667 110.091 66.2475C110.271 66.1284 110.484 66.0687 110.7 66.0767C111.356 66.05 112.011 66.1508 112.628 66.3737L115.246 67.3402L115.12 68.4073C115.014 69.3234 113.993 70.0886 112.835 70.1238C112.058 70.1342 111.282 70.0514 110.524 69.8771L110.242 69.8167C110.082 69.8054 109.926 69.7596 109.785 69.6824C109.644 69.6051 109.521 69.4984 109.425 69.3693C109.329 69.2403 109.262 69.092 109.228 68.9347C109.195 68.7773 109.195 68.6146 109.231 68.4576Z" fill="#7F3E3B"/>
<path d="M67.9994 44.7643C69.6756 42.8162 72.1975 37.7574 67.4558 35.8245C63.9574 34.3949 56.5328 35.1248 52.2693 41.7642C49.3548 42.7709 48.494 49.2543 55.224 50.6184C61.954 51.9825 67.9994 44.7643 67.9994 44.7643Z" fill="#263238"/>
<path d="M83.2066 169.674L75.5151 170.314L76.8189 179.354L83.2468 178.831L83.2066 169.674Z" fill="#FFC3BD"/>
<path opacity="0.2" d="M83.2062 169.679L75.5098 170.319L76.2447 175.382L83.2314 174.804L83.2062 169.679Z" fill="black"/>
<path d="M68.5029 143.061C65.4827 131.484 57.6604 117.702 62.6185 106.562L84.1676 106.497C84.1676 106.497 84.7011 129.425 84.8522 140.222C85.0032 151.513 84.0619 172.755 84.0619 172.755L75.248 173.424C75.248 173.424 69.2076 156.043 68.5029 143.061Z" fill="#378FED"/>
<path d="M74.8101 173.772L84.3338 173.072C84.415 173.065 84.4911 173.029 84.5484 172.971C84.6056 172.913 84.6402 172.836 84.6459 172.755L84.8472 169.231C84.8505 169.182 84.843 169.133 84.8252 169.088C84.8074 169.042 84.7797 169.001 84.7441 168.967C84.7085 168.934 84.6658 168.908 84.6193 168.893C84.5727 168.878 84.5233 168.873 84.4747 168.879L73.904 170.283C73.856 170.289 73.8097 170.304 73.7685 170.33C73.7273 170.355 73.6922 170.389 73.6658 170.429C73.6393 170.47 73.6221 170.516 73.6154 170.563C73.6088 170.611 73.6128 170.66 73.6272 170.706L74.4628 173.535C74.4861 173.608 74.533 173.67 74.5959 173.713C74.6588 173.756 74.7341 173.776 74.8101 173.772Z" fill="#263238"/>
<path opacity="0.2" d="M62.543 117.521C62.4595 120.255 62.5705 122.992 62.8752 125.71C63.9272 129.35 65.2712 132.994 66.4793 136.528C68.0599 126.521 68.0649 114.858 62.543 117.521Z" fill="black"/>
<path d="M54.7361 170.238L47.0145 170.314L47.0044 179.424L53.4575 179.374L54.7361 170.238Z" fill="#FFC3BD"/>
<path d="M46.3954 178.025C46.403 177.974 46.4211 177.926 46.4486 177.883C46.4761 177.839 46.5123 177.802 46.555 177.774C46.5976 177.745 46.6458 177.726 46.6963 177.717C46.7469 177.709 46.7987 177.711 46.8484 177.723C48.7864 178.493 52.4609 177.904 53.8502 177.638C54.0036 177.606 54.1618 177.606 54.315 177.638C54.4683 177.67 54.6134 177.733 54.7412 177.824C55.8776 178.553 57.109 179.122 58.4006 179.515C58.6777 180.256 58.7474 181.058 58.602 181.836H45.585C45.9522 180.588 46.2232 179.314 46.3954 178.025Z" fill="#263238"/>
<path d="M75.9676 178.025C75.9752 177.974 75.9933 177.926 76.0208 177.883C76.0483 177.839 76.0846 177.802 76.1272 177.774C76.1699 177.745 76.2181 177.726 76.2686 177.717C76.3191 177.709 76.3709 177.711 76.4207 177.723C78.3586 178.493 82.0332 177.904 83.4225 177.638C83.5758 177.606 83.734 177.606 83.8873 177.638C84.0406 177.67 84.1856 177.733 84.3134 177.824C85.7933 178.871 89.7397 179.515 89.7397 179.515C90.0169 180.256 90.0848 181.059 89.936 181.836H75.1572C75.5245 180.588 75.7954 179.314 75.9676 178.025Z" fill="#263238"/>
<path opacity="0.2" d="M54.7361 170.243L47.0094 170.314L47.0044 175.418L54.0213 175.357L54.7361 170.243Z" fill="black"/>
<path d="M45.9272 139.316C44.8802 127.623 41.5983 111.873 45.3232 106.497H70.5417C70.5417 106.497 65.4024 129.813 63.2933 140.605C61.1037 151.825 54.8066 173.369 54.8066 173.369L46.4557 173.394C46.4557 173.394 43.2896 152.666 45.9272 139.316Z" fill="#378FED"/>
<path opacity="0.2" d="M47.442 171.003C47.3878 171.002 47.3351 170.984 47.2917 170.952C47.2483 170.919 47.2164 170.874 47.2004 170.822C46.6014 168.809 46.697 145.679 48.2071 139.347C48.2071 138.511 48.0309 136.87 47.8296 134.791C47.14 127.744 45.8614 114.657 47.7692 107.232C47.7859 107.165 47.8284 107.108 47.8874 107.072C47.9464 107.037 48.0171 107.026 48.0838 107.043C48.1506 107.06 48.2079 107.102 48.2433 107.161C48.2787 107.22 48.2893 107.291 48.2726 107.358C46.3849 114.702 47.6585 127.739 48.343 134.746C48.5494 136.86 48.7155 138.526 48.7256 139.372C48.7281 139.393 48.7281 139.415 48.7256 139.437C47.2759 145.427 47.135 168.733 47.7189 170.681C47.7378 170.744 47.7309 170.813 47.6998 170.871C47.6687 170.93 47.6159 170.973 47.5528 170.993C47.5176 171.007 47.4791 171.011 47.442 171.003Z" fill="white"/>
<path d="M45.8766 173.706H55.3348C55.4104 173.708 55.4843 173.683 55.5426 173.635C55.6009 173.587 55.6398 173.519 55.6519 173.445L56.2761 170.087C56.2851 170.036 56.2827 169.984 56.269 169.934C56.2553 169.885 56.2307 169.838 56.1969 169.799C56.1632 169.76 56.1211 169.729 56.0739 169.709C56.0266 169.688 55.9754 169.678 55.9238 169.679L45.6249 170.137C45.5815 170.139 45.5387 170.149 45.4993 170.167C45.4599 170.185 45.4247 170.212 45.3959 170.244C45.3671 170.277 45.3454 170.315 45.3319 170.356C45.3185 170.398 45.3137 170.441 45.3179 170.485L45.5293 173.384C45.5368 173.471 45.5765 173.553 45.6407 173.612C45.7049 173.672 45.789 173.705 45.8766 173.706Z" fill="#263238"/>
<path d="M79.1091 65.7697C79.6125 67.7832 80.0756 69.7966 80.5236 71.8101C80.9715 73.8235 81.3944 75.837 81.787 77.8505L82.391 80.8706L82.9548 83.8908C83.3424 85.9043 83.6847 87.948 84.037 89.9816L83.2166 88.1443C83.3263 88.521 83.5628 88.8482 83.886 89.0705C84.5304 89.5058 85.2565 89.8055 86.0203 89.9514C87.0384 90.1864 88.0768 90.3229 89.121 90.3591C89.6798 90.3893 90.2536 90.4094 90.8325 90.3993C91.1194 90.3993 91.4113 90.3993 91.7033 90.3993C91.9952 90.3993 92.3124 90.3993 92.5137 90.3993L93.2285 90.4497C93.8299 90.4883 94.4025 90.7214 94.8599 91.1138C95.3173 91.5062 95.6347 92.0368 95.7642 92.6253C95.8937 93.2139 95.8284 93.8287 95.578 94.3769C95.3277 94.9251 94.9058 95.377 94.3762 95.6645C93.9735 95.886 93.6866 96.0521 93.3443 96.2283C93.002 96.4045 92.6849 96.5555 92.3375 96.7317C91.663 97.0236 90.9734 97.3005 90.2586 97.532C89.5333 97.7697 88.7956 97.968 88.0489 98.126C87.2623 98.2828 86.4674 98.3937 85.6679 98.4582C84.8043 98.5198 83.9369 98.5063 83.0756 98.418C82.1183 98.3376 81.1747 98.138 80.2668 97.824C79.2483 97.4846 78.2812 97.007 77.3926 96.4045C76.4556 95.7554 75.6208 94.9699 74.9161 94.0739C74.612 93.696 74.3862 93.2614 74.2516 92.7954L74.0956 92.2366C73.5419 90.2534 72.9731 88.2751 72.4496 86.2818L71.6492 83.3019L70.8891 80.3119C70.3858 78.2985 69.8824 76.3152 69.4244 74.3118C68.9663 72.3084 68.5082 70.2849 68.1106 68.2714C67.8256 66.8307 68.1141 65.3356 68.9148 64.1043C69.7154 62.873 70.9649 62.0028 72.3974 61.6788C73.8298 61.3548 75.3322 61.6026 76.5848 62.3694C77.8374 63.1363 78.7412 64.3616 79.1041 65.7848L79.1091 65.7697Z" fill="#FFC3BD"/>
<path d="M92.1611 90.8977L92.2668 94.1494C93.5806 97.3055 97.3458 94.9095 97.3458 94.9095L99.621 94.4917C100.017 94.3908 100.365 94.1531 100.602 93.8205C100.84 93.4879 100.953 93.082 100.92 92.6746L100.859 90.3993C100.875 89.9297 100.706 89.4727 100.389 89.1257C100.072 88.7787 99.632 88.5692 99.1629 88.5419L97.1495 88.5822C96.5619 88.5923 95.986 88.748 95.4733 89.0352L92.1611 90.8977Z" fill="#FFC3BD"/>
<path d="M75.2532 60.1622C79.8841 62.5985 82.9094 71.196 82.9094 71.196C81.9328 75.2229 77.9965 82.567 74.3522 82.5217C74.3522 82.5217 69.0014 75.6205 68.4225 70.6272C67.7178 64.5918 65.8906 55.2393 75.2532 60.1622Z" fill="#263238"/>
<path d="M70.9743 58.7326C63.8275 58.0532 56.6273 58.168 49.5058 59.0749C45.3883 59.6538 42.4587 62.2159 42.962 70.6523C43.9688 87.7668 42.4083 101.106 44.5829 107.257C44.5829 107.257 76.2546 116.318 85.285 107.635C87.4796 87.0419 80.0902 69.9476 76.7278 62.8351C76.2012 61.7152 75.3954 60.7496 74.3878 60.0311C73.3802 59.3126 72.2047 58.8655 70.9743 58.7326Z" fill="#263238"/>
<path d="M68.5936 60.6052C67.7731 59.7998 66.9123 60.2679 66.5147 59.0548C66.3393 58.1025 66.4994 57.1188 66.9677 56.2712L57.1974 50.9959C57.3886 54.59 57.5346 57.4289 55.939 58.8585C55.4759 61.5364 60.4692 64.2093 67.1187 64.2495C71.352 64.2747 69.7765 61.7629 68.5936 60.6052Z" fill="#FFC3BD"/>
<path opacity="0.2" d="M66.8219 56.5732L59.1104 54.6453C61.0584 57.7108 64.5668 59.387 66.4545 58.6471C66.4005 57.9359 66.5269 57.2226 66.8219 56.5732Z" fill="black"/>
<path d="M63.6305 38.9856C58.5264 37.8531 54.1169 42.0914 55.1035 46.7123C56.0901 51.3332 56.8703 54.454 60.0666 56.0245C66.4191 59.1555 69.5198 56.1353 70.0383 51.308C70.5064 46.9589 68.8101 40.1283 63.6305 38.9856Z" fill="#FFC3BD"/>
<path opacity="0.2" d="M62.6286 47.1905C62.0288 47.0404 61.3941 47.1326 60.8618 47.4472C61.4619 47.4789 62.0624 47.3916 62.6286 47.1905Z" fill="black"/>
<path opacity="0.2" d="M62.6639 47.6184C62.3818 47.6051 62.1003 47.6542 61.8393 47.7621C61.5783 47.8699 61.3442 48.034 61.1538 48.2425C61.6965 48.1466 62.2118 47.9336 62.6639 47.6184Z" fill="black"/>
<path d="M55.748 50.6184C58.6021 51.2577 59.7749 49.8281 59.7749 48.2274C59.7749 46.526 58.1692 43.6518 56.4074 43.1233C57.0366 39.3481 67.4412 44.6334 66.4496 39.4034C66.4496 39.4034 66.1677 38.5074 63.4797 38.0041C60.7917 37.5007 53.6087 39.1215 54.1121 44.4925C54.6154 49.8634 55.748 50.6184 55.748 50.6184Z" fill="#263238"/>
<path d="M52.1133 42.031C52.8119 40.6292 53.0091 39.0303 52.672 37.5007C52.672 37.5007 55.8029 39.5695 52.1133 42.031Z" fill="#263238"/>
<path d="M65.2415 52.053C65.455 52.0369 65.667 52.0049 65.8757 51.9573C65.892 51.9538 65.9073 51.947 65.9209 51.9375C65.9345 51.928 65.9461 51.9158 65.955 51.9018C65.9639 51.8877 65.9699 51.8721 65.9727 51.8557C65.9755 51.8393 65.9751 51.8225 65.9714 51.8063C65.9685 51.7898 65.9621 51.774 65.9528 51.76C65.9434 51.746 65.9312 51.7341 65.917 51.7251C65.9028 51.7161 65.8869 51.7102 65.8702 51.7077C65.8536 51.7052 65.8366 51.7062 65.8204 51.7107C65.2976 51.8382 64.7523 51.8418 64.228 51.7212C63.7036 51.6006 63.2147 51.3591 62.8002 51.0161C62.7884 51.0039 62.7744 50.9942 62.7588 50.9876C62.7432 50.981 62.7265 50.9775 62.7096 50.9775C62.6926 50.9775 62.6759 50.981 62.6603 50.9876C62.6448 50.9942 62.6307 51.0039 62.619 51.0161C62.5956 51.0404 62.5825 51.0729 62.5825 51.1067C62.5825 51.1404 62.5956 51.1729 62.619 51.1973C62.9776 51.5065 63.3941 51.7415 63.8443 51.8884C64.2945 52.0353 64.7695 52.0912 65.2415 52.053Z" fill="#263238"/>
<path d="M53.9405 50.8399C54.2671 51.2827 54.6781 51.6565 55.1498 51.9399C55.6215 52.2232 56.1445 52.4105 56.6889 52.4909C58.1537 52.6923 58.7023 51.3382 58.1386 50.0597C57.6352 48.907 56.266 47.417 54.8768 47.7996C53.4875 48.1821 53.1452 49.7375 53.9405 50.8399Z" fill="#FFC3BD"/>
<path d="M63.4592 47.2408C63.5196 47.6486 63.7813 47.9506 64.0481 47.9103C64.3149 47.87 64.486 47.5026 64.4256 47.0948C64.3652 46.6871 64.1085 46.3901 63.8417 46.4304C63.5749 46.4707 63.4239 46.813 63.4592 47.2408Z" fill="#263238"/>
<path d="M68.256 46.5965C68.3164 47.0093 68.5782 47.3063 68.8449 47.266C69.1117 47.2257 69.2829 46.8633 69.2225 46.4556C69.1621 46.0478 68.9053 45.7458 68.6386 45.7861C68.3718 45.8264 68.2006 46.1888 68.256 46.5965Z" fill="#263238"/>
<path d="M66.4443 47.1351L66.6759 50.5882C66.6759 50.5882 67.8085 50.7845 68.4226 50.1301C68.0327 48.9778 67.3512 47.946 66.4443 47.1351Z" fill="#ED847E"/>
<path d="M61.8788 46.3096C61.8376 46.3208 61.7941 46.3207 61.7529 46.3092C61.7118 46.2977 61.6746 46.2752 61.6451 46.2443C61.6157 46.2133 61.5952 46.1749 61.5859 46.1333C61.5765 46.0916 61.5785 46.0482 61.5919 46.0076C61.6876 45.6334 61.8707 45.2873 62.1263 44.9976C62.3818 44.708 62.7024 44.4831 63.0617 44.3414C63.1224 44.3224 63.1882 44.3281 63.2448 44.3574C63.3013 44.3866 63.3441 44.4369 63.3637 44.4975C63.3829 44.5589 63.3773 44.6254 63.3482 44.6828C63.319 44.7401 63.2686 44.7838 63.2077 44.8045C62.924 44.9202 62.6716 45.1014 62.4713 45.3332C62.271 45.5651 62.1283 45.841 62.055 46.1385C62.0436 46.1801 62.0212 46.218 61.9902 46.2481C61.9593 46.2782 61.9208 46.2994 61.8788 46.3096Z" fill="#263238"/>
<path d="M69.8319 44.7643C69.7921 44.7679 69.752 44.761 69.7158 44.7442C69.6795 44.7274 69.6484 44.7014 69.6255 44.6686C69.4531 44.4186 69.2233 44.2136 68.9552 44.0708C68.6872 43.928 68.3888 43.8517 68.0852 43.8481C68.0184 43.8481 67.9544 43.8216 67.9072 43.7744C67.86 43.7272 67.8335 43.6632 67.8335 43.5965C67.8335 43.5297 67.86 43.4657 67.9072 43.4185C67.9544 43.3713 68.0184 43.3448 68.0852 43.3448C68.4686 43.3417 68.8471 43.4317 69.1882 43.6071C69.5292 43.7824 69.8226 44.0379 70.0433 44.3515C70.0618 44.3773 70.075 44.4065 70.0823 44.4374C70.0895 44.4683 70.0906 44.5003 70.0855 44.5316C70.0803 44.5629 70.0691 44.5929 70.0523 44.6199C70.0356 44.6469 70.0137 44.6703 69.9879 44.6888C69.9685 44.7114 69.9446 44.7298 69.9178 44.7428C69.8909 44.7558 69.8617 44.7631 69.8319 44.7643Z" fill="#263238"/>
<path d="M99.1628 77.6843C98.1089 77.7586 97.0924 78.1056 96.213 78.6911L95.3019 67.1137C95.2274 66.2131 94.7998 65.3785 94.1124 64.792C93.425 64.2055 92.5335 63.9146 91.6324 63.9827L57.8415 66.6455C56.9414 66.7213 56.1077 67.1493 55.5214 67.8364C54.9351 68.5235 54.6437 69.4143 54.7106 70.3151L57.3784 104.106C57.4503 105.008 57.8772 105.844 58.5653 106.431C59.2533 107.018 60.1463 107.308 61.0479 107.237L94.8338 104.569C95.7353 104.496 96.5711 104.069 97.1587 103.381C97.7463 102.694 98.0379 101.801 97.9698 100.9L97.0536 89.3473C98.013 89.7969 99.0733 89.9878 100.129 89.901C101.646 89.6457 103.012 88.8315 103.958 87.6189C104.904 86.4063 105.361 84.8833 105.24 83.3501C105.119 81.8169 104.428 80.3848 103.303 79.336C102.178 78.2873 100.701 77.698 99.1628 77.6843Z" fill="#378FED"/>
<path d="M50.1654 73.0634L49.662 73.9896L49.0832 75.0266C48.7107 75.7313 48.3281 76.436 47.9808 77.1508C47.2828 78.5435 46.6578 79.9717 46.1083 81.4294C45.8415 82.1341 45.6049 82.8338 45.4287 83.5234C45.2277 84.1836 45.0697 84.8562 44.9556 85.5368C44.7443 86.6316 44.7087 87.753 44.8499 88.859L43.6921 86.8456C44.1741 87.5067 44.7488 88.095 45.3985 88.5923C46.2526 89.2738 47.1486 89.9009 48.0815 90.4698C49.053 91.094 50.0949 91.693 51.1419 92.292L52.7426 93.183C53.246 93.485 53.85 93.787 54.3282 94.0789L54.5698 94.2249C55.1042 94.5488 55.5173 95.0393 55.7455 95.621C55.9736 96.2027 56.0042 96.8433 55.8326 97.4441C55.6609 98.0449 55.2965 98.5726 54.7955 98.946C54.2944 99.3193 53.6845 99.5176 53.0597 99.5103C52.2946 99.5103 51.6403 99.4599 50.9355 99.4045C50.2308 99.3492 49.5614 99.2636 48.8768 99.1529C47.4854 98.9439 46.1086 98.6481 44.7542 98.2669C43.3209 97.8652 41.9234 97.345 40.5763 96.7116C38.9838 95.9781 37.5203 94.9922 36.2423 93.792C35.7825 93.3535 35.4368 92.8091 35.2356 92.2064L35.0946 91.7735C34.3064 89.3828 34.0119 86.8569 34.2289 84.3489C34.3998 82.1642 34.8187 80.006 35.4772 77.9159C36.0904 75.9519 36.851 74.0371 37.7524 72.1876C38.1903 71.2815 38.6383 70.3856 39.1417 69.5147C39.3884 69.0768 39.6451 68.6389 39.9068 68.206L40.3196 67.5516L40.536 67.2194L40.7978 66.8318C41.6064 65.6082 42.8605 64.7482 44.2934 64.4348C45.7262 64.1214 47.2248 64.3792 48.4705 65.1535C49.7162 65.9278 50.6107 67.1575 50.9639 68.581C51.317 70.0046 51.101 71.5098 50.3617 72.7765L50.1654 73.0634Z" fill="#FFC3BD"/>
<path d="M46.2339 60.1622C37.8881 64.622 34.7773 74.5836 34.7773 74.5836C36.4284 77.7297 46.3849 81.1274 50.13 80.2012C50.13 80.2012 53.719 73.6574 54.4589 67.8083C55.1435 62.3871 51.1216 57.5497 46.2339 60.1622Z" fill="#263238"/>
<path d="M52.0732 94.6327L52.2444 97.8844C53.6236 101.015 57.3384 98.5438 57.3384 98.5438L59.6086 98.0807C60.0024 97.9721 60.345 97.7274 60.5754 97.3901C60.8058 97.0528 60.9091 96.6447 60.867 96.2384L60.7664 93.9682C60.7787 93.4956 60.6054 93.037 60.2836 92.6907C59.9618 92.3444 59.5171 92.138 59.0449 92.1158L57.0314 92.1964C56.4428 92.2232 55.8702 92.3962 55.3653 92.6997L52.0732 94.6327Z" fill="#FFC3BD"/>
</svg>
