<svg width="210" height="171" viewBox="0 0 210 171" fill="none" xmlns="http://www.w3.org/2000/svg">
<path d="M104.907 170.56C162.846 170.56 209.814 167.818 209.814 164.435C209.814 161.052 162.846 158.31 104.907 158.31C46.9685 158.31 0 161.052 0 164.435C0 167.818 46.9685 170.56 104.907 170.56Z" fill="#F5F5F5"/>
<path d="M138.063 155.637L133.951 154.631L135.179 144.838L139.296 145.844L138.063 155.637Z" fill="#FFB573"/>
<path d="M173.903 160.112H169.666L166.371 150.303H170.602L173.903 160.112Z" fill="#FFB573"/>
<path d="M169.104 159.62H174.266C174.35 159.62 174.431 159.648 174.497 159.7C174.563 159.752 174.609 159.825 174.629 159.906L175.467 163.694C175.487 163.786 175.485 163.881 175.463 163.972C175.441 164.063 175.398 164.148 175.338 164.221C175.278 164.293 175.203 164.351 175.117 164.39C175.032 164.429 174.939 164.448 174.845 164.446C173.184 164.419 171.972 164.322 169.878 164.322C168.59 164.322 164.711 164.457 162.931 164.457C161.151 164.457 160.923 162.698 161.648 162.536C164.895 161.827 167.373 160.842 168.417 159.901C168.603 159.725 168.848 159.625 169.104 159.62V159.62Z" fill="#263238"/>
<path d="M134.124 154.166L138.615 155.248C138.696 155.269 138.768 155.316 138.819 155.383C138.87 155.45 138.897 155.532 138.896 155.616L138.815 159.474C138.814 159.567 138.792 159.658 138.75 159.742C138.708 159.825 138.648 159.897 138.574 159.954C138.5 160.01 138.414 160.049 138.322 160.067C138.231 160.085 138.137 160.082 138.047 160.058C136.423 159.636 134.113 158.976 132.095 158.473C129.714 157.888 127.626 157.515 124.834 156.849C123.146 156.438 123.092 154.615 123.838 154.636C127.225 154.718 129.876 155.286 133.074 154.247C133.41 154.124 133.773 154.096 134.124 154.166V154.166Z" fill="#263238"/>
<path d="M154.625 32.7939C154.333 33.6705 154.052 34.4171 153.733 35.2233C153.413 36.0295 153.094 36.787 152.753 37.5607C152.077 39.1082 151.325 40.6232 150.502 42.1273C149.67 43.6483 148.748 45.119 147.743 46.5316C146.692 48.0284 145.484 49.4088 144.139 50.6491C143.777 50.9683 143.414 51.2876 143.009 51.5851C142.792 51.7421 142.635 51.8719 142.37 52.0396C142.119 52.2086 141.859 52.3639 141.591 52.505C140.467 53.1023 139.211 53.4057 137.939 53.3869C136.771 53.3615 135.621 53.1001 134.557 52.6186C133.639 52.2001 132.775 51.6733 131.982 51.0495C130.575 49.9144 129.321 48.6033 128.248 47.1484C127.707 46.4558 127.253 45.7308 126.798 44.9841C126.337 44.25 125.916 43.4914 125.538 42.7117L128.243 41.0344C128.708 41.5754 129.244 42.1814 129.763 42.7333C130.283 43.2852 130.845 43.8154 131.387 44.3565C132.425 45.3536 133.57 46.2336 134.801 46.9807C135.942 47.657 137.106 47.9925 137.825 47.8788C138.176 47.8258 138.509 47.6924 138.799 47.4893C138.884 47.4332 138.965 47.3717 139.043 47.3053C139.113 47.2512 139.264 47.1159 139.367 47.024C139.616 46.8137 139.852 46.5897 140.076 46.353C141.916 44.4268 143.501 41.8027 144.881 39.1082C145.579 37.7501 146.223 36.3487 146.85 34.942C147.159 34.2332 147.462 33.519 147.748 32.8048C148.035 32.0906 148.327 31.3439 148.571 30.6946L154.625 32.7939Z" fill="#FFB573"/>
<path d="M156.345 30.7108C157.249 34.6552 148.597 44.7515 148.597 44.7515L140.817 39.0595C142.539 35.7808 144.608 32.6969 146.99 29.8614C150.556 25.8629 155.345 26.3823 156.345 30.7108Z" fill="#378FED"/>
<path opacity="0.2" d="M147.651 37.3281C146.813 38.9936 146.09 40.7146 145.487 42.479L148.598 44.7515C148.598 44.7515 153.738 38.7619 155.675 34.2007C153.338 32.1934 149.685 33.335 147.651 37.3281Z" fill="black"/>
<path d="M128.66 41.635L126.685 38.9891L123.335 42.9389C123.335 42.9389 125.364 44.9733 127.875 44.178L128.66 41.635Z" fill="#FFB573"/>
<path d="M122.275 37.5337L121.166 42.0678L123.335 42.9389L126.684 38.9891L122.275 37.5337Z" fill="#FFB573"/>
<path opacity="0.2" d="M135.179 144.838L134.546 149.891L138.664 150.892L139.297 145.844L135.179 144.838Z" fill="black"/>
<path opacity="0.2" d="M170.608 150.303H166.371L168.07 155.361H172.307L170.608 150.303Z" fill="black"/>
<path d="M175.294 30.1211C173.76 34.6029 172.562 39.1931 171.712 43.8533C171.101 47.0997 170.63 50.2108 170.327 53.0514C169.548 59.6741 169.369 64.7493 169.061 66.4536L146.612 63.4291C145.091 39.1893 151.752 27.1777 151.752 27.1777C153.556 26.9572 155.372 26.8506 157.19 26.8585C157.574 26.8585 157.963 26.8585 158.358 26.8855C161.562 27.1294 164.749 27.5576 167.903 28.1678C168.503 28.2815 169.109 28.4059 169.694 28.5412C172.68 29.2175 175.294 30.1211 175.294 30.1211Z" fill="#378FED"/>
<path opacity="0.2" d="M158.694 33.216C154.582 32.6749 152.742 33.8653 152.412 35.3802C151.092 41.2887 155.659 46.7913 155.659 46.7913C155.659 46.7913 162.363 42.7279 163.683 36.8195C164.024 35.3045 162.801 33.7408 158.694 33.216Z" fill="black"/>
<path d="M156.119 44.7298C154.993 42.993 153.035 39.3192 153.868 35.5317C154.025 34.8446 155.615 34.3306 158.359 34.6823C161.102 35.034 162.379 35.9159 162.227 36.603C161.389 40.4013 157.931 43.3826 156.119 44.7298Z" fill="white"/>
<path opacity="0.2" d="M171.712 43.8533C171.101 47.0997 170.63 50.2108 170.327 53.0514L167.292 46.0284L171.712 43.8533Z" fill="black"/>
<path d="M168.405 17.287C167.388 20.2737 166.03 25.8196 167.902 28.157C166.826 29.0214 165.577 29.6441 164.239 29.983C162.902 30.3219 161.506 30.369 160.149 30.1211C157.514 29.7099 157.633 27.8432 158.358 26.9017C161.891 26.5446 162.145 23.9908 161.875 21.5236L168.405 17.287Z" fill="#FFB573"/>
<path opacity="0.2" d="M165.744 19.0076L161.875 21.4965C161.948 22.0706 161.97 22.65 161.94 23.2279C163.277 23.2279 165.268 22.0213 165.587 20.6741C165.738 20.1323 165.791 19.568 165.744 19.0076V19.0076Z" fill="black"/>
<path d="M160.636 5.28618C157.357 5.02106 156.221 12.9206 158.266 14.4356C160.312 15.9506 166.777 5.77314 160.636 5.28618Z" fill="#263238"/>
<path d="M169.396 12.715C168.579 16.8379 168.314 19.2944 165.922 21.1448C162.33 23.9259 157.455 21.3342 157.022 17.0489C156.632 13.1911 158.033 7.09875 162.324 5.98957C163.27 5.74082 164.263 5.73802 165.211 5.98143C166.158 6.22483 167.027 6.70637 167.735 7.38027C168.444 8.05418 168.969 8.89807 169.259 9.83178C169.55 10.7655 169.597 11.758 169.396 12.715V12.715Z" fill="#FFB573"/>
<path d="M168.552 16.7514C166.523 18.0174 164.808 5.35652 170.203 7.01218C178.963 9.72292 170.971 15.2472 168.552 16.7514Z" fill="#263238"/>
<path d="M168.563 9.36041C167.334 7.84543 159.868 8.75982 156.427 6.50358C152.985 4.24734 155.166 -0.714232 161.464 0.0865446C158.531 0.427416 159.067 2.87303 161.08 2.85139C163.093 2.82975 167.724 0.335434 169.737 2.46182C172.545 5.41604 173.952 3.66299 175.353 5.34029C177.409 7.75344 171.225 12.6555 168.563 9.36041Z" fill="#263238"/>
<path d="M170.651 17.5521C170.315 17.9541 169.904 18.2857 169.439 18.5281C168.975 18.7704 168.468 18.9187 167.946 18.9643C166.55 19.0833 166.112 17.7686 166.723 16.589C167.264 15.5069 168.66 14.1867 169.969 14.625C171.279 15.0632 171.457 16.5458 170.651 17.5521Z" fill="#FFB573"/>
<path d="M133.237 148.56L140.206 150.238C140.206 150.238 144.696 126.501 146.78 113.445C147.413 109.479 148.825 103.993 150.535 98.133C152.699 90.7529 155.312 82.7884 157.439 76.5607C159.684 69.9976 161.367 65.3553 161.367 65.3553L146.612 63.3695C146.612 63.3695 135.369 97.8841 134.124 110.74C132.782 124.12 133.237 148.56 133.237 148.56Z" fill="#263238"/>
<path opacity="0.2" d="M150.534 98.1763C152.699 90.7961 155.312 82.8317 157.438 76.604L156.113 73.1899C152.152 77.3236 150.296 90.7853 150.534 98.1763Z" fill="black"/>
<path d="M154.571 64.4841C154.571 64.4841 153.84 100.773 154.836 113.142C155.918 126.669 166.079 154.382 166.079 154.382H173.838C173.838 154.382 168.66 129.033 167.075 115.88C165.268 100.892 169.055 66.4374 169.055 66.4374L154.571 64.4841Z" fill="#263238"/>
<path d="M165.154 154.55H174.287V151.823L164.077 151.644L165.154 154.55Z" fill="#378FED"/>
<path d="M132.322 148.512L140.622 150.541L141.277 147.857L132.035 145.449L132.322 148.512Z" fill="#378FED"/>
<path d="M162.93 13.0288C162.887 13.3643 162.671 13.6132 162.449 13.5699C162.227 13.5266 162.081 13.2398 162.129 12.9044C162.178 12.5689 162.389 12.3146 162.611 12.3633C162.833 12.412 162.974 12.688 162.93 13.0288Z" fill="#263238"/>
<path d="M159.105 12.5094C159.056 12.8503 158.84 13.0992 158.618 13.0505C158.396 13.0018 158.255 12.7204 158.304 12.3796C158.353 12.0387 158.564 11.7898 158.786 11.8385C159.007 11.8872 159.148 12.1739 159.105 12.5094Z" fill="#263238"/>
<path d="M160.296 12.8449C159.755 13.8353 159.08 14.7458 158.289 15.5502C158.496 15.7503 158.746 15.9025 159.019 15.9959C159.291 16.0894 159.582 16.122 159.868 16.0913L160.296 12.8449Z" fill="#ED893E"/>
<path d="M161.178 17.1355C161.029 17.1351 160.881 17.1242 160.734 17.1031C160.721 17.1018 160.708 17.0977 160.696 17.0912C160.684 17.0847 160.674 17.0758 160.666 17.0651C160.658 17.0545 160.652 17.0422 160.649 17.0292C160.646 17.0162 160.645 17.0026 160.647 16.9894C160.649 16.9766 160.654 16.9642 160.661 16.9531C160.668 16.942 160.677 16.9324 160.687 16.9249C160.698 16.9173 160.71 16.9119 160.722 16.9091C160.735 16.9062 160.748 16.9059 160.761 16.9083C161.181 16.9737 161.611 16.9392 162.015 16.8076C162.419 16.676 162.787 16.4509 163.088 16.1508C163.107 16.1329 163.132 16.1229 163.158 16.1229C163.184 16.1229 163.209 16.1329 163.228 16.1508C163.238 16.1599 163.245 16.1708 163.251 16.1829C163.256 16.195 163.258 16.208 163.258 16.2211C163.258 16.2343 163.256 16.2473 163.251 16.2594C163.245 16.2714 163.238 16.2824 163.228 16.2915C162.962 16.5637 162.642 16.7789 162.29 16.924C161.937 17.0691 161.559 17.1411 161.178 17.1355V17.1355Z" fill="#263238"/>
<path d="M164.277 11.9521C164.242 11.9524 164.207 11.9429 164.176 11.9248C164.146 11.9067 164.121 11.8806 164.104 11.8493C163.985 11.6271 163.816 11.4357 163.611 11.2901C163.405 11.1446 163.168 11.0489 162.919 11.0106C162.893 11.0093 162.867 11.0027 162.843 10.9913C162.82 10.98 162.798 10.964 162.781 10.9444C162.763 10.9248 162.75 10.902 162.741 10.8771C162.732 10.8523 162.728 10.8259 162.73 10.7996C162.734 10.747 162.758 10.698 162.797 10.6628C162.837 10.6275 162.888 10.6087 162.941 10.6103C163.257 10.6512 163.559 10.7667 163.821 10.9474C164.084 11.128 164.299 11.3686 164.45 11.6491C164.464 11.6721 164.473 11.6976 164.476 11.724C164.479 11.7505 164.478 11.7773 164.471 11.803C164.463 11.8287 164.451 11.8527 164.435 11.8737C164.418 11.8947 164.398 11.9121 164.375 11.925C164.345 11.9414 164.311 11.9507 164.277 11.9521V11.9521Z" fill="#263238"/>
<path d="M157.633 10.9728C157.593 10.9722 157.554 10.961 157.519 10.9403C157.476 10.9097 157.445 10.8631 157.435 10.8106C157.425 10.7581 157.436 10.7037 157.465 10.659C157.636 10.3902 157.869 10.1661 158.143 10.0051C158.418 9.84424 158.727 9.7512 159.045 9.73374C159.098 9.73374 159.149 9.75483 159.187 9.79238C159.224 9.82992 159.245 9.88084 159.245 9.93393C159.245 9.98703 159.224 10.0379 159.187 10.0755C159.149 10.113 159.098 10.1341 159.045 10.1341C158.793 10.1487 158.548 10.2243 158.331 10.3543C158.114 10.4844 157.932 10.665 157.801 10.8808C157.783 10.9089 157.758 10.9321 157.729 10.9481C157.699 10.9642 157.667 10.9727 157.633 10.9728V10.9728Z" fill="#263238"/>
<path d="M167.703 160.361C167.414 160.382 167.126 160.306 166.886 160.144C166.809 160.079 166.75 159.995 166.714 159.9C166.678 159.806 166.667 159.704 166.68 159.603C166.68 159.544 166.696 159.486 166.726 159.436C166.757 159.385 166.801 159.344 166.853 159.317C167.319 159.079 168.688 159.917 168.839 160.015C168.857 160.025 168.871 160.04 168.88 160.058C168.889 160.077 168.892 160.097 168.888 160.117C168.884 160.137 168.875 160.155 168.862 160.169C168.848 160.184 168.831 160.194 168.812 160.199C168.45 160.294 168.078 160.349 167.703 160.361V160.361ZM167.075 159.484C167.033 159.475 166.988 159.475 166.945 159.484C166.925 159.496 166.908 159.514 166.896 159.535C166.885 159.556 166.879 159.58 166.88 159.603C166.87 159.67 166.877 159.739 166.901 159.802C166.924 159.866 166.964 159.922 167.016 159.966C167.489 160.183 168.027 160.21 168.52 160.042C168.079 159.764 167.588 159.575 167.075 159.484V159.484Z" fill="#378FED"/>
<path d="M168.79 160.209H168.741C168.303 159.971 167.453 159.041 167.545 158.586C167.559 158.512 167.599 158.444 167.657 158.396C167.716 158.348 167.789 158.321 167.865 158.321C167.941 158.313 168.018 158.32 168.092 158.342C168.165 158.365 168.233 158.402 168.292 158.451C168.785 158.857 168.882 160.074 168.887 160.128C168.889 160.146 168.885 160.164 168.878 160.18C168.87 160.196 168.859 160.21 168.844 160.22C168.825 160.222 168.807 160.218 168.79 160.209ZM167.935 158.494H167.886C167.756 158.494 167.746 158.57 167.74 158.597C167.686 158.878 168.227 159.576 168.665 159.906C168.636 159.424 168.46 158.961 168.162 158.581C168.1 158.525 168.019 158.494 167.935 158.494V158.494Z" fill="#378FED"/>
<path d="M133.55 154.631C132.852 154.604 131.635 154.48 131.278 153.966C131.227 153.891 131.194 153.806 131.183 153.716C131.172 153.627 131.182 153.536 131.213 153.452C131.228 153.398 131.258 153.35 131.297 153.311C131.337 153.272 131.386 153.244 131.44 153.23C132.008 153.067 133.453 154.312 133.604 154.458C133.618 154.473 133.628 154.491 133.633 154.511C133.637 154.531 133.637 154.552 133.631 154.572C133.624 154.588 133.613 154.601 133.598 154.612C133.584 154.622 133.568 154.629 133.55 154.631V154.631ZM131.521 153.414H131.478C131.457 153.419 131.438 153.43 131.423 153.445C131.407 153.46 131.397 153.479 131.391 153.5C131.371 153.556 131.364 153.617 131.371 153.676C131.379 153.735 131.401 153.792 131.435 153.841C131.635 154.128 132.3 154.333 133.247 154.382C132.668 153.944 131.857 153.387 131.521 153.414Z" fill="#378FED"/>
<path d="M133.551 154.631C133.528 154.639 133.503 154.639 133.48 154.631C133.037 154.285 132.274 153.154 132.458 152.71C132.506 152.602 132.615 152.488 132.891 152.526C132.99 152.538 133.086 152.57 133.172 152.621C133.257 152.673 133.331 152.742 133.388 152.824C133.81 153.365 133.648 154.517 133.643 154.566C133.639 154.583 133.631 154.599 133.62 154.612C133.609 154.626 133.594 154.636 133.578 154.642L133.551 154.631ZM132.755 152.705C132.669 152.705 132.653 152.754 132.647 152.77C132.534 153.04 133.031 153.901 133.464 154.328C133.528 153.848 133.447 153.36 133.232 152.927C133.189 152.867 133.134 152.816 133.07 152.778C133.007 152.74 132.937 152.715 132.864 152.705H132.755Z" fill="#378FED"/>
<path d="M177.636 35.0502C177.566 35.851 177.49 36.5381 177.387 37.2686C177.284 37.999 177.176 38.7078 177.057 39.4328C176.814 40.8666 176.516 42.2896 176.17 43.7072C175.824 45.1248 175.429 46.5424 174.947 47.9492C174.478 49.3814 173.921 50.7835 173.281 52.1479L172.777 53.1813L172.745 53.2462L172.675 53.3761L172.528 53.6358C172.424 53.8044 172.31 53.967 172.188 54.1227C171.954 54.4204 171.689 54.6924 171.398 54.9343C170.902 55.342 170.343 55.6655 169.742 55.892C169.254 56.0735 168.75 56.2111 168.238 56.3032C166.591 56.5449 164.916 56.523 163.276 56.2383C160.362 55.7555 157.518 54.9159 154.809 53.7386L155.712 50.6816C157.027 50.8547 158.417 51.0278 159.738 51.1361C161.058 51.2443 162.4 51.3417 163.671 51.3308C164.809 51.3613 165.945 51.2339 167.047 50.9521C167.47 50.8276 167.735 50.6112 167.664 50.6166C167.636 50.6248 167.61 50.6396 167.589 50.6599L167.54 50.714L167.513 50.7465V50.6924L167.854 49.8159C168.736 47.362 169.429 44.8441 169.926 42.2842C170.207 40.9803 170.429 39.6601 170.656 38.3453C170.768 37.6852 170.871 37.0251 170.965 36.365L171.23 34.428L177.636 35.0502Z" fill="#FFB573"/>
<path d="M178.415 32.5234C180.78 35.8077 178.048 45.931 178.048 45.931L166.934 46.2881C166.934 46.2881 167.838 39.6168 169.482 34.6444C171.268 29.2337 175.542 28.5466 178.415 32.5234Z" fill="#378FED"/>
<path d="M156.232 50.806L152.331 48.9989V54.4095C152.331 54.4095 155.994 55.2157 156.632 53.3274L156.232 50.806Z" fill="#FFB573"/>
<path d="M148.879 49.778L149.074 54.2526L152.309 54.4041L152.331 48.9989L148.879 49.778Z" fill="#FFB573"/>
<path d="M133.865 85.2719H30.4566C29.1083 85.2487 27.8166 84.7263 26.8311 83.8059C25.8457 82.8854 25.2366 81.6322 25.1216 80.2887L20.501 14.3436C20.4466 13.7052 20.5263 13.0625 20.7351 12.4568C20.9439 11.8511 21.2771 11.2957 21.7133 10.8264C22.1494 10.3571 22.679 9.98427 23.2678 9.7318C23.8567 9.47932 24.4918 9.35281 25.1325 9.36041H128.519C129.867 9.38482 131.158 9.90757 132.143 10.8278C133.129 11.748 133.738 13.0005 133.854 14.3436L138.496 80.2887C138.551 80.927 138.471 81.5697 138.262 82.1755C138.054 82.7812 137.72 83.3366 137.284 83.8059C136.848 84.2751 136.318 84.648 135.73 84.9005C135.141 85.153 134.506 85.2795 133.865 85.2719V85.2719Z" fill="#263238"/>
<path d="M163.444 139.092H46.926C43.8365 139.092 40.72 137.095 40.0112 134.677L26.517 88.8159C25.9381 86.8572 27.7182 85.2719 30.456 85.2719H133.864C136.608 85.2719 139.74 86.8572 140.839 88.8159L166.588 134.677C167.941 137.095 166.534 139.092 163.444 139.092Z" fill="#263238"/>
<path d="M135.109 85.2719H31.7063C30.3577 85.2499 29.0652 84.7279 28.0796 83.8072C27.0939 82.8865 26.4851 81.6326 26.3714 80.2887L21.7236 14.3436C21.6701 13.7054 21.7504 13.0631 21.9595 12.4577C22.1686 11.8524 22.5018 11.2973 22.9378 10.8282C23.3739 10.3591 23.903 9.98623 24.4915 9.73347C25.08 9.48071 25.7147 9.35365 26.3551 9.36041H129.764C131.112 9.38362 132.404 9.90596 133.389 10.8264C134.374 11.7469 134.983 13.0001 135.098 14.3436L139.746 80.2887C139.8 80.9273 139.719 81.5701 139.51 82.1759C139.3 82.7816 138.967 83.3369 138.53 83.8061C138.094 84.2753 137.564 84.648 136.975 84.9005C136.385 85.1529 135.75 85.2794 135.109 85.2719Z" fill="#378FED"/>
<path d="M32.5502 81.1219C32.0178 81.1107 31.5081 80.9037 31.1188 80.5403C30.7295 80.1769 30.4878 79.6828 30.44 79.1524L25.9546 15.4799C25.9335 15.228 25.9652 14.9746 26.0478 14.7357C26.1304 14.4969 26.2621 14.278 26.4343 14.093C26.6065 13.9081 26.8155 13.7612 27.0478 13.6618C27.2801 13.5624 27.5307 13.5126 27.7834 13.5158H128.919C129.45 13.5281 129.958 13.735 130.346 14.0971C130.734 14.4593 130.975 14.9513 131.024 15.4799L135.51 79.1524C135.531 79.4045 135.499 79.6582 135.416 79.8973C135.334 80.1364 135.202 80.3557 135.03 80.541C134.858 80.7264 134.649 80.8738 134.417 80.9738C134.184 81.0739 133.934 81.1243 133.681 81.1219H32.5502Z" fill="white"/>
<path opacity="0.2" d="M78.7865 12.1114C79.071 11.817 79.0454 11.3309 78.7295 11.0257C78.4136 10.7205 77.9269 10.7118 77.6425 11.0062C77.358 11.3007 77.3835 11.7867 77.6995 12.0919C78.0154 12.3971 78.5021 12.4059 78.7865 12.1114Z" fill="black"/>
<path d="M164.695 139.092H48.1715C45.082 139.092 41.9709 137.095 41.2567 134.677L27.7625 88.8159C27.189 86.8572 28.9637 85.2719 31.7069 85.2719H135.11C137.853 85.2719 140.986 86.8572 142.084 88.8159L167.828 134.677C169.186 137.095 167.785 139.092 164.695 139.092Z" fill="#378FED"/>
<path opacity="0.2" d="M41.8948 114.598C40.7369 114.598 39.5737 113.883 39.3085 113.018L32.1989 89.6383C31.9609 88.8645 32.6588 88.2315 33.7518 88.2315H135.586C136.124 88.231 136.655 88.3582 137.135 88.6028C137.614 88.8473 138.029 89.2022 138.345 89.6383L151.25 113.029C151.726 113.894 151.174 114.608 150.016 114.608L41.8948 114.598Z" fill="black"/>
<path opacity="0.2" d="M88.5453 135.012C88.2006 135.013 87.8622 134.919 87.5667 134.742C87.2711 134.565 87.0295 134.31 86.868 134.006L80.9163 118.769C80.7161 118.255 81.1057 117.833 81.7874 117.833H112.899C113.234 117.833 113.564 117.919 113.857 118.083C114.15 118.247 114.395 118.483 114.571 118.769L121.642 134.006C121.902 134.547 121.534 135.012 120.831 135.012H88.5453Z" fill="black"/>
<path d="M29.9211 71.7452L32.4749 66.6809H40.9102L43.2854 70.3385L45.6607 73.9907L43.8157 77.6429L42.0626 81.1219H42.252L43.9672 77.724L45.8122 74.0718H54.2474L56.6227 77.7294L58.8248 81.1219H59.0304L56.7525 77.6374L54.3773 73.9798L56.2223 70.3331L58.0673 66.6809H66.4917L68.867 70.3385L71.2423 73.9907L69.4027 77.6429L67.6442 81.1219H67.8336L69.5542 77.724L71.3938 74.0718H79.829L82.2043 77.7294L84.4064 81.1219H84.612L82.3503 77.6374L80.0184 73.9798L81.858 70.3331L83.703 66.6809H92.1328L94.5081 70.3385L96.8834 73.9907L95.0437 77.6429L93.2853 81.1219H93.4746L95.1682 77.7348L97.0078 74.0826H105.448L107.824 77.7402L110.026 81.1327H110.231L107.97 77.6483L105.595 73.9907L107.434 70.3439L109.279 66.6917H117.714L120.09 70.3493L122.465 74.0015L120.598 77.6429L118.84 81.1219H119.035L120.75 77.724L122.589 74.0718H131.041L133.416 77.7294L135.148 80.3915L135.256 80.2454L133.584 77.6374L131.209 73.9798L133.048 70.3331L134.671 67.0867V66.7566L132.913 70.2411L131.068 73.8933H122.6L120.225 70.2357L117.85 66.5835L119.695 62.9313L121.534 59.2845H129.97L134.617 66.432L134.59 66.0803L130.116 59.1925L133.616 52.2561V51.9206L129.986 59.1114H121.529L119.154 55.4592L116.778 51.8016L118.623 48.1548L120.468 44.5026H128.898L133.584 51.715L133.557 51.3633L129.05 44.4214L132.577 37.4363V37.1062L128.92 44.3457H120.463L118.088 40.6881L115.729 37.0359L117.568 33.3837L119.413 29.7369H127.849L132.556 36.9818V36.6301L128.011 29.6449L131.566 22.6111V22.281L127.821 29.58H119.392L117.016 25.9224L114.647 22.254L116.486 18.6018L118.326 14.9713H126.761L129.136 18.6234L131.501 22.2702V21.9185L129.255 18.5206L126.88 14.863L127.562 13.5158H127.372L126.734 14.7819H118.32L117.493 13.5158H117.292L118.174 14.8739L116.329 18.5261L114.49 22.1728H106.054L103.679 18.5206L101.304 14.863L101.986 13.5158H101.796L101.152 14.7819H92.7226L91.9218 13.5158H91.7216L92.6035 14.8739L90.7585 18.5261L88.9189 22.1728H80.4566L78.0813 18.5206L75.6898 14.863L76.3716 13.5158H76.1822L75.5383 14.7819H67.1194L66.2969 13.5158H66.0913L66.9787 14.8739L65.1336 18.5261L63.294 22.1728H54.8588L52.4835 18.5206L50.1083 14.863L50.79 13.5158H50.6006L49.9568 14.7819H41.5216L40.6991 13.5158H40.5206L41.4079 14.8739L39.5629 18.5261L37.7179 22.1728H29.261L26.085 17.3032V17.6549L29.0933 22.281L26.7396 26.9396L26.7667 27.2697L29.2448 22.3622H37.68L40.0499 26.0144L42.4251 29.672L40.5855 33.3188L38.7405 36.971H30.3269L27.957 33.3134L27.1238 32.031V32.3827L27.7893 33.4054L30.1646 37.0575L28.3196 40.7097L27.7785 41.7919V42.1219L28.4386 40.8125L30.2836 37.1603H38.7134L41.0887 40.8179L43.464 44.4701L41.6244 48.1223L39.7793 51.7691H31.3982L29.0229 48.1169L28.1572 46.7859V47.1322L28.8552 48.2143L31.2305 51.8665L29.3855 55.5133L28.8444 56.6279V56.9579L29.5315 55.5944L31.3766 51.9477H39.8064L42.1817 55.5998L44.5569 59.2575L42.7173 62.9042L40.8723 66.5564H32.4695L29.1961 61.5029L29.2231 61.8546L32.3289 66.6322L29.8995 71.4422L29.9211 71.7452ZM66.4917 66.5131H58.0673L55.6704 62.8555L53.3005 59.2033L55.1402 55.5512L56.9852 51.9044H65.415L67.7903 55.5566L70.1656 59.2142L68.3259 62.8609L66.4917 66.5131ZM103.284 44.3295H94.8598L92.4629 40.6881L90.0876 37.0359L91.9326 33.3837L93.7776 29.7369H102.207L104.583 33.3891L106.958 37.0413L105.118 40.6935L103.284 44.3295ZM103.284 44.4972L105.659 48.1548L108.035 51.807L106.195 55.4538L104.366 59.1222H95.9311L93.545 55.47L91.1697 51.8124L93.0147 48.1656L94.8544 44.5134L103.284 44.4972ZM92.3276 40.7638L94.7029 44.416L92.8578 48.0682L91.0128 51.715H82.5992L80.224 48.0628L77.8541 44.4214L79.6937 40.7747L81.5387 37.1225H89.974L92.3276 40.7638ZM82.4531 51.8232L80.6081 55.47L78.7685 59.1222H70.3333L67.958 55.47L65.5827 51.8124L67.4278 48.1656L69.2674 44.5134H77.7026L80.0779 48.171L82.4531 51.8232ZM79.5422 40.6935L77.6972 44.3457H69.262L66.8867 40.6881L64.5114 37.0359L66.3565 33.3837L68.1961 29.7369H76.6313L79.0066 33.3891L81.3818 37.0413L79.5422 40.6935ZM66.746 40.7801L69.1159 44.4323L67.2763 48.0845L65.4096 51.7312H57.0014L54.6262 48.079L52.2509 44.4214L54.0905 40.7747L55.9355 37.1225H64.3707L66.746 40.7801ZM81.6794 70.2519L79.8398 73.9041H71.4046L69.0293 70.2465L66.654 66.5943L68.4991 62.9421L70.3387 59.2953H78.7739L81.1492 62.9475L83.5245 66.6051L81.6794 70.2519ZM92.1003 66.5131H83.6705L81.2953 62.8555L78.9362 59.2033L80.7758 55.5512L82.6209 51.9044H91.0561L93.4314 55.5566L95.8012 59.2142L93.9616 62.8609L92.1003 66.5131ZM107.25 70.2519L105.411 73.9041H97.0024L94.6271 70.2465L92.2518 66.5943L94.0969 62.9421L95.9365 59.2953H104.366L106.742 62.9475L109.117 66.6051L107.25 70.2519ZM119.013 55.5512L121.388 59.2088L119.543 62.8555L117.698 66.5077H109.268L106.893 62.8501L104.518 59.1979L106.357 55.5457L108.202 51.899H116.638L119.013 55.5512ZM117.931 40.7747L120.306 44.4269L118.461 48.079L116.621 51.7258H108.197L105.822 48.0736L103.446 44.416L105.292 40.7692L107.131 37.1171H115.566L117.931 40.7747ZM106.027 22.3406H114.463L116.838 25.9928L119.213 29.6504L117.368 33.2971L115.528 36.9493H107.126L104.75 33.2917L102.375 29.6395L104.22 25.9873L106.027 22.3406ZM90.8775 18.5964L92.7226 14.9496H101.158L103.528 18.6018L105.903 22.2594L104.063 25.9062L102.202 29.58H93.7885L91.4186 25.9224L89.0433 22.2702L90.8775 18.5964ZM80.4566 22.3406H88.8918L91.2671 25.9928L93.6424 29.6504L91.7973 33.2971L89.9577 36.9493H81.5279L79.1526 33.2917L76.772 29.6449L78.6116 25.9928L80.4566 22.3406ZM65.3068 18.5964L67.1518 14.9496H75.5816L77.9569 18.6018L80.3322 22.2594L78.4925 25.9062L76.6259 29.58H68.1907L65.8154 25.9224L63.4401 22.2702L65.3068 18.5964ZM54.8859 22.3406H63.2994L65.6747 25.9928L68.05 29.6504L66.205 33.2971L64.3599 36.9493H55.9301L53.5548 33.2917L51.1796 29.6395L53.0192 25.9873L54.8859 22.3406ZM40.2392 25.9008L37.864 22.2486L39.709 18.5964L41.5486 14.9496H49.9838L52.3591 18.6018L54.7344 22.2594L52.8893 25.9062L51.0497 29.5584H42.5929L40.2392 25.9008ZM41.3214 40.6827L38.8974 37.0359L40.7424 33.3837L42.582 29.7369H51.0172L53.3925 33.3891L55.7678 37.0413L53.9228 40.6935L52.0831 44.3457H43.6642L41.3214 40.6827ZM42.4035 55.4646L39.9795 51.8124L41.8246 48.1656L43.6642 44.5134H52.0994L54.4747 48.171L56.8499 51.8232L55.0049 55.47L53.1653 59.1222H44.7355L42.4035 55.4646ZM42.9446 62.9367L44.7896 59.2899H53.2248L55.6001 62.9421L57.9753 66.5997L56.1303 70.2465L54.2907 73.8987H45.8068L43.4315 70.2411L41.0616 66.5943L42.9446 62.9367Z" fill="#E0E0E0"/>
<path d="M33.4326 81.1219L30.2349 76.2036L30.2565 76.5553L33.227 81.1219H33.4326Z" fill="#E0E0E0"/>
<path d="M102.288 74.4073H64.8683C64.1162 74.3968 63.3954 74.1039 62.8492 73.5867C62.3029 73.0696 61.9711 72.3659 61.9195 71.6154L60.4857 45.8715C60.4619 45.5119 60.5125 45.1513 60.6344 44.8122C60.7563 44.4732 60.9469 44.1629 61.1943 43.9008C61.4416 43.6388 61.7403 43.4306 62.0718 43.2893C62.4033 43.148 62.7604 43.0766 63.1207 43.0796H100.552C101.303 43.0902 102.023 43.3832 102.569 43.9005C103.114 44.4178 103.445 45.1215 103.495 45.8715L104.907 71.6154C104.931 71.9736 104.881 72.3328 104.76 72.6708C104.639 73.0088 104.45 73.3183 104.204 73.5801C103.959 73.8419 103.662 74.0504 103.332 74.1927C103.003 74.335 102.647 74.4081 102.288 74.4073V74.4073Z" fill="#378FED"/>
<path opacity="0.2" d="M63.1153 43.1067C62.755 43.1036 62.3979 43.175 62.0664 43.3163C61.735 43.4576 61.4362 43.6658 61.1889 43.9279C60.9416 44.1899 60.751 44.5002 60.6291 44.8393C60.5071 45.1784 60.4565 45.539 60.4803 45.8985L61.9142 71.6424C61.9657 72.3929 62.2975 73.0966 62.8438 73.6138C63.39 74.131 64.1108 74.4239 64.863 74.4343H83.573L81.8308 43.1067H63.1153Z" fill="black"/>
<path opacity="0.2" d="M79.7745 67.0217L80.2073 58.8408C79.5568 58.4333 79.0119 57.8778 78.617 57.2196C78.2221 56.5614 77.9883 55.8191 77.9349 55.0534C77.8943 54.4636 77.9767 53.8719 78.1768 53.3156C78.3769 52.7594 78.6903 52.2508 79.0972 51.822C79.5041 51.3932 79.9957 51.0536 80.5407 50.8247C81.0857 50.5958 81.6723 50.4826 82.2634 50.4922C83.4821 50.5093 84.6502 50.9829 85.5367 51.8194C86.4233 52.6558 86.9639 53.7944 87.0518 55.0101C87.0986 55.7471 86.9532 56.4837 86.6298 57.1476C86.3063 57.8116 85.816 58.3801 85.2068 58.7975L86.5432 66.9784L79.7745 67.0217Z" fill="black"/>
<path d="M86.3486 55.0101C86.2805 53.9735 85.8236 53.0007 85.0692 52.2865C84.3148 51.5722 83.3186 51.1691 82.2798 51.1577C81.7822 51.152 81.2888 51.2495 80.8307 51.444C80.3726 51.6384 79.9597 51.9257 79.6181 52.2876C79.2766 52.6495 79.0136 53.0783 78.846 53.5468C78.6783 54.0154 78.6095 54.5136 78.6439 55.0101C78.691 55.7324 78.9279 56.4294 79.3308 57.0308C79.7336 57.6322 80.288 58.1166 80.938 58.435L80.5268 66.2913H85.721L84.4387 58.435C85.0542 58.1101 85.5623 57.6135 85.9013 57.0056C86.2403 56.3977 86.3957 55.7045 86.3486 55.0101V55.0101Z" fill="#263238"/>
<path d="M99.5778 41.2346H94.627L94.324 35.8618C94.0917 32.3942 92.5619 29.1413 90.0392 26.7509C87.5164 24.3606 84.1859 23.0081 80.7108 22.9628C79.0451 22.9463 77.394 23.2744 75.861 23.9263C74.3281 24.5782 72.9465 25.54 71.8028 26.7512C70.6592 27.9624 69.7783 29.3969 69.2153 30.9647C68.6523 32.5325 68.4195 34.1997 68.5315 35.8618L68.8291 41.2346H63.8783L63.5807 35.8618C63.4239 33.5611 63.7447 31.2529 64.5229 29.0822C65.3012 26.9114 66.5201 24.9252 68.103 23.2483C69.6859 21.5714 71.5986 20.24 73.7208 19.338C75.8431 18.4359 78.129 17.9826 80.4349 18.0066C90.2769 18.0066 98.7283 26.0144 99.2802 35.8618L99.5778 41.2346Z" fill="#378FED"/>
</svg>
