<svg width="22" height="28" viewBox="0 0 22 28" fill="none" xmlns="http://www.w3.org/2000/svg">
<path d="M15.2325 0.877197C18.7983 0.877197 21.6799 2.28509 21.7194 5.86404V25.8377C21.7194 26.0614 21.6667 26.2851 21.5615 26.4825C21.3904 26.7983 21.101 27.0351 20.7457 27.1404C20.4036 27.2456 20.022 27.193 19.7062 27.0088L11.1799 22.7456L2.64043 27.0088C2.44438 27.1127 2.21938 27.1798 1.9957 27.1798C1.25885 27.1798 0.666748 26.5746 0.666748 25.8377L0.666748 5.86404C0.666748 2.28509 3.56148 0.877197 7.11412 0.877197L15.2325 0.877197ZM16.1273 8.82457H6.21938C5.65359 8.82457 5.19306 9.28509 5.19306 9.86404C5.19306 10.4417 5.65359 10.9035 6.21938 10.9035L16.1273 10.9035C16.6931 10.9035 17.1536 10.4417 17.1536 9.86404C17.1536 9.28509 16.6931 8.82457 16.1273 8.82457Z" fill="black"/>
</svg>
