<svg width="293" height="282" viewBox="0 0 293 282" fill="none" xmlns="http://www.w3.org/2000/svg">
<path d="M292.012 276.39C292.012 276.489 228.471 276.562 150.116 276.562C71.7604 276.562 8.2063 276.489 8.2063 276.39C8.2063 276.291 71.7339 276.218 150.116 276.218C228.497 276.218 292.012 276.298 292.012 276.39Z" fill="#263238"/>
<path d="M83.4809 33.7822C86.5983 37.5973 88.2864 42.3808 88.2537 47.3075C88.2207 50.0971 87.7051 53.1711 89.3313 55.4385C90.5608 57.1572 92.8084 58.0232 93.8066 59.8874C95.0097 62.1284 93.9851 64.9643 94.7255 67.397C95.77 70.8477 99.8156 72.2955 102.215 74.986C103.238 76.1757 103.954 77.5981 104.3 79.1285C104.645 80.659 104.611 82.2509 104.198 83.7648C103.761 85.2724 102.971 86.6539 101.892 87.7945C100.814 88.9351 99.4785 89.8018 97.9977 90.3225C96.4166 90.9458 94.6529 90.9173 93.0927 90.2432C91.4731 89.4367 90.4485 87.7774 89.6552 86.1578C88.062 82.9715 74.0674 65.751 73.2742 62.2738" fill="#263238"/>
<path d="M73.3006 29.7232C67.5759 28.7978 62.0626 32.5988 59.663 37.8741C57.2634 43.1493 57.184 49.1121 57.0188 54.9294C56.8535 60.7467 56.4304 66.7755 53.4755 71.7599C51.5981 74.9264 48.6894 77.7094 48.2333 81.3519C47.8235 84.6175 49.5158 87.9095 48.9539 91.1553C48.4647 93.9847 46.3096 96.4438 46.3956 99.3062C46.5013 102.757 50.0512 105.355 53.4953 105.447C56.9394 105.54 60.1654 103.735 62.8691 101.593C67.2742 98.0959 70.7992 93.6156 73.1618 88.5111" fill="#263238"/>
<path d="M63.8806 43.3674C63.7008 41.9273 63.8121 40.4658 64.2079 39.0696C64.6037 37.6734 65.276 36.371 66.1848 35.2396C67.0937 34.1081 68.2205 33.1708 69.4985 32.4833C70.7766 31.7957 72.1797 31.3719 73.6246 31.237C79.3957 30.6817 84.5321 34.9852 85.3981 40.7232C86.1583 45.7538 86.8061 50.8307 86.7863 52.6751C86.7136 58.2346 83.481 60.3962 82.1589 61.0507C81.6833 61.2214 81.1916 61.3432 80.6913 61.4143V61.4539L81.9209 67.8397C82.4828 72.0242 80.1493 75.7724 75.9714 76.3608C71.7935 76.9491 68.508 73.7562 67.8668 69.5717L63.8806 43.3674Z" fill="white"/>
<path d="M84.2611 43.156C84.1685 43.2882 83.4348 42.8982 82.4961 43.037C81.5574 43.1758 80.9294 43.7443 80.8104 43.6452C80.6914 43.546 80.8104 43.3807 81.1012 43.1163C81.4627 42.7642 81.9247 42.5331 82.4233 42.4553C82.9125 42.3798 83.413 42.4632 83.8512 42.6932C84.1818 42.9048 84.3074 43.1031 84.2611 43.156Z" fill="#263238"/>
<path d="M75.8919 45.1921C75.7994 45.3243 75.0656 44.9277 74.1203 45.0665C73.175 45.2053 72.5602 45.7805 72.4412 45.6813C72.3222 45.5821 72.4412 45.4103 72.7321 45.1525C73.0936 44.8003 73.5556 44.5693 74.0542 44.4914C74.544 44.4217 75.0434 44.5072 75.4821 44.736C75.806 44.9409 75.9382 45.1326 75.8919 45.1921Z" fill="#263238"/>
<path d="M79.3229 50.2359C79.7957 50.0085 80.2955 49.8419 80.8103 49.7402C81.0482 49.6807 81.2664 49.6013 81.2862 49.4295C81.2648 49.1879 81.1729 48.958 81.0218 48.7684L80.0368 47.01C78.6684 44.5508 77.6438 42.5148 77.743 42.4553C77.8421 42.3958 79.0651 44.3591 80.3872 46.8183C80.7243 47.4265 81.0482 48.0082 81.3391 48.5569C81.5312 48.8257 81.6246 49.1526 81.6035 49.4823C81.5817 49.5725 81.5394 49.6565 81.4797 49.7276C81.4201 49.7987 81.3448 49.855 81.2598 49.8922C81.1309 49.9486 80.9954 49.9886 80.8565 50.0112C80.3573 50.1527 79.8417 50.2282 79.3229 50.2359Z" fill="#263238"/>
<path d="M80.6383 61.421C80.6383 61.421 77.0487 62.2473 72.104 60.1782C72.104 60.1782 74.2392 64.7726 80.9754 63.1398L80.6383 61.421Z" fill="#E8E8E8"/>
<path d="M75.4095 42.7262C75.3566 42.9972 74.3981 43.0104 73.3139 43.3079C72.2298 43.6054 71.377 44.0285 71.1986 43.8235C71.1192 43.7244 71.2382 43.46 71.5621 43.1625C71.9983 42.7894 72.5136 42.5206 73.0691 42.3762C73.6246 42.2319 74.2057 42.216 74.7683 42.3296C75.2046 42.4287 75.4095 42.6006 75.4095 42.7262Z" fill="#263238"/>
<path d="M83.4876 41.0736C83.3554 41.3116 82.6745 41.186 81.8945 41.2851C81.1144 41.3843 80.4732 41.6421 80.2881 41.4372C80.2088 41.338 80.2881 41.1133 80.5393 40.8687C80.886 40.5613 81.321 40.3716 81.7821 40.3266C82.2374 40.2718 82.6986 40.3571 83.1042 40.5712C83.4215 40.7497 83.5471 40.9546 83.4876 41.0736Z" fill="#263238"/>
<path d="M73.8495 46.4084C73.864 46.5107 73.8987 46.6091 73.9516 46.6978C74.0044 46.7866 74.0744 46.864 74.1575 46.9255C74.2405 46.987 74.3349 47.0314 74.4352 47.0561C74.5356 47.0808 74.6398 47.0853 74.7419 47.0694C74.8412 47.058 74.9372 47.0269 75.0243 46.9781C75.1115 46.9292 75.188 46.8635 75.2495 46.7847C75.3111 46.706 75.3563 46.6158 75.3826 46.5194C75.409 46.423 75.4159 46.3224 75.403 46.2233C75.3719 46.0174 75.2606 45.8323 75.0933 45.7084C74.926 45.5845 74.7165 45.5319 74.5105 45.5622C74.4109 45.5728 74.3144 45.6033 74.2268 45.6519C74.1392 45.7005 74.0623 45.7662 74.0006 45.8452C73.939 45.9241 73.8938 46.0147 73.8678 46.1114C73.8419 46.2082 73.8356 46.3092 73.8495 46.4084Z" fill="#263238"/>
<path d="M82.1852 44.6036C82.2162 44.8094 82.3275 44.9946 82.4948 45.1185C82.6621 45.2424 82.8716 45.2949 83.0776 45.2646C83.1769 45.2532 83.2729 45.2221 83.36 45.1733C83.4472 45.1244 83.5237 45.0587 83.5852 44.9799C83.6468 44.9012 83.692 44.811 83.7183 44.7146C83.7447 44.6182 83.7516 44.5176 83.7386 44.4185C83.7076 44.2126 83.5963 44.0275 83.429 43.9036C83.2617 43.7796 83.0522 43.7271 82.8462 43.7574C82.7466 43.768 82.6501 43.7985 82.5625 43.8471C82.4749 43.8957 82.398 43.9614 82.3363 44.0404C82.2746 44.1193 82.2295 44.2098 82.2035 44.3066C82.1775 44.4034 82.1713 44.5043 82.1852 44.6036Z" fill="#263238"/>
<path d="M80.8037 52.0605C80.5442 51.9797 80.2646 51.9924 80.0135 52.0962C79.7623 52.2001 79.5554 52.3886 79.4287 52.629C79.3077 52.8498 79.2586 53.1028 79.2882 53.3529C79.3178 53.6029 79.4247 53.8374 79.594 54.0238C79.7741 54.2008 80.0114 54.3079 80.2633 54.3261C80.5152 54.3443 80.7653 54.2723 80.969 54.123C81.224 53.8908 81.3782 53.5682 81.3987 53.2239C81.4436 52.9083 81.3681 52.5874 81.1871 52.3249C81.0943 52.1966 80.9617 52.1024 80.8099 52.057C80.6582 52.0116 80.4957 52.0175 80.3476 52.0737" fill="#E8E8E8"/>
<path d="M84.6643 36.195C84.1454 34.1006 82.8506 32.2813 81.0417 31.1049C79.5611 30.0354 77.8023 29.4177 75.978 29.3266C74.1424 29.2476 72.3502 29.8989 70.9936 31.1379C70.031 32.0921 69.4804 33.3854 69.46 34.7407L69.5658 33.8152C69.288 34.5683 69.288 35.3957 69.5658 36.1487C69.7178 36.552 69.9029 36.9618 70.0615 37.3651C70.5348 38.5304 71.4127 39.4857 72.5339 40.0556C73.0417 40.328 73.6104 40.4667 74.1865 40.4588C74.475 40.453 74.7587 40.3844 75.0179 40.2577C75.277 40.1309 75.5054 39.9492 75.6871 39.7251C76.0976 39.0085 76.2249 38.1642 76.0441 37.3585C76.4779 38.1547 77.0969 38.8349 77.8488 39.3417C78.2327 39.587 78.6894 39.6927 79.1421 39.6409C79.5947 39.5891 80.0158 39.3831 80.3344 39.0574C80.8764 38.3963 80.6649 37.3519 80.3344 36.5322C80.8458 37.3053 81.5622 37.921 82.4035 38.3104C82.6249 38.4374 82.8702 38.5171 83.1239 38.5444C83.3777 38.5717 83.6343 38.546 83.8777 38.4691C84.0722 38.3726 84.2423 38.2332 84.3751 38.0615C84.5079 37.8897 84.6 37.69 84.6445 37.4775C84.7426 37.0563 84.7494 36.619 84.6643 36.195Z" fill="#263238"/>
<path d="M79.885 37.9534C79.8255 37.9534 79.8387 37.1668 79.5809 35.9703C79.2835 34.3803 78.4842 32.9276 77.3002 31.8254C76.6495 31.2337 75.8645 30.8094 75.013 30.5892C74.3156 30.4181 73.5894 30.4 72.8844 30.5364C72.2346 30.6882 71.6138 30.945 71.0466 31.2966C71.0466 31.2966 71.159 31.1313 71.4499 30.9198C71.8673 30.6278 72.336 30.417 72.8315 30.2984C73.5729 30.1248 74.3443 30.1248 75.0857 30.2984C75.9992 30.5264 76.8404 30.9812 77.5316 31.6205C78.7712 32.7681 79.5807 34.3054 79.8255 35.9769C79.9042 36.471 79.9439 36.9705 79.9445 37.4709C79.9526 37.6339 79.9325 37.7972 79.885 37.9534Z" fill="#455A64"/>
<path d="M140.768 115.026L115.351 104.945C115.351 104.945 102.334 87.87 102.605 87.5394L93.4629 97.5478L106.75 115.522L137.549 122.741L142.837 121.273C141.674 115.661 140.768 115.026 140.768 115.026Z" fill="white"/>
<path d="M85.3716 66.3128L81.9077 64.9907L66.9546 66.888V69.5322L66.5249 69.5851C63.3016 70.2704 60.2099 71.4713 57.3692 73.1416C54.7083 74.7659 52.594 77.149 51.2982 79.9845C50.0024 82.82 49.5843 85.9782 50.0976 89.0532C50.7058 92.8345 51.8824 97.4288 54.1565 100.086C58.4996 105.17 62.466 98.8898 62.466 98.8898C62.466 98.8898 65.1895 105.104 65.0309 108.045C64.8987 110.511 63.8145 115.641 63.4642 117.241C63.4498 117.305 63.4486 117.371 63.4606 117.435C63.4726 117.5 63.4977 117.561 63.5341 117.615C63.5706 117.67 63.6178 117.716 63.6729 117.752C63.7279 117.787 63.7896 117.811 63.8542 117.822L95.3999 123.66L95.5519 115.945L94.5471 84.2143L93.1258 71.8922C93.1258 71.8922 93.1721 66.0088 85.3716 66.3128Z" fill="#E1E1E1"/>
<path d="M92.6433 69.8428L104.675 87.222L94.9901 99.0153L92.6433 69.8428Z" fill="#E1E1E1"/>
<path d="M95.2413 106.413C95.1981 106.04 95.1827 105.664 95.195 105.289C95.195 104.509 95.195 103.484 95.1554 102.235C95.0969 98.8814 94.8563 95.5337 94.4348 92.2065C93.939 88.3062 93.1788 84.8225 92.6037 82.2906L91.903 79.3159C91.8014 78.956 91.7263 78.5893 91.6782 78.2185C91.8286 78.562 91.948 78.9181 92.0352 79.2828C92.2401 79.9439 92.5178 80.9817 92.8351 82.2377C93.6886 85.4994 94.3377 88.8111 94.7786 92.1536C95.2036 95.4948 95.4111 98.86 95.4 102.228C95.4 103.55 95.3669 104.568 95.3273 105.289C95.3307 105.665 95.3019 106.041 95.2413 106.413Z" fill="#263238"/>
<path d="M65.6259 79.9902C65.6259 80.0431 64.7136 80.0365 63.2527 80.1092C61.3464 80.2126 59.4506 80.4578 57.5808 80.843C55.7115 81.2353 53.8733 81.7633 52.0808 82.4229C50.7058 82.9319 49.8795 83.3087 49.853 83.2558C50.0225 83.123 50.2093 83.014 50.4083 82.9319C50.7719 82.7336 51.314 82.4824 51.9949 82.1981C55.5619 80.7251 59.3741 79.9358 63.2328 79.8712C63.9732 79.8712 64.555 79.8712 64.9846 79.9109C65.2012 79.9039 65.4175 79.9307 65.6259 79.9902Z" fill="#FAFAFA"/>
<path d="M93.4893 87.9426C93.0058 88.1183 92.5012 88.2294 91.9887 88.2731C89.5442 88.63 87.0677 88.7142 84.6047 88.5243C84.0903 88.5155 83.5792 88.4399 83.0842 88.2996C83.5944 88.2542 84.1077 88.2542 84.6179 88.2996C85.5566 88.2996 86.8589 88.2996 88.2934 88.2996C89.7279 88.2996 91.0235 88.1541 91.9622 88.0682C92.4664 87.9801 92.9775 87.9381 93.4893 87.9426Z" fill="#FAFAFA"/>
<path d="M99.0092 80.0827C98.2805 80.9246 97.4075 81.6298 96.4311 82.165C95.5093 82.7881 94.4808 83.2363 93.3968 83.4871C93.3572 83.3946 94.719 82.8261 96.2526 81.8477C97.7863 80.8694 98.9431 80.0034 99.0092 80.0827Z" fill="#FAFAFA"/>
<path d="M94.1503 72.0243C92.0647 73.9005 89.4073 75.0184 86.6077 75.1974C86.6077 75.0916 88.4256 74.814 90.5145 73.9216C92.6035 73.0291 94.0842 71.9384 94.1503 72.0243Z" fill="#FAFAFA"/>
<path d="M94.8048 101.402C94.6103 101.533 94.4019 101.641 94.1834 101.726C93.7669 101.924 93.1654 102.169 92.3986 102.453C90.4063 103.169 88.3497 103.691 86.2573 104.013C84.165 104.336 82.0462 104.453 79.931 104.363C79.1179 104.33 78.4635 104.271 78.0139 104.211C77.7786 104.196 77.5457 104.154 77.3198 104.086C77.3198 104.026 78.3246 104.086 79.9641 104.125C84.1671 104.165 88.3486 103.522 92.3457 102.222C93.8529 101.726 94.785 101.349 94.8048 101.402Z" fill="#FAFAFA"/>
<path d="M95.0496 110.359C95.0496 110.359 94.957 110.425 94.7653 110.524L93.9192 110.895C93.192 111.238 92.1145 111.688 90.7659 112.217C89.4174 112.746 87.7845 113.255 85.9468 113.757C81.9515 114.833 77.8507 115.469 73.7172 115.654C71.8134 115.727 70.1012 115.72 68.6601 115.654C67.219 115.588 66.0622 115.482 65.2623 115.37L64.3434 115.244C64.2352 115.236 64.1285 115.214 64.0261 115.178C64.1334 115.161 64.2427 115.161 64.35 115.178L65.2755 115.238C66.0754 115.304 67.2587 115.37 68.6668 115.41C70.0748 115.449 71.8134 115.41 73.704 115.344C75.5946 115.277 77.6704 115.039 79.832 114.682C81.9937 114.325 84.0297 113.896 85.8675 113.433C87.7052 112.97 89.3314 112.448 90.68 111.965C92.0285 111.483 93.1259 111.08 93.8663 110.776L94.7256 110.438C94.8305 110.401 94.9391 110.374 95.0496 110.359Z" fill="#FAFAFA"/>
<path d="M37.0681 250.893L33.4918 267.043L26.9671 279.001C26.8562 279.206 26.7883 279.43 26.7677 279.662C26.7471 279.893 26.7742 280.127 26.8473 280.347C26.9204 280.568 27.038 280.771 27.1928 280.944C27.3475 281.118 27.5363 281.257 27.7472 281.355C27.9921 281.467 28.2603 281.519 28.5295 281.507C28.7986 281.494 29.0608 281.417 29.2941 281.282C32.3217 279.537 43.4341 273.039 43.6258 271.842C43.8572 270.461 48.5308 255.058 48.5308 255.058L37.0681 250.893Z" fill="#E1E1E1"/>
<g opacity="0.6">
<path opacity="0.6" d="M27.7471 281.355L43.8967 270.778L43.7248 271.439C43.5835 272.029 43.2367 272.549 42.7465 272.907C41.4244 273.852 37.7423 276.39 29.3468 281.295C29.1058 281.437 28.8336 281.516 28.5544 281.526C28.2753 281.537 27.9979 281.478 27.7471 281.355Z" fill="white"/>
</g>
<g opacity="0.6">
<path opacity="0.6" d="M41.8674 264.769C41.6342 264.866 41.4451 265.046 41.3365 265.274C41.2279 265.503 41.2075 265.763 41.2791 266.005C41.3673 266.241 41.5426 266.434 41.7688 266.545C41.995 266.655 42.2551 266.675 42.4954 266.6C42.7452 266.497 42.9473 266.304 43.0623 266.059C43.1772 265.815 43.1967 265.536 43.1168 265.278C42.9998 265.044 42.7976 264.864 42.5517 264.774C42.3059 264.684 42.035 264.692 41.7947 264.795" fill="white"/>
</g>
<path d="M33.1414 275.233C32.8748 274.639 32.5005 274.099 32.0375 273.64C31.5042 273.269 30.9053 273.002 30.2725 272.854C30.2725 272.807 30.5038 272.735 30.8939 272.774C31.4014 272.84 31.879 273.051 32.2689 273.383C32.6617 273.701 32.9515 274.129 33.1018 274.612C33.2142 274.989 33.1811 275.233 33.1414 275.233Z" fill="#263238"/>
<path d="M31.4688 277.104C31.3763 277.157 30.9863 276.509 30.2128 276.067C29.7194 275.837 29.2115 275.641 28.6924 275.478C28.9778 275.385 29.2813 275.36 29.5779 275.408C29.8745 275.455 30.1556 275.572 30.3979 275.749C31.2771 276.258 31.5614 277.085 31.4688 277.104Z" fill="#263238"/>
<path d="M35.9444 272.999C35.3823 272.375 34.7722 271.796 34.1199 271.267C33.4012 270.829 32.6498 270.447 31.8723 270.124C32.7664 270.105 33.6378 270.405 34.3315 270.97C35.0961 271.43 35.669 272.15 35.9444 272.999Z" fill="#263238"/>
<path d="M37.4451 268.18C37.3789 268.266 36.5791 267.678 35.4619 267.354C34.3447 267.03 33.3333 267.083 33.3267 266.97C34.0624 266.78 34.836 266.792 35.5656 267.005C36.2952 267.218 36.9537 267.624 37.4715 268.18H37.4451Z" fill="#263238"/>
<path d="M38.6151 263.467C37.9702 263.068 37.2741 262.759 36.546 262.548C35.7958 262.446 35.0353 262.446 34.2852 262.548C34.2852 262.508 34.4901 262.35 34.9132 262.224C35.4693 262.073 36.053 262.054 36.6178 262.169C37.1825 262.284 37.7125 262.529 38.1656 262.885C38.5027 263.202 38.6415 263.44 38.6151 263.467Z" fill="#263238"/>
<path d="M36.7905 261.655C36.791 261.446 36.8361 261.238 36.9228 261.047C37.11 260.501 37.407 260 37.7953 259.573C38.0494 259.235 38.4068 258.989 38.8134 258.872C38.9518 258.85 39.0938 258.869 39.2211 258.928C39.3484 258.987 39.4551 259.083 39.5273 259.203C39.6488 259.449 39.6747 259.732 39.6 259.996C39.4305 260.526 39.082 260.981 38.6141 261.283C38.1462 261.584 37.588 261.714 37.0351 261.649C36.4899 261.571 35.9799 261.334 35.5694 260.967C35.1588 260.6 34.8661 260.119 34.728 259.586C34.6963 259.451 34.6934 259.31 34.7196 259.173C34.7458 259.037 34.8005 258.907 34.8801 258.793C34.9714 258.686 35.0943 258.612 35.231 258.58C35.3677 258.547 35.511 258.56 35.6403 258.615C36.0139 258.801 36.3328 259.081 36.5658 259.428C36.9161 259.886 37.1825 260.403 37.3524 260.955C37.433 261.152 37.4713 261.363 37.4648 261.576C37.1983 260.863 36.8262 260.195 36.3609 259.593C36.1442 259.31 35.8631 259.084 35.5411 258.932C35.4703 258.901 35.3915 258.894 35.3164 258.912C35.2413 258.93 35.174 258.972 35.1247 259.031C35.0785 259.109 35.0488 259.195 35.0374 259.285C35.026 259.375 35.0332 259.466 35.0586 259.553C35.1965 260.002 35.4582 260.402 35.8138 260.709C36.1693 261.015 36.6041 261.215 37.0682 261.285C37.5358 261.339 38.0079 261.234 38.4077 260.985C38.8075 260.737 39.1113 260.36 39.2695 259.917C39.3336 259.737 39.3336 259.541 39.2695 259.362C39.232 259.294 39.1742 259.239 39.1043 259.206C39.0343 259.173 38.9557 259.163 38.8795 259.176C38.535 259.271 38.228 259.47 38.0003 259.745C37.4932 260.31 37.0843 260.955 36.7905 261.655Z" fill="#263238"/>
<g opacity="0.3">
<path opacity="0.3" d="M36.6318 252.645L35.8584 256.347L47.5525 258.291L48.5309 255.058L37.0483 250.893L36.6318 252.645Z" fill="black"/>
</g>
<path d="M89.2915 256.869L88.3264 269.773C88.3264 269.773 101.124 275.062 101.177 277.494L76.0571 276.523L76.7182 256.347L89.2915 256.869Z" fill="#E1E1E1"/>
<g opacity="0.6">
<path opacity="0.6" d="M80.6253 268.385C80.3815 268.45 80.1701 268.603 80.0312 268.814C79.8923 269.024 79.8356 269.279 79.8717 269.529C79.9273 269.774 80.0745 269.99 80.2832 270.131C80.492 270.272 80.7466 270.329 80.9955 270.289C81.2548 270.22 81.4794 270.058 81.6259 269.833C81.7724 269.608 81.8304 269.337 81.7888 269.072C81.7052 268.821 81.5279 268.612 81.2938 268.489C81.0596 268.366 80.787 268.338 80.5328 268.411" fill="white"/>
</g>
<g opacity="0.6">
<path opacity="0.6" d="M76.0706 276.523L76.216 274.487L100.245 276.159C100.245 276.159 101.349 276.688 101.191 277.481L76.0706 276.523Z" fill="white"/>
</g>
<path d="M88.7496 269.661C88.7496 269.786 88.1282 269.82 87.5134 270.19C86.8986 270.56 86.5549 271.062 86.4425 271.009C86.3301 270.957 86.5417 270.256 87.2953 269.82C88.0489 269.383 88.7826 269.548 88.7496 269.661Z" fill="#263238"/>
<path d="M91.341 270.871C91.341 270.996 90.8254 271.181 90.3891 271.684C89.9528 272.186 89.814 272.728 89.6884 272.722C89.5628 272.715 89.5165 272.014 90.0718 271.399C90.627 270.785 91.341 270.738 91.341 270.871Z" fill="#263238"/>
<path d="M92.716 274.063C92.6036 274.063 92.4582 273.462 92.7953 272.807C93.1324 272.153 93.7208 271.902 93.7671 272.008C93.8133 272.113 93.4498 272.457 93.1787 272.999C92.9077 273.541 92.835 274.057 92.716 274.063Z" fill="#263238"/>
<path d="M88.6305 266.699C88.5776 266.805 88.0223 266.613 87.3084 266.633C86.5945 266.653 86.0656 266.851 85.9863 266.746C85.907 266.64 86.4622 266.223 87.3084 266.21C88.1546 266.197 88.7098 266.607 88.6305 266.699Z" fill="#263238"/>
<g opacity="0.3">
<path opacity="0.3" d="M89.1131 259.428L88.9413 261.728L76.6125 261.133L76.6985 258.476L89.1131 259.428Z" fill="black"/>
</g>
<path d="M88.7959 264.088C88.3806 264.188 87.9454 264.17 87.5399 264.035C87.0816 263.94 86.6373 263.787 86.2178 263.579C85.9731 263.459 85.7367 263.322 85.5105 263.169C85.3724 263.084 85.2477 262.98 85.1403 262.859C85.0674 262.764 85.0278 262.648 85.0278 262.528C85.0278 262.408 85.0674 262.292 85.1403 262.197C85.2045 262.114 85.2879 262.047 85.3833 262.002C85.4788 261.957 85.5836 261.936 85.6889 261.94C85.8481 261.946 86.0058 261.973 86.1583 262.019C86.4228 262.096 86.6796 262.198 86.9251 262.323C87.3426 262.527 87.7243 262.797 88.0555 263.123C88.6174 263.685 88.7959 264.154 88.7562 264.174C88.7166 264.194 88.4323 263.817 87.8572 263.348C87.5196 263.084 87.1511 262.862 86.7599 262.687C86.5266 262.59 86.2883 262.506 86.0459 262.435C85.7815 262.356 85.5567 262.35 85.484 262.435C85.4113 262.521 85.484 262.502 85.484 262.581C85.5633 262.668 85.6545 262.744 85.755 262.806C85.9671 262.953 86.1878 263.088 86.4161 263.209C86.7973 263.419 87.198 263.592 87.6126 263.725C88.0152 263.817 88.4106 263.939 88.7959 264.088Z" fill="#263238"/>
<path d="M88.6306 264.26C88.411 263.889 88.3117 263.46 88.3464 263.03C88.349 262.565 88.4248 262.104 88.5711 261.662C88.666 261.403 88.7832 261.153 88.9215 260.915C88.9958 260.752 89.1107 260.61 89.2554 260.503C89.4001 260.397 89.5696 260.329 89.7478 260.307C89.8607 260.314 89.9691 260.354 90.0605 260.42C90.1518 260.487 90.2222 260.578 90.2634 260.684C90.3209 260.832 90.3565 260.988 90.3692 261.146C90.4127 261.427 90.4127 261.712 90.3692 261.993C90.2808 262.46 90.0788 262.898 89.7809 263.268C89.2652 263.929 88.7496 264.029 88.7364 263.989C88.7232 263.949 89.133 263.705 89.5363 263.09C89.7677 262.739 89.9189 262.342 89.9792 261.926C90.0127 261.685 90.0127 261.441 89.9792 261.199C89.9461 260.935 89.8536 260.71 89.7544 260.737C89.6553 260.763 89.4107 260.922 89.2983 261.133C89.1692 261.345 89.0565 261.566 88.9612 261.794C88.8081 262.193 88.7103 262.611 88.6703 263.037C88.5843 263.777 88.6967 264.26 88.6306 264.26Z" fill="#263238"/>
<path d="M63.3253 117.703C63.3253 117.703 59.3589 117.882 56.7147 131.447C54.0704 145.012 33.9148 254.926 33.9148 254.926L48.5308 255.058L76.0704 150.558L74.2393 258.311L89.0867 259.448C89.0867 259.448 100.226 140.265 100.325 133.331C100.457 124.684 95.4923 115.938 95.4923 115.938L63.3253 117.703Z" fill="#263238"/>
<path d="M83.4149 116.547C83.5074 116.547 81.987 124.314 80.0236 133.853C78.0603 143.392 76.3944 151.113 76.3019 151.093C76.2093 151.074 77.7231 143.326 79.6865 133.787C81.6498 124.248 83.3421 116.527 83.4149 116.547Z" fill="#455A64"/>
<path d="M85.6888 118.483C85.6888 118.444 86.0855 118.325 86.5416 118.728C86.6711 118.845 86.7737 118.99 86.8422 119.151C86.9106 119.311 86.9434 119.485 86.9382 119.66C86.9217 119.881 86.8427 120.093 86.7104 120.271C86.5782 120.449 86.3981 120.585 86.1912 120.665C85.9894 120.757 85.7659 120.79 85.5461 120.76C85.3264 120.731 85.1193 120.641 84.9484 120.5C84.8206 120.38 84.7197 120.234 84.6525 120.072C84.5852 119.91 84.5532 119.736 84.5584 119.561C84.5584 118.953 84.9683 118.741 84.9749 118.781C84.8634 119.024 84.8048 119.287 84.803 119.554C84.8119 119.689 84.8474 119.82 84.9076 119.94C84.9677 120.06 85.0513 120.167 85.1534 120.255C85.2838 120.345 85.4347 120.401 85.5923 120.417C85.7499 120.433 85.909 120.41 86.0551 120.349C86.2012 120.287 86.3296 120.19 86.4285 120.067C86.5273 119.943 86.5935 119.796 86.6209 119.64C86.6306 119.506 86.6134 119.372 86.5703 119.245C86.5271 119.117 86.4589 119 86.3697 118.9C86.0458 118.523 85.6822 118.536 85.6888 118.483Z" fill="#455A64"/>
<path d="M85.0608 123.851C85.0608 123.812 85.4707 123.851 85.7219 124.4C85.7857 124.557 85.8147 124.725 85.8067 124.894C85.7987 125.063 85.754 125.228 85.6756 125.378C85.5619 125.557 85.4018 125.7 85.2125 125.794C85.0233 125.889 84.8119 125.929 84.6012 125.912C84.3905 125.895 84.1885 125.821 84.0167 125.698C83.8449 125.575 83.71 125.407 83.6263 125.213C83.5735 125.054 83.5562 124.885 83.5756 124.718C83.595 124.551 83.6507 124.391 83.7387 124.248C84.0494 123.752 84.4725 123.765 84.4592 123.805C84.446 123.845 84.1419 123.937 83.9502 124.36C83.8532 124.598 83.8532 124.863 83.9502 125.101C84.0193 125.232 84.1203 125.343 84.244 125.425C84.3678 125.507 84.5101 125.556 84.6579 125.568C84.8056 125.58 84.954 125.554 85.0892 125.493C85.2243 125.432 85.3419 125.338 85.431 125.22C85.5555 124.994 85.5864 124.728 85.5169 124.479C85.3252 124.03 85.0278 123.898 85.0608 123.851Z" fill="#455A64"/>
<path d="M71.053 118.616C71.0259 118.843 70.968 119.065 70.8812 119.277C70.6747 119.882 70.4159 120.468 70.1077 121.029C69.0991 122.899 67.6424 124.489 65.868 125.658C64.0936 126.827 62.057 127.537 59.9407 127.725C59.305 127.781 58.6658 127.781 58.0302 127.725C57.8063 127.718 57.5841 127.683 57.3691 127.619C57.3691 127.553 58.3673 127.666 59.9473 127.467C62.0064 127.217 63.9795 126.493 65.7115 125.352C67.4436 124.211 68.8873 122.683 69.9292 120.89C70.7027 119.554 70.9935 118.596 71.053 118.616Z" fill="#455A64"/>
<path d="M99.4919 128.26C99.4919 128.26 99.3201 128.181 99.049 127.996C98.6703 127.724 98.3164 127.418 97.9913 127.084C96.9042 125.983 96.0559 124.67 95.4997 123.227C94.9434 121.783 94.6912 120.24 94.7588 118.695C94.7739 118.23 94.8337 117.767 94.9373 117.313C95.01 116.989 95.0562 116.818 95.0827 116.824C95.1091 116.831 95.0034 117.545 95.0034 118.702C95.0044 121.738 96.1328 124.666 98.1698 126.919C98.9433 127.771 99.525 128.208 99.4919 128.26Z" fill="#455A64"/>
<path d="M150.77 128.644C150.988 128.115 150.929 128.327 147.425 126C147.425 126 152.449 129.305 151.927 127.732C151.475 127.136 150.922 126.623 150.294 126.218C151.616 126.998 152.383 127.084 152.614 126.767C153.011 126.218 150.135 124.122 148.767 123.177C150.018 124.072 151.33 124.878 152.694 125.59C153.507 125.841 153.117 124.889 152.568 124.195C152.019 123.501 147.762 119.402 146.619 118.179C146.51 118.086 146.422 117.971 146.362 117.841C146.302 117.711 146.271 117.569 146.271 117.426C146.271 117.283 146.302 117.141 146.362 117.011C146.422 116.881 146.51 116.765 146.619 116.672C148.668 115.35 149.567 113.241 149.54 112.547C149.518 112.391 149.446 112.246 149.336 112.133C149.225 112.02 149.082 111.945 148.926 111.918C148.771 111.892 148.611 111.916 148.469 111.986C148.328 112.056 148.212 112.169 148.139 112.309C147.622 112.952 147.019 113.522 146.348 114.002C145.827 114.408 145.241 114.723 144.616 114.934C143.888 115.172 140.312 114.973 139.545 114.583L137.106 122.853C137.106 122.853 145.958 126.991 147.637 127.798C149.699 128.776 150.618 129.047 150.77 128.644Z" fill="white"/>
<path d="M145.832 124.777C145.759 124.876 146.91 125.715 148.397 126.661C149.884 127.606 151.134 128.287 151.193 128.188C151.253 128.089 150.103 127.242 148.622 126.304C147.141 125.365 145.898 124.651 145.832 124.777Z" fill="#E8E8E8"/>
<path d="M146.665 123.157C146.599 123.256 147.776 124.222 149.309 125.319C150.843 126.416 152.112 127.229 152.178 127.137C152.244 127.044 151.074 126.072 149.534 124.975C147.994 123.878 146.738 123.065 146.665 123.157Z" fill="#E8E8E8"/>
<path d="M147.544 121.518C147.478 121.61 148.575 122.549 149.997 123.607C151.418 124.664 152.641 125.444 152.694 125.352C152.747 125.259 151.669 124.321 150.248 123.263C148.827 122.205 147.617 121.425 147.544 121.518Z" fill="#E8E8E8"/>
<path d="M57.5147 91.5652L64.0063 91.9222C64.4661 93.7344 65.081 95.5038 65.8441 97.2107C71.073 88.1409 75.0989 75.9841 76.1301 71.0989C75.9847 70.6185 75.8062 70.0764 75.5947 69.4727C75.4363 68.56 75.4633 67.6247 75.674 66.7227C75.8525 65.6385 76.1566 64.171 76.2425 63.4967C76.5268 61.4342 76.8573 61.1037 77.5646 61.3417C78.543 61.659 77.1614 67.1391 77.9613 67.2581C78.3976 67.3176 78.9198 65.4402 79.0784 63.9C79.2371 62.3597 79.9246 57.6265 80.4336 57.2894C81.1806 56.8266 81.8284 57.5604 81.6433 59.0941C81.4583 60.6277 81.2137 65.275 82.0268 65.3344C82.8399 65.3939 83.5009 57.5406 83.5009 57.5406C83.5009 57.5406 83.3753 55.835 84.314 55.8747C86.0129 55.9474 84.6908 64.2305 84.5454 65.0171C84.4396 65.5592 85.3254 65.6782 85.4048 65.07C85.4841 64.4618 85.894 57.21 87.6193 57.2695C88.9414 57.3158 86.5947 64.0917 87.3417 65.665C88.0887 67.2383 88.6043 60.3302 89.8735 60.4228C90.3429 60.4624 90.6932 60.555 89.8272 64.4618C88.9821 67.5685 87.9692 70.6271 86.793 73.6241C84.8098 84.4655 75.9583 119.145 62.1289 112.798C54.3946 109.249 50.7786 91.6446 50.7786 91.6446L57.5147 91.5652Z" fill="white"/>
<path d="M86.8061 73.6835C86.8175 73.6016 86.8397 73.5216 86.8722 73.4455C86.9317 73.2737 87.0044 73.0489 87.1036 72.7845C87.3217 72.1565 87.6192 71.2839 88.0092 70.1402C88.3993 68.9966 88.8686 67.6084 89.3313 65.969C89.5693 65.1559 89.7676 64.27 89.9461 63.3247C90.0387 62.8488 90.1246 62.3596 90.1841 61.8572C90.2006 61.6085 90.2006 61.3589 90.1841 61.1102C90.1841 60.8524 90.1246 60.6408 89.9197 60.6342C89.7148 60.6276 89.5693 60.7532 89.4239 60.9714C89.2922 61.2048 89.1837 61.4506 89.1 61.7051C88.9149 62.2274 88.7694 62.7827 88.624 63.3446C88.4786 63.9065 88.3464 64.4948 88.1745 65.0898C88.0995 65.4157 87.9651 65.7249 87.7779 66.002C87.7308 66.0563 87.6687 66.0954 87.5994 66.1144C87.5557 66.124 87.5105 66.1236 87.467 66.1133C87.4235 66.103 87.3829 66.083 87.3482 66.0549C87.2722 65.9852 87.2095 65.9024 87.1631 65.8103C87.0932 65.648 87.0465 65.4766 87.0243 65.3013C86.9941 63.9679 87.1273 62.6359 87.4209 61.3349C87.5333 60.6739 87.6523 60.0128 87.7382 59.3518C87.7779 59.0146 87.8175 58.6907 87.8241 58.3337C87.8307 57.9768 87.7779 57.6 87.639 57.5405C87.5002 57.481 87.1631 57.6661 86.978 57.9437C86.7952 58.237 86.6508 58.5525 86.5483 58.8824C86.3229 59.573 86.1527 60.2803 86.0393 60.9978C85.9137 61.725 85.8145 62.4654 85.7286 63.219C85.6955 63.5958 85.6559 63.9726 85.6228 64.356L85.5699 64.9311C85.577 65.0539 85.557 65.1768 85.5113 65.291C85.4656 65.4053 85.3953 65.5081 85.3055 65.5922C85.1923 65.6749 85.0557 65.7195 84.9155 65.7195C84.7753 65.7195 84.6387 65.6749 84.5254 65.5922C84.4613 65.5498 84.407 65.4943 84.3659 65.4293C84.3249 65.3644 84.2982 65.2914 84.2875 65.2154C84.2774 65.1452 84.2774 65.074 84.2875 65.0038V64.865L84.466 63.7081C84.5783 62.9281 84.6709 62.148 84.7436 61.3548C84.8163 60.5615 84.8758 59.7616 84.889 58.9618C84.9278 58.1698 84.8475 57.3765 84.6511 56.6084C84.6055 56.4135 84.4872 56.2432 84.3205 56.1324C84.2408 56.1068 84.155 56.1071 84.0755 56.1332C83.9959 56.1593 83.9266 56.21 83.8776 56.2779C83.6636 56.6692 83.5758 57.1172 83.6264 57.5603C83.481 59.1138 83.3157 60.6408 83.091 62.1414C82.9786 62.8884 82.853 63.6354 82.6679 64.3692C82.615 64.5477 82.5621 64.7328 82.496 64.9179C82.4331 65.1422 82.3013 65.3411 82.1192 65.4864C82.0387 65.5259 81.9471 65.537 81.8594 65.5178C81.7718 65.4986 81.6932 65.4502 81.6366 65.3806C81.5559 65.2958 81.495 65.1943 81.4581 65.0831C81.3868 64.8998 81.3358 64.7091 81.3061 64.5146C81.1512 63.0761 81.1379 61.6258 81.2664 60.1847C81.3641 59.5129 81.4017 58.8337 81.3788 58.1553C81.3574 57.8657 81.2248 57.5956 81.0086 57.4017C80.9579 57.3701 80.9012 57.3491 80.8422 57.3401C80.7831 57.331 80.7228 57.3339 80.6649 57.3488C80.603 57.3696 80.5433 57.3962 80.4864 57.4281C80.4269 57.481 80.4335 57.4281 80.3938 57.5405C80.1548 58.135 79.9797 58.7532 79.8716 59.3848C79.7394 60.0459 79.627 60.6474 79.5279 61.2688C79.4287 61.8902 79.3362 62.4984 79.2568 63.1066C79.1775 63.7148 79.1378 64.3097 79.0188 64.9047C78.9161 65.4859 78.7612 66.0567 78.5561 66.6102C78.5016 66.751 78.4376 66.888 78.3644 67.02C78.2718 67.1457 78.219 67.3043 77.9678 67.3836C77.9035 67.3954 77.8372 67.3879 77.7771 67.362C77.7171 67.3361 77.6661 67.2931 77.6306 67.2382C77.5844 67.1619 77.5488 67.0796 77.5249 66.9936C77.4951 66.8499 77.4775 66.7039 77.472 66.5573C77.472 65.4269 77.624 64.3956 77.6835 63.3974C77.7266 62.9203 77.7266 62.4401 77.6835 61.963C77.6835 61.7514 77.5843 61.5002 77.4654 61.4539C77.382 61.4131 77.2904 61.3918 77.1976 61.3918C77.1048 61.3918 77.0132 61.4131 76.9299 61.4539C76.6524 61.7519 76.4805 62.1329 76.4407 62.5381C76.3416 62.9413 76.3019 63.3512 76.2292 63.7412C75.9515 65.3013 75.6607 66.6499 75.5218 67.7472C75.4567 68.2298 75.4567 68.7189 75.5218 69.2015C75.6144 69.5982 75.7532 69.9551 75.8259 70.2328C75.8987 70.5104 75.9714 70.7088 76.0176 70.8938C76.0423 70.9647 76.06 71.0377 76.0705 71.112C76.0309 71.048 75.9998 70.9791 75.978 70.9071L75.7532 70.246C75.6607 69.9618 75.5218 69.6444 75.4095 69.2081C75.3388 68.7127 75.3388 68.2096 75.4095 67.7142C75.5351 66.597 75.7995 65.2616 76.0705 63.6949C76.1432 63.3049 76.1829 62.895 76.2688 62.472C76.3162 62.2485 76.3758 62.0278 76.4473 61.8109C76.5134 61.5705 76.6576 61.3588 76.8572 61.2093C76.9773 61.1457 77.1112 61.1124 77.2472 61.1124C77.3832 61.1124 77.5171 61.1457 77.6372 61.2093C77.7665 61.2908 77.8727 61.4041 77.9456 61.5384C78.0185 61.6727 78.0557 61.8234 78.0537 61.9762C78.1 62.4731 78.1 62.9732 78.0537 63.4702C78.0074 64.475 77.8488 65.5261 77.8752 66.597C77.88 66.7236 77.8955 66.8497 77.9215 66.9738C77.9215 67.0994 78.014 67.1523 78.0008 67.1258C77.9876 67.0994 78.1264 67.02 78.1793 66.9143C78.2445 66.797 78.3019 66.6755 78.3512 66.5507C78.547 66.0148 78.6909 65.4614 78.7809 64.898C78.8932 64.3229 78.9329 63.728 79.0122 63.1132C79.0916 62.4984 79.1709 61.8902 79.27 61.2622C79.3692 60.6342 79.4816 60.0062 79.6072 59.365C79.7147 58.6953 79.9011 58.0407 80.1625 57.4149C80.2153 57.3099 80.2952 57.2209 80.3938 57.1571C80.4817 57.1089 80.5749 57.0712 80.6715 57.0447C80.7824 57.013 80.8987 57.0054 81.0128 57.0225C81.1268 57.0397 81.2359 57.081 81.3326 57.1438C81.4859 57.2656 81.6126 57.4177 81.7048 57.5906C81.7969 57.7634 81.8524 57.9534 81.868 58.1487C81.9176 58.5083 81.9176 58.8731 81.868 59.2328C81.835 59.5699 81.8019 59.8938 81.7821 60.264C81.6532 61.6721 81.6665 63.0895 81.8217 64.4948C81.85 64.6617 81.8943 64.8255 81.9539 64.984C81.9738 65.048 82.0077 65.1067 82.0531 65.1559C82.0531 65.1559 82.0531 65.1559 82.0862 65.1559C82.0862 65.3079 82.0862 65.1559 82.0862 65.2154C82.0862 65.2748 82.0862 65.2154 82.0862 65.1625C82.1686 65.052 82.2333 64.9293 82.2779 64.7989C82.3396 64.6358 82.3924 64.464 82.4365 64.2833C82.615 63.5825 82.734 62.8422 82.8464 62.1018C83.0711 60.6144 83.2364 59.0873 83.3752 57.5405V57.5735C83.3164 57.0286 83.4346 56.4793 83.7124 56.0068C83.8184 55.8718 83.9638 55.7731 84.1285 55.7246C84.2932 55.676 84.4689 55.6799 84.6312 55.7358C84.7699 55.8127 84.8916 55.9167 84.9893 56.0417C85.087 56.1666 85.1585 56.3098 85.1997 56.463C85.4114 57.2758 85.4984 58.1161 85.4575 58.9551C85.4575 59.7748 85.3848 60.5813 85.3121 61.3812C85.2394 62.1811 85.1402 62.9678 85.0279 63.7478C84.9684 64.1444 84.9089 64.5279 84.8494 64.9179C84.7965 65.1625 84.8097 65.1691 84.8494 65.2418C84.8953 65.2728 84.9494 65.2893 85.0047 65.2893C85.0601 65.2893 85.1142 65.2728 85.1601 65.2418C85.2394 65.1823 85.2526 65.0699 85.2724 64.8518L85.3187 64.2767L85.4377 63.133C85.517 62.3794 85.6228 61.6258 85.7484 60.892C85.8707 60.155 86.0475 59.4281 86.2773 58.7172C86.3973 58.3578 86.5593 58.0139 86.7598 57.6925C86.869 57.5193 87.0131 57.3707 87.1829 57.2562C87.2771 57.188 87.3863 57.1434 87.5014 57.1262C87.6164 57.1089 87.7339 57.1195 87.844 57.1571C87.9452 57.2195 88.0307 57.3045 88.0938 57.4054C88.1568 57.5063 88.1958 57.6204 88.2075 57.7388C88.2348 57.9248 88.2459 58.1128 88.2406 58.3007C88.2406 58.6643 88.1943 59.0146 88.1547 59.365C88.0621 60.0261 87.9365 60.7268 87.8175 61.3944C87.5336 62.6502 87.396 63.9346 87.4077 65.222C87.4263 65.3602 87.4618 65.4956 87.5134 65.6252C87.5374 65.6721 87.5662 65.7165 87.5994 65.7574C87.5994 65.7574 87.5994 65.7574 87.5994 65.7111C87.7478 65.4722 87.8571 65.2111 87.9233 64.9377C88.0952 64.3626 88.234 63.7809 88.386 63.2123C88.5224 62.6467 88.6879 62.0885 88.8818 61.5399C88.9734 61.2682 89.093 61.0067 89.2388 60.7598C89.3176 60.6253 89.4208 60.5065 89.5429 60.4095C89.6094 60.3518 89.6887 60.311 89.7743 60.2905C89.8597 60.2771 89.9466 60.2771 90.0321 60.2905C90.1223 60.2995 90.2084 60.3324 90.2817 60.3859C90.3549 60.4393 90.4125 60.5114 90.4485 60.5946C90.5037 60.7335 90.5329 60.8814 90.5345 61.0309C90.5396 61.2983 90.5241 61.5657 90.4882 61.8307C90.4287 62.3464 90.3295 62.8355 90.237 63.3181C90.0453 64.2634 89.8337 65.1625 89.5759 65.9624C89.0801 67.6018 88.5844 68.99 88.1811 70.1204C87.7779 71.2508 87.4341 72.1036 87.2027 72.7118C87.0904 72.9894 86.9978 73.2076 86.9317 73.3728C86.9021 73.4809 86.86 73.5852 86.8061 73.6835Z" fill="#E8E8E8"/>
<path d="M50.719 92.3121C51.975 96.7478 54.4341 103.59 57.0718 110.822C57.1549 111.055 57.3053 111.258 57.504 111.405C57.7027 111.553 57.9406 111.638 58.1877 111.65C58.4348 111.662 58.6799 111.6 58.892 111.473C59.104 111.345 59.2735 111.158 59.3788 110.934L65.844 97.2568C65.844 97.2568 64.2839 86.0189 64.4161 86.4221C64.5483 86.8253 51.076 87.8764 51.076 87.8764L50.719 92.3121Z" fill="#E1E1E1"/>
<path d="M65.2886 90.111C65.2886 90.1639 64.4821 90.4018 63.2062 90.891C61.5388 91.5239 59.9324 92.3072 58.407 93.2312C56.8835 94.1594 55.4455 95.2213 54.1101 96.4042C53.0854 97.3099 52.4971 97.9313 52.4574 97.8916C52.4178 97.852 52.5698 97.7065 52.821 97.4091C53.1751 96.9957 53.5502 96.6007 53.9448 96.2258C55.2479 94.971 56.6843 93.8627 58.2285 92.9205C59.7731 91.9898 61.4131 91.2274 63.1203 90.6464C63.6363 90.4686 64.1615 90.3186 64.6936 90.1969C64.8861 90.1367 65.0869 90.1077 65.2886 90.111Z" fill="#FAFAFA"/>
<path d="M67.8536 93.5219C67.4335 93.0984 67.0692 92.623 66.7694 92.1073C65.9974 90.9036 65.3338 89.6338 64.7863 88.3128C64.2384 86.9878 63.8114 85.6161 63.5104 84.2142C63.3564 83.6408 63.2786 83.0496 63.2791 82.4558C63.4762 83.0101 63.6331 83.5779 63.7484 84.1547C64.1025 85.5236 64.5442 86.8683 65.0705 88.1806C65.6204 89.486 66.2519 90.7555 66.9611 91.9817C67.2913 92.4755 67.5894 92.9899 67.8536 93.5219Z" fill="#263238"/>
<path d="M72.1638 32.9559C71.0423 34.8043 70.347 36.8796 70.1286 39.0306C69.9102 41.1816 70.1741 43.3543 70.9011 45.3904C71.5622 47.2083 72.6199 48.9998 72.4282 50.9301C72.2365 52.8604 70.7293 54.7708 71.2581 56.6747C71.5754 57.8051 72.5406 58.6578 72.9174 59.7552C73.3471 61.0773 72.9174 62.4721 72.686 63.8273C72.1572 67.2913 73.2677 70.775 73.5388 74.2654C73.8098 77.7558 72.8777 81.8477 69.7575 83.3682C68.8122 83.8309 67.576 83.9631 66.7894 83.2558C65.7846 82.3634 66.0622 80.7504 66.3399 79.4283C69.0766 66.2071 60.6217 53.3033 62.552 39.9235C62.8627 37.7816 64.0592 34.1458 65.5995 32.6518C67.1397 31.1578 71.4168 31.3297 72.8711 32.9162" fill="#263238"/>
<path d="M59.1409 71.3103C59.1409 71.3103 59.5441 70.8344 60.1391 69.8957C60.974 68.5699 61.5588 67.1024 61.8644 65.5658C62.0639 64.5072 62.1327 63.4283 62.0694 62.353C61.9537 61.1027 61.9074 59.847 61.9305 58.5916C61.97 57.9041 62.0966 57.2244 62.3073 56.5688C62.5489 55.8934 62.8544 55.2426 63.2196 54.6252C63.96 53.3758 64.8921 52.2124 65.7514 50.9696C66.6339 49.795 67.2477 48.441 67.5495 47.0033C67.6961 45.649 67.6179 44.2798 67.3182 42.951C67.068 41.716 66.9704 40.4549 67.0273 39.1962C67.1059 38.0966 67.3282 37.0121 67.6883 35.9702C68.1933 34.4584 68.9882 33.0595 70.0285 31.8518C70.3048 31.5235 70.6053 31.2164 70.9275 30.9329C71.0297 30.8241 71.1452 30.7286 71.2713 30.6487C71.2713 30.6487 70.8284 31.0784 70.1276 31.9708C68.4587 34.0424 67.4828 36.5861 67.338 39.2424C67.2937 40.4806 67.4025 41.7196 67.6619 42.9311C67.9772 44.2956 68.0621 45.7033 67.9131 47.0958C67.5997 48.5737 66.9681 49.9656 66.0621 51.1745C65.1962 52.4371 64.2641 53.594 63.5369 54.8103C63.1792 55.4048 62.8825 56.0337 62.6511 56.6877C62.442 57.3166 62.3153 57.9699 62.2743 58.6313C62.245 59.8728 62.2803 61.1151 62.3801 62.353C62.4325 63.45 62.3482 64.5492 62.1289 65.6253C61.7976 67.1828 61.1691 68.662 60.2779 69.9816C60.0366 70.3384 59.7716 70.6785 59.4846 70.9996C59.3818 71.1155 59.2665 71.2197 59.1409 71.3103Z" fill="#455A64"/>
<path d="M52.874 72.2954C52.9273 72.1413 52.9959 71.9929 53.0789 71.8525C53.2442 71.5418 53.4558 71.132 53.74 70.6163C54.2953 69.5388 55.1216 67.9721 55.9347 65.9889C56.9293 63.6727 57.4809 61.1905 57.5609 58.671C57.5613 57.9451 57.506 57.2202 57.3957 56.5028C57.2833 55.7624 57.1114 55.0154 56.999 54.2353C56.8615 53.4285 56.8795 52.6028 57.0519 51.8026C57.2755 50.9812 57.7352 50.2433 58.374 49.6806C59.6168 48.5502 61.1174 47.8098 61.8975 46.4811C62.5733 45.1636 62.9715 43.7214 63.0675 42.2437C63.2074 40.8891 63.5138 39.557 63.9798 38.2774C65.0276 35.5303 66.8946 33.1718 69.3277 31.5214C69.7156 31.2603 70.1197 31.024 70.5375 30.814C70.6785 30.7296 70.8295 30.6629 70.987 30.6157C70.987 30.6157 70.392 30.933 69.4071 31.6338C68.0188 32.6244 66.8169 33.8531 65.8572 35.263C65.1916 36.2294 64.6497 37.2754 64.2442 38.3765C63.7988 39.6591 63.5102 40.9909 63.3848 42.3429C63.1865 43.7509 63.0279 45.3243 62.1817 46.7191C61.3356 48.1139 59.7887 48.9072 58.6054 50.0244C58.0024 50.5477 57.5676 51.2377 57.356 52.0076C57.1953 52.7646 57.1796 53.5452 57.3097 54.308C57.4155 55.0683 57.5807 55.8219 57.6931 56.5689C57.8075 57.3036 57.8606 58.0465 57.8518 58.79C57.762 61.3557 57.1808 63.8803 56.1396 66.2269C55.4634 67.8128 54.6953 69.3579 53.8392 70.8543L53.1384 71.8922C53.0648 72.0356 52.9762 72.1707 52.874 72.2954Z" fill="#455A64"/>
<path d="M207.998 56.3836C207.998 56.3836 207.819 56.3836 207.476 56.3836C206.974 56.3538 206.47 56.3538 205.968 56.3836C204.027 56.4973 202.119 56.9445 200.33 57.7057C197.493 58.8949 195.024 60.8184 193.177 63.2784C192.038 64.8145 191.191 66.5465 190.678 68.3884C189.521 72.776 190.146 77.443 192.417 81.3716C193.036 82.4593 193.791 83.4634 194.664 84.3596C195.545 85.309 196.572 86.1123 197.705 86.7394C198.868 87.3939 200.185 87.7248 201.519 87.6979C202.895 87.6814 204.214 87.1481 205.215 86.2039C205.698 85.6971 206.078 85.1 206.331 84.4467C206.583 83.7934 206.705 83.0966 206.689 82.3962C206.679 80.9411 206.217 79.525 205.367 78.3439C203.655 75.9311 200.878 74.3115 197.923 73.4389C194.859 72.5783 191.623 72.5327 188.536 73.3067C186.96 73.7166 185.442 74.3206 184.015 75.1048C182.574 75.9177 181.266 76.9453 180.134 78.1522C179.863 78.4629 179.552 78.7472 179.308 79.0909L178.561 80.0957C178.107 80.8038 177.7 81.5414 177.345 82.3037C176.637 83.8513 176.154 85.4918 175.91 87.1757C175.43 90.5396 175.888 93.9708 177.232 97.0915C178.517 100.141 180.755 102.692 183.611 104.363C184.996 105.154 186.542 105.622 188.133 105.732C189.693 105.819 191.245 105.447 192.595 104.661C193.936 103.92 194.995 102.758 195.61 101.355C196.189 99.9727 196.229 98.423 195.722 97.0122C195.2 95.6511 194.345 94.4422 193.236 93.4954C192.161 92.566 190.921 91.8463 189.581 91.3734C186.967 90.5492 184.17 90.501 181.529 91.2346C179.058 91.9041 176.789 93.1683 174.918 94.9167C173.215 96.5485 171.918 98.5567 171.131 100.78C169.754 104.638 169.817 108.864 171.309 112.679C172.473 115.527 174.346 118.031 176.75 119.951C178.264 121.165 179.95 122.148 181.754 122.866C182.375 123.098 182.858 123.269 183.188 123.362L183.677 123.521C183.677 123.521 183.506 123.488 183.175 123.395C182.687 123.264 182.206 123.108 181.734 122.926C179.907 122.239 178.198 121.271 176.67 120.057C174.226 118.138 172.316 115.622 171.124 112.752C169.606 108.901 169.528 104.631 170.906 100.727C171.695 98.4701 173.006 96.4314 174.733 94.7778C176.63 92.9944 178.933 91.7009 181.443 91.0098C184.139 90.2575 186.996 90.3035 189.667 91.142C191.046 91.6232 192.323 92.3611 193.428 93.3169C194.58 94.2947 195.467 95.5475 196.006 96.9593C196.55 98.4332 196.526 100.057 195.94 101.514C195.288 102.972 194.182 104.18 192.787 104.958C191.386 105.774 189.778 106.165 188.159 106.082C186.53 105.968 184.947 105.484 183.532 104.667C180.611 102.973 178.317 100.377 176.994 97.27C175.621 94.0921 175.15 90.5972 175.632 87.1691C175.885 85.4511 176.379 83.7775 177.1 82.1979C177.463 81.4195 177.878 80.6663 178.343 79.9437L179.11 78.9191C179.354 78.5687 179.671 78.258 179.949 77.9539C181.107 76.7241 182.444 75.6766 183.915 74.8469C185.376 74.0478 186.93 73.4349 188.543 73.0224C191.689 72.234 194.986 72.2819 198.108 73.1612C201.123 74.0603 203.946 75.7063 205.724 78.2051C206.618 79.4355 207.103 80.9152 207.112 82.4359C207.144 83.9325 206.581 85.3806 205.545 86.4617C204.488 87.4545 203.096 88.0137 201.645 88.0284C200.257 88.0599 198.886 87.715 197.679 87.0302C196.518 86.39 195.469 85.5663 194.572 84.5909C193.687 83.6747 192.921 82.6508 192.291 81.5435C189.98 77.5419 189.352 72.7865 190.546 68.3223C191.075 66.4591 191.942 64.709 193.104 63.1594C194.985 60.6808 197.496 58.7518 200.376 57.5735C202.18 56.827 204.103 56.4062 206.054 56.3307C206.561 56.2973 207.068 56.2973 207.575 56.3307L207.998 56.3836Z" fill="#263238"/>
<path d="M230.07 122.529H137.384V194.016H230.07V122.529Z" fill="#E1E1E1"/>
<path d="M137.384 122.529L154.505 138.5H245.619L230.07 122.529H137.384Z" fill="#E1E1E1"/>
<path d="M137.384 122.529L230.097 122.364H230.17L230.222 122.41L245.612 138.216L245.771 138.381L246.055 138.672H245.645L154.531 138.599H154.492L137.384 122.529L154.571 138.394H154.498L245.612 138.328L245.493 138.619L245.328 138.454L229.945 122.648L230.064 122.701L137.384 122.529Z" fill="#263238"/>
<path d="M165.228 155.496C164.725 155.514 164.251 155.729 163.905 156.094C163.56 156.458 163.371 156.944 163.38 157.447C163.389 157.949 163.595 158.428 163.954 158.78C164.312 159.132 164.795 159.329 165.297 159.329C165.799 159.329 166.282 159.132 166.64 158.78C166.999 158.428 167.205 157.949 167.214 157.447C167.223 156.944 167.034 156.458 166.689 156.094C166.343 155.729 165.868 155.514 165.366 155.496" fill="#263238"/>
<path d="M187.128 155.496C186.628 155.515 186.156 155.73 185.812 156.093C185.468 156.457 185.281 156.941 185.291 157.442C185.3 157.942 185.506 158.418 185.863 158.769C186.22 159.119 186.701 159.316 187.201 159.316C187.701 159.316 188.182 159.119 188.539 158.769C188.896 158.418 189.102 157.942 189.111 157.442C189.121 156.941 188.933 156.457 188.59 156.093C188.246 155.73 187.774 155.515 187.274 155.496" fill="#263238"/>
<path d="M187.254 172.604C186.872 171.144 186.251 169.757 185.416 168.499C184.488 167.154 183.296 166.011 181.912 165.141C180.244 164.033 178.297 163.417 176.295 163.362C174.293 163.307 172.316 163.816 170.589 164.83C169.162 165.626 167.91 166.701 166.906 167.99C166.003 169.201 165.308 170.555 164.851 171.996C164.856 171.888 164.873 171.782 164.903 171.679C164.967 171.381 165.048 171.087 165.148 170.799C165.51 169.738 166.039 168.74 166.715 167.844C167.711 166.495 168.979 165.369 170.437 164.539C172.208 163.482 174.244 162.95 176.307 163.006C178.369 163.062 180.373 163.704 182.084 164.857C183.492 165.761 184.694 166.95 185.614 168.347C186.242 169.279 186.718 170.306 187.022 171.388C187.104 171.681 187.168 171.979 187.214 172.28C187.237 172.387 187.25 172.495 187.254 172.604Z" fill="#263238"/>
<path opacity="0.5" d="M137.595 123.316L153.989 144.099H230.071V138.5H154.505L137.595 123.316Z" fill="black"/>
<path d="M211.792 193.857C211.7 193.857 211.621 181.423 211.621 166.093C211.621 150.763 211.7 138.328 211.792 138.328C211.885 138.328 211.971 150.756 211.971 166.093C211.971 181.429 211.892 193.857 211.792 193.857Z" fill="#263238"/>
<path d="M226.349 177.648H218.178V186.883H226.349V177.648Z" fill="#F5F5F5"/>
<path d="M137.384 122.529L118.358 138.5H137.384V122.529Z" fill="#E1E1E1"/>
<g opacity="0.4">
<path opacity="0.4" d="M137.384 122.529L118.358 138.5H137.384V122.529Z" fill="black"/>
</g>
<path d="M232.807 194.016H126.238V276.212H232.807V194.016Z" fill="#E1E1E1"/>
<path opacity="0.3" d="M232.807 194.016H126.238V276.212H232.807V194.016Z" fill="black"/>
<path d="M206.107 275.63C206.015 275.63 205.935 257.312 205.935 234.717C205.935 212.122 206.015 193.798 206.107 193.798C206.2 193.798 206.279 212.116 206.279 234.717C206.279 257.319 206.2 275.63 206.107 275.63Z" fill="#263238"/>
<path d="M223.771 257.504H215.6V266.739H223.771V257.504Z" fill="#F5F5F5"/>
<path d="M170.853 194.234H158.749V211.772H170.853V194.234Z" fill="#263238"/>
<path d="M170.853 258.429H158.749V275.967H170.853V258.429Z" fill="#263238"/>
<path d="M231.882 194.016H231.604H230.804L227.73 194.049L216.407 194.102L179.063 194.188L141.707 194.141L130.39 194.089L127.316 194.055H126.509H126.238H126.509H127.316L130.39 194.022L141.707 193.97L179.063 193.917L216.407 193.97L227.73 194.022L230.804 194.055H231.604L231.882 194.016Z" fill="#263238"/>
<path d="M49.2446 51.71L37.6365 48.8543H37.7224C34.7251 50.7608 31.2591 51.8017 27.7074 51.8621C25.6047 51.8716 23.5124 51.5664 21.5 50.9564C17.9622 49.8204 14.8234 47.6954 12.4548 44.8324C10.0861 41.9694 8.58663 38.4882 8.13345 34.8002C7.77753 32.0109 8.03954 29.1775 8.90092 26.5008C9.7623 23.8242 11.202 21.3697 13.1178 19.3116C14.1249 18.2054 15.2537 17.2163 16.4826 16.3633C17.104 15.9732 17.7254 15.57 18.3732 15.2329L19.3582 14.7569L19.8474 14.5189L20.363 14.3338C23.0175 13.3049 25.8649 12.8694 28.7056 13.058C32.5126 13.3052 36.1612 14.6738 39.1916 16.9913C42.222 19.3088 44.4986 22.4715 45.7344 26.0808C46.421 28.0999 46.7825 30.2152 46.8053 32.3476C46.8219 35.8916 45.8587 39.3712 44.0223 42.4023V42.2966C47.2482 48.1205 48.8744 51.0622 49.238 51.71C48.8612 51.049 47.1755 48.1601 43.8372 42.3957V42.3428V42.2899C45.6077 39.2882 46.5222 35.8588 46.4814 32.3741C46.4507 30.2757 46.0847 28.1958 45.3973 26.213C44.1749 22.6775 41.9367 19.5812 38.9629 17.3118C35.9891 15.0423 32.4119 13.7006 28.6791 13.4546C25.8944 13.2731 23.1037 13.7018 20.5018 14.7106L19.9994 14.8891L19.5169 15.1271L18.5517 15.5898C17.8907 15.927 17.3089 16.317 16.6941 16.7004C15.4889 17.5306 14.3803 18.4929 13.3889 19.5694C11.508 21.5899 10.0943 23.9991 9.24784 26.6265C8.40135 29.2539 8.14278 32.0353 8.49042 34.7737C9.10329 39.7907 11.6772 44.361 15.6497 47.4859C17.4257 48.8931 19.4412 49.968 21.5992 50.6589C23.5754 51.2698 25.6323 51.5796 27.7008 51.5778C31.21 51.5402 34.6409 50.5361 37.6166 48.6758H37.6563H37.729L49.2446 51.71Z" fill="#263238" stroke="#9B9B9B" stroke-width="0.5" stroke-linecap="round" stroke-linejoin="round"/>
<path d="M25.8299 23.8331L26.4183 33.5507C26.4418 33.934 26.6046 34.2954 26.8762 34.567C27.1477 34.8385 27.5092 35.0014 27.8925 35.0248C28.2958 35.0476 28.6925 34.9151 29.0011 34.6544C29.3097 34.3938 29.5067 34.0248 29.5517 33.6234L30.6292 23.886C30.648 23.7118 30.6295 23.5356 30.575 23.3691C30.5205 23.2025 30.4312 23.0495 30.3131 22.9201C30.1949 22.7907 30.0506 22.6879 29.8897 22.6185C29.7288 22.5491 29.555 22.5147 29.3798 22.5176H27.0199C26.8543 22.5226 26.6914 22.5609 26.541 22.6304C26.3905 22.6998 26.2557 22.799 26.1446 22.9218C26.0335 23.0447 25.9483 23.1888 25.8942 23.3454C25.8402 23.502 25.8183 23.6679 25.8299 23.8331Z" fill="#9B9B9B"/>
<path d="M30.4573 40.4521C30.3093 40.896 30.0331 41.2861 29.6636 41.573C29.294 41.86 28.8477 42.031 28.3809 42.0644C27.9142 42.0978 27.4481 41.9921 27.0414 41.7607C26.6348 41.5292 26.3059 41.1824 26.0962 40.7641C25.8866 40.3458 25.8057 39.8747 25.8637 39.4104C25.9217 38.9461 26.1161 38.5094 26.4222 38.1556C26.7283 37.8017 27.1325 37.5465 27.5836 37.4223C28.0347 37.298 28.5125 37.3103 28.9567 37.4575C29.252 37.5554 29.5251 37.7105 29.7603 37.914C29.9956 38.1176 30.1885 38.3655 30.3278 38.6436C30.4672 38.9218 30.5504 39.2247 30.5726 39.535C30.5948 39.8453 30.5556 40.1569 30.4573 40.4521Z" fill="#9B9B9B"/>
</svg>
