<svg width="20" height="19" viewBox="0 0 20 19" fill="none" xmlns="http://www.w3.org/2000/svg">
<path fill-rule="evenodd" clip-rule="evenodd" d="M16.4434 11.0949C18.4046 11.0949 20 12.6824 20 14.6332C20 16.5841 18.4046 18.1715 16.4434 18.1715C14.4811 18.1715 12.8845 16.5841 12.8845 14.6332C12.8845 12.6824 14.4811 11.0949 16.4434 11.0949ZM16.4434 12.8092C15.4263 12.8092 14.5988 13.6275 14.5988 14.6332C14.5988 15.6401 15.4263 16.4572 16.4434 16.4572C17.4594 16.4572 18.2857 15.6401 18.2857 14.6332C18.2857 13.6275 17.4594 12.8092 16.4434 12.8092ZM8.09182 13.8204C8.56496 13.8204 8.94896 14.2044 8.94896 14.6776C8.94896 15.1507 8.56496 15.5347 8.09182 15.5347H0.890634C0.417488 15.5347 0.0334859 15.1507 0.0334859 14.6776C0.0334859 14.2044 0.417488 13.8204 0.890634 13.8204H8.09182ZM3.55773 0C5.52003 0 7.11547 1.58858 7.11547 3.53945C7.11547 5.49032 5.52003 7.07661 3.55773 7.07661C1.59658 7.07661 0 5.49032 0 3.53945C0 1.58858 1.59658 0 3.55773 0ZM3.55773 1.7143C2.54173 1.7143 1.7143 2.53259 1.7143 3.53945C1.7143 4.54517 2.54173 5.36232 3.55773 5.36232C4.57488 5.36232 5.40117 4.54517 5.40117 3.53945C5.40117 2.53259 4.57488 1.7143 3.55773 1.7143ZM18.5042 2.74333C18.9774 2.74333 19.3614 3.12733 19.3614 3.60048C19.3614 4.07362 18.9774 4.45763 18.5042 4.45763H11.3042C10.831 4.45763 10.447 4.07362 10.447 3.60048C10.447 3.12733 10.831 2.74333 11.3042 2.74333H18.5042Z" fill="#25004C"/>
</svg>
