<svg width="34" height="33" viewBox="0 0 34 33" fill="none" xmlns="http://www.w3.org/2000/svg">
<circle cx="16.8058" cy="16.3409" r="16.3409" fill="#1D1D1D"/>
<path d="M17.0356 9.06918C15.0434 9.06918 13.4224 10.6892 13.4224 12.6814C13.4159 14.6671 15.0248 16.2862 17.0086 16.2936L17.0356 16.958V16.2936C19.0269 16.2936 20.6469 14.6727 20.6469 12.6814C20.6469 10.6892 19.0269 9.06918 17.0356 9.06918Z" fill="#FFFCFC"/>
<path fill-rule="evenodd" clip-rule="evenodd" d="M21.9756 12.6814C21.9756 9.95688 19.7601 7.74042 17.0356 7.74042C14.3101 7.74042 12.0936 9.95688 12.0936 12.6786C12.0844 15.3957 14.2869 17.6131 17.0058 17.6215H17.0356C19.7601 17.6215 21.9756 15.4059 21.9756 12.6814ZM13.4224 12.6814C13.4224 10.6892 15.0434 9.06918 17.0356 9.06918C19.0269 9.06918 20.6469 10.6892 20.6469 12.6814C20.6469 14.6727 19.0269 16.2936 17.0356 16.2936V16.958L17.0086 16.2936C15.0248 16.2862 13.4159 14.6671 13.4224 12.6814Z" fill="#FFFCFC"/>
<path fill-rule="evenodd" clip-rule="evenodd" d="M24.4042 22.8085C24.4042 25.8754 20.1984 26.2299 17.0356 26.2299L16.8092 26.2297C14.7942 26.2248 9.66504 26.0976 9.66504 22.7899C9.66504 19.7855 13.7019 19.384 16.8406 19.3688L17.2619 19.3686C19.2768 19.3735 24.4042 19.5007 24.4042 22.8085ZM11.0608 22.7899C11.0608 21.4453 13.0707 20.7641 17.0356 20.7641C20.9995 20.7641 23.0085 21.4518 23.0085 22.8085C23.0085 24.153 20.9995 24.8342 17.0356 24.8342C13.0707 24.8342 11.0608 24.1465 11.0608 22.7899Z" fill="#FFFCFC"/>
<path d="M17.0356 20.7641C13.0707 20.7641 11.0608 21.4453 11.0608 22.7899C11.0608 24.1465 13.0707 24.8342 17.0356 24.8342C20.9995 24.8342 23.0085 24.153 23.0085 22.8085C23.0085 21.4518 20.9995 20.7641 17.0356 20.7641Z" fill="#FFFCFC"/>
</svg>
