<svg width="40" height="55" viewBox="0 0 40 55" fill="none" xmlns="http://www.w3.org/2000/svg">
<g filter="url(#filter0_d)">
<path d="M18.2597 30.6542C10.819 38.8564 6.87632 22.578 4.74841 28.4671C7.33853 21.0156 12.0704 21.265 18.2597 30.6542Z" fill="#3F37C9"/>
<path d="M16.4475 43.2905C7.9018 43.1084 2.20758 37.1058 4.51608 29.2003C4.4984 29.2627 4.48325 29.325 4.4681 29.3824C4.41884 29.5757 4.37843 29.7565 4.34181 29.9448C4.33177 29.9926 4.32419 30.0408 4.31908 30.0894C4.30771 30.158 4.29635 30.2253 4.28877 30.2914C4.28119 30.3575 4.27362 30.4161 4.2673 30.4734L4.25594 30.6069C4.25215 30.6742 4.25215 30.7428 4.25215 30.8076C4.25215 30.8725 4.25215 30.9672 4.25215 31.0445C4.2376 31.9355 4.50225 32.8091 5.00986 33.5458C5.05659 33.6194 5.10836 33.6892 5.1614 33.7578C5.36704 34.0257 5.59516 34.2759 5.84335 34.506C5.957 34.612 6.07697 34.7154 6.19947 34.8189C6.32197 34.9224 6.45204 35.0209 6.58464 35.1207L6.7867 35.2678C6.92056 35.3651 7.062 35.4611 7.20597 35.5571C9.28463 36.9387 12.0768 38.122 14.278 40.3079C14.355 40.3827 14.4308 40.46 14.504 40.5385C15.2877 41.3546 15.9429 42.2823 16.4475 43.2905Z" fill="#3F37C9"/>
<path d="M27.3359 5.58258C27.0649 6.37496 26.5621 7.07024 25.891 7.58053C25.2199 8.09082 24.4107 8.39321 23.5656 8.44948C22.7205 8.50575 21.8775 8.31337 21.1431 7.89666C20.4087 7.47995 19.8159 6.85762 19.4396 6.10833C19.0633 5.35904 18.9205 4.51643 19.0292 3.68701C19.1378 2.85758 19.4931 2.07858 20.05 1.44847C20.607 0.818353 21.3406 0.365416 22.1582 0.146908C22.9758 -0.0715995 23.8407 -0.0458687 24.6435 0.220848C25.1771 0.397959 25.6701 0.677218 26.0943 1.04265C26.5185 1.40807 26.8656 1.8525 27.1156 2.3505C27.3657 2.84849 27.5139 3.39029 27.5517 3.94488C27.5895 4.49948 27.5161 5.05599 27.3359 5.58258V5.58258Z" fill="#3F37C9"/>
<path d="M13.5316 18.0891C13.4438 18.3461 13.2807 18.5717 13.0631 18.7372C12.8455 18.9028 12.583 19.0009 12.3089 19.0192C12.0348 19.0374 11.7614 18.9751 11.5232 18.8399C11.285 18.7047 11.0927 18.5029 10.9707 18.2598C10.8487 18.0168 10.8024 17.7435 10.8377 17.4745C10.873 17.2055 10.9883 16.9528 11.169 16.7485C11.3497 16.5442 11.5877 16.3974 11.8529 16.3266C12.1181 16.2558 12.3986 16.2643 12.6589 16.3509C12.8319 16.4084 12.9916 16.499 13.129 16.6175C13.2665 16.736 13.3789 16.8801 13.4599 17.0415C13.541 17.2029 13.589 17.3785 13.6013 17.5583C13.6136 17.738 13.5899 17.9184 13.5316 18.0891V18.0891Z" fill="#FCA800"/>
<path d="M34.7021 38.9038C34.0984 40.561 33.3407 41.7181 32.4403 42.5199C33.4241 41.4704 34.1923 40.2424 34.7021 38.9038V38.9038Z" fill="#0070CC"/>
<path d="M35.1693 37.1432C35.1118 37.5751 35.0124 38.0006 34.8726 38.4138C35.0008 37.9974 35.0999 37.5729 35.1693 37.1432V37.1432Z" fill="#0070CC"/>
<g style="mix-blend-mode:overlay">
<path d="M32.4403 42.5199C27.7981 47.5163 19.0275 48.4365 16.4475 43.2905C23.7001 43.4426 29.0862 45.4875 32.4403 42.5199Z" fill="#4893FF"/>
</g>
<path d="M35.1694 37.1394C35.7895 31.754 23.9704 40.2218 19.8737 33.2541C19.3273 32.3197 18.7893 31.4531 18.2598 30.6542C20.6743 27.9946 23.4577 22.76 26.6679 13.3608C29.3186 5.5938 36.7543 27.7776 35.1694 37.1394Z" fill="#4895EF"/>
<path d="M35.1694 37.1394C35.1 37.5692 35.0008 37.9937 34.8726 38.4101C34.8536 38.4736 34.8309 38.5347 34.8107 38.5971C34.7766 38.7006 34.7387 38.8041 34.7021 38.9051C34.1923 40.2436 33.4242 41.4717 32.4403 42.5211C29.0862 45.4875 23.7001 43.4426 16.4475 43.2905C15.9399 42.2812 15.2813 41.353 14.4939 40.5373C14.4206 40.4587 14.3449 40.3814 14.2678 40.3066C12.0667 38.1208 9.2745 36.9399 7.19584 35.5559C7.05188 35.4599 6.91044 35.3638 6.77658 35.2666L6.57452 35.1194C6.44192 35.0197 6.31311 34.9199 6.18935 34.8177C6.06559 34.7154 5.94688 34.6107 5.83322 34.5047C5.58504 34.2747 5.35692 34.0244 5.15128 33.7566C5.09824 33.688 5.04646 33.6182 4.99974 33.5446C4.49212 32.8079 4.22748 31.9342 4.24202 31.0433C4.24202 30.966 4.24202 30.8862 4.24202 30.8064C4.24202 30.7266 4.24202 30.6817 4.25339 30.6106L4.26476 30.4772C4.26476 30.4173 4.27865 30.3525 4.28622 30.2951C4.2938 30.2378 4.30517 30.1617 4.31653 30.0931C4.32164 30.0446 4.32923 29.9963 4.33926 29.9485C4.37084 29.7664 4.41125 29.5744 4.46555 29.3861C4.48449 29.3076 4.50722 29.229 4.52869 29.148C4.53364 29.1355 4.53744 29.1225 4.54006 29.1093C4.54764 29.0881 4.55269 29.0657 4.559 29.0457C4.58173 28.9622 4.60825 28.8799 4.63477 28.7964C4.66129 28.7128 4.68023 28.653 4.70423 28.5806C4.71812 28.5407 4.73075 28.5033 4.7459 28.4659C6.87382 22.5767 10.8076 38.8552 18.2585 30.653C18.7863 31.4535 19.3243 32.3201 19.8724 33.2528C23.9704 40.2218 35.7894 31.754 35.1694 37.1394Z" fill="#4361EE"/>
<path d="M18.5224 11.7124C18.3562 12.1984 18.0478 12.6249 17.636 12.9378C17.2243 13.2506 16.7278 13.4359 16.2094 13.47C15.691 13.5041 15.174 13.3856 14.7238 13.1294C14.2737 12.8733 13.9106 12.491 13.6806 12.031C13.4506 11.5711 13.364 11.054 13.4317 10.5454C13.4994 10.0368 13.7185 9.55946 14.0611 9.17383C14.4037 8.78819 14.8545 8.5116 15.3565 8.37906C15.8584 8.24652 16.3888 8.264 16.8807 8.42928C17.5386 8.6507 18.0808 9.12057 18.3885 9.73595C18.6962 10.3513 18.7443 11.062 18.5224 11.7124V11.7124Z" fill="#F72585"/>
<g style="mix-blend-mode:soft-light" opacity="0.37">
<path d="M35.1694 37.1395C35.1118 37.5714 35.0125 37.9969 34.8726 38.4101C34.8537 38.4737 34.8309 38.5348 34.8107 38.5971C34.7766 38.7006 34.7387 38.8041 34.7021 38.9051C34.0985 40.5622 33.3408 41.7194 32.4403 42.5211C27.7981 47.5163 19.0276 48.4365 16.4475 43.2905C7.9018 43.1084 2.20758 37.1058 4.51608 29.2004C4.51608 29.1817 4.52745 29.163 4.53124 29.1443C4.53619 29.1317 4.53999 29.1188 4.5426 29.1056C4.55018 29.0844 4.55523 29.062 4.56155 29.042C4.58428 28.9585 4.6108 28.8762 4.63732 28.7926C4.66384 28.7091 4.68278 28.6492 4.70678 28.5769C4.72067 28.537 4.7333 28.4996 4.74845 28.4622C7.33857 21.0106 12.073 21.26 18.261 30.6493C20.6756 27.9896 23.4589 22.7551 26.6691 13.3558C29.3186 5.59381 36.7543 27.7776 35.1694 37.1395Z" fill="#A5A5A5"/>
</g>
</g>
<defs>
<filter id="filter0_d" x="0" y="0" width="39.3887" height="54.735" filterUnits="userSpaceOnUse" color-interpolation-filters="sRGB">
<feFlood flood-opacity="0" result="BackgroundImageFix"/>
<feColorMatrix in="SourceAlpha" type="matrix" values="0 0 0 0 0 0 0 0 0 0 0 0 0 0 0 0 0 0 127 0"/>
<feOffset dy="4"/>
<feGaussianBlur stdDeviation="2"/>
<feColorMatrix type="matrix" values="0 0 0 0 0 0 0 0 0 0 0 0 0 0 0 0 0 0 0.25 0"/>
<feBlend mode="normal" in2="BackgroundImageFix" result="effect1_dropShadow"/>
<feBlend mode="normal" in="SourceGraphic" in2="effect1_dropShadow" result="shape"/>
</filter>
</defs>
</svg>
