<svg id="Layer_1" enable-background="new 0 0 511.528 511.528" height="512" viewBox="0 0 511.528 511.528" width="512" xmlns="http://www.w3.org/2000/svg"><g><ellipse cx="239.55" cy="84.155" rx="41.49" ry="41.49" transform="matrix(1 -.026 .026 1 -2.13 6.327)"/><path d="m386.522 181.885 49.394-62.906c6.83-8.695 5.31-21.282-3.382-28.108-8.698-6.834-21.314-5.272-28.107 3.381 0 0-.001.001-.001.001-5.167 6.58-37.582 47.862-42.766 54.464l-60.147-9.138c-6.618-1.005-13.303-1.51-19.997-1.51h-60.957l-63.671-45.029-22.363-78.081c-2.99-10.436-13.65-17-24.185-14.383-11.061 2.746-17.55 14.083-14.439 24.945l24.434 85.311c1.255 4.38 3.966 8.201 7.686 10.832l58.867 41.632c-.091.921-.14 1.855-.14 2.8v134.542l-28.308 72.418c-.753 1.926-1.253 3.94-1.49 5.994l-12.188 105.698c-1.52 13.18 7.932 25.097 21.113 26.616 13.181 1.518 25.096-7.932 26.616-21.113l11.832-102.604 30.392-77.75h10.797l47.724 183.645c3.342 12.861 16.471 20.541 29.292 17.208 12.841-3.337 20.546-16.452 17.209-29.293l-46.952-180.674v-121.337l76.408 10.032c6.518.517 12.831-2.064 17.329-7.593z"/><path d="m330.514 88.459c6.453 0 14.603-3.314 13.442-9.004v-42.835l32.18-11.263v34.521c-6.4-.514-15.391 2.146-15.391 7.949 0 4.436 6.067 8.032 13.551 8.032s13.551-3.596 13.551-8.032c.099 0 .306 0 .206 0v-49.79c0-4.632-4.573-7.876-8.945-6.346l-42.291 14.802c-2.862 1.002-4.778 3.702-4.778 6.734v39.222c-6.27-.419-15.076 2.25-15.076 7.978.001 4.436 6.067 8.032 13.551 8.032z"/><path d="m462.462 169.905-28.571 10v44.284c-6.269-.418-15.076 2.25-15.076 7.978 0 4.436 6.067 8.032 13.551 8.032 6.453 0 14.603-3.313 13.442-9.004v-42.835l9.344-3.27c6.211-2.175 9.484-8.974 7.31-15.185z"/><path d="m69.871 95.111-28.571 10v44.283c-6.27-.415-15.076 2.25-15.076 7.978 0 4.436 6.067 8.032 13.551 8.032 6.453 0 14.602-3.313 13.442-9.004v-42.835l9.343-3.27c6.211-2.174 9.485-8.972 7.311-15.184z"/><path d="m437.333 36.821c3.628 1.977 6.612 4.962 8.59 8.59.766 1.405 2.796 1.405 3.562 0 1.977-3.627 4.962-6.612 8.59-8.59 1.405-.766 1.405-2.796 0-3.562-3.628-1.977-6.613-4.962-8.59-8.59-.766-1.405-2.796-1.405-3.562 0-1.978 3.627-4.962 6.612-8.59 8.59-1.405.765-1.405 2.795 0 3.562z"/><path d="m28.987 93.041c1.977-3.627 4.962-6.612 8.59-8.59 1.405-.766 1.405-2.796 0-3.562-3.628-1.977-6.613-4.962-8.59-8.59-.766-1.405-2.796-1.405-3.562 0-1.977 3.627-4.962 6.612-8.59 8.59-1.405.766-1.405 2.796 0 3.562 3.628 1.977 6.613 4.962 8.59 8.59.766 1.406 2.796 1.406 3.562 0z"/><path d="m481.692 80.468c-2.841-1.548-5.178-3.886-6.727-6.727-.6-1.1-2.19-1.1-2.789 0-1.548 2.841-3.886 5.179-6.727 6.727-1.1.6-1.1 2.19 0 2.79 2.841 1.549 5.179 3.886 6.727 6.727.6 1.1 2.19 1.1 2.789 0 1.549-2.841 3.886-5.178 6.727-6.727 1.1-.6 1.1-2.19 0-2.79z"/><path d="m82.498 55.995c-2.841-1.548-5.179-3.886-6.727-6.727-.6-1.1-2.19-1.1-2.789 0-1.549 2.841-3.886 5.179-6.727 6.727-1.1.6-1.1 2.19 0 2.79 2.841 1.549 5.178 3.886 6.727 6.727.6 1.1 2.19 1.1 2.789 0 1.549-2.841 3.886-5.178 6.727-6.727 1.1-.601 1.1-2.191 0-2.79z"/><path d="m495.16 41.623c-2.024-1.103-3.689-2.768-4.792-4.792-.427-.784-1.56-.784-1.987 0-1.103 2.023-2.768 3.689-4.792 4.792-.784.427-.784 1.56 0 1.987 2.024 1.103 3.689 2.768 4.792 4.792.427.784 1.56.784 1.987 0 1.103-2.023 2.768-3.689 4.792-4.792.783-.427.783-1.559 0-1.987z"/><path d="m28.331 42.452c2.024 1.103 3.689 2.768 4.792 4.792.427.784 1.56.784 1.987 0 1.103-2.023 2.768-3.689 4.792-4.792.784-.427.784-1.56 0-1.987-2.024-1.103-3.689-2.768-4.792-4.792-.427-.784-1.56-.784-1.987 0-1.103 2.023-2.768 3.689-4.792 4.792-.783.427-.783 1.559 0 1.987z"/></g></svg>