<svg width="20" height="21" viewBox="0 0 20 21" fill="none" xmlns="http://www.w3.org/2000/svg">
<path fill-rule="evenodd" clip-rule="evenodd" d="M9.61181 0C14.9117 0 19.2226 4.31096 19.2226 9.61082C19.2226 12.1113 18.2631 14.3918 16.6928 16.1034L19.7826 19.1868C20.0718 19.476 20.0728 19.9438 19.7836 20.233C19.6395 20.379 19.449 20.4511 19.2595 20.4511C19.071 20.4511 18.8815 20.379 18.7365 20.2349L15.6093 17.1165C13.9643 18.4339 11.8785 19.2226 9.61181 19.2226C4.31194 19.2226 0 14.9107 0 9.61082C0 4.31096 4.31194 0 9.61181 0ZM9.61181 1.48041C5.12814 1.48041 1.48041 5.12715 1.48041 9.61082C1.48041 14.0945 5.12814 17.7422 9.61181 17.7422C14.0945 17.7422 17.7422 14.0945 17.7422 9.61082C17.7422 5.12715 14.0945 1.48041 9.61181 1.48041Z" fill="#25004C"/>
</svg>
