<svg height="512pt" viewBox="0 -39 512.00029 512" width="512pt" xmlns="http://www.w3.org/2000/svg"><path d="m235.214844 34.710938v11.140624c15.460937-1.046874 23.738281.207032 24.597656.347657 4.976562.8125 9.226562 4.027343 11.367188 8.589843l21.726562 46.304688c2.628906.613281 5.132812 1.910156 7.203125 3.929688 2.621094 2.554687 5.757813 4.554687 9.3125 5.421874 7.097656 1.730469 14.140625-.242187 19.117187-5.082031 5.136719-4.992187 12.972657-6.261719 19.027344-2.433593 8.65625 5.46875 9.585938 17.054687 2.796875 23.84375-9.578125 9.582031-22.316406 14.859374-35.867187 14.859374-.871094 0-1.738282-.023437-2.605469-.066406l29.207031 62.253906c1.234375 2.625 2.402344 5.269532 3.511719 7.925782 32.886719-10.371094 70.292969-2.667969 96.429687 23.171875 5.84375 5.773437 6.492188 15.203125 1.03125 21.34375-3.050781 3.429687-7.246093 5.144531-11.441406 5.144531-3.910156 0-7.824218-1.492188-10.804687-4.476562-17.714844-17.710938-43.148438-23.097657-65.570313-16.1875 8.503906 33.90625 7.9375 68.898437-.839844 101.710937 4.132813 1.367187 8.339844 2.585937 12.613282 3.648437 4.960937 1.230469 10.144531 1.242188 15.109375.015626 76.433593-18.90625 130.863281-87.644532 130.863281-167.28125v-144.125c0-7.136719-4.40625-13.535157-11.085938-16.046876-21.050781-7.910156-61.734374-18.664062-127.300781-18.664062-65.570312 0-106.257812 10.757812-127.3125 18.667969-6.679687 2.507812-11.085937 8.90625-11.085937 16.042969zm168.972656 70.449218c5.96875-5.96875 15.644531-5.96875 21.617188 0 3.804687 3.804688 8.863281 5.902344 14.246093 5.902344 5.382813 0 10.445313-2.097656 14.25-5.902344 5.96875-5.972656 15.648438-5.972656 21.617188 0 5.96875 5.96875 5.96875 15.644532 0 21.613282-9.582031 9.582031-22.316407 14.859374-35.867188 14.859374-13.546875 0-26.285156-5.277343-35.867187-14.859374-5.964844-5.96875-5.964844-15.644532.003906-21.613282zm0 0"/><path d="m313.425781 216.804688-61.542969-131.171876c-2.832031-6.039062-9.105468-9.675781-15.757812-9.171874-22.222656 1.679687-63.90625 9.050781-123.945312 37.21875-59.363282 27.851562-91.628907 54.871093-107.328126 70.972656-4.980468 5.109375-6.253906 12.773437-3.222656 19.234375l61.214844 130.480469c33.824219 72.09375 112.304688 111.207031 189.535156 95.855468 4.992188-.992187 9.664063-3.183594 13.617188-6.390625 61.171875-49.578125 81.253906-134.929687 47.429687-207.027343zm-123.679687-9.777344c9.503906-26.304688 38.636718-39.976563 64.941406-30.46875 7.9375 2.867187 12.046875 11.628906 9.179688 19.570312-2.867188 7.9375-11.628907 12.050782-19.570313 9.179688-10.449219-3.773438-22.023437 1.65625-25.800781 12.105468-2.25 6.226563-8.117188 10.097657-14.375 10.097657-1.726563 0-3.480469-.292969-5.195313-.914063-7.9375-2.871094-12.050781-11.632812-9.179687-19.570312zm-59.113282 51.609375c-5.0625-1.828125-10.535156-1.578125-15.410156.710937-4.871094 2.285156-8.5625 6.332032-10.390625 11.394532-2.25 6.226562-8.121093 10.097656-14.378906 10.097656-1.722656 0-3.476563-.296875-5.191406-.914063-7.941407-2.867187-12.050781-11.628906-9.183594-19.570312 4.605469-12.742188 13.894531-22.929688 26.160156-28.683594 12.269531-5.753906 26.039063-6.390625 38.78125-1.785156 7.941407 2.867187 12.050781 11.628906 9.183594 19.570312-2.871094 7.9375-11.632813 12.046875-19.570313 9.179688zm51.324219 99.914062c-10.800781 0-21.773437-1.835937-32.503906-5.714843-7.941406-2.867188-12.050781-11.628907-9.183594-19.570313 2.871094-7.9375 11.628907-12.050781 19.570313-9.179687 33.894531 12.246093 71.433594-5.367188 83.679687-39.257813 2.867188-7.941406 11.628907-12.050781 19.570313-9.183594 7.9375 2.871094 12.046875 11.632813 9.179687 19.574219-14.097656 39.011719-51.035156 63.332031-90.3125 63.332031zm0 0"/></svg>