<svg width="184" height="140" viewBox="0 0 184 140" fill="none" xmlns="http://www.w3.org/2000/svg">
<path d="M65.7566 36.3119C81.9635 12.5807 104.592 20.0497 118.163 28.0052C137.623 39.4192 154.102 66.7712 137.41 94.5091C125.205 114.797 99.8705 135.12 73.346 115.133C44.1486 93.1466 43.5318 68.8594 65.7566 36.3119Z" fill="#378FED"/>
<path opacity="0.9" d="M65.7566 36.3119C81.9635 12.5807 104.592 20.0497 118.163 28.0052C137.623 39.4192 154.102 66.7712 137.41 94.5091C125.205 114.797 99.8705 135.12 73.346 115.133C44.1486 93.1466 43.5318 68.8594 65.7566 36.3119Z" fill="white"/>
<path opacity="0.3" d="M137.41 34.2237C137.135 32.5949 136.767 30.9849 136.308 29.4025L136.676 29.2906C137.133 30.8891 137.5 32.5144 137.777 34.158L137.41 34.2237Z" fill="#378FED"/>
<path opacity="0.3" d="M135.156 25.8899C133.969 22.7819 132.443 19.8297 130.606 17.093L130.907 16.8691C132.756 19.6264 134.292 22.6006 135.486 25.7317L135.156 25.8899Z" fill="#378FED"/>
<path opacity="0.3" d="M136.455 49.0152C137.387 43.587 137.284 38.0182 136.15 32.6325C135.017 27.2467 132.877 22.1516 129.854 17.643C126.831 13.1345 122.986 9.30262 118.542 6.37005C114.098 3.43748 109.144 1.46274 103.968 0.560612C82.8962 -3.11797 62.654 11.689 58.6152 33.7566C57.285 40.9853 57.8037 48.4557 60.1183 55.4048C62.4328 62.3538 66.4602 68.5326 71.7892 73.31C73.2652 74.6569 74.3805 76.3861 75.0246 78.326C75.6687 80.2658 75.8191 82.3491 75.461 84.3689L74.991 87.1018C74.638 89.1615 75.0775 91.2842 76.2129 93.0034C77.3483 94.7225 79.0866 95.8972 81.0456 96.2693L94.7301 98.8478C96.6893 99.2189 98.7085 98.7568 100.344 97.5632C101.979 96.3696 103.096 94.5422 103.45 92.4827L103.92 89.7459C104.264 87.7137 105.108 85.8114 106.367 84.2277C107.626 82.6439 109.257 81.4338 111.099 80.7174C117.59 78.2206 123.347 73.9803 127.795 68.4184C132.244 62.8565 135.23 56.1669 136.455 49.0152Z" fill="#378FED"/>
<path d="M84.5153 30.6862C90.2362 30.5445 94.7647 25.554 94.6299 19.5397C94.4951 13.5254 89.748 8.76472 84.0271 8.90645C78.3061 9.04819 73.7777 14.0387 73.9125 20.053C74.0473 26.0673 78.7943 30.828 84.5153 30.6862Z" fill="white"/>
<path d="M102.454 18.4557C104.468 17.8186 105.609 15.586 105.003 13.4691C104.397 11.3522 102.273 10.1526 100.259 10.7897C98.2458 11.4268 97.1047 13.6594 97.7107 15.7763C98.3168 17.8932 100.44 19.0928 102.454 18.4557Z" fill="white"/>
<path d="M54.9288 38.5855C54.7635 39.4154 54.58 40.3379 54.4184 41.2103C54.2568 42.0826 54.11 42.9781 53.9815 43.8466C53.853 44.7151 53.7612 45.5682 53.7208 46.3556C53.6987 46.7416 53.7208 47.1276 53.7208 47.4442C53.7208 47.7607 53.7869 48.0193 53.7722 48.0502L53.607 47.7337C53.5298 47.6565 53.394 47.5831 53.3683 47.6179C53.3426 47.6526 53.4344 47.7105 53.5959 47.7568C54.0789 47.8619 54.5747 47.8854 55.0646 47.8263C55.6808 47.7739 56.2938 47.6849 56.9005 47.56C57.5247 47.4442 58.1929 47.2743 58.7987 47.1431L58.9089 47.1199C59.2049 47.051 59.5143 47.0902 59.7863 47.2311C60.0582 47.3719 60.2763 47.606 60.4046 47.8948C60.533 48.1835 60.5639 48.5096 60.4922 48.8192C60.4205 49.1289 60.2506 49.4036 60.0104 49.598C59.4058 50.0865 58.7662 50.5253 58.0974 50.9104C57.4125 51.3087 56.6963 51.6444 55.9568 51.914C55.0999 52.2356 54.1974 52.4027 53.2875 52.4081C52.6769 52.4038 52.0721 52.2822 51.5031 52.0491C50.7681 51.7474 50.131 51.2303 49.6672 50.5592C49.6195 50.4864 49.5766 50.4103 49.5387 50.3314L49.4983 50.2542C49.1768 49.5815 48.9528 48.862 48.8337 48.1197C48.7414 47.5376 48.6874 46.9494 48.6722 46.3595C48.6401 45.2993 48.6757 44.238 48.7787 43.1827C48.8668 42.1598 49.01 41.1639 49.1715 40.1796C49.3331 39.1953 49.5387 38.2496 49.7957 37.2267C49.992 36.5489 50.4269 35.9752 51.0116 35.6228C51.5964 35.2704 52.287 35.1657 52.9426 35.3302C53.5982 35.4946 54.1695 35.9157 54.5399 36.5077C54.9104 37.0997 55.0521 37.818 54.9361 38.516L54.9288 38.5855Z" fill="#378FED"/>
<path opacity="0.2" d="M54.9288 38.5855C54.7635 39.4154 54.58 40.3379 54.4184 41.2103C54.2568 42.0826 54.11 42.9781 53.9815 43.8466C53.853 44.7151 53.7612 45.5682 53.7208 46.3556C53.6987 46.7416 53.7208 47.1276 53.7208 47.4442C53.7208 47.7607 53.7869 48.0193 53.7722 48.0502L53.607 47.7337C53.5298 47.6565 53.394 47.5831 53.3683 47.6179C53.3426 47.6526 53.4344 47.7105 53.5959 47.7568C54.0789 47.8619 54.5747 47.8854 55.0646 47.8263C55.6808 47.7739 56.2938 47.6849 56.9005 47.56C57.5247 47.4442 58.1929 47.2743 58.7987 47.1431L58.9089 47.1199C59.2049 47.051 59.5143 47.0902 59.7863 47.2311C60.0582 47.3719 60.2763 47.606 60.4046 47.8948C60.533 48.1835 60.5639 48.5096 60.4922 48.8192C60.4205 49.1289 60.2506 49.4036 60.0104 49.598C59.4058 50.0865 58.7662 50.5253 58.0974 50.9104C57.4125 51.3087 56.6963 51.6444 55.9568 51.914C55.0999 52.2356 54.1974 52.4027 53.2875 52.4081C52.6769 52.4038 52.0721 52.2822 51.5031 52.0491C50.7681 51.7474 50.131 51.2303 49.6672 50.5592C49.6195 50.4864 49.5766 50.4103 49.5387 50.3314L49.4983 50.2542C49.1768 49.5815 48.9528 48.862 48.8337 48.1197C48.7414 47.5376 48.6874 46.9494 48.6722 46.3595C48.6401 45.2993 48.6757 44.238 48.7787 43.1827C48.8668 42.1598 49.01 41.1639 49.1715 40.1796C49.3331 39.1953 49.5387 38.2496 49.7957 37.2267C49.992 36.5489 50.4269 35.9752 51.0116 35.6228C51.5964 35.2704 52.287 35.1657 52.9426 35.3302C53.5982 35.4946 54.1695 35.9157 54.5399 36.5077C54.9104 37.0997 55.0521 37.818 54.9361 38.516L54.9288 38.5855Z" fill="black"/>
<path d="M46.7078 106.792C46.7078 106.792 45.0262 104.642 45.107 103.924L43.1646 102.766L41.8942 104.862L43.4804 105.807L43.7815 105.726L43.9651 106.112C44.7779 106.657 45.6659 107.065 46.5977 107.324C46.6618 107.255 46.7061 107.169 46.7256 107.075C46.7451 106.98 46.7389 106.882 46.7078 106.792Z" fill="#378FED"/>
<path d="M48.6979 79.7717C50.1445 68.8788 49.6745 62.2589 51.191 56.8896L60.6016 56.0944C60.6016 56.0944 56.4305 73.3564 54.5175 80.5437C52.6046 87.731 45.2685 104.19 45.2685 104.19L42.6983 102.646C42.6983 102.646 46.1497 88.1788 48.6979 79.7717Z" fill="#263238"/>
<path d="M56.3717 64.131C55.7328 65.675 54.4845 75.6762 54.4881 80.6672C54.4881 80.6286 54.4881 80.59 54.5175 80.5514C55.1894 78.0231 56.1404 74.248 57.0877 70.4112L56.3717 64.131Z" fill="black"/>
<path d="M63.8106 106.622C63.8106 106.622 59.8488 106.02 59.5624 105.356H57.0877L57.2052 107.838H58.5821L58.8061 107.61L59.1439 107.838C60.2454 107.838 63.4324 107.513 64.0676 107.066C64.0651 106.975 64.0401 106.886 63.995 106.808C63.95 106.73 63.8864 106.666 63.8106 106.622Z" fill="#378FED"/>
<path d="M57.0363 80.0573C54.9691 65.2967 54.9691 56.1601 54.9691 56.1601L64.1777 56.0018C64.1777 56.0018 63.0762 73.6073 62.687 80.9799C62.2868 88.6458 60.0104 105.518 60.0104 105.518H56.8013C56.8013 105.518 56.067 89.5375 57.0363 80.0573Z" fill="#263238"/>
<path d="M55.7475 28.3835C55.3216 30.3135 55.0132 32.8341 54.4661 34.27C55.395 35.1771 56.9004 36.3042 58.9089 36.2733C60.9173 36.2424 60.5501 34.8181 60.0104 34.0808C58.5711 33.3088 58.516 32.5368 58.8685 31.8691L55.7475 28.3835Z" fill="#7F3E3B"/>
<path d="M52.5972 34.7448C53.1368 34.2351 53.7125 33.7693 54.3192 33.3513C54.8259 33.085 58.7253 33.1737 59.6175 33.3513C60.5097 33.5289 61.6222 34.9416 61.6222 34.9416L52.5972 34.7448Z" fill="white"/>
<path d="M62.0886 28.1403C62.0445 28.3294 62.1106 28.5263 62.2281 28.5263C62.3456 28.5263 62.4778 28.4221 62.5182 28.2291C62.5586 28.0361 62.4961 27.8624 62.375 27.8431C62.2538 27.8238 62.129 27.9512 62.0886 28.1403Z" fill="#263238"/>
<path d="M62.0188 28.4066C62.112 29.0375 62.2875 29.6519 62.5402 30.2324C62.3959 30.2959 62.2404 30.3263 62.084 30.3216C61.9276 30.317 61.774 30.2774 61.6333 30.2054L62.0188 28.4066Z" fill="#630F0F"/>
<path d="M62.7165 27.0441C62.7005 27.0525 62.6829 27.057 62.665 27.057C62.6472 27.057 62.6296 27.0525 62.6136 27.0441C62.49 26.9821 62.354 26.9526 62.2172 26.958C62.0803 26.9634 61.9468 27.0035 61.8279 27.0749C61.8036 27.0899 61.7747 27.0944 61.7473 27.0877C61.7199 27.0809 61.696 27.0634 61.6805 27.0387C61.6649 27.014 61.659 26.984 61.6639 26.9548C61.6688 26.9257 61.6841 26.8996 61.7067 26.8819C61.8558 26.7899 62.0239 26.7372 62.1965 26.7285C62.3692 26.7197 62.5413 26.7552 62.6981 26.8318C62.725 26.8445 62.7462 26.8677 62.7571 26.8965C62.7681 26.9253 62.768 26.9574 62.7568 26.9862C62.7472 27.0081 62.7334 27.0278 62.7165 27.0441Z" fill="#263238"/>
<path d="M56.067 26.1987C55.6998 28.5726 55.3767 29.9429 56.2506 31.3981C57.5614 33.5906 60.5465 33.1429 61.5782 30.9272C62.5071 28.9316 62.9477 25.3881 60.9577 23.9599C60.5175 23.6441 60.0083 23.4508 59.4778 23.3981C58.9472 23.3455 58.4126 23.4352 57.924 23.6588C57.4354 23.8825 57.0087 24.2328 56.684 24.677C56.3592 25.1212 56.1469 25.6448 56.067 26.1987Z" fill="#7F3E3B"/>
<path d="M59.7607 29.6573C57.3337 31.2206 55.8834 30.8577 55.2812 29.9275C54.2935 28.4066 55.2812 27.5536 55.2812 27.5536C54.1099 27.596 53.7795 25.473 54.5946 24.7435C53.8603 23.9715 54.3486 22.1727 55.6006 22.4507C55.4978 21.1228 57.4695 19.8143 59.3678 21.2077C60.9246 20.3508 63.0873 20.9916 63.616 22.4931C64.1447 23.9947 63.3516 24.6393 63.3516 24.6393C63.8216 25.1758 62.9844 26.797 61.4937 26.7353C61.2294 27.5767 61.1266 28.2407 60.1682 28.2793C59.9443 29.3755 60.1903 29.2713 59.7607 29.6573Z" fill="#263238"/>
<path d="M59.1769 28.1364C59.0415 28.6298 59.0914 29.159 59.3164 29.6148C59.6138 30.1784 60.1976 29.9198 60.4767 29.3099C60.73 28.7618 60.8842 27.8045 60.4106 27.4571C59.9369 27.1097 59.3421 27.5034 59.1769 28.1364Z" fill="#7F3E3B"/>
<path d="M52.7257 34.4784C56.2027 34.0625 59.7161 34.1196 63.1791 34.6483C63.9038 34.7843 64.5652 35.1692 65.0595 35.7426C65.5538 36.3161 65.8533 37.0458 65.9109 37.8173C66.278 42.515 65.2867 50.7252 64.4422 58.9933C57.5504 61.4251 50.5521 58.9586 50.5521 58.9586C50.3979 57.291 51.2534 51.8291 51.7858 48.9226C51.3966 45.9118 50.4015 42.4609 49.8398 38.462C49.7753 38.0004 49.7991 37.53 49.91 37.0783C50.0208 36.6266 50.2164 36.2028 50.4853 35.8317C50.7541 35.4606 51.0908 35.1497 51.4756 34.9173C51.8603 34.6849 52.2854 34.5357 52.7257 34.4784Z" fill="#378FED"/>
<path opacity="0.2" d="M62.0886 41.0559C62.5549 43.8852 64.0456 47.255 65.3931 49.4861C65.5803 47.5329 65.7382 45.6686 65.8373 43.9547L62.0886 41.0559Z" fill="black"/>
<path d="M79.6173 43.9933L78.9344 43.7154C78.8078 43.6643 78.6715 43.6457 78.5368 43.6612C78.402 43.6766 78.2727 43.7257 78.1596 43.8042L77.0838 44.5492C76.8723 44.6958 76.6972 44.8935 76.5732 45.1259C76.4493 45.3583 76.3801 45.6185 76.3715 45.8847V46.2205C77.473 46.7609 79.0445 46.4907 79.0445 46.4907L79.4998 46.4676C79.5937 46.4651 79.6862 46.4431 79.7719 46.4029C79.8577 46.3627 79.935 46.3051 79.9995 46.2333C80.064 46.1616 80.1144 46.0771 80.1477 45.9848C80.1811 45.8926 80.1967 45.7943 80.1938 45.6956L80.1607 44.746C80.1498 44.5785 80.0926 44.418 79.9961 44.2843C79.8995 44.1505 79.7678 44.0494 79.6173 43.9933Z" fill="#7F3E3B"/>
<path d="M65.4996 36.6439C65.8667 37.4159 66.2339 38.2535 66.6231 39.0486C67.0123 39.8438 67.4052 40.6467 67.8054 41.4148C68.2056 42.183 68.6352 42.9202 69.0611 43.5726C69.2741 43.8968 69.4944 44.1902 69.689 44.4333C69.8836 44.6765 70.0562 44.8502 70.0819 44.8811L69.7698 44.746C70.1059 44.9078 70.4723 44.9883 70.8419 44.9815C71.4029 44.9935 71.9639 44.96 72.5199 44.8811C73.122 44.8039 73.7389 44.6881 74.3557 44.5569C74.9726 44.4256 75.6372 44.2674 76.243 44.14L76.3458 44.1168C76.6418 44.0479 76.9513 44.0871 77.2232 44.228C77.4951 44.3688 77.7132 44.6029 77.8416 44.8917C77.9699 45.1804 78.0008 45.5065 77.9291 45.8161C77.8574 46.1258 77.6875 46.4005 77.4473 46.5949C76.8657 47.0729 76.2522 47.5063 75.6115 47.8919C74.9608 48.2846 74.2847 48.6289 73.5884 48.9225C72.8284 49.2434 72.0382 49.4789 71.2311 49.625C70.2474 49.8235 69.2339 49.7892 68.2644 49.5247C68.195 49.5054 68.1274 49.4795 68.0624 49.4475L67.9523 49.3896C67.309 49.0597 66.7172 48.6289 66.1972 48.1119C65.7853 47.7117 65.4012 47.2808 65.048 46.8227C64.4055 46.0049 63.8167 45.1421 63.2855 44.2403C62.7605 43.3757 62.2942 42.4956 61.8536 41.6117C61.413 40.7277 61.0127 39.8477 60.6309 38.8711C60.4882 38.5378 60.4093 38.1782 60.3987 37.8129C60.3882 37.4475 60.4462 37.0836 60.5695 36.7418C60.8184 36.0516 61.3179 35.4936 61.9582 35.1906C62.5985 34.8876 63.327 34.8643 63.9836 35.126C64.3087 35.2556 64.6063 35.4512 64.8595 35.7017C65.1127 35.9522 65.3165 36.2527 65.4592 36.586L65.4996 36.6439Z" fill="#378FED"/>
<path d="M67.9817 107.838H36.4674V110.555H67.9817V107.838Z" fill="#263238"/>
<path d="M64.3099 122.494H32.7957V125.212H64.3099V122.494Z" fill="#263238"/>
<path d="M60.6383 137.151H29.124V139.868H60.6383V137.151Z" fill="#263238"/>
<path d="M67.9817 107.838H67.2693V139.868H67.9817V107.838Z" fill="#263238"/>
<path d="M58.9052 139.868H59.6176L66.5717 107.838H65.8557L58.9052 139.868Z" fill="#263238"/>
<path d="M41.0056 107.838H40.2933V139.868H41.0056V107.838Z" fill="#263238"/>
<path d="M31.9291 139.868H32.6415L39.5957 107.838H38.8797L31.9291 139.868Z" fill="#263238"/>
<path d="M106.994 101.646C103.77 101.26 102.411 104.263 104.743 105.738C107.074 107.212 100.704 111.713 103.74 114.095C106.777 116.476 110.471 121.564 112.582 116.75C114.693 111.937 108.973 109.416 111.543 107.077C114.113 104.738 110.647 97.9793 106.994 101.646Z" fill="#E0E0E0"/>
<path d="M112.582 116.847C112.566 116.847 112.551 116.843 112.537 116.835C112.524 116.827 112.513 116.815 112.505 116.801C112.493 116.778 112.489 116.751 112.495 116.726C112.501 116.701 112.517 116.679 112.538 116.666C113.254 116.226 113.669 115.72 113.801 115.122C114.054 113.964 113.221 112.659 112.417 111.381C111.44 109.837 110.43 108.224 111.587 107.054C112.295 106.336 112.519 105.205 112.204 103.943C111.837 102.445 110.808 101.241 109.67 100.924C108.73 100.674 107.776 101.048 106.913 102.009C106.896 102.027 106.873 102.037 106.849 102.037C106.824 102.037 106.801 102.027 106.784 102.009C106.775 102 106.768 101.989 106.763 101.977C106.759 101.965 106.756 101.953 106.756 101.94C106.756 101.927 106.759 101.914 106.763 101.902C106.768 101.89 106.775 101.879 106.784 101.87C107.933 100.593 109.017 100.546 109.722 100.735C110.926 101.056 111.994 102.326 112.391 103.889C112.725 105.221 112.479 106.421 111.723 107.189C110.676 108.247 111.602 109.718 112.578 111.269C113.404 112.582 114.256 113.937 113.984 115.164C113.841 115.816 113.401 116.361 112.637 116.832C112.62 116.842 112.601 116.847 112.582 116.847Z" fill="#E0E0E0"/>
<path d="M99.9549 127.481L106.641 128.771C107.247 132.445 105.727 137.17 99.7162 137.17C92.4022 137.17 85.4369 135.695 86.4724 132.152C87.7244 127.91 99.9549 127.481 99.9549 127.481Z" fill="#263238"/>
<path opacity="0.2" d="M99.9549 127.481L106.641 128.771C107.247 132.445 105.727 137.17 99.7162 137.17C92.4022 137.17 85.4369 135.695 86.4724 132.152C87.7244 127.91 99.9549 127.481 99.9549 127.481Z" fill="black"/>
<path d="M106.81 133.812C108.179 135.031 110.61 137.378 110.28 137.652C108.664 139.007 106.938 136.031 105.183 136.494C105.433 135.167 106.81 133.812 106.81 133.812Z" fill="#263238"/>
<path d="M109.839 128.771C110.445 132.445 108.925 138.39 102.914 138.39C93.0594 138.39 87.3058 138.556 86.5054 134.954C85.705 131.353 99.8264 130.948 99.8264 130.948C99.4463 130.333 99.1981 129.638 99.0992 128.912C99.0003 128.186 99.053 127.446 99.2536 126.744C105.764 126.864 109.839 128.771 109.839 128.771Z" fill="#263238"/>
<path d="M103.153 115.716C102.76 116.488 102.349 117.136 101.912 117.824C101.468 118.501 100.991 119.154 100.484 119.781C99.962 120.429 99.3963 121.037 98.7909 121.599C98.4726 121.895 98.1379 122.17 97.7886 122.425C97.6123 122.556 97.4214 122.679 97.2305 122.811L96.9331 122.988C96.7712 123.081 96.6016 123.159 96.4264 123.22C95.8064 123.418 95.1445 123.418 94.5244 123.22C94.0598 123.078 93.6135 122.877 93.1953 122.622C92.4872 122.174 91.8274 121.647 91.2273 121.051C90.1017 119.94 89.0957 118.702 88.2275 117.36C88.1127 117.187 88.0625 116.974 88.0865 116.764C88.1105 116.554 88.207 116.36 88.3577 116.22C88.5084 116.08 88.7029 116.002 88.9042 116.003C89.1056 116.003 89.2998 116.081 89.4502 116.222L89.4759 116.249C90.5259 117.242 91.6292 118.171 92.7804 119.032C93.3077 119.428 93.8696 119.77 94.4584 120.055C94.6919 120.168 94.9389 120.247 95.1927 120.29C95.3946 120.321 95.4938 120.29 95.4644 120.267C95.435 120.244 95.435 120.267 95.4644 120.267L95.637 120.14C95.7508 120.047 95.8683 119.958 95.9858 119.854C96.2134 119.649 96.4447 119.429 96.6724 119.19C97.135 118.69 97.5702 118.163 97.9758 117.611C98.3907 117.048 98.7983 116.453 99.1838 115.855C99.5694 115.257 99.9549 114.612 100.285 114.037L100.311 113.994C100.537 113.611 100.895 113.335 101.311 113.225C101.727 113.115 102.167 113.179 102.539 113.403C102.91 113.627 103.184 113.995 103.303 114.428C103.422 114.861 103.376 115.326 103.175 115.724L103.153 115.716Z" fill="#FFC3BD"/>
<path d="M101.809 112.898C99.6318 113.354 97.8841 117.252 97.8841 117.252L101.28 121.274C101.28 121.274 103.083 118.611 103.428 117.376C103.773 116.141 103.057 112.636 101.809 112.898Z" fill="#378FED"/>
<path d="M86.3512 116.237L86.6082 115.125C86.6228 115.062 86.6493 115.002 86.686 114.949C86.7228 114.897 86.7692 114.852 86.8225 114.818C86.8758 114.784 86.9349 114.762 86.9964 114.753C87.058 114.743 87.1207 114.746 87.181 114.763L87.9447 114.963C88.2416 115.041 88.5083 115.214 88.7084 115.457L89.9458 116.959L89.3363 118.009C88.7747 117.919 88.2341 117.718 87.7428 117.418L86.5935 116.797C86.4989 116.746 86.4234 116.663 86.3794 116.561C86.3354 116.46 86.3255 116.345 86.3512 116.237Z" fill="#FFC3BD"/>
<path d="M101.809 112.898C104.522 112.308 106.63 111.968 109.56 113.284C110.325 113.631 110.956 114.239 111.351 115.009C111.747 115.78 111.884 116.668 111.741 117.53C111.091 121.564 109.938 125.119 109.839 128.782C103.072 131.723 99.1434 129.099 99.2535 126.756C100.851 122.359 99.7088 117.349 100.282 114.898C100.575 113.635 100.913 113.095 101.809 112.898Z" fill="#378FED"/>
<path d="M107.35 107.757C107.093 109.139 106.773 111.953 107.691 112.871C106.329 113.932 105.049 115.104 103.862 116.376C102.393 114.095 103.605 112.856 103.605 112.856C105.073 112.47 105.099 111.08 104.842 110.007L107.35 107.757Z" fill="#FFC3BD"/>
<path opacity="0.2" d="M106.329 108.675L104.86 110.007C104.922 110.26 104.963 110.519 104.985 110.779C105.547 110.694 106.424 110.192 106.546 109.555C106.545 109.248 106.471 108.945 106.329 108.675Z" fill="black"/>
<path d="M110.316 107.116C109.123 109.046 108.657 109.907 107.14 110.366C104.857 111.061 102.848 109.092 103.469 106.819C104.027 104.769 105.885 101.94 108.183 102.245C108.69 102.31 109.173 102.511 109.586 102.828C109.998 103.145 110.327 103.568 110.54 104.056C110.754 104.544 110.846 105.081 110.806 105.616C110.767 106.152 110.599 106.668 110.316 107.116Z" fill="#FFC3BD"/>
<path opacity="0.2" d="M107.24 105.904C107.339 105.909 107.435 105.937 107.523 105.985C107.611 106.033 107.689 106.1 107.75 106.182C107.563 106.127 107.39 106.032 107.24 105.904Z" fill="black"/>
<path opacity="0.2" d="M107.192 106.054C107.281 106.083 107.363 106.132 107.431 106.199C107.499 106.266 107.552 106.349 107.585 106.44C107.429 106.343 107.295 106.211 107.192 106.054Z" fill="black"/>
<path opacity="0.2" d="M106.41 103.156C106.936 103.376 107.419 103.697 107.834 104.101C107.331 103.836 106.854 103.519 106.41 103.156Z" fill="black"/>
<path d="M106.795 101.92C107.823 104.267 108.94 105.078 109.399 105.317C107.886 106.089 107.948 108.139 109.476 108.675C111.003 109.212 111.436 106.02 111.389 104.846C111.341 103.673 109.362 101.114 106.795 101.92Z" fill="#E0E0E0"/>
<path d="M104.563 107.077C105.484 107.205 106.395 107.408 107.287 107.683C106.92 108.123 106.377 108.417 105.363 108.127C104.35 107.838 104.563 107.077 104.563 107.077Z" fill="white"/>
<path d="M106.979 105.846C106.894 106.012 106.74 106.093 106.637 106.035C106.535 105.977 106.524 105.792 106.612 105.63C106.7 105.468 106.854 105.383 106.953 105.441C107.052 105.499 107.067 105.684 106.979 105.846Z" fill="#263238"/>
<path d="M105.22 104.808C105.132 104.97 104.978 105.055 104.879 104.993C104.78 104.931 104.765 104.75 104.853 104.607C104.941 104.464 105.092 104.36 105.194 104.422C105.297 104.483 105.308 104.642 105.22 104.808Z" fill="#263238"/>
<path d="M105.235 104.437L104.923 104.101C104.923 104.101 104.948 104.522 105.235 104.437Z" fill="#263238"/>
<path d="M105.606 105.421C105.271 105.711 104.9 105.953 104.504 106.139C104.6 106.46 105 106.576 105 106.576L105.606 105.421Z" fill="#ED847E"/>
<path d="M109.89 109.108C109.527 109.339 109.092 109.41 108.679 109.305C108.132 109.158 108.139 108.575 108.525 108.185C108.91 107.795 109.575 107.49 110.012 107.842C110.103 107.923 110.173 108.025 110.218 108.142C110.263 108.258 110.28 108.384 110.268 108.508C110.256 108.633 110.215 108.752 110.15 108.857C110.084 108.961 109.995 109.047 109.89 109.108Z" fill="#FFC3BD"/>
<path d="M107.812 105.599C107.792 105.589 107.775 105.574 107.764 105.553C107.753 105.533 107.748 105.51 107.75 105.487C107.744 105.307 107.704 105.13 107.63 104.968C107.557 104.805 107.453 104.66 107.324 104.541C107.314 104.531 107.306 104.519 107.301 104.506C107.296 104.493 107.293 104.478 107.293 104.464C107.293 104.45 107.296 104.436 107.301 104.422C107.306 104.409 107.314 104.397 107.324 104.387C107.334 104.377 107.345 104.368 107.358 104.363C107.37 104.357 107.384 104.354 107.397 104.354C107.411 104.354 107.425 104.357 107.437 104.363C107.45 104.368 107.461 104.377 107.471 104.387C107.627 104.527 107.753 104.701 107.839 104.897C107.925 105.093 107.97 105.306 107.97 105.522C107.969 105.536 107.965 105.55 107.958 105.562C107.952 105.575 107.943 105.586 107.932 105.595C107.922 105.604 107.91 105.611 107.897 105.615C107.884 105.619 107.87 105.62 107.856 105.618L107.812 105.599Z" fill="#263238"/>
<path d="M105.081 103.599C105.063 103.596 105.046 103.588 105.032 103.576C105.017 103.564 105.006 103.548 105 103.53C104.995 103.516 104.992 103.502 104.992 103.487C104.993 103.472 104.996 103.458 105.002 103.444C105.008 103.431 105.016 103.419 105.026 103.409C105.037 103.399 105.049 103.392 105.062 103.387C105.216 103.32 105.383 103.294 105.548 103.309C105.714 103.324 105.873 103.382 106.013 103.476C106.036 103.493 106.051 103.519 106.056 103.548C106.061 103.576 106.055 103.606 106.039 103.63C106.022 103.653 105.997 103.668 105.97 103.672C105.943 103.676 105.915 103.67 105.892 103.654C105.78 103.581 105.653 103.537 105.521 103.526C105.389 103.516 105.257 103.538 105.136 103.592C105.118 103.6 105.099 103.603 105.081 103.599Z" fill="#263238"/>
<path d="M106.994 105.475L106.681 105.143C106.681 105.143 106.711 105.564 106.994 105.475Z" fill="#263238"/>
<path d="M84.1886 108.266C83.959 108.285 83.7366 108.358 83.538 108.481C83.3395 108.603 83.1701 108.772 83.0427 108.974C82.9153 109.175 82.8332 109.405 82.8028 109.645C82.7723 109.885 82.7942 110.129 82.8668 110.358C84.1886 114.415 88.5139 117.16 93.3936 116.735C98.2733 116.31 102.11 112.848 102.778 108.629C102.814 108.39 102.797 108.145 102.729 107.914C102.661 107.682 102.544 107.47 102.387 107.293C102.229 107.117 102.036 106.98 101.82 106.894C101.605 106.807 101.374 106.774 101.145 106.796L84.1886 108.266Z" fill="#263238"/>
<path d="M111.253 117.005C110.856 117.777 110.449 118.422 110.012 119.105C109.57 119.782 109.095 120.434 108.587 121.058C108.069 121.705 107.507 122.312 106.905 122.872C106.589 123.166 106.257 123.441 105.91 123.695C105.734 123.826 105.543 123.949 105.356 124.081L105.059 124.254L104.824 124.382C104.726 124.428 104.625 124.468 104.523 124.501C104.081 124.643 103.61 124.653 103.164 124.528C102.813 124.423 102.484 124.249 102.195 124.015C101.792 123.677 101.443 123.273 101.163 122.818C100.716 122.091 100.347 121.315 100.061 120.502C99.5254 118.995 99.1331 117.436 98.8901 115.847C98.8587 115.64 98.9001 115.428 99.0067 115.25C99.1132 115.072 99.2776 114.942 99.4691 114.882C99.6606 114.823 99.8662 114.838 100.047 114.926C100.229 115.014 100.373 115.169 100.454 115.361V115.388C101.016 116.758 101.629 118.148 102.29 119.41C102.594 120.009 102.952 120.577 103.359 121.105C103.494 121.287 103.658 121.444 103.843 121.568C103.895 121.595 103.913 121.568 103.843 121.568C103.753 121.54 103.658 121.54 103.568 121.568C103.552 121.567 103.536 121.567 103.52 121.568C103.52 121.568 103.48 121.591 103.52 121.568L103.696 121.444C103.81 121.352 103.928 121.259 104.042 121.159C104.273 120.95 104.501 120.73 104.728 120.491C105.19 119.992 105.624 119.466 106.028 118.916C106.439 118.352 106.843 117.758 107.229 117.167C107.614 116.577 107.996 115.924 108.33 115.353L108.356 115.311C108.574 114.911 108.934 114.619 109.357 114.498C109.78 114.378 110.232 114.439 110.612 114.668C110.992 114.897 111.27 115.276 111.385 115.721C111.5 116.166 111.442 116.64 111.223 117.04L111.253 117.005Z" fill="#FFC3BD"/>
<path d="M109.96 113.933C107.757 113.952 105.984 118.538 105.984 118.538L109.376 122.564C109.376 122.564 111.183 119.9 111.528 118.665C111.873 117.43 111.62 113.921 109.96 113.933Z" fill="#378FED"/>
<path d="M97.6674 113.798L98.4385 112.914C98.482 112.863 98.5347 112.822 98.5935 112.792C98.6523 112.763 98.7161 112.747 98.7811 112.744C98.8461 112.741 98.911 112.752 98.9719 112.776C99.0329 112.8 99.0887 112.836 99.1361 112.883L99.7419 113.469C99.9769 113.699 100.138 114 100.205 114.33L100.619 116.361L99.5547 117.001C99.0827 116.621 98.6829 116.151 98.376 115.616L97.6197 114.438C97.559 114.341 97.5307 114.225 97.5394 114.109C97.548 113.993 97.593 113.884 97.6674 113.798Z" fill="#FFC3BD"/>
<path d="M109.193 109.494C109.19 109.596 109.159 109.696 109.102 109.78C109.046 109.864 108.968 109.929 108.877 109.966C108.786 110.004 108.687 110.013 108.591 109.992C108.496 109.971 108.408 109.921 108.339 109.848C108.271 109.775 108.224 109.683 108.204 109.582C108.185 109.481 108.194 109.377 108.231 109.282C108.267 109.187 108.329 109.105 108.41 109.046C108.49 108.988 108.585 108.956 108.683 108.953C108.75 108.951 108.818 108.964 108.881 108.99C108.944 109.017 109.001 109.056 109.049 109.107C109.097 109.158 109.135 109.218 109.159 109.285C109.184 109.351 109.195 109.422 109.193 109.494Z" fill="white"/>
</svg>
