<svg width="62" height="62" viewBox="0 0 62 62" fill="none" xmlns="http://www.w3.org/2000/svg">
<rect width="62" height="62" rx="31" fill="#C0DDFF"/>
<path d="M39.6289 32.2511C39.7841 32.2631 39.9394 32.2752 40.0826 32.2872C39.9871 32.2752 39.9035 32.2752 39.808 32.2631C39.7483 32.2631 39.6886 32.2631 39.6289 32.2511Z" fill="#ED2C85"/>
<path d="M33.145 31.4927C33.6585 31.264 34.1719 31.0593 34.6853 30.8667C34.1719 31.0473 33.6585 31.2519 33.145 31.4927Z" fill="#4361EE"/>
<path d="M38.124 29.8677C38.5061 29.7834 38.8763 29.7112 39.2464 29.651C38.8763 29.7232 38.5061 29.7955 38.124 29.8677Z" fill="#4361EE"/>
<path d="M38.1244 29.8677C36.9901 30.1084 35.8438 30.4335 34.6855 30.8548C35.8438 30.4335 36.9901 30.1084 38.1244 29.8677Z" fill="#4361EE"/>
<path d="M31.2583 32.4318C31.5688 32.2633 31.8792 32.0947 32.1777 31.9382C31.8912 31.9382 31.8912 31.9382 32.1777 31.9382C31.8673 32.0947 31.5688 32.2633 31.2583 32.4318Z" fill="#4361EE"/>
<path d="M30.3391 32.9734C30.0287 33.166 29.7302 33.3586 29.4316 33.5633C29.7302 33.3707 30.0287 33.166 30.3391 32.9734Z" fill="#4361EE"/>
<path d="M41.981 42.3634C42.1123 42.4477 42.2317 42.5199 42.3511 42.6042C42.2317 42.5199 42.1123 42.4356 41.981 42.3634Z" fill="#4361EE"/>
<path d="M38.3032 40.5697C38.6256 40.678 38.9361 40.7984 39.2346 40.9188C38.9361 40.7984 38.6256 40.678 38.3032 40.5697Z" fill="#4361EE"/>
<path d="M39.7007 41.1234C39.8559 41.1956 39.9992 41.2558 40.1425 41.3281C39.9992 41.2558 39.844 41.1836 39.7007 41.1234Z" fill="#4361EE"/>
<path d="M39.2466 40.9188C39.4018 40.979 39.5451 41.0512 39.7003 41.1114C39.5451 41.0512 39.4018 40.9911 39.2466 40.9188Z" fill="#4361EE"/>
<path d="M37.0854 40.2327C37.2526 40.2688 37.4198 40.3169 37.575 40.353C37.4198 40.3049 37.2526 40.2688 37.0854 40.2327Z" fill="#4361EE"/>
<path d="M34.793 39.9557C35.0557 39.9557 35.3184 39.9677 35.5691 39.9918C35.3064 39.9677 35.0557 39.9557 34.793 39.9557Z" fill="#4361EE"/>
<path d="M35.8198 40.0159C35.987 40.0399 36.1661 40.064 36.3333 40.0881C36.1661 40.052 35.9989 40.0279 35.8198 40.0159Z" fill="#4361EE"/>
<path d="M37.5278 28.2906C37.3845 28.1702 37.2532 28.0498 37.1099 27.9174C35.7725 26.7015 34.4949 25.2208 33.4561 23.2465C33.3725 23.1021 33.3008 22.9456 33.2292 22.8011C33.0382 22.4039 32.8471 21.9946 32.6799 21.5612C32.6083 21.3926 32.5486 21.2121 32.4769 21.0315C32.2023 20.2851 31.9635 19.4906 31.7605 18.6238C31.7247 18.4553 31.6889 18.2868 31.6411 18.1182C31.2351 16.2282 31.0083 14.0372 31.0083 11.4971C31.0083 8.63203 29.1694 10.0646 26.8052 13.4714C26.6977 13.6279 26.5783 13.7965 26.4709 13.953C25.4798 15.4337 24.3932 17.2274 23.3424 19.1656C23.2588 19.31 23.1872 19.4424 23.1156 19.5869C22.1961 21.2843 21.3006 23.09 20.4648 24.8958C20.3812 25.0884 20.2856 25.281 20.2021 25.4736C19.4617 27.1229 18.7811 28.7601 18.2319 30.301C18.2199 30.3371 18.208 30.3732 18.196 30.3973C18.0169 30.9029 17.8737 31.3363 17.7542 31.6734C17.599 32.1429 17.5035 32.4679 17.4677 32.5642C17.408 32.7568 17.3602 32.9494 17.3005 33.13C17.0617 33.9606 16.8826 34.7431 16.7632 35.4534C20.1185 37.1508 24.1663 37.4758 28.5127 34.2014C28.8112 33.9727 29.1097 33.756 29.4202 33.5513C29.7306 33.3467 30.0291 33.142 30.3277 32.9615C30.5187 32.8411 30.8411 32.6485 31.2471 32.4197C31.7128 32.1549 32.3456 31.8299 33.1337 31.4687C32.6561 31.4567 32.0829 31.4446 31.462 31.4326C32.0232 31.4446 32.5844 31.4567 33.1337 31.4687C33.6471 31.24 34.1606 31.0353 34.674 30.8427C35.8322 30.4214 36.9785 30.0963 38.1129 29.8556C38.495 29.7713 38.8651 29.6991 39.2353 29.6389C38.686 29.2296 38.101 28.7842 37.5278 28.2906ZM22.4349 31.0835C22.4708 31.0714 22.4946 31.0714 22.5305 31.0594C22.9364 31.0955 23.3544 31.1316 23.7842 31.1557C23.5574 31.1437 23.032 31.1196 22.4349 31.0835ZM23.9036 31.1677C23.9036 31.1677 23.8917 31.1677 23.8798 31.1677C23.9633 31.1677 24.035 31.1798 24.1186 31.1798C24.1783 31.1798 24.238 31.1918 24.2977 31.1918C24.1305 31.1798 24.0469 31.1798 23.9036 31.1677ZM25.3723 31.252C25.3484 31.252 25.3246 31.252 25.3126 31.252C25.9574 31.2881 26.6141 31.3122 27.2948 31.3363C26.8171 31.3122 25.9932 31.2881 25.3723 31.252Z" fill="#4895EF"/>
<path d="M42.3632 42.6042C42.2438 42.5199 42.1125 42.4477 41.9931 42.3634C41.4199 42.0022 40.811 41.6531 40.1542 41.3281C40.0109 41.2559 39.8557 41.1836 39.7124 41.1234C39.5572 41.0512 39.4139 40.991 39.2587 40.9308C38.9482 40.8105 38.6378 40.6901 38.3273 40.5817C38.0885 40.4975 37.8497 40.4252 37.5989 40.365C37.4318 40.3169 37.2766 40.2808 37.1094 40.2447C36.8586 40.1845 36.6079 40.1363 36.3571 40.1002C36.19 40.0761 36.0228 40.052 35.8437 40.028C35.7601 40.0159 35.6765 40.0039 35.581 40.0039C35.3183 39.9798 35.0675 39.9678 34.8049 39.9678C34.6257 39.9678 34.4586 39.9678 34.2795 39.9798C34.1004 39.9919 33.9213 40.0039 33.7541 40.0159C33.6705 40.028 33.575 40.04 33.4914 40.052C33.3123 40.0761 33.1332 40.1002 32.9541 40.1363C32.8705 40.1483 32.775 40.1724 32.6914 40.1965C32.4287 40.2567 32.1541 40.3289 31.8914 40.4132C31.6167 40.4975 31.354 40.5938 31.0794 40.7141C30.8048 40.8225 30.5421 40.9549 30.2674 41.0994C29.8137 41.3401 29.3719 41.6291 28.9301 41.9541C28.7271 42.1106 28.5241 42.255 28.3211 42.3875C31.1988 42.6042 34.1004 42.9533 36.6795 43.7237C36.7512 43.5672 36.8467 43.4348 36.9422 43.3024C37.6109 43.507 38.2557 43.7358 38.8766 44.0006C38.2557 43.7358 37.6109 43.507 36.9422 43.3024C36.8347 43.4348 36.7512 43.5672 36.6795 43.7237C34.1004 42.9533 31.1988 42.6042 28.3211 42.3875C25.0972 44.5784 21.8374 45.2526 19.103 45.2767C21.6941 49.1289 26.0644 51.669 31.0316 51.669C35.4496 51.669 39.4139 49.6586 42.0528 46.4925C42.1602 46.3721 42.2558 46.2397 42.3513 46.1193C42.9364 45.373 43.4498 44.5664 43.8797 43.6996C43.4021 43.3265 42.9006 42.9653 42.3632 42.6042Z" fill="#3F37C9"/>
<path d="M43.2229 32.6485C43.008 32.4559 42.7811 32.2513 42.5304 32.0587C41.5632 31.2762 40.4288 30.5298 39.2467 29.651C38.8766 29.7112 38.5064 29.8075 38.1243 29.8677C36.9899 30.0483 35.8675 30.4696 34.6854 30.8548C34.1242 31.0354 31.3659 32.2513 31.1152 32.468C30.8525 32.6967 30.6376 32.781 30.3271 32.9736C30.0167 33.1662 29.7181 33.3588 29.4196 33.5635C29.1211 33.7681 28.8107 33.9848 28.5122 34.2135C24.1658 37.5 20.1179 37.1749 16.7626 35.4775C16.6552 36.0915 16.6074 36.6453 16.6074 37.1388C16.6074 38.439 16.7746 39.691 17.097 40.8827C17.1447 41.0633 17.1925 41.2319 17.2522 41.4124C17.6701 42.7968 18.291 44.0849 19.0791 45.2647C21.8135 45.2406 25.0852 44.5665 28.2972 42.3755C28.5002 42.231 28.7032 42.0866 28.9062 41.9421C29.348 41.605 29.8017 41.3282 30.2435 41.0874C30.5182 40.9429 30.7809 40.8105 31.0555 40.7022C31.3301 40.5938 31.5928 40.4855 31.8674 40.4012C32.1421 40.3169 32.4048 40.2447 32.6675 40.1845C32.751 40.1604 32.8466 40.1484 32.9302 40.1243C33.1093 40.0882 33.2884 40.0641 33.4675 40.0401C33.5511 40.028 33.6466 40.016 33.7302 40.004C33.9093 39.9919 34.0884 39.9678 34.2556 39.9678C34.4347 39.9558 34.6018 39.9558 34.7809 39.9558C35.0436 39.9558 35.3063 39.9678 35.5571 39.9919C35.6407 40.004 35.7242 40.004 35.8198 40.016C35.9869 40.0401 36.166 40.0641 36.3332 40.0882C36.584 40.1243 36.8347 40.1725 37.0855 40.2327C37.2526 40.2688 37.4198 40.3169 37.575 40.3531C37.8258 40.4253 38.0646 40.4975 38.3034 40.5698C38.6258 40.6781 38.9363 40.7985 39.2348 40.9189C39.39 40.9791 39.5333 41.0513 39.6885 41.1115C39.8437 41.1837 39.987 41.2439 40.1303 41.3161C40.787 41.6291 41.4079 41.9903 41.9692 42.3514C42.1005 42.4357 42.2199 42.5079 42.3393 42.5922C42.8886 42.9533 43.3901 43.3265 43.8199 43.6636C44.1901 42.9293 44.4886 42.1708 44.7394 41.3763C44.7991 41.1957 44.8468 41.0152 44.8946 40.8346C45.205 39.6548 45.3722 38.4029 45.3722 37.1268C45.3842 35.1766 44.5244 33.8403 43.2229 32.6485ZM39.6288 32.2513C39.6885 32.2513 39.7482 32.2633 39.8079 32.2633C39.9034 32.2754 39.987 32.2754 40.0825 32.2874C39.9393 32.2754 39.784 32.2633 39.6288 32.2513Z" fill="#4361EE"/>
</svg>
