<svg width="62" height="62" viewBox="0 0 62 62" fill="none" xmlns="http://www.w3.org/2000/svg">
<rect width="62" height="62" rx="31" fill="#F9F9F9"/>
<path d="M39.6284 32.2511C39.7836 32.2631 39.9389 32.2752 40.0822 32.2872C39.9866 32.2752 39.9031 32.2752 39.8075 32.2631C39.7478 32.2631 39.6881 32.2631 39.6284 32.2511Z" fill="#ED2C85"/>
<path d="M33.1445 31.4927C33.658 31.264 34.1714 31.0593 34.6849 30.8667C34.1714 31.0473 33.658 31.2519 33.1445 31.4927Z" fill="#4361EE"/>
<path d="M38.1235 29.8677C38.5056 29.7834 38.8758 29.7112 39.2459 29.651C38.8758 29.7232 38.5056 29.7955 38.1235 29.8677Z" fill="#4361EE"/>
<path d="M38.1239 29.8677C36.9896 30.1084 35.8433 30.4335 34.6851 30.8548C35.8433 30.4335 36.9896 30.1084 38.1239 29.8677Z" fill="#4361EE"/>
<path d="M31.2578 32.4318C31.5683 32.2633 31.8787 32.0947 32.1772 31.9382C31.8907 31.9382 31.8907 31.9382 32.1772 31.9382C31.8668 32.0947 31.5683 32.2633 31.2578 32.4318Z" fill="#4361EE"/>
<path d="M30.3386 32.9734C30.0282 33.166 29.7297 33.3586 29.4312 33.5633C29.7297 33.3707 30.0282 33.166 30.3386 32.9734Z" fill="#4361EE"/>
<path d="M41.9805 42.3634C42.1118 42.4477 42.2312 42.5199 42.3506 42.6042C42.2312 42.5199 42.1118 42.4356 41.9805 42.3634Z" fill="#4361EE"/>
<path d="M38.3027 40.5697C38.6251 40.678 38.9356 40.7984 39.2341 40.9188C38.9356 40.7984 38.6251 40.678 38.3027 40.5697Z" fill="#4361EE"/>
<path d="M39.7002 41.1234C39.8554 41.1956 39.9987 41.2558 40.142 41.3281C39.9987 41.2558 39.8435 41.1836 39.7002 41.1234Z" fill="#4361EE"/>
<path d="M39.2461 40.9188C39.4013 40.979 39.5446 41.0512 39.6998 41.1114C39.5446 41.0512 39.4013 40.9911 39.2461 40.9188Z" fill="#4361EE"/>
<path d="M37.085 40.2327C37.2521 40.2688 37.4193 40.3169 37.5745 40.353C37.4193 40.3049 37.2521 40.2688 37.085 40.2327Z" fill="#4361EE"/>
<path d="M34.7925 39.9557C35.0552 39.9557 35.3179 39.9677 35.5686 39.9918C35.3059 39.9677 35.0552 39.9557 34.7925 39.9557Z" fill="#4361EE"/>
<path d="M35.8193 40.0159C35.9865 40.0399 36.1656 40.064 36.3328 40.0881C36.1656 40.052 35.9984 40.0279 35.8193 40.0159Z" fill="#4361EE"/>
<path d="M37.5273 28.2906C37.384 28.1702 37.2527 28.0498 37.1094 27.9174C35.7721 26.7015 34.4944 25.2208 33.4556 23.2465C33.372 23.1021 33.3004 22.9456 33.2287 22.8011C33.0377 22.4039 32.8466 21.9946 32.6795 21.5612C32.6078 21.3926 32.5481 21.2121 32.4765 21.0315C32.2018 20.2851 31.963 19.4906 31.76 18.6238C31.7242 18.4553 31.6884 18.2868 31.6406 18.1182C31.2346 16.2282 31.0078 14.0372 31.0078 11.4971C31.0078 8.63203 29.1689 10.0646 26.8047 13.4714C26.6972 13.6279 26.5778 13.7965 26.4704 13.953C25.4793 15.4337 24.3927 17.2274 23.3419 19.1656C23.2584 19.31 23.1867 19.4424 23.1151 19.5869C22.1956 21.2843 21.3001 23.09 20.4643 24.8958C20.3807 25.0884 20.2852 25.281 20.2016 25.4736C19.4613 27.1229 18.7806 28.7601 18.2314 30.301C18.2194 30.3371 18.2075 30.3732 18.1956 30.3973C18.0165 30.9029 17.8732 31.3363 17.7538 31.6734C17.5985 32.1429 17.503 32.4679 17.4672 32.5642C17.4075 32.7568 17.3597 32.9494 17.3 33.13C17.0612 33.9606 16.8821 34.7431 16.7627 35.4534C20.118 37.1508 24.1658 37.4758 28.5122 34.2014C28.8107 33.9727 29.1092 33.756 29.4197 33.5513C29.7301 33.3467 30.0286 33.142 30.3272 32.9615C30.5182 32.8411 30.8406 32.6485 31.2466 32.4197C31.7123 32.1549 32.3451 31.8299 33.1332 31.4687C32.6556 31.4567 32.0824 31.4446 31.4615 31.4326C32.0227 31.4446 32.5839 31.4567 33.1332 31.4687C33.6466 31.24 34.1601 31.0353 34.6735 30.8427C35.8318 30.4214 36.9781 30.0963 38.1124 29.8556C38.4945 29.7713 38.8647 29.6991 39.2348 29.6389C38.6855 29.2296 38.1005 28.7842 37.5273 28.2906ZM22.4345 31.0835C22.4703 31.0714 22.4942 31.0714 22.53 31.0594C22.936 31.0955 23.3539 31.1316 23.7837 31.1557C23.5569 31.1437 23.0315 31.1196 22.4345 31.0835ZM23.9031 31.1677C23.9031 31.1677 23.8912 31.1677 23.8793 31.1677C23.9628 31.1677 24.0345 31.1798 24.1181 31.1798C24.1778 31.1798 24.2375 31.1918 24.2972 31.1918C24.13 31.1798 24.0464 31.1798 23.9031 31.1677ZM25.3718 31.252C25.348 31.252 25.3241 31.252 25.3121 31.252C25.9569 31.2881 26.6137 31.3122 27.2943 31.3363C26.8166 31.3122 25.9927 31.2881 25.3718 31.252Z" fill="#4895EF"/>
<path d="M42.3627 42.6042C42.2433 42.5199 42.112 42.4477 41.9926 42.3634C41.4194 42.0022 40.8105 41.6531 40.1537 41.3281C40.0104 41.2559 39.8552 41.1836 39.7119 41.1234C39.5567 41.0512 39.4134 40.991 39.2582 40.9308C38.9477 40.8105 38.6373 40.6901 38.3268 40.5817C38.088 40.4975 37.8492 40.4252 37.5985 40.365C37.4313 40.3169 37.2761 40.2808 37.1089 40.2447C36.8581 40.1845 36.6074 40.1363 36.3566 40.1002C36.1895 40.0761 36.0223 40.052 35.8432 40.028C35.7596 40.0159 35.676 40.0039 35.5805 40.0039C35.3178 39.9798 35.0671 39.9678 34.8044 39.9678C34.6253 39.9678 34.4581 39.9678 34.279 39.9798C34.0999 39.9919 33.9208 40.0039 33.7536 40.0159C33.67 40.028 33.5745 40.04 33.4909 40.052C33.3118 40.0761 33.1327 40.1002 32.9536 40.1363C32.87 40.1483 32.7745 40.1724 32.6909 40.1965C32.4282 40.2567 32.1536 40.3289 31.8909 40.4132C31.6162 40.4975 31.3535 40.5938 31.0789 40.7141C30.8043 40.8225 30.5416 40.9549 30.267 41.0994C29.8132 41.3401 29.3714 41.6291 28.9296 41.9541C28.7266 42.1106 28.5236 42.255 28.3206 42.3875C31.1983 42.6042 34.0999 42.9533 36.679 43.7237C36.7507 43.5672 36.8462 43.4348 36.9417 43.3024C37.6104 43.507 38.2552 43.7358 38.8761 44.0006C38.2552 43.7358 37.6104 43.507 36.9417 43.3024C36.8343 43.4348 36.7507 43.5672 36.679 43.7237C34.0999 42.9533 31.1983 42.6042 28.3206 42.3875C25.0967 44.5784 21.8369 45.2526 19.1025 45.2767C21.6936 49.1289 26.0639 51.669 31.0312 51.669C35.4492 51.669 39.4134 49.6586 42.0523 46.4925C42.1597 46.3721 42.2553 46.2397 42.3508 46.1193C42.9359 45.373 43.4493 44.5664 43.8792 43.6996C43.4016 43.3265 42.9001 42.9653 42.3627 42.6042Z" fill="#3F37C9"/>
<path d="M43.2224 32.6485C43.0075 32.4559 42.7806 32.2513 42.5299 32.0587C41.5627 31.2762 40.4283 30.5298 39.2462 29.651C38.8761 29.7112 38.5059 29.8075 38.1238 29.8677C36.9895 30.0483 35.867 30.4696 34.6849 30.8548C34.1237 31.0354 31.3655 32.2513 31.1147 32.468C30.852 32.6967 30.6371 32.781 30.3266 32.9736C30.0162 33.1662 29.7177 33.3588 29.4191 33.5635C29.1206 33.7681 28.8102 33.9848 28.5117 34.2135C24.1653 37.5 20.1175 37.1749 16.7622 35.4775C16.6547 36.0915 16.6069 36.6453 16.6069 37.1388C16.6069 38.439 16.7741 39.691 17.0965 40.8827C17.1443 41.0633 17.192 41.2319 17.2517 41.4124C17.6696 42.7968 18.2906 44.0849 19.0786 45.2647C21.813 45.2406 25.0847 44.5665 28.2967 42.3755C28.4997 42.231 28.7027 42.0866 28.9057 41.9421C29.3475 41.605 29.8012 41.3282 30.243 41.0874C30.5177 40.9429 30.7804 40.8105 31.055 40.7022C31.3296 40.5938 31.5923 40.4855 31.867 40.4012C32.1416 40.3169 32.4043 40.2447 32.667 40.1845C32.7506 40.1604 32.8461 40.1484 32.9297 40.1243C33.1088 40.0882 33.2879 40.0641 33.467 40.0401C33.5506 40.028 33.6461 40.016 33.7297 40.004C33.9088 39.9919 34.0879 39.9678 34.2551 39.9678C34.4342 39.9558 34.6013 39.9558 34.7805 39.9558C35.0431 39.9558 35.3058 39.9678 35.5566 39.9919C35.6402 40.004 35.7238 40.004 35.8193 40.016C35.9864 40.0401 36.1656 40.0641 36.3327 40.0882C36.5835 40.1243 36.8342 40.1725 37.085 40.2327C37.2521 40.2688 37.4193 40.3169 37.5745 40.3531C37.8253 40.4253 38.0641 40.4975 38.3029 40.5698C38.6253 40.6781 38.9358 40.7985 39.2343 40.9189C39.3895 40.9791 39.5328 41.0513 39.688 41.1115C39.8432 41.1837 39.9865 41.2439 40.1298 41.3161C40.7866 41.6291 41.4075 41.9903 41.9687 42.3514C42.1 42.4357 42.2194 42.5079 42.3388 42.5922C42.8881 42.9533 43.3896 43.3265 43.8195 43.6636C44.1896 42.9293 44.4881 42.1708 44.7389 41.3763C44.7986 41.1957 44.8463 41.0152 44.8941 40.8346C45.2046 39.6548 45.3717 38.4029 45.3717 37.1268C45.3837 35.1766 44.5239 33.8403 43.2224 32.6485ZM39.6283 32.2513C39.688 32.2513 39.7477 32.2633 39.8074 32.2633C39.903 32.2754 39.9865 32.2754 40.0821 32.2874C39.9388 32.2754 39.7835 32.2633 39.6283 32.2513Z" fill="#4361EE"/>
</svg>
