<svg width="19" height="18" viewBox="0 0 19 18" fill="none" xmlns="http://www.w3.org/2000/svg">
<path d="M15.4853 3.34313C13.8805 1.83216 11.7468 1 9.4772 1C7.20764 1 5.07394 1.83216 3.46908 3.34313C1.86429 4.85416 0.980469 6.86313 0.980469 9C0.980469 11.1369 1.86429 13.1458 3.46908 14.6569C5.07394 16.1678 7.20764 17 9.4772 17C11.7468 17 13.8805 16.1678 15.4853 14.6569C17.0901 13.1458 17.9739 11.1369 17.9739 9C17.9739 6.86313 17.0901 4.85416 15.4853 3.34313ZM9.4772 1.9375C11.3664 1.9375 13.0945 2.59878 14.4148 3.68809L12.0977 5.86975C11.3763 5.33322 10.4658 5.01256 9.4772 5.01256C8.48862 5.01256 7.57811 5.33322 6.85672 5.86975L4.5396 3.68809C5.85985 2.59878 7.58797 1.9375 9.4772 1.9375ZM12.7165 9C12.7165 10.6818 11.2634 12.0499 9.4772 12.0499C7.69103 12.0499 6.23789 10.6818 6.23789 9C6.23789 7.31825 7.69103 5.95006 9.4772 5.95006C11.2634 5.95006 12.7165 7.31825 12.7165 9ZM1.97618 9C1.97618 7.22119 2.67855 5.59409 3.83554 4.351L6.15265 6.53266C5.58278 7.21191 5.24218 8.06919 5.24218 9.00003C5.24218 9.93081 5.58274 10.7881 6.15259 11.4673L3.83547 13.649C2.67852 12.4059 1.97618 10.7788 1.97618 9ZM9.4772 16.0625C7.58794 16.0625 5.85982 15.4012 4.5395 14.3118L6.85662 12.1302C7.57805 12.6667 8.48856 12.9874 9.47717 12.9874C10.4658 12.9874 11.3763 12.6668 12.0977 12.1302L14.4149 14.3118C13.0946 15.4012 11.3665 16.0625 9.4772 16.0625ZM15.1189 13.6489L12.8018 11.4673C13.3717 10.788 13.7122 9.93078 13.7122 9C13.7122 8.06919 13.3717 7.21191 12.8018 6.53266L15.1189 4.351C16.2758 5.59409 16.9782 7.22119 16.9782 9C16.9782 10.7788 16.2759 12.4059 15.1189 13.6489Z" fill="#606060" stroke="#606060" stroke-width="0.25"/>
</svg>
