<svg width="13" height="15" viewBox="0 0 13 15" fill="none" xmlns="http://www.w3.org/2000/svg">
<path d="M6.66861 14.3126C6.25137 14.3126 5.86967 14.1863 5.56116 13.9763H7.77604C7.46753 14.1863 7.08584 14.3126 6.66861 14.3126Z" stroke="#606060" stroke-linejoin="round"/>
<path d="M6.7413 0.5C7.18877 0.5 7.56442 0.710837 7.78431 1.01611C7.42263 0.94988 7.04955 0.915203 6.66851 0.915203C6.28758 0.915203 5.9147 0.949764 5.55327 1.01576C5.7732 0.710677 6.14873 0.5 6.59606 0.5H6.7413Z" stroke="#606060" stroke-linejoin="round"/>
<path d="M11.3432 11.1163C11.543 11.5137 11.7495 11.7918 11.9246 11.9819H1.41253C1.5876 11.7919 1.79419 11.5138 1.99394 11.1163C2.70583 9.7001 2.83615 7.77435 2.83615 6.48122C2.83615 4.54726 4.51987 2.90955 6.66844 2.90955C8.81186 2.90955 10.4928 4.53942 10.5007 6.46713L10.5008 6.47801L10.501 6.48546C10.5013 7.77856 10.6321 9.70162 11.3432 11.1163ZM11.3432 11.1163L11.9017 10.8356L11.3432 11.1163Z" stroke="#606060" stroke-width="1.25"/>
</svg>
